<?xml version="1.0" encoding="UTF-8"?>
<svg version="1.1" xmlns="http://www.w3.org/2000/svg" width="88" height="88">
<path d="M0 0 C1.02432129 -0.00636475 2.04864258 -0.01272949 3.10400391 -0.01928711 C10.48111895 0.10790453 10.48111895 0.10790453 12.61352539 1.93994141 C13.26889282 2.71217041 13.26889282 2.71217041 13.9375 3.5 C15.37689425 4.48655111 16.83697462 5.44335428 18.3125 6.375 C25.7932996 11.31401423 34.98446325 19.4183791 36.9375 28.5 C37.9275 29.49 37.9275 29.49 38.9375 30.5 C38.9375 31.16 38.9375 31.82 38.9375 32.5 C39.5975 33.16 40.2575 33.82 40.9375 34.5 C40.5625 36.625 40.5625 36.625 39.9375 38.5 C40.2675 38.5 40.5975 38.5 40.9375 38.5 C41.30673077 44.9 41.30673077 44.9 39.4375 47.9375 C38.9425 48.453125 38.4475 48.96875 37.9375 49.5 C38.5975 49.5 39.2575 49.5 39.9375 49.5 C39.1875 55.25 39.1875 55.25 36.9375 57.5 C36.751875 58.7065625 36.751875 58.7065625 36.5625 59.9375 C35.77635914 63.16067753 34.55753452 63.61685019 31.9375 65.5 C31.57587971 66.82594105 31.24021961 68.15938457 30.9375 69.5 C29.9475 70.16 28.9575 70.82 27.9375 71.5 C26.3711506 73.2662221 24.9101782 75.09672339 23.4375 76.94140625 C21.9375 78.5 21.9375 78.5 18.9375 79.5 C18.6075 79.83 18.2775 80.16 17.9375 80.5 C14.38313541 82.41388862 10.65187199 83.92853493 6.9375 85.5 C5.9475 84.51 5.9475 84.51 4.9375 83.5 C4.2775 84.16 3.6175 84.82 2.9375 85.5 C-3.78772518 86.21344042 -11.72825811 86.15583684 -18.0625 83.5 C-18.7225 82.51 -19.3825 81.52 -20.0625 80.5 C-22.62532742 79.77034634 -22.62532742 79.77034634 -25.0625 79.5 C-25.0625 78.84 -25.0625 78.18 -25.0625 77.5 C-27.0347487 75.80950112 -28.88558323 74.58087624 -31.25 73.5 C-33.0625 72.5 -33.0625 72.5 -34.0625 69.5 C-36.56697516 68.28130071 -36.56697516 68.28130071 -39.0625 67.5 C-38.0725 67.005 -38.0725 67.005 -37.0625 66.5 C-37.0625 65.84 -37.0625 65.18 -37.0625 64.5 C-38.0525 64.5 -39.0425 64.5 -40.0625 64.5 C-40.145 63.613125 -40.2275 62.72625 -40.3125 61.8125 C-40.8047376 58.43115887 -40.8047376 58.43115887 -43.0625 56.1875 C-45.78023491 52.53554371 -46.10900182 49.00137593 -46.0625 44.5 C-45.5675 44.005 -45.5675 44.005 -45.0625 43.5 C-45.34854898 41.82457024 -45.68031233 40.15614657 -46.0625 38.5 C-45.4025 38.5 -44.7425 38.5 -44.0625 38.5 C-44.3925 36.52 -44.7225 34.54 -45.0625 32.5 C-44.4025 32.5 -43.7425 32.5 -43.0625 32.5 C-43.3925 30.52 -43.7225 28.54 -44.0625 26.5 C-43.0725 26.5 -42.0825 26.5 -41.0625 26.5 C-40.9078125 25.39785156 -40.9078125 25.39785156 -40.75 24.2734375 C-38.45816164 15.02795321 -29.22730126 8.77463322 -21.62890625 3.95703125 C-14.5830478 0.3062744 -7.78214593 0.04270616 0 0 Z M38.9375 40.5 C38.9375 42.15 38.9375 43.8 38.9375 45.5 C39.2675 45.5 39.5975 45.5 39.9375 45.5 C39.9375 43.85 39.9375 42.2 39.9375 40.5 C39.6075 40.5 39.2775 40.5 38.9375 40.5 Z M-45.0625 45.5 C-44.0625 48.5 -44.0625 48.5 -44.0625 48.5 Z " fill="#DCB342" transform="translate(47.0625,2.5)"/>
<path d="M0 0 C8.25749526 0.18962933 14.51724615 1.98648765 20.75390625 7.5703125 C24.69942791 11.82237845 26.92842815 16.62609889 29 22 C30.65 21.67 32.3 21.34 34 21 C33.01 20.67 32.02 20.34 31 20 C30.3125 17.9375 30.3125 17.9375 30 16 C30.99 15.67 31.98 15.34 33 15 C33.66 15.33 34.32 15.66 35 16 C35 16.99 35 17.98 35 19 C35.99 18.67 36.98 18.34 38 18 C37.34 15.03 36.68 12.06 36 9 C37.32 9.66 38.64 10.32 40 11 C40 12.32 40 13.64 40 15 C40.66 15.66 41.32 16.32 42 17 C42 17.66 42 18.32 42 19 C42.99 19.99 42.99 19.99 44 21 C43.625 23.125 43.625 23.125 43 25 C43.33 25 43.66 25 44 25 C44.36923077 31.4 44.36923077 31.4 42.5 34.4375 C42.005 34.953125 41.51 35.46875 41 36 C41.66 36 42.32 36 43 36 C42.25 41.75 42.25 41.75 40 44 C39.814375 45.2065625 39.814375 45.2065625 39.625 46.4375 C38.83885914 49.66067753 37.62003452 50.11685019 35 52 C34.63837971 53.32594105 34.30271961 54.65938457 34 56 C33.01 56.66 32.02 57.32 31 58 C29.4336506 59.7662221 27.9726782 61.59672339 26.5 63.44140625 C25 65 25 65 22 66 C21.67 66.33 21.34 66.66 21 67 C17.44563541 68.91388862 13.71437199 70.42853493 10 72 C9.34 71.34 8.68 70.68 8 70 C7.01 70.99 7.01 70.99 6 72 C-0.72522518 72.71344042 -8.66575811 72.65583684 -15 70 C-15.66 69.01 -16.32 68.02 -17 67 C-19.56282742 66.27034634 -19.56282742 66.27034634 -22 66 C-22 65.01 -22 64.02 -22 63 C-21.443125 63.20496094 -20.88625 63.40992188 -20.3125 63.62109375 C-15.16382446 65.43878495 -10.43723984 66.50570547 -5 67 C-5.66 66.01 -6.32 65.02 -7 64 C-7.99 64 -8.98 64 -10 64 C-10.33 62.68 -10.66 61.36 -11 60 C-9 60 -7 60 -5 60 C-4.67 59.34 -4.34 58.68 -4 58 C-8.455 56.02 -8.455 56.02 -13 54 C-12.01 53.505 -12.01 53.505 -11 53 C-10.01 53.33 -9.02 53.66 -8 54 C1.40048858 54.74691737 10.22924691 55.14569066 18 49 C24.07122988 42.7001464 26.35899791 36.66664071 26.375 27.9375 C26.41173828 26.87692383 26.41173828 26.87692383 26.44921875 25.79492188 C26.4696534 22.16777085 26.29364285 20.3622351 23.9765625 17.50390625 C22.99816406 16.75947266 22.99816406 16.75947266 22 16 C22.33 15.67 22.66 15.34 23 15 C16.63409696 20.24458586 10.86429388 26.02097322 5.0625 31.875 C4.08291763 32.85960919 3.10310163 33.843986 2.12304688 34.828125 C-0.25360252 37.21648203 -2.62787356 39.60715212 -5 42 C-5.66 41.67 -6.32 41.34 -7 41 C-5.59234375 39.78376953 -5.59234375 39.78376953 -4.15625 38.54296875 C2.82886857 32.60260442 2.82886857 32.60260442 6.86328125 24.6875 C6.88448605 21.38743889 6.88448605 21.38743889 6 17 C2.37 20.63 -1.26 24.26 -5 28 C-5.66 27.67 -6.32 27.34 -7 27 C-6.175 26.113125 -5.35 25.22625 -4.5 24.3125 C-2.53900524 21.98692593 -2.02740522 21.25212806 -1.6875 18.125 C-1.790625 17.42375 -1.89375 16.7225 -2 16 C-3.32 15.67 -4.64 15.34 -6 15 C-2.04 14.34 1.92 13.68 6 13 C4.53489979 8.91214206 4.53489979 8.91214206 1.875 8.25 C1.25625 8.1675 0.6375 8.085 0 8 C0 5.36 0 2.72 0 0 Z M42 27 C42 28.65 42 30.3 42 32 C42.33 32 42.66 32 43 32 C43 30.35 43 28.7 43 27 C42.67 27 42.34 27 42 27 Z " fill="#B2902E" transform="translate(44,16)"/>
<path d="M0 0 C0.99 0 1.98 0 3 0 C3.12375 0.61875 3.2475 1.2375 3.375 1.875 C3.87197356 4.19120832 3.87197356 4.19120832 6 6 C7.04376667 15.40488702 6.91542486 24.17733488 1 32 C-3.25088513 36.73554661 -8.55421162 40.39514945 -14.98291016 41.26977539 C-17.0388266 41.36471342 -19.0676575 41.36111395 -21.125 41.3125 C-21.81464844 41.31572266 -22.50429688 41.31894531 -23.21484375 41.32226562 C-27.23752703 41.27996207 -30.38007807 40.76770507 -34 39 C-34 37.35 -34 35.7 -34 34 C-35.65 34 -37.3 34 -39 34 C-38.505 31.03 -38.505 31.03 -38 28 C-38.66 27.67 -39.32 27.34 -40 27 C-35.94726562 22.94726562 -35.94726562 22.94726562 -31.89453125 18.89453125 C-31.40968262 18.40960205 -30.92483398 17.92467285 -30.42529297 17.42504883 C-29.09530421 16.09528789 -27.76448107 14.76636162 -26.43359375 13.4375 C-24.80988437 11.81118434 -23.1913867 10.17964876 -21.578125 8.54296875 C-20.80984375 7.76566406 -20.0415625 6.98835938 -19.25 6.1875 C-18.47140625 5.39730469 -17.6928125 4.60710938 -16.890625 3.79296875 C-15 2 -15 2 -14 2 C-13.10163422 6.26147872 -12.96234081 9.75076215 -14 14 C-17.49736361 19.05531664 -22.34974519 23.03961815 -27 27 C-21.04588844 22.06244407 -15.57992524 16.72994783 -10.125 11.25 C-8.825625 9.95642578 -8.825625 9.95642578 -7.5 8.63671875 C-6.67757812 7.81300781 -5.85515625 6.98929688 -5.0078125 6.140625 C-4.26160645 5.39329102 -3.51540039 4.64595703 -2.74658203 3.87597656 C-0.93709898 2.10933272 -0.93709898 2.10933272 0 0 Z " fill="#EBC851" transform="translate(65,30)"/>
<path d="M0 0 C4.95 1.485 4.95 1.485 10 3 C10 3.66 10 4.32 10 5 C11.65 5 13.3 5 15 5 C15.33 4.34 15.66 3.68 16 3 C15.34 2.67 14.68 2.34 14 2 C14.99 2 15.98 2 17 2 C17.33 1.34 17.66 0.68 18 0 C18 0.66 18 1.32 18 2 C20.475 2.99 20.475 2.99 23 4 C23 4.99 23 5.98 23 7 C22.01 7.33 21.02 7.66 20 8 C19.01 7.34 18.02 6.68 17 6 C16.77011494 8.36278736 16.77011494 8.36278736 19.5 10.625 C20.325 11.40875 21.15 12.1925 22 13 C22.66 11.02 23.32 9.04 24 7 C25.8125 7.0625 25.8125 7.0625 28 8 C29.625 11.25 29.625 11.25 31 15 C31.4125 15.9075 31.825 16.815 32.25 17.75 C33 20 33 20 32 23 C31.01 23 30.02 23 29 23 C29 22.01 29 21.02 29 20 C27.35 20 25.7 20 24 20 C24.495 21.98 24.495 21.98 25 24 C25.99 23.67 26.98 23.34 28 23 C28 23.66 28 24.32 28 25 C26.68 25 25.36 25 24 25 C24 26.65 24 28.3 24 30 C22.59774715 27.27544731 21.39957034 24.52613201 20.25 21.6875 C17.16854784 14.79954811 13.18849518 9.91747941 6.234375 6.77734375 C2.24923867 5.39090646 -1.83889153 4.64804148 -6 4 C-6 6.64 -6 9.28 -6 12 C-5.21625 12.0825 -4.4325 12.165 -3.625 12.25 C-1 13 -1 13 0.3125 15 C1 17 1 17 1 18 C-1.97 18.66 -4.94 19.32 -8 20 C-7.71125 20.86625 -7.4225 21.7325 -7.125 22.625 C-7 26 -7 26 -9.0625 29.375 C-13.35373663 33.30778011 -18.66740704 32.44924317 -24.1484375 32.2109375 C-25.08945312 32.14132813 -26.03046875 32.07171875 -27 32 C-27.33 30.68 -27.66 29.36 -28 28 C-28.66 28 -29.32 28 -30 28 C-30.33 26.68 -30.66 25.36 -31 24 C-31.66 24 -32.32 24 -33 24 C-32.32658499 16.66725882 -28.2657 12.81931412 -23 8 C-16.97315925 4.02705678 -11.40902876 2.851361 -4.3125 2.9375 C-3.61060547 2.94201172 -2.90871094 2.94652344 -2.18554688 2.95117188 C-0.45699462 2.96293073 1.27151365 2.98086546 3 3 C2.01 2.67 1.02 2.34 0 2 C0 1.34 0 0.68 0 0 Z " fill="#F7D762" transform="translate(50,12)"/>
<path d="M0 0 C8.25749526 0.18962933 14.51724615 1.98648765 20.75390625 7.5703125 C24.69942791 11.82237845 26.92842815 16.62609889 29 22 C30.65 21.67 32.3 21.34 34 21 C33.01 20.67 32.02 20.34 31 20 C30.3125 17.9375 30.3125 17.9375 30 16 C30.99 15.67 31.98 15.34 33 15 C33.66 15.33 34.32 15.66 35 16 C35 16.99 35 17.98 35 19 C35.99 18.67 36.98 18.34 38 18 C37.34 15.03 36.68 12.06 36 9 C37.32 9.66 38.64 10.32 40 11 C40 12.32 40 13.64 40 15 C40.66 15.66 41.32 16.32 42 17 C42 18.32 42 19.64 42 21 C41.34 21 40.68 21 40 21 C40.02320313 22.04800781 40.04640625 23.09601562 40.0703125 24.17578125 C40.08907303 25.55468037 40.10727293 26.9335872 40.125 28.3125 C40.14175781 29.00279297 40.15851563 29.69308594 40.17578125 30.40429688 C40.21217794 34.17135396 40.14378864 35.78431704 38 39 C37.01 38.67 36.02 38.34 35 38 C34.01 38.66 33.02 39.32 32 40 C32.99 40.495 32.99 40.495 34 41 C32.68 41 31.36 41 30 41 C29.67 42.98 29.34 44.96 29 47 C28.01 47.33 27.02 47.66 26 48 C26 47.34 26 46.68 26 46 C25.01 46.99 24.02 47.98 23 49 C22.34 48.67 21.68 48.34 21 48 C21.71614583 46.33984375 22.43229167 44.6796875 23.1484375 43.01953125 C23.42945312 42.35308594 23.71046875 41.68664063 24 41 C24.35578125 40.26265625 24.7115625 39.5253125 25.078125 38.765625 C26.28302662 35.15092014 26.36809157 31.70604958 26.375 27.9375 C26.41173828 26.87692383 26.41173828 26.87692383 26.44921875 25.79492188 C26.4696534 22.16777085 26.29364285 20.3622351 23.9765625 17.50390625 C23.32429688 17.00761719 22.67203125 16.51132812 22 16 C22.33 15.67 22.66 15.34 23 15 C16.63409696 20.24458586 10.86429388 26.02097322 5.0625 31.875 C4.08291763 32.85960919 3.10310163 33.843986 2.12304688 34.828125 C-0.25360252 37.21648203 -2.62787356 39.60715212 -5 42 C-5.66 41.67 -6.32 41.34 -7 41 C-5.59234375 39.78376953 -5.59234375 39.78376953 -4.15625 38.54296875 C2.82886857 32.60260442 2.82886857 32.60260442 6.86328125 24.6875 C6.88448605 21.38743889 6.88448605 21.38743889 6 17 C0.555 22.445 0.555 22.445 -5 28 C-5.66 27.67 -6.32 27.34 -7 27 C-6.175 26.113125 -5.35 25.22625 -4.5 24.3125 C-2.53900524 21.98692593 -2.02740522 21.25212806 -1.6875 18.125 C-1.790625 17.42375 -1.89375 16.7225 -2 16 C-3.32 15.67 -4.64 15.34 -6 15 C-2.04 14.34 1.92 13.68 6 13 C4.53489979 8.91214206 4.53489979 8.91214206 1.875 8.25 C1.25625 8.1675 0.6375 8.085 0 8 C0 5.36 0 2.72 0 0 Z " fill="#DFBD47" transform="translate(44,16)"/>
<path d="M0 0 C1.02673828 -0.00708984 2.05347656 -0.01417969 3.11132812 -0.02148438 C10.6006636 0.04235914 10.6006636 0.04235914 12.74291992 1.87524414 C13.39611206 2.64856079 13.39611206 2.64856079 14.0625 3.4375 C15.50189425 4.42405111 16.96197462 5.38085428 18.4375 6.3125 C22.64435128 9.06682283 26.75757472 11.82764944 29.0625 16.4375 C28.4025 16.4375 27.7425 16.4375 27.0625 16.4375 C27.124375 17.22125 27.18625 18.005 27.25 18.8125 C27.1571875 20.111875 27.1571875 20.111875 27.0625 21.4375 C26.0725 22.0975 25.0825 22.7575 24.0625 23.4375 C24.0625 22.7775 24.0625 22.1175 24.0625 21.4375 C22.7425 20.7775 21.4225 20.1175 20.0625 19.4375 C20.0625 18.7775 20.0625 18.1175 20.0625 17.4375 C19.4025 17.1075 18.7425 16.7775 18.0625 16.4375 C19.0525 15.7775 20.0425 15.1175 21.0625 14.4375 C21.0625 15.0975 21.0625 15.7575 21.0625 16.4375 C22.7125 16.4375 24.3625 16.4375 26.0625 16.4375 C25.4025 15.4475 24.7425 14.4575 24.0625 13.4375 C23.5675 12.4475 23.5675 12.4475 23.0625 11.4375 C21.07758358 11.70426204 21.07758358 11.70426204 19.0625 12.4375 C18.7325 13.4275 18.4025 14.4175 18.0625 15.4375 C15.5875 14.9425 15.5875 14.9425 13.0625 14.4375 C13.0625 13.7775 13.0625 13.1175 13.0625 12.4375 C9.7625 11.4475 6.4625 10.4575 3.0625 9.4375 C3.0625 10.0975 3.0625 10.7575 3.0625 11.4375 C5.5375 11.9325 5.5375 11.9325 8.0625 12.4375 C4.60915439 13.5886152 2.13082779 13.39746501 -1.5 13.25 C-8.15076004 13.17403078 -13.05810643 14.40297429 -18.9375 17.4375 C-19.2675 16.1175 -19.5975 14.7975 -19.9375 13.4375 C-18.2875 12.7775 -16.6375 12.1175 -14.9375 11.4375 C-15.2675 10.7775 -15.5975 10.1175 -15.9375 9.4375 C-18.80474686 10.01094937 -19.7989515 10.2989515 -21.9375 12.4375 C-21.9375 9.7975 -21.9375 7.1575 -21.9375 4.4375 C-14.49961985 0.82076529 -8.22180346 -0.16433005 0 0 Z " fill="#C79D35" transform="translate(46.9375,2.5625)"/>
<path d="M0 0 C0.33 0.66 0.66 1.32 1 2 C0.67 2.66 0.34 3.32 0 4 C-0.9590625 3.7525 -0.9590625 3.7525 -1.9375 3.5 C-3.80826821 2.96073333 -3.80826821 2.96073333 -5 3 C-4.34 4.98 -3.68 6.96 -3 9 C-2.01 7.68 -1.02 6.36 0 5 C4.1813139 6.76726557 6.17566111 9.42711318 8.92578125 12.9296875 C14.14441267 18.13849099 19.33670422 19.62632535 26.4375 20.25 C27.53481445 20.36601563 27.53481445 20.36601563 28.65429688 20.484375 C30.43475885 20.6705671 32.21723355 20.83734664 34 21 C34 21.33 34 21.66 34 22 C30.7 22.33 27.4 22.66 24 23 C23.505 24.485 23.505 24.485 23 26 C22.34 26 21.68 26 21 26 C20.67 25.34 20.34 24.68 20 24 C19.67 24.33 19.34 24.66 19 25 C19 25.99 19 26.98 19 28 C19.99 28 20.98 28 22 28 C22.66 28.66 23.32 29.32 24 30 C26.32275177 30.40047444 28.65739357 30.7397104 31 31 C31 31.33 31 31.66 31 32 C21.13005473 32.82709039 13.00689523 30.80086372 4 27 C3.34 26.34 2.68 25.68 2 25 C0.9790625 24.5359375 0.9790625 24.5359375 -0.0625 24.0625 C-2 23 -2 23 -3 20 C-5.50447516 18.78130071 -5.50447516 18.78130071 -8 18 C-7.34 17.67 -6.68 17.34 -6 17 C-6 16.34 -6 15.68 -6 15 C-6.99 15 -7.98 15 -9 15 C-9.33 11.37 -9.66 7.74 -10 4 C-9.34 4 -8.68 4 -8 4 C-8.33 3.01 -8.66 2.02 -9 1 C-5.92677456 0.08941469 -3.19902639 -0.08886184 0 0 Z " fill="#F0DE6E" transform="translate(16,52)"/>
<path d="M0 0 C0.33 1.65 0.66 3.3 1 5 C1.66 4.34 2.32 3.68 3 3 C5.125 3.375 5.125 3.375 7 4 C7 4.66 7 5.32 7 6 C6.360625 6.45375 5.72125 6.9075 5.0625 7.375 C2.84654308 8.76360743 2.84654308 8.76360743 2.6171875 10.8203125 C1.77945172 13.77889835 0.16548415 15.27912704 -1.9375 17.5 C-4.50037009 20.21636322 -6.50729583 22.56130977 -8 26 C-8.99 26 -9.98 26 -11 26 C-11.33 26.66 -11.66 27.32 -12 28 C-13.32 28 -14.64 28 -16 28 C-16 27.34 -16 26.68 -16 26 C-15.01 26 -14.02 26 -13 26 C-13.66 25.34 -14.32 24.68 -15 24 C-18.11785113 24.64644661 -18.11785113 24.64644661 -19 27 C-22 23.25 -22 23.25 -22 21 C-21.01 21 -20.02 21 -19 21 C-18.896875 20.26523437 -18.79375 19.53046875 -18.6875 18.7734375 C-17.02996988 12.08681033 -7.45363182 0 0 0 Z " fill="#CEA532" transform="translate(25,8)"/>
<path d="M0 0 C1.32 0.66 2.64 1.32 4 2 C4 3.32 4 4.64 4 6 C4.66 6.66 5.32 7.32 6 8 C6 9.32 6 10.64 6 12 C5.34 12 4.68 12 4 12 C4.02320312 13.04800781 4.04640625 14.09601562 4.0703125 15.17578125 C4.08907303 16.55468037 4.10727293 17.9335872 4.125 19.3125 C4.15013672 20.34793945 4.15013672 20.34793945 4.17578125 21.40429688 C4.21217794 25.17135396 4.14378864 26.78431704 2 30 C1.01 29.67 0.02 29.34 -1 29 C-1.99 29.66 -2.98 30.32 -4 31 C-3.34 31.33 -2.68 31.66 -2 32 C-3.32 32 -4.64 32 -6 32 C-6.33 33.98 -6.66 35.96 -7 38 C-8.485 38.495 -8.485 38.495 -10 39 C-10 38.34 -10 37.68 -10 37 C-10.99 37.99 -11.98 38.98 -13 40 C-13.66 39.67 -14.32 39.34 -15 39 C-14.60167969 38.47535156 -14.20335938 37.95070312 -13.79296875 37.41015625 C-8.3432537 29.44110821 -7.23848311 21.36467051 -6 12 C-4.68 12 -3.36 12 -2 12 C-2.99 11.67 -3.98 11.34 -5 11 C-5.6875 8.9375 -5.6875 8.9375 -6 7 C-5.01 6.67 -4.02 6.34 -3 6 C-2.34 6.33 -1.68 6.66 -1 7 C-1 7.99 -1 8.98 -1 10 C-0.01 9.67 0.98 9.34 2 9 C1.34 6.03 0.68 3.06 0 0 Z " fill="#D7AF38" transform="translate(80,25)"/>
<path d="M0 0 C0.99 0.495 0.99 0.495 2 1 C1.67 2.32 1.34 3.64 1 5 C1.33 5 1.66 5 2 5 C2.36923077 11.4 2.36923077 11.4 0.5 14.4375 C0.005 14.953125 -0.49 15.46875 -1 16 C-0.34 16 0.32 16 1 16 C0.25 21.75 0.25 21.75 -2 24 C-2.185625 25.2065625 -2.185625 25.2065625 -2.375 26.4375 C-3.16114086 29.66067753 -4.37996548 30.11685019 -7 32 C-7.36162029 33.32594105 -7.69728039 34.65938457 -8 36 C-8.99 36.66 -9.98 37.32 -11 38 C-12.5663494 39.7662221 -14.0273218 41.59672339 -15.5 43.44140625 C-17 45 -17 45 -20 46 C-20.33 46.33 -20.66 46.66 -21 47 C-24.55436459 48.91388862 -28.28562801 50.42853493 -32 52 C-32.66 51.34 -33.32 50.68 -34 50 C-34.66 50.66 -35.32 51.32 -36 52 C-42.72522518 52.71344042 -50.66575811 52.65583684 -57 50 C-57.66 49.01 -58.32 48.02 -59 47 C-61.56282742 46.27034634 -61.56282742 46.27034634 -64 46 C-64 45.01 -64 44.02 -64 43 C-63.39671875 43.20496094 -62.7934375 43.40992188 -62.171875 43.62109375 C-61.37265625 43.89050781 -60.5734375 44.15992188 -59.75 44.4375 C-58.96109375 44.70433594 -58.1721875 44.97117188 -57.359375 45.24609375 C-47.3877945 48.43237692 -34.64692957 49.17508591 -24.94873047 44.85083008 C-14.10332059 39.22667173 -8.57020362 32.25681027 -4 21 C-2.70554433 16.15571805 -2.67491569 11.16184048 -2.48242188 6.17578125 C-2.39162093 4.44542358 -2.20355106 2.72074096 -2 1 C-1.34 0.67 -0.68 0.34 0 0 Z M0 7 C0 8.65 0 10.3 0 12 C0.33 12 0.66 12 1 12 C1 10.35 1 8.7 1 7 C0.67 7 0.34 7 0 7 Z " fill="#60532C" transform="translate(86,36)"/>
<path d="M0 0 C0.33 0 0.66 0 1 0 C1.89811986 4.26031216 2.03958463 7.75228541 1 12 C-1.81906185 16.00365041 -5.50601854 19.15701492 -9.15625 22.3828125 C-10.0946875 23.24648438 -11.033125 24.11015625 -12 25 C-12 25.66 -12 26.32 -12 27 C-12.99 27 -13.98 27 -15 27 C-15.33 26.34 -15.66 25.68 -16 25 C-18.75694758 23.81845104 -19.86770391 23.95489906 -22.75 24.9375 C-23.4925 25.288125 -24.235 25.63875 -25 26 C-23.56919855 24.33073165 -22.13778881 22.66204681 -20.703125 20.99609375 C-19.6387691 19.74864911 -18.58480777 18.4921708 -17.546875 17.22265625 C-14.29627071 13.28442413 -10.79067321 9.94771213 -6.8984375 6.64453125 C-5.205167 5.17772697 -3.6251525 3.66579953 -2.0625 2.0625 C-1.381875 1.381875 -0.70125 0.70125 0 0 Z " fill="#E3BF4F" transform="translate(50,32)"/>
<path d="M0 0 C2.125 0.9375 2.125 0.9375 4 2 C1.47179323 11.58057304 -3.15496079 18.02282727 -11 24 C-11.66 23.67 -12.32 23.34 -13 23 C-13.33 23.66 -13.66 24.32 -14 25 C-15.98 25 -17.96 25 -20 25 C-20 25.99 -20 26.98 -20 28 C-21.32 28 -22.64 28 -24 28 C-24.33 27.01 -24.66 26.02 -25 25 C-25.66 25.66 -26.32 26.32 -27 27 C-27.33 26.01 -27.66 25.02 -28 24 C-26.02 23.34 -24.04 22.68 -22 22 C-21.67 22.99 -21.34 23.98 -21 25 C-20.896875 24.38125 -20.79375 23.7625 -20.6875 23.125 C-20 21 -20 21 -17 19 C-16.319375 18.46375 -15.63875 17.9275 -14.9375 17.375 C-13 16 -13 16 -11 16 C-10.566875 14.88625 -10.566875 14.88625 -10.125 13.75 C-7.45714286 7.22857143 -7.45714286 7.22857143 -5 6 C-5 5.34 -5 4.68 -5 4 C-4.34 3.67 -3.68 3.34 -3 3 C-2.67 2.34 -2.34 1.68 -2 1 C-1.34 0.67 -0.68 0.34 0 0 Z " fill="#CEA237" transform="translate(79,53)"/>
<path d="M0 0 C0.33 0.66 0.66 1.32 1 2 C2.64363134 2.72159424 4.31050386 3.39351421 6 4 C6 4.99 6 5.98 6 7 C5.01 7.33 4.02 7.66 3 8 C2.01 7.34 1.02 6.68 0 6 C-0.22988506 8.36278736 -0.22988506 8.36278736 2.5 10.625 C3.7375 11.800625 3.7375 11.800625 5 13 C5.66 11.02 6.32 9.04 7 7 C8.8125 7.0625 8.8125 7.0625 11 8 C12.625 11.25 12.625 11.25 14 15 C14.4125 15.9075 14.825 16.815 15.25 17.75 C16 20 16 20 15 23 C14.01 23 13.02 23 12 23 C12 22.01 12 21.02 12 20 C10.35 20 8.7 20 7 20 C7.33 21.32 7.66 22.64 8 24 C8.99 23.67 9.98 23.34 11 23 C11 23.66 11 24.32 11 25 C9.68 25 8.36 25 7 25 C7 26.65 7 28.3 7 30 C5.96770869 27.99852689 5.00643807 26.01623247 4.17578125 23.921875 C2.0526651 18.5804606 -0.58848105 14.83192901 -4.609375 10.7265625 C-6 9 -6 9 -6 6 C-5.360625 5.87625 -4.72125 5.7525 -4.0625 5.625 C-3.381875 5.41875 -2.70125 5.2125 -2 5 C-1.67 4.34 -1.34 3.68 -1 3 C-1.66 2.67 -2.32 2.34 -3 2 C-2.01 2 -1.02 2 0 2 C0 1.34 0 0.68 0 0 Z " fill="#FBEB80" transform="translate(67,12)"/>
<path d="M0 0 C4.55264185 1.51754728 6.63543325 5.06462566 9 9 C12.1056116 15.35910948 12.03345205 23.18182741 10.20703125 29.9296875 C7.7122093 36.5251938 7.7122093 36.5251938 4 39 C6 34 6 34 7.046875 31.828125 C8.27397178 28.18706736 8.36803533 24.73672778 8.375 20.9375 C8.41173828 19.87692383 8.41173828 19.87692383 8.44921875 18.79492188 C8.4696534 15.16777085 8.29364285 13.3622351 5.9765625 10.50390625 C5.32429688 10.00761719 4.67203125 9.51132812 4 9 C4.33 8.67 4.66 8.34 5 8 C-1.36590304 13.24458586 -7.13570612 19.02097322 -12.9375 24.875 C-13.91708237 25.85960919 -14.89689837 26.843986 -15.87695312 27.828125 C-18.25360252 30.21648203 -20.62787356 32.60715212 -23 35 C-23.66 34.67 -24.32 34.34 -25 34 C-19.39 28.39 -13.78 22.78 -8 17 C-8.66 16.34 -9.32 15.68 -10 15 C-10.125 11.375 -10.125 11.375 -10 8 C-5.545 7.505 -5.545 7.505 -1 7 C-0.67 4.69 -0.34 2.38 0 0 Z " fill="#967922" transform="translate(62,23)"/>
<path d="M0 0 C2.97 0 5.94 0 9 0 C9.28875 0.804375 9.5775 1.60875 9.875 2.4375 C10.73262568 5.1326468 10.73262568 5.1326468 13 6 C13.33 5.01 13.66 4.02 14 3 C14.33 4.32 14.66 5.64 15 7 C16.32 7 17.64 7 19 7 C19 6.01 19 5.02 19 4 C20.98 4 22.96 4 25 4 C25.33 3.01 25.66 2.02 26 1 C26.66 1.66 27.32 2.32 28 3 C26.77422398 3.79690649 25.54418995 4.58726484 24.3125 5.375 C23.62800781 5.81585938 22.94351563 6.25671875 22.23828125 6.7109375 C16.95667599 9.75269969 12.85878003 10.24476798 6.8125 9.8125 C5.72678711 9.76512695 5.72678711 9.76512695 4.61914062 9.71679688 C2.51953125 9.58203125 2.51953125 9.58203125 -1 9 C-1.66 8.01 -2.32 7.02 -3 6 C-3.99 6 -4.98 6 -6 6 C-6.33 4.68 -6.66 3.36 -7 2 C-5 2 -3 2 -1 2 C-0.67 1.34 -0.34 0.68 0 0 Z " fill="#C99F35" transform="translate(40,74)"/>
<path d="M0 0 C0 3 0 3 -2.1875 5.48046875 C-3.115625 6.37378906 -4.04375 7.26710938 -5 8.1875 C-5.928125 9.08855469 -6.85625 9.98960938 -7.8125 10.91796875 C-8.534375 11.60503906 -9.25625 12.29210938 -10 13 C-9.34 13 -8.68 13 -8 13 C-8.66 15.31 -9.32 17.62 -10 20 C-8.35 20 -6.7 20 -5 20 C-4.67 20.99 -4.34 21.98 -4 23 C-4.33 23.66 -4.66 24.32 -5 25 C-9.28740437 23.63820664 -11.35298862 21.82904675 -14.1875 18.375 C-15.41842451 16.88282765 -16.68108392 15.41499606 -18 14 C-20.24362573 13.7715451 -20.24362573 13.7715451 -22.125 16 C-23.053125 16.99 -23.053125 16.99 -24 18 C-24.309375 17.05125 -24.61875 16.1025 -24.9375 15.125 C-25.87394742 12.13919592 -25.87394742 12.13919592 -27 10 C-24.61435923 10.57584432 -22.33317216 11.22227595 -20 12 C-19.34 10.68 -18.68 9.36 -18 8 C-16.68 8 -15.36 8 -14 8 C-14 9.65 -14 11.3 -14 13 C-9.08064098 8.88380164 -4.47352044 4.59589638 0 0 Z " fill="#A97D1A" transform="translate(36,44)"/>
<path d="M0 0 C0.86625 0.556875 0.86625 0.556875 1.75 1.125 C1.75 3.125 1.75 5.125 1.75 7.125 C2.74 7.125 3.73 7.125 4.75 7.125 C5.08 6.135 5.41 5.145 5.75 4.125 C5.75 4.785 5.75 5.445 5.75 6.125 C6.801875 5.96 7.85375 5.795 8.9375 5.625 C11.95468796 5.22930322 14.72093972 5.03321029 17.75 5.125 C18.08 6.115 18.41 7.105 18.75 8.125 C21.225 8.62 21.225 8.62 23.75 9.125 C20.29665439 10.2761152 17.81832779 10.08496501 14.1875 9.9375 C7.53673996 9.86153078 2.62939357 11.09047429 -3.25 14.125 C-3.58 12.805 -3.91 11.485 -4.25 10.125 C-2.6 9.465 -0.95 8.805 0.75 8.125 C0.42 7.465 0.09 6.805 -0.25 6.125 C-3.11724686 6.69844937 -4.1114515 6.9864515 -6.25 9.125 C-6.25 6.485 -6.25 3.845 -6.25 1.125 C-2.80384615 -1.09038462 -2.80384615 -1.09038462 0 0 Z " fill="#D4AA3A" transform="translate(31.25,5.875)"/>
<path d="M0 0 C0.33 0.66 0.66 1.32 1 2 C0.67 2.66 0.34 3.32 0 4 C-0.9590625 3.7525 -0.9590625 3.7525 -1.9375 3.5 C-3.80826821 2.96073333 -3.80826821 2.96073333 -5 3 C-4.34 4.98 -3.68 6.96 -3 9 C-2.01 7.68 -1.02 6.36 0 5 C3.75283733 6.45271122 3.75283733 6.45271122 4.875 8.9375 C5 11 5 11 3 14 C2.34 13.67 1.68 13.34 1 13 C1 11.35 1 9.7 1 8 C0.01 8.99 -0.98 9.98 -2 11 C-1.34 11.66 -0.68 12.32 0 13 C-0.375 15.625 -0.375 15.625 -1 18 C-1.5775 17.690625 -2.155 17.38125 -2.75 17.0625 C-5.21905868 15.80714968 -5.21905868 15.80714968 -9 15 C-9.33 11.37 -9.66 7.74 -10 4 C-9.34 4 -8.68 4 -8 4 C-8.33 3.01 -8.66 2.02 -9 1 C-5.92677456 0.08941469 -3.19902639 -0.08886184 0 0 Z " fill="#E4C85E" transform="translate(16,52)"/>
<path d="M0 0 C1.24112549 0.14139404 1.24112549 0.14139404 2.50732422 0.28564453 C3.85117187 0.43066406 3.85117187 0.43066406 5.22216797 0.57861328 C6.15931641 0.69076172 7.09646484 0.80291016 8.06201172 0.91845703 C9.00689453 1.02287109 9.95177734 1.12728516 10.92529297 1.23486328 C13.26380302 1.49469773 15.60070415 1.76461762 17.93701172 2.04345703 C17.93701172 2.37345703 17.93701172 2.70345703 17.93701172 3.04345703 C14.63701172 3.37345703 11.33701172 3.70345703 7.93701172 4.04345703 C7.60701172 5.03345703 7.27701172 6.02345703 6.93701172 7.04345703 C6.27701172 7.04345703 5.61701172 7.04345703 4.93701172 7.04345703 C4.60701172 6.38345703 4.27701172 5.72345703 3.93701172 5.04345703 C3.60701172 5.37345703 3.27701172 5.70345703 2.93701172 6.04345703 C2.93701172 7.03345703 2.93701172 8.02345703 2.93701172 9.04345703 C3.92701172 9.04345703 4.91701172 9.04345703 5.93701172 9.04345703 C6.59701172 9.70345703 7.25701172 10.36345703 7.93701172 11.04345703 C10.25976349 11.44393147 12.59440529 11.78316743 14.93701172 12.04345703 C14.93701172 12.37345703 14.93701172 12.70345703 14.93701172 13.04345703 C13.02065955 13.09769341 11.10386247 13.13635666 9.18701172 13.16845703 C7.58599609 13.20326172 7.58599609 13.20326172 5.95263672 13.23876953 C0.73019845 12.90052871 -2.12126594 10.32822565 -6.06298828 7.04345703 C-3.49515571 0.07362577 -3.49515571 0.07362577 0 0 Z " fill="#E4D069" transform="translate(32.06298828125,70.95654296875)"/>
<path d="M0 0 C7.72528914 1.14247234 13.91513137 6.27952279 19 12 C19.33 12.66 19.66 13.32 20 14 C19.34 14 18.68 14 18 14 C18.061875 14.78375 18.12375 15.5675 18.1875 16.375 C18.0946875 17.674375 18.0946875 17.674375 18 19 C17.01 19.66 16.02 20.32 15 21 C15 20.34 15 19.68 15 19 C13.68 18.34 12.36 17.68 11 17 C11 16.34 11 15.68 11 15 C10.34 14.67 9.68 14.34 9 14 C9.99 13.34 10.98 12.68 12 12 C12 12.66 12 13.32 12 14 C13.65 14 15.3 14 17 14 C16.34 13.01 15.68 12.02 15 11 C14.67 10.34 14.34 9.68 14 9 C12.35 9 10.7 9 9 9 C9 8.34 9 7.68 9 7 C8.37351562 7.01160156 7.74703125 7.02320313 7.1015625 7.03515625 C6.28429688 7.04417969 5.46703125 7.05320312 4.625 7.0625 C3.81289063 7.07410156 3.00078125 7.08570313 2.1640625 7.09765625 C0 7 0 7 -2 6 C-1.49396008 3.83125748 -1.00016187 2.00032373 0 0 Z " fill="#E2C05A" transform="translate(56,5)"/>
<path d="M0 0 C9.33041575 2.15317287 9.33041575 2.15317287 12.125 5.6875 C12.41375 6.450625 12.7025 7.21375 13 8 C9.34635163 9.21788279 8.60855401 8.64897183 5.1875 7.125 C1.44252198 5.5348922 -1.9211589 4.42935169 -6 4 C-6 6.64 -6 9.28 -6 12 C-7.98 12 -9.96 12 -12 12 C-11.814375 11.2575 -11.62875 10.515 -11.4375 9.75 C-10.77947289 6.77159084 -10.77947289 6.77159084 -12 3 C-7.05 3 -2.1 3 3 3 C2.01 2.67 1.02 2.34 0 2 C0 1.34 0 0.68 0 0 Z " fill="#EBCC5B" transform="translate(50,12)"/>
<path d="M0 0 C0.66 0.33 1.32 0.66 2 1 C1.01 2.32 0.02 3.64 -1 5 C-0.15811388 6.94729537 -0.15811388 6.94729537 1 8 C2.34747084 8.23075082 3.70377565 8.41153063 5.0625 8.5625 C6.361875 8.706875 7.66125 8.85125 9 9 C9.33 10.65 9.66 12.3 10 14 C7 15 7 15 4 14 C4 13.34 4 12.68 4 12 C-2.30760257 10.35318751 -8.51527007 8.73690113 -15 8 C-14.67 6.68 -14.34 5.36 -14 4 C-13.34 4.33 -12.68 4.66 -12 5 C-12.33 5.66 -12.66 6.32 -13 7 C-12.2575 6.649375 -11.515 6.29875 -10.75 5.9375 C-7.8677274 4.95490707 -6.78823655 4.9673198 -4 6 C-2.68 4.02 -1.36 2.04 0 0 Z " fill="#C5AE58" transform="translate(56,3)"/>
<path d="M0 0 C0.99 0.66 1.98 1.32 3 2 C3 2.66 3 3.32 3 4 C2.34 4 1.68 4 1 4 C1 4.66 1 5.32 1 6 C0.34 6 -0.32 6 -1 6 C-0.6596875 7.5778125 -0.6596875 7.5778125 -0.3125 9.1875 C0.03127579 13.38156466 -0.31080305 14.8305893 -3 18 C-3.99 18 -4.98 18 -6 18 C-6.33 18.66 -6.66 19.32 -7 20 C-8.32 20 -9.64 20 -11 20 C-11 19.34 -11 18.68 -11 18 C-10.01 18 -9.02 18 -8 18 C-7.87625 17.195625 -7.7525 16.39125 -7.625 15.5625 C-7.41875 14.716875 -7.2125 13.87125 -7 13 C-6.34 12.67 -5.68 12.34 -5 12 C-5 11.01 -5 10.02 -5 9 C-5.99 8.67 -6.98 8.34 -8 8 C-3.375 2.25 -3.375 2.25 0 0 Z " fill="#C09A30" transform="translate(20,16)"/>
<path d="M0 0 C0.66 0.33 1.32 0.66 2 1 C1.67 2.32 1.34 3.64 1 5 C1.33 5 1.66 5 2 5 C2.36923077 11.4 2.36923077 11.4 0.5 14.4375 C0.005 14.953125 -0.49 15.46875 -1 16 C-0.34 16 0.32 16 1 16 C0.25 21.75 0.25 21.75 -2 24 C-2.185625 25.2065625 -2.185625 25.2065625 -2.375 26.4375 C-3.16114086 29.66067753 -4.37996548 30.11685019 -7 32 C-7.6425235 34.06874034 -7.6425235 34.06874034 -8 36 C-8.99 36.495 -8.99 36.495 -10 37 C-8.75430303 32.12102021 -7.07557651 27.75422411 -4.90234375 23.2109375 C-2.67465044 17.75260672 -2.70686242 11.98933873 -2.48242188 6.17578125 C-2.39162093 4.44542358 -2.20355106 2.72074096 -2 1 C-1.34 0.67 -0.68 0.34 0 0 Z M0 7 C0 8.65 0 10.3 0 12 C0.33 12 0.66 12 1 12 C1 10.35 1 8.7 1 7 C0.67 7 0.34 7 0 7 Z " fill="#6A5E4A" transform="translate(86,36)"/>
<path d="M0 0 C2.31 0 4.62 0 7 0 C7.75 3.25 7.75 3.25 8 7 C6.25 9.25 6.25 9.25 4 11 C3.46375 11.5775 2.9275 12.155 2.375 12.75 C1 14 1 14 -1 14 C-1.33 14.99 -1.66 15.98 -2 17 C-1.34 11.39 -0.68 5.78 0 0 Z " fill="#E5C04C" transform="translate(74,37)"/>
<path d="M0 0 C4.75481646 0.57634139 7.97048212 2.55068521 12 5 C12.04254356 6.99954746 12.04080783 9.00041636 12 11 C11 12 11 12 8.125 12.25 C5 12 5 12 3.37890625 10.77734375 C1.71392104 8.631258 1.31317224 6.96991417 0.8125 4.3125 C0.65394531 3.50425781 0.49539062 2.69601563 0.33203125 1.86328125 C0.22246094 1.24839844 0.11289062 0.63351563 0 0 Z " fill="#D3A932" transform="translate(51,17)"/>
<path d="M0 0 C0.33 0 0.66 0 1 0 C1 1.65 1 3.3 1 5 C1.66 5 2.32 5 3 5 C3 8.96 3 12.92 3 17 C1.02 17.99 1.02 17.99 -1 19 C-1.66 18.67 -2.32 18.34 -3 18 C-3.08150744 15.93816367 -3.1394194 13.87538651 -3.1875 11.8125 C-3.22230469 10.66394531 -3.25710938 9.51539063 -3.29296875 8.33203125 C-2.97545546 4.72084678 -2.15237035 2.87886312 0 0 Z " fill="#D5A934" transform="translate(19,35)"/>
<path d="M0 0 C4.55264185 1.51754728 6.63543325 5.06462566 9 9 C12.1056116 15.35910948 12.03345205 23.18182741 10.20703125 29.9296875 C7.7122093 36.5251938 7.7122093 36.5251938 4 39 C6 34 6 34 7.046875 31.828125 C8.27397178 28.18706736 8.36803533 24.73672778 8.375 20.9375 C8.39949219 20.23044922 8.42398438 19.52339844 8.44921875 18.79492188 C8.4696534 15.16777085 8.29364285 13.3622351 5.9765625 10.50390625 C5.32429688 10.00761719 4.67203125 9.51132812 4 9 C4.33 8.67 4.66 8.34 5 8 C2.525 7.01 2.525 7.01 0 6 C0 4.02 0 2.04 0 0 Z " fill="#B18E24" transform="translate(62,23)"/>
<path d="M0 0 C0 3.96 0 7.92 0 12 C-2.62315032 13.31157516 -4.23033436 12.89649988 -7.125 12.5625 C-8.49011719 12.40974609 -8.49011719 12.40974609 -9.8828125 12.25390625 C-10.58148438 12.17011719 -11.28015625 12.08632813 -12 12 C-1.93659942 0 -1.93659942 0 0 0 Z " fill="#F4E16F" transform="translate(51,32)"/>
<path d="M0 0 C0 3.72820818 -0.84132013 4.97784819 -3 8 C-8.10899183 13 -8.10899183 13 -11 13 C-11.556875 13.433125 -12.11375 13.86625 -12.6875 14.3125 C-15.63994125 16.46698415 -18.61299238 17.63217 -22 19 C-22.33 18.01 -22.66 17.02 -23 16 C-22.34 16 -21.68 16 -21 16 C-21 15.34 -21 14.68 -21 14 C-20.07058594 13.57589844 -19.14117187 13.15179688 -18.18359375 12.71484375 C-11.05134345 9.36443884 -5.05891327 6.25707694 0 0 Z " fill="#635A39" transform="translate(76,69)"/>
<path d="M0 0 C0 0.99 0 1.98 0 3 C-0.99 3.495 -0.99 3.495 -2 4 C-1.01 4.33 -0.02 4.66 1 5 C0.67 5.99 0.34 6.98 0 8 C-0.66 7.67 -1.32 7.34 -2 7 C-2.33 7.66 -2.66 8.32 -3 9 C-4.98 9 -6.96 9 -9 9 C-9 9.99 -9 10.98 -9 12 C-10.32 12 -11.64 12 -13 12 C-13.33 11.01 -13.66 10.02 -14 9 C-14.66 9.66 -15.32 10.32 -16 11 C-16.33 10.01 -16.66 9.02 -17 8 C-15.02 7.34 -13.04 6.68 -11 6 C-10.67 6.99 -10.34 7.98 -10 9 C-9.8453125 8.071875 -9.8453125 8.071875 -9.6875 7.125 C-9 5 -9 5 -6 3 C-5.319375 2.46375 -4.63875 1.9275 -3.9375 1.375 C-2 0 -2 0 0 0 Z " fill="#B88A1C" transform="translate(68,69)"/>
<path d="M0 0 C2.97 0 5.94 0 9 0 C10 3 10 3 9.0625 5.1875 C8.711875 5.785625 8.36125 6.38375 8 7 C7.54625 6.505 7.0925 6.01 6.625 5.5 C5.12364481 3.77390663 5.12364481 3.77390663 3 4 C2.67 4.66 2.34 5.32 2 6 C2.66 6.66 3.32 7.32 4 8 C2.35 8.33 0.7 8.66 -1 9 C-1.66 8.01 -2.32 7.02 -3 6 C-3.99 6 -4.98 6 -6 6 C-6.33 4.68 -6.66 3.36 -7 2 C-5 2 -3 2 -1 2 C-0.67 1.34 -0.34 0.68 0 0 Z " fill="#E5C559" transform="translate(40,74)"/>
<path d="M0 0 C1.32 0.66 2.64 1.32 4 2 C4 3.32 4 4.64 4 6 C4.66 6.66 5.32 7.32 6 8 C6 9.32 6 10.64 6 12 C5.34 12 4.68 12 4 12 C4 14.31 4 16.62 4 19 C2.62437146 17.71034824 1.29233607 16.37310707 0 15 C0 14.34 0 13.68 0 13 C-0.804375 12.7525 -1.60875 12.505 -2.4375 12.25 C-5 11 -5 11 -5.8125 8.875 C-5.874375 8.25625 -5.93625 7.6375 -6 7 C-5.01 6.67 -4.02 6.34 -3 6 C-2.34 6.33 -1.68 6.66 -1 7 C-1 7.99 -1 8.98 -1 10 C-0.01 9.67 0.98 9.34 2 9 C1.34 6.03 0.68 3.06 0 0 Z " fill="#CBB04B" transform="translate(80,25)"/>
<path d="M0 0 C0.12375 0.61875 0.2475 1.2375 0.375 1.875 C0.87197356 4.19120832 0.87197356 4.19120832 3 6 C3.125 9.625 3.125 9.625 3 13 C2.01 13.495 2.01 13.495 1 14 C0.67 13.01 0.34 12.02 0 11 C-0.825 10.71125 -1.65 10.4225 -2.5 10.125 C-5 9 -5 9 -6 6.625 C-6 4 -6 4 -4.75 1.6875 C-3 0 -3 0 0 0 Z " fill="#DAB13B" transform="translate(68,30)"/>
<path d="M0 0 C0.33 0.66 0.66 1.32 1 2 C2.64363134 2.72159424 4.31050386 3.39351421 6 4 C6 4.99 6 5.98 6 7 C5.01 7.33 4.02 7.66 3 8 C2.01 7.34 1.02 6.68 0 6 C0 8.88395737 1.05905327 11.29477815 2 14 C-1.13506611 13.66410006 -2.025249 12.97334828 -4.25 10.625 C-6 8 -6 8 -6 5 C-4.68 5 -3.36 5 -2 5 C-1.67 4.34 -1.34 3.68 -1 3 C-1.66 2.67 -2.32 2.34 -3 2 C-2.01 2 -1.02 2 0 2 C0 1.34 0 0.68 0 0 Z " fill="#F5DE6E" transform="translate(67,12)"/>
<path d="M0 0 C-0.75 2.4375 -0.75 2.4375 -2 5 C-5.22764857 6.39864771 -8.51864136 6 -12 6 C-13 4 -13 4 -14 1 C-8.83430559 -0.79217969 -5.48946087 -1.12029814 0 0 Z " fill="#DEB94E" transform="translate(55,4)"/>
<path d="M0 0 C-1.58667578 3.90285767 -4.13350481 6.33520982 -7.125 9.25 C-8.03507812 10.14203125 -8.94515625 11.0340625 -9.8828125 11.953125 C-10.58148438 12.62859375 -11.28015625 13.3040625 -12 14 C-12.66 13.67 -13.32 13.34 -14 13 C-13.175 12.113125 -12.35 11.22625 -11.5 10.3125 C-9.53900524 7.98692593 -9.02740522 7.25212806 -8.6875 4.125 C-8.790625 3.42375 -8.89375 2.7225 -9 2 C-10.32 1.67 -11.64 1.34 -13 1 C-8.60563789 0.14256349 -4.47427924 -0.08948558 0 0 Z " fill="#AD9135" transform="translate(51,30)"/>
<path d="M0 0 C4.28760234 3.4005122 5.96367838 7.74090992 7 13 C6.67 13.99 6.34 14.98 6 16 C5.01 16 4.02 16 3 16 C3 15.01 3 14.02 3 13 C1.35 12.67 -0.3 12.34 -2 12 C-2 11.34 -2 10.68 -2 10 C-1.34 9.67 -0.68 9.34 0 9 C-0.185625 8.2575 -0.37125 7.515 -0.5625 6.75 C-0.99203108 4.05009037 -0.85122974 2.55368923 0 0 Z " fill="#F5E172" transform="translate(76,19)"/>
<path d="M0 0 C3.75283733 1.45271122 3.75283733 1.45271122 4.875 3.9375 C5 6 5 6 3 9 C2.34 8.67 1.68 8.34 1 8 C1 6.35 1 4.7 1 3 C0.01 3.99 -0.98 4.98 -2 6 C-1.34 6.66 -0.68 7.32 0 8 C-0.375 10.625 -0.375 10.625 -1 13 C-3.99324263 11.9024777 -4.84610901 11.32317108 -6.25 8.375 C-6.4975 7.59125 -6.745 6.8075 -7 6 C-6.401875 5.7525 -5.80375 5.505 -5.1875 5.25 C-2.71352479 3.83629988 -1.56629745 2.34944617 0 0 Z " fill="#F8E172" transform="translate(16,57)"/>
<path d="M0 0 C0.66 0 1.32 0 2 0 C2 0.66 2 1.32 2 2 C3.32 2.33 4.64 2.66 6 3 C5.01 3.66 4.02 4.32 3 5 C3.66 5.33 4.32 5.66 5 6 C3.68 6 2.36 6 1 6 C0.67 7.98 0.34 9.96 0 12 C-0.99 12.33 -1.98 12.66 -3 13 C-3 12.34 -3 11.68 -3 11 C-3.99 11.99 -4.98 12.98 -6 14 C-6.66 13.67 -7.32 13.34 -8 13 C-7.05065487 11.32819726 -6.09026687 9.66266064 -5.125 8 C-4.59132813 7.071875 -4.05765625 6.14375 -3.5078125 5.1875 C-3.01023437 4.465625 -2.51265625 3.74375 -2 3 C-1.34 3 -0.68 3 0 3 C0 2.01 0 1.02 0 0 Z " fill="#D7B248" transform="translate(73,51)"/>
<path d="M0 0 C0.33 0.66 0.66 1.32 1 2 C2.051875 1.835 3.10375 1.67 4.1875 1.5 C7.20468796 1.10430322 9.97093972 0.90821029 13 1 C13.33 1.99 13.66 2.98 14 4 C16.475 4.495 16.475 4.495 19 5 C15.44086771 6.18637743 12.201855 6.14615346 8.5 6.125 C7.82324219 6.12886719 7.14648438 6.13273437 6.44921875 6.13671875 C3.35926233 6.13062416 0.95320689 5.9844023 -2 5 C-2 4.34 -2 3.68 -2 3 C-1.34 3 -0.68 3 0 3 C0 2.01 0 1.02 0 0 Z " fill="#D8B544" transform="translate(36,10)"/>
<path d="M0 0 C0.99 0 1.98 0 3 0 C3.4375 2.0625 3.4375 2.0625 3 5 C0.87919817 7.57260172 -1.50627561 9.79254499 -4 12 C-4.33 11.34 -4.66 10.68 -5 10 C-7.02463255 9.34786708 -7.02463255 9.34786708 -9 9 C-8.01 8.67 -7.02 8.34 -6 8 C-5.67 7.01 -5.34 6.02 -5 5 C-4.34 5 -3.68 5 -3 5 C-2.525625 4.175 -2.05125 3.35 -1.5625 2.5 C-1.046875 1.675 -0.53125 0.85 0 0 Z " fill="#C99830" transform="translate(74,64)"/>
<path d="M0 0 C0.33 0 0.66 0 1 0 C0.73876187 7.18404854 -1.70211724 11.32206314 -6 17 C-6.66 16.67 -7.32 16.34 -8 16 C-7.34 13.69 -6.68 11.38 -6 9 C-5.67 9 -5.34 9 -5 9 C-4.67 6.69 -4.34 4.38 -4 2 C-3.01 2 -2.02 2 -1 2 C-0.67 1.34 -0.34 0.68 0 0 Z " fill="#F3DB6F" transform="translate(70,47)"/>
<path d="M0 0 C0.99 0.66 1.98 1.32 3 2 C3.66 2.33 4.32 2.66 5 3 C5 3.99 5 4.98 5 6 C3.35 6.66 1.7 7.32 0 8 C0.33 8.66 0.66 9.32 1 10 C-1.66666667 8.66666667 -4.33333333 7.33333333 -7 6 C-6.67 5.01 -6.34 4.02 -6 3 C-3.03 3.495 -3.03 3.495 0 4 C-0.33 3.01 -0.66 2.02 -1 1 C-0.67 0.67 -0.34 0.34 0 0 Z " fill="#A79944" transform="translate(21,69)"/>
<path d="M0 0 C3.24012468 3.24012468 3 6.53455173 3 11 C-2.29230769 13.21538462 -2.29230769 13.21538462 -5.875 12.125 C-6.57625 11.75375 -7.2775 11.3825 -8 11 C-7.34 10.67 -6.68 10.34 -6 10 C-5.67 9.34 -5.34 8.68 -5 8 C-3.68 8.66 -2.36 9.32 -1 10 C-1 8.68 -1 7.36 -1 6 C-1.66 5.34 -2.32 4.68 -3 4 C-2.01 2.68 -1.02 1.36 0 0 Z " fill="#B6A456" transform="translate(16,59)"/>
<path d="M0 0 C0.66 0.99 1.32 1.98 2 3 C2.33 2.01 2.66 1.02 3 0 C3.66 0 4.32 0 5 0 C4.64947365 3.15473719 4.13480924 4.8233534 2.1875 7.375 C0 9 0 9 -2.25 8.75 C-3.11625 8.37875 -3.11625 8.37875 -4 8 C-3.50168276 4.31245243 -2.89932357 2.39509338 0 0 Z " fill="#C49E35" transform="translate(65,62)"/>
<path d="M0 0 C0.33 1.32 0.66 2.64 1 4 C0.29875 4.33 -0.4025 4.66 -1.125 5 C-3.917861 6.94285983 -5.10271836 8.38229753 -7 11.125 C-9.65451426 14.87983105 -9.65451426 14.87983105 -12.875 16 C-13.57625 16 -14.2775 16 -15 16 C-10.30233025 10.33870569 -5.25276628 5.14771096 0 0 Z " fill="#F8E179" transform="translate(58,38)"/>
<path d="M0 0 C0.99 0 1.98 0 3 0 C3 0.99 3 1.98 3 3 C3.99 3 4.98 3 6 3 C6.66 3.66 7.32 4.32 8 5 C10.32275177 5.40047444 12.65739357 5.7397104 15 6 C15 6.33 15 6.66 15 7 C13.08364783 7.05423638 11.16685075 7.09289963 9.25 7.125 C7.64898437 7.15980469 7.64898437 7.15980469 6.015625 7.1953125 C3.07529894 7.00487687 1.47638122 6.52670104 -1 5 C-1 2 -1 2 0 0 Z " fill="#E7C766" transform="translate(32,77)"/>
<path d="M0 0 C2.475 0.495 2.475 0.495 5 1 C5.6875 3.8125 5.6875 3.8125 6 7 C4.75 8.875 4.75 8.875 3 10 C2.01 10 1.02 10 0 10 C0 6.7 0 3.4 0 0 Z " fill="#E4C556" transform="translate(37,31)"/>
<path d="M0 0 C0.33 0.66 0.66 1.32 1 2 C2.65 2 4.3 2 6 2 C6 1.34 6 0.68 6 0 C6.99 0.33 7.98 0.66 9 1 C8.01 1.495 8.01 1.495 7 2 C7.061875 2.78375 7.12375 3.5675 7.1875 4.375 C7.125625 5.24125 7.06375 6.1075 7 7 C6.01 7.66 5.02 8.32 4 9 C4 8.34 4 7.68 4 7 C2.68 6.34 1.36 5.68 0 5 C0 4.34 0 3.68 0 3 C-0.66 2.67 -1.32 2.34 -2 2 C-1.34 1.34 -0.68 0.68 0 0 Z " fill="#AE9C4A" transform="translate(67,17)"/>
<path d="M0 0 C3.63 0 7.26 0 11 0 C10.67 0.66 10.34 1.32 10 2 C7.03 2 4.06 2 1 2 C1 4.31 1 6.62 1 9 C1.99 9.33 2.98 9.66 4 10 C2.68 11.32 1.36 12.64 0 14 C0 9.38 0 4.76 0 0 Z " fill="#E3C054" transform="translate(51,29)"/>
<path d="M0 0 C1.3921875 0.4640625 1.3921875 0.4640625 2.8125 0.9375 C6.98244736 2.14593372 11.1312634 2.45464202 15.44921875 2.75390625 C17.73504118 2.97443736 19.7953527 3.37526388 22 4 C22 4.33 22 4.66 22 5 C14.69845409 5.22238211 8.0157365 5.1852294 1 3 C0.67 2.01 0.34 1.02 0 0 Z " fill="#8A6E4D" transform="translate(28,83)"/>
<path d="M0 0 C0.66 0.33 1.32 0.66 2 1 C1.7525 1.7425 1.505 2.485 1.25 3.25 C1.1675 4.1575 1.085 5.065 1 6 C2.83358335 8.33454661 2.83358335 8.33454661 5 10 C0.00088076 9.52389341 -2.97832683 7.96837781 -7 5 C-4 3 -4 3 -1 3 C-0.67 2.01 -0.34 1.02 0 0 Z " fill="#EDDD82" transform="translate(27,72)"/>
<path d="M0 0 C3.99500618 1.3697164 6.80009492 3.25722422 10 6 C6.37 6.33 2.74 6.66 -1 7 C-0.67 4.69 -0.34 2.38 0 0 Z " fill="#F2DF73" transform="translate(24,66)"/>
<path d="M0 0 C2.125 0.9375 2.125 0.9375 4 2 C3.54917531 3.46067199 3.08906463 4.91848032 2.625 6.375 C2.36976562 7.18710937 2.11453125 7.99921875 1.8515625 8.8359375 C1 11 1 11 -1 13 C-2.46726798 9.18510326 -1.43336419 6.70988378 0 3 C-0.99 3 -1.98 3 -3 3 C-2 1 -2 1 0 0 Z " fill="#C29828" transform="translate(79,53)"/>
<path d="M0 0 C0 0.99 0 1.98 0 3 C-0.99 3.495 -0.99 3.495 -2 4 C-1.01 4.33 -0.02 4.66 1 5 C0.67 5.99 0.34 6.98 0 8 C-0.66 7.67 -1.32 7.34 -2 7 C-4.00800456 7.28112064 -6.01014051 7.61067967 -8 8 C-7.65978036 4.82461668 -6.97533396 3.97723135 -4.5625 1.75 C-2 0 -2 0 0 0 Z " fill="#99761B" transform="translate(68,69)"/>
<path d="M0 0 C0.8971875 0.5259375 0.8971875 0.5259375 1.8125 1.0625 C1.8125 2.3825 1.8125 3.7025 1.8125 5.0625 C2.4725 5.3925 3.1325 5.7225 3.8125 6.0625 C2.8225 6.0625 1.8325 6.0625 0.8125 6.0625 C0.4825 5.4025 0.1525 4.7425 -0.1875 4.0625 C-2.94444758 2.88095104 -4.05520391 3.01739906 -6.9375 4 C-8.05125 4.5259375 -8.05125 4.5259375 -9.1875 5.0625 C-4.1125 -1.7625 -4.1125 -1.7625 0 0 Z " fill="#D7B03D" transform="translate(34.1875,52.9375)"/>
<path d="M0 0 C2.31 0 4.62 0 7 0 C6.67 0.66 6.34 1.32 6 2 C5.34 2 4.68 2 4 2 C2.03698408 5.50538557 1.04097612 9.13351728 0 13 C-0.33 13 -0.66 13 -1 13 C-1.07654536 8.48382401 -1.10228696 4.40914783 0 0 Z " fill="#EBD15E" transform="translate(74,37)"/>
<path d="M0 0 C0.721875 0.474375 1.44375 0.94875 2.1875 1.4375 C4.89475226 2.94152903 6.96194275 3.56599182 10 4 C10.33 4.99 10.66 5.98 11 7 C10.67 7.66 10.34 8.32 10 9 C5.57238086 7.60846256 3.0443745 5.47928514 0 2 C0 1.34 0 0.68 0 0 Z " fill="#B38B1B" transform="translate(21,60)"/>
<path d="M0 0 C0.66 0.33 1.32 0.66 2 1 C1.67 2.32 1.34 3.64 1 5 C1.33 5 1.66 5 2 5 C2 7.31 2 9.62 2 12 C0.68 12 -0.64 12 -2 12 C-2 8.37 -2 4.74 -2 1 C-1.34 0.67 -0.68 0.34 0 0 Z " fill="#86703F" transform="translate(86,36)"/>
<path d="M0 0 C0.66 0.33 1.32 0.66 2 1 C1.67 1.66 1.34 2.32 1 3 C1.721875 2.649375 2.44375 2.29875 3.1875 1.9375 C6.3122705 0.89590983 7.88161996 1.10903428 11 2 C11 2.99 11 3.98 11 5 C9.37509046 5.02698189 7.75005367 5.04638757 6.125 5.0625 C4.76761719 5.07990234 4.76761719 5.07990234 3.3828125 5.09765625 C1 5 1 5 -1 4 C-0.67 2.68 -0.34 1.36 0 0 Z " fill="#8A671D" transform="translate(42,7)"/>
<path d="M0 0 C2.38564077 0.57584432 4.66682784 1.22227595 7 2 C7.33 1.34 7.66 0.68 8 0 C8.33 0.99 8.66 1.98 9 3 C6.03 5.475 6.03 5.475 3 8 C2.690625 7.05125 2.38125 6.1025 2.0625 5.125 C1.12605258 2.13919592 1.12605258 2.13919592 0 0 Z " fill="#A48A31" transform="translate(9,54)"/>
<path d="M0 0 C0.99 0.33 1.98 0.66 3 1 C2.64950425 4.24208567 2.43778819 5.61527704 -0.0625 7.8125 C-0.701875 8.204375 -1.34125 8.59625 -2 9 C-2.33 8.34 -2.66 7.68 -3 7 C-2.06421005 4.64018187 -1.06652192 2.30368736 0 0 Z " fill="#D2A631" transform="translate(24,49)"/>
<path d="M0 0 C2.125 0.375 2.125 0.375 4 1 C4 1.66 4 2.32 4 3 C2.68212715 4.02028865 1.34789347 5.01971384 0 6 C-0.33 6.66 -0.66 7.32 -1 8 C-1.99 7.67 -2.98 7.34 -4 7 C-2.92598892 4.08482708 -2.22189824 2.22189824 0 0 Z " fill="#A98329" transform="translate(28,11)"/>
<path d="M0 0 C3.40739705 2.24578442 6.76478258 4.51137122 10 7 C9.67 7.66 9.34 8.32 9 9 C8.01 8.67 7.02 8.34 6 8 C6 7.34 6 6.68 6 6 C4.35 6 2.7 6 1 6 C1 5.34 1 4.68 1 4 C0.34 4 -0.32 4 -1 4 C-0.67 2.68 -0.34 1.36 0 0 Z " fill="#E4CF5F" transform="translate(64,8)"/>
<path d="M0 0 C0.99 0.66 1.98 1.32 3 2 C3 2.66 3 3.32 3 4 C2.34 4 1.68 4 1 4 C1 4.66 1 5.32 1 6 C0.01 6.33 -0.98 6.66 -2 7 C-2.99 6.34 -3.98 5.68 -5 5 C-3.35 3.35 -1.7 1.7 0 0 Z " fill="#AC8124" transform="translate(20,16)"/>
<path d="M0 0 C3.75 -0.375 3.75 -0.375 7 0 C6.01 0.495 6.01 0.495 5 1 C5 1.66 5 2.32 5 3 C2.03312999 4.64826111 -0.65626525 5.44271087 -4 6 C-2.4375 3 -2.4375 3 0 0 Z " fill="#E7CB60" transform="translate(37,44)"/>
<path d="M0 0 C-1.32 0.33 -2.64 0.66 -4 1 C-4 1.99 -4 2.98 -4 4 C-8.625 6.125 -8.625 6.125 -12 5 C-4.5 -1.5 -4.5 -1.5 0 0 Z " fill="#FAE475" transform="translate(36,18)"/>
<path d="M0 0 C0.99 0.33 1.98 0.66 3 1 C1.3125 3.0625 1.3125 3.0625 -1 5 C-4.45958074 4.82702096 -6.96179723 3.5577226 -10 2 C-9.04287109 1.90912109 -9.04287109 1.90912109 -8.06640625 1.81640625 C-6.82697266 1.69072266 -6.82697266 1.69072266 -5.5625 1.5625 C-4.73878906 1.48128906 -3.91507813 1.40007813 -3.06640625 1.31640625 C-1.01337975 1.21069185 -1.01337975 1.21069185 0 0 Z " fill="#D0A73B" transform="translate(62,29)"/>
<path d="M0 0 C0.93423645 3.01031744 1.04449911 3.86650268 0 7 C-0.66 7 -1.32 7 -2 7 C-2 6.01 -2 5.02 -2 4 C-3.32 5.32 -4.64 6.64 -6 8 C-5.40138258 5.64828869 -4.73075648 3.3140622 -4 1 C-2 0 -2 0 0 0 Z " fill="#C79C27" transform="translate(25,8)"/>
<path d="M0 0 C-0.4793247 4.31392226 -1.7457985 6.16569547 -5 9 C-5 6.36 -5 3.72 -5 1 C-3 0 -3 0 0 0 Z " fill="#D2A438" transform="translate(30,6)"/>
<path d="M0 0 C0.66 0.33 1.32 0.66 2 1 C1.01 2.32 0.02 3.64 -1 5 C-0.16666667 7.16666667 -0.16666667 7.16666667 2 8 C2 8.99 2 9.98 2 11 C-0.97 10.505 -0.97 10.505 -4 10 C-2.99806563 6.20696275 -2.18975773 3.28463659 0 0 Z " fill="#A88839" transform="translate(56,3)"/>
<path d="M0 0 C1.32 0 2.64 0 4 0 C4.33 1.65 4.66 3.3 5 5 C2.69 4.67 0.38 4.34 -2 4 C-1.34 2.68 -0.68 1.36 0 0 Z " fill="#A98B2D" transform="translate(43,77)"/>
<path d="M0 0 C2.02045442 0.60183749 4.02111039 1.27306096 6 2 C6.33 2.66 6.66 3.32 7 4 C6.67 4.66 6.34 5.32 6 6 C4.68 6 3.36 6 2 6 C1.34 5.34 0.68 4.68 0 4 C0 2.68 0 1.36 0 0 Z " fill="#876B21" transform="translate(34,75)"/>
<path d="M0 0 C0.99 0 1.98 0 3 0 C3.66 2.64 4.32 5.28 5 8 C4.01 8.495 4.01 8.495 3 9 C0.90250005 6.64031256 0.03094296 5.45383006 -0.1875 2.25 C-0.125625 1.5075 -0.06375 0.765 0 0 Z " fill="#B79846" transform="translate(2,51)"/>
<path d="M0 0 C0.33 0.99 0.66 1.98 1 3 C1.66 3 2.32 3 3 3 C3 3.66 3 4.32 3 5 C3.99 4.67 4.98 4.34 6 4 C6 4.66 6 5.32 6 6 C4.68 6 3.36 6 2 6 C2 7.65 2 9.3 2 11 C0.11772118 7.73738338 -0.58481145 4.73669693 -1 1 C-0.67 0.67 -0.34 0.34 0 0 Z " fill="#F6DF73" transform="translate(72,31)"/>
<path d="M0 0 C0.99 0.66 1.98 1.32 3 2 C3.66 2.33 4.32 2.66 5 3 C3.68 3.99 2.36 4.98 1 6 C0.67 5.67 0.34 5.34 0 5 C-0.99 6.485 -0.99 6.485 -2 8 C-2.66 8 -3.32 8 -4 8 C-2.87548273 5.0280615 -1.77706209 2.66559313 0 0 Z " fill="#D7AB40" transform="translate(11,18)"/>
<path d="M0 0 C0.78375 0.04125 1.5675 0.0825 2.375 0.125 C2.705 1.115 3.035 2.105 3.375 3.125 C5.025 3.455 6.675 3.785 8.375 4.125 C4.82257118 5.30914294 3.67669438 4.82035532 0.1875 3.6875 C-0.71355469 3.40003906 -1.61460938 3.11257812 -2.54296875 2.81640625 C-3.23003906 2.58824219 -3.91710938 2.36007812 -4.625 2.125 C-2.625 0.125 -2.625 0.125 0 0 Z " fill="#DCBE52" transform="translate(46.625,10.875)"/>
<path d="M0 0 C4.29 0.33 8.58 0.66 13 1 C13 1.33 13 1.66 13 2 C9.7 2.33 6.4 2.66 3 3 C2.67 3.99 2.34 4.98 2 6 C1.34 6 0.68 6 0 6 C0 4.02 0 2.04 0 0 Z " fill="#EED26F" transform="translate(37,72)"/>
<path d="M0 0 C0.99 0.33 1.98 0.66 3 1 C2.34 2.65 1.68 4.3 1 6 C-0.32 6 -1.64 6 -3 6 C-1.125 1.125 -1.125 1.125 0 0 Z " fill="#92721E" transform="translate(71,63)"/>
<path d="M0 0 C0.66 1.32 1.32 2.64 2 4 C0.71034824 5.37562854 -0.62689293 6.70766393 -2 8 C-2.66 8 -3.32 8 -4 8 C-3.67 6.02 -3.34 4.04 -3 2 C-2.01 2 -1.02 2 0 2 C0 1.34 0 0.68 0 0 Z " fill="#EFCA58" transform="translate(21,28)"/>
<path d="M0 0 C1.32 0 2.64 0 4 0 C5 3 5 3 4.0625 5.1875 C3.5365625 6.0846875 3.5365625 6.0846875 3 7 C1.68 5.68 0.36 4.36 -1 3 C-0.67 2.01 -0.34 1.02 0 0 Z " fill="#E0BD4F" transform="translate(45,74)"/>
<path d="M0 0 C1.0625 1.8125 1.0625 1.8125 2 4 C1.67 4.99 1.34 5.98 1 7 C0.01 7.33 -0.98 7.66 -2 8 C-2.33 7.01 -2.66 6.02 -3 5 C-1.5625 2.3125 -1.5625 2.3125 0 0 Z " fill="#EFCE62" transform="translate(61,35)"/>
<path d="M0 0 C1.67542976 0.28604898 3.34385343 0.61781233 5 1 C3 4 3 4 0.375 4.6875 C-0.800625 4.8421875 -0.800625 4.8421875 -2 5 C-1.125 1.125 -1.125 1.125 0 0 Z " fill="#D5AC2F" transform="translate(5,36)"/>
<path d="M0 0 C1.98 0.99 1.98 0.99 4 2 C4 3.32 4 4.64 4 6 C4.66 6.66 5.32 7.32 6 8 C5.67 8.99 5.34 9.98 5 11 C3 10 3 10 2.1484375 7.71484375 C1.89320312 6.79832031 1.63796875 5.88179687 1.375 4.9375 C1.11460938 4.01839844 0.85421875 3.09929688 0.5859375 2.15234375 C0.39257812 1.44207031 0.19921875 0.73179688 0 0 Z " fill="#B0A560" transform="translate(80,25)"/>
<path d="M0 0 C0.66 0 1.32 0 2 0 C3.625 2.5 3.625 2.5 5 5 C2 6 2 6 -0.1875 5.0625 C-0.785625 4.711875 -1.38375 4.36125 -2 4 C-1.34 2.68 -0.68 1.36 0 0 Z " fill="#EDCC5B" transform="translate(58,15)"/>
<path d="M0 0 C2.6875 0.875 2.6875 0.875 5 2 C2.77810176 4.22189824 0.91517292 4.92598892 -2 6 C-2.33 4.68 -2.66 3.36 -3 2 C-2.01 1.34 -1.02 0.68 0 0 Z " fill="#D8B245" transform="translate(30,14)"/>
<path d="M0 0 C3.40320742 1.01176437 4.75725331 1.64843582 6.8125 4.625 C7.204375 5.40875 7.59625 6.1925 8 7 C5.33333333 5.66666667 2.66666667 4.33333333 0 3 C0 2.01 0 1.02 0 0 Z " fill="#A5995D" transform="translate(14,72)"/>
<path d="M0 0 C0 3.57575896 -1.08840607 5.05295935 -3 8 C-4.32 7.67 -5.64 7.34 -7 7 C-4.69 4.69 -2.38 2.38 0 0 Z " fill="#4C4732" transform="translate(76,69)"/>
<path d="M0 0 C1.32 0.33 2.64 0.66 4 1 C3.34 2.65 2.68 4.3 2 6 C0.68 5.67 -0.64 5.34 -2 5 C-2 4.01 -2 3.02 -2 2 C-1.34 2 -0.68 2 0 2 C0 1.34 0 0.68 0 0 Z " fill="#927216" transform="translate(74,57)"/>
<path d="M0 0 C3.875 4.75 3.875 4.75 5 7 C3.35 6.67 1.7 6.34 0 6 C-0.38218767 4.34385343 -0.71395102 2.67542976 -1 1 C-0.67 0.67 -0.34 0.34 0 0 Z " fill="#E1BC4B" transform="translate(63,33)"/>
<path d="M0 0 C2.475 0.495 2.475 0.495 5 1 C4 3 3 5 2 7 C1.34 6.67 0.68 6.34 0 6 C0 4.02 0 2.04 0 0 Z " fill="#D2AD3D" transform="translate(56,71)"/>
<path d="M0 0 C3.35433109 0.94933899 6.69246505 1.89748835 10 3 C5.94568308 4.15837626 3.78187881 3.83691257 0 2 C0 1.34 0 0.68 0 0 Z " fill="#857C6E" transform="translate(28,83)"/>
<path d="M0 0 C0.99 0.33 1.98 0.66 3 1 C2.67 1.99 2.34 2.98 2 4 C2.66 4.33 3.32 4.66 4 5 C2.35 5.66 0.7 6.32 -1 7 C-0.67 4.69 -0.34 2.38 0 0 Z " fill="#F6E979" transform="translate(24,66)"/>
<path d="M0 0 C0.33 0.99 0.66 1.98 1 3 C-1.97 5.475 -1.97 5.475 -5 8 C-5.66 7.67 -6.32 7.34 -7 7 C-4.69 4.69 -2.38 2.38 0 0 Z " fill="#F6E782" transform="translate(50,32)"/>
<path d="M0 0 C-2.38573379 1.89213369 -4.07175348 3.02391783 -7 4 C-7.33 3.01 -7.66 2.02 -8 1 C-5.29120665 -0.35439668 -2.99066732 -0.06501451 0 0 Z " fill="#7E6D59" transform="translate(61,84)"/>
<path d="M0 0 C0.99 0 1.98 0 3 0 C2.67 1.65 2.34 3.3 2 5 C1.01 5 0.02 5 -1 5 C-1 2 -1 2 0 0 Z " fill="#D5BF68" transform="translate(32,77)"/>
<path d="M0 0 C0.66 0.66 1.32 1.32 2 2 C1.75 4.5625 1.75 4.5625 1 7 C0.01 7.495 0.01 7.495 -1 8 C-1 7.34 -1 6.68 -1 6 C-1.66 5.34 -2.32 4.68 -3 4 C-2.01 2.68 -1.02 1.36 0 0 Z " fill="#A08734" transform="translate(16,59)"/>
<path d="M0 0 C2.125 0.9375 2.125 0.9375 4 2 C3.67 3.65 3.34 5.3 3 7 C2.34 5.68 1.68 4.36 1 3 C-0.32 3 -1.64 3 -3 3 C-2 1 -2 1 0 0 Z " fill="#AE842A" transform="translate(79,53)"/>
<path d="M0 0 C0.33 0.66 0.66 1.32 1 2 C2.98 2 4.96 2 7 2 C7 2.33 7 2.66 7 3 C3.7 3.33 0.4 3.66 -3 4 C-2.01 2.68 -1.02 1.36 0 0 Z " fill="#FBE281" transform="translate(42,40)"/>
<path d="M0 0 C1.98 0.495 1.98 0.495 4 1 C4 2.32 4 3.64 4 5 C3.01 5 2.02 5 1 5 C1 4.34 1 3.68 1 3 C0.34 2.67 -0.32 2.34 -1 2 C-0.67 1.34 -0.34 0.68 0 0 Z " fill="#9A8531" transform="translate(59,12)"/>
<path d="M0 0 C3.96 0 7.92 0 12 0 C12 0.33 12 0.66 12 1 C8.04 1 4.08 1 0 1 C0 0.67 0 0.34 0 0 Z " fill="#90713C" transform="translate(38,1)"/>
<path d="M0 0 C1 4 1 4 1 4 Z " fill="#887142" transform="translate(1,36)"/>
<path d="M0 0 C3 1 3 1 3 1 Z " fill="#7E8054" transform="translate(52,2)"/>
<path d="" fill="#7B7457" transform="translate(0,0)"/>
<path d="" fill="#877046" transform="translate(0,0)"/>
<path d="M0 0 C2 1 2 1 2 1 Z " fill="#7F723D" transform="translate(27,4)"/>
<path d="M0 0 C2 1 2 1 2 1 Z " fill="#8B7B3D" transform="translate(30,3)"/>
<path d="M0 0 C2 1 2 1 2 1 Z " fill="#747755" transform="translate(33,2)"/>
<path d="" fill="#7A7751" transform="translate(0,0)"/>
<path d="" fill="#7C855D" transform="translate(0,0)"/>
<path d="" fill="#6E7870" transform="translate(0,0)"/>
<path d="" fill="#797650" transform="translate(0,0)"/>
<path d="" fill="#72744C" transform="translate(0,0)"/>
<path d="" fill="#847350" transform="translate(0,0)"/>
<path d="" fill="#8E7C52" transform="translate(0,0)"/>
<path d="" fill="#857848" transform="translate(0,0)"/>
<path d="" fill="#7F714D" transform="translate(0,0)"/>
<path d="" fill="#847246" transform="translate(0,0)"/>
<path d="" fill="#8A7840" transform="translate(0,0)"/>
<path d="" fill="#8B7536" transform="translate(0,0)"/>
<path d="" fill="#84714A" transform="translate(0,0)"/>
<path d="" fill="#7D754F" transform="translate(0,0)"/>
<path d="" fill="#8F7537" transform="translate(0,0)"/>
<path d="" fill="#7D7749" transform="translate(0,0)"/>
<path d="" fill="#886F2A" transform="translate(0,0)"/>
<path d="" fill="#83783C" transform="translate(0,0)"/>
<path d="" fill="#7E753C" transform="translate(0,0)"/>
<path d="" fill="#807942" transform="translate(0,0)"/>
<path d="" fill="#817842" transform="translate(0,0)"/>
<path d="" fill="#827543" transform="translate(0,0)"/>
<path d="" fill="#827543" transform="translate(0,0)"/>
<path d="" fill="#807643" transform="translate(0,0)"/>
<path d="" fill="#877C50" transform="translate(0,0)"/>
<path d="" fill="#7E7B3C" transform="translate(0,0)"/>
<path d="" fill="#786939" transform="translate(0,0)"/>
<path d="" fill="#7E784A" transform="translate(0,0)"/>
<path d="" fill="#947935" transform="translate(0,0)"/>
<path d="" fill="#897839" transform="translate(0,0)"/>
<path d="" fill="#80744D" transform="translate(0,0)"/>
<path d="" fill="#747D46" transform="translate(0,0)"/>
<path d="" fill="#92794F" transform="translate(0,0)"/>
<path d="" fill="#737D4A" transform="translate(0,0)"/>
<path d="" fill="#937D4B" transform="translate(0,0)"/>
<path d="" fill="#8D7237" transform="translate(0,0)"/>
<path d="" fill="#7C7A78" transform="translate(0,0)"/>
</svg>
