<svg width="91" height="90" viewBox="0 0 91 90" fill="none" xmlns="http://www.w3.org/2000/svg">
<circle cx="45.5" cy="45" r="45" fill="#F2C618"/>
<path d="M54.0449 30L61.2895 37.2446M61.2895 30L54.0449 37.2446M34.1223 30H41.3669L44.9892 39.0557L40.4613 41.7724C42.401 45.7054 45.5841 48.8885 49.517 50.8282L52.2337 46.3003L61.2895 49.9226V57.1672C61.2895 58.1279 60.9078 59.0492 60.2285 59.7285C59.5492 60.4078 58.6279 60.7895 57.6672 60.7895C50.6024 60.3601 43.939 57.3601 38.9342 52.3553C33.9294 47.3505 30.9293 40.6871 30.5 33.6223C30.5 32.6616 30.8816 31.7403 31.5609 31.0609C32.2403 30.3816 33.1616 30 34.1223 30Z" stroke="white" stroke-width="3.62229" stroke-linecap="round" stroke-linejoin="round"/>
</svg>
