<svg width="45" height="46" viewBox="0 0 45 46" fill="none" xmlns="http://www.w3.org/2000/svg">
<path d="M35.0331 22.9999C35.0352 26.0406 33.964 28.9844 32.0084 31.3128C30.0529 33.6412 27.3383 35.2047 24.3429 35.728C21.3476 36.2512 18.2637 35.7006 15.6346 34.1731C13.0054 32.6455 10.9997 30.2392 9.97073 27.3779L2.5802 33.2902C4.87824 37.6587 8.5737 41.1311 13.0765 43.1532C17.5793 45.1752 22.6298 45.6303 27.4215 44.4456C32.2133 43.2609 36.4699 40.5049 39.5117 36.6176C42.5536 32.7303 44.2052 27.9359 44.203 22.9999" fill="#00AC47"/>
<path d="M35.0332 22.9999C35.0315 25.0556 34.5386 27.0811 33.5956 28.9078C32.6526 30.7345 31.2868 32.3094 29.612 33.5013L36.9185 39.3465C39.2096 37.2837 41.0419 34.7627 42.2967 31.9468C43.5516 29.1309 44.201 26.0828 44.203 22.9999" fill="#4285F4"/>
<path d="M9.19096 22.9998C9.19415 21.5062 9.45804 20.0247 9.97072 18.6218L2.58019 12.7095C0.899754 15.8792 0.0211487 19.4122 0.0211487 22.9998C0.0211487 26.5874 0.899754 30.1205 2.58019 33.2902L9.97072 27.3778C9.45804 25.975 9.19415 24.4934 9.19096 22.9998Z" fill="#FFBA00"/>
<path d="M22.1121 10.0788C24.8461 10.0796 27.5085 10.9533 29.7113 12.5727L36.4803 6.25501C33.9676 4.08853 30.998 2.5175 27.7932 1.65914C24.5884 0.800785 21.2311 0.677273 17.9719 1.29782C14.7127 1.91837 11.6358 3.26696 8.97062 5.24294C6.30548 7.21893 4.121 9.77129 2.5802 12.7096L9.97073 18.6219C10.8721 16.1233 12.521 13.9629 14.6933 12.4344C16.8656 10.9059 19.4559 10.0834 22.1121 10.0788Z" fill="#EA4435"/>
<path d="M44.203 21.3326V22.9998L40.4517 28.8352H22.9457V19.6653H42.5358C42.9779 19.6653 43.402 19.841 43.7147 20.1537C44.0273 20.4663 44.203 20.8904 44.203 21.3326Z" fill="#4285F4"/>
</svg>
