<svg width="91" height="90" viewBox="0 0 91 90" fill="none" xmlns="http://www.w3.org/2000/svg">
<circle cx="45.5" cy="45" r="45" fill="#F2C618"/>
<path d="M47.2551 25.1911L48.0001 25.876L47.8474 26.0421C49.4274 25.2362 50.9777 25.1332 52.2263 25.5545M47.2551 25.1911L51.897 26.5305M47.2551 25.1911C49.0847 24.2207 50.9615 24.0427 52.5532 24.5772C54.5142 25.238 55.9364 26.9479 56.2508 29.3592L47.2551 25.1911ZM52.2263 25.5545L51.897 26.5305M52.2263 25.5545C52.2259 25.5544 52.2255 25.5542 52.2251 25.5541L51.897 26.5305M52.2263 25.5545C53.7353 26.062 54.9105 27.3705 55.2111 29.3592H54.2559H54.1676C53.8862 27.8087 52.9662 26.8898 51.897 26.5305M43.1523 26.0417L43 25.876L43.7452 25.191C41.9162 24.2206 40.0406 24.0428 38.449 24.5772L43.1523 26.0417ZM43.1523 26.0417C41.5737 25.2364 40.0251 25.1333 38.7767 25.5542C37.2656 26.0615 36.0898 27.3702 35.789 29.3592M43.1523 26.0417L35.789 29.3592M34.7493 29.3592C35.0637 26.948 36.486 25.2381 38.4488 24.5773L34.7493 29.3592ZM34.7493 29.3592H35.789M34.7493 29.3592H35.789M47.3429 27.558L47.3039 27.5155L47.305 27.5145L46.8994 27.0733L47.3429 27.558ZM56.2021 31.4194C55.9072 32.7778 55.07 34.0959 54.0469 35.2807L54.0469 35.2808C52.9893 36.5059 51.6888 37.6443 50.4401 38.6077L49.8334 37.775C51.0405 36.8413 52.2749 35.7576 53.2659 34.6081C54.1894 33.5399 54.8621 32.4577 55.1421 31.4194H56.2021ZM54.0647 31.4194C53.805 32.1685 53.2803 33.0165 52.4862 33.9349L54.2559 31.4194H54.0647ZM47.0603 39.6999C47.375 39.5345 47.733 39.302 48.1715 38.9945L48.7805 39.8295C47.9692 40.4031 47.2963 40.8115 46.5302 41.0028V39.9323C46.6997 39.874 46.8741 39.7977 47.0603 39.6999ZM44.47 39.9323V41.0026C43.7042 40.811 43.0315 40.4022 42.22 39.8289L42.8286 38.9945C43.2671 39.302 43.6252 39.5345 43.9398 39.6999C44.126 39.7977 44.3004 39.874 44.47 39.9323ZM41.1683 37.7748L40.5609 38.6076C39.3114 37.643 38.0108 36.5058 36.9532 35.2808L36.9532 35.2807C35.9302 34.0959 35.093 32.7778 34.798 31.4194H35.8583C36.1389 32.458 36.8125 33.5402 37.7337 34.6075C38.7248 35.7573 39.9608 36.8412 41.1683 37.7748Z" fill="black" stroke="white" stroke-width="2.06021"/>
<path d="M31.0786 62.6789H35.7347C37.8155 62.6789 39.9231 62.8972 41.9483 63.3134C45.5642 64.0539 49.284 64.1363 52.9292 63.5565C54.7174 63.2681 56.4727 62.8251 58.0632 62.0587C59.4971 61.3644 61.2545 60.39 62.435 59.296C63.6134 58.2041 64.8413 56.4179 65.7107 55.0211C66.4606 53.822 66.098 52.3531 64.9155 51.461C64.2506 50.9786 63.4501 50.7187 62.6286 50.7187C61.8071 50.7187 61.0067 50.9786 60.3418 51.461L56.619 54.2732C55.1769 55.3651 53.6008 56.3684 51.724 56.6672C51.4973 56.7029 51.2604 56.7352 51.0132 56.764M51.0132 56.764L50.7866 56.7887M51.0132 56.764C51.3429 56.6747 51.6452 56.5047 51.8929 56.2696C52.2038 56.0013 52.4578 55.6734 52.6397 55.3052C52.8217 54.9371 52.9279 54.5361 52.9521 54.1262C52.9763 53.7162 52.918 53.3056 52.7806 52.9186C52.6433 52.5316 52.4297 52.176 52.1525 51.8731C51.884 51.575 51.5713 51.32 51.2254 51.117C45.463 47.6785 36.4949 50.297 31.0786 54.1393M51.0132 56.764C50.9388 56.7806 50.8628 56.7889 50.7866 56.7887M50.7866 56.7887C49.5441 56.9132 48.2924 56.916 47.0493 56.797" stroke="white" stroke-width="3.09031" stroke-linecap="round"/>
<path d="M31.0786 52.6086C31.0786 50.9019 29.6951 49.5183 27.9883 49.5183C26.2816 49.5183 24.898 50.9019 24.898 52.6086V62.9097C24.898 64.6164 26.2816 66 27.9883 66C29.6951 66 31.0786 64.6164 31.0786 62.9097V52.6086Z" stroke="white" stroke-width="3.09031"/>
</svg>
