<svg width="108" height="62" viewBox="0 0 108 62" fill="none" xmlns="http://www.w3.org/2000/svg">
<path d="M39.7234 31.8524C33.9259 22.5495 35.3415 5.89859 15.9604 0C32.8136 10.4489 26.915 24.2685 39.0492 32.5265C61.9695 47.5258 70.7331 11.1231 91.2939 12.9769C74.2723 8.76363 60.6212 31.0098 47.1387 33.0321C44.5771 33.7063 40.9031 33.5377 39.7234 31.8524Z" fill="url(#paint0_linear_38_7)"/>
<path d="M51.1835 17.1902C55.3968 20.2237 49.1611 30.3356 43.4311 26.6279C39.3863 21.9091 46.1275 13.8196 51.1835 17.1902Z" fill="#DC4186"/>
<path d="M2.44244 45.035L5.88845 55.1192H6.0275L9.47351 45.035H11.4928L7.03712 57.4165H4.87883L0.423195 45.035H2.44244ZM13.1357 57.4165V48.1304H14.9433V57.4165H13.1357ZM14.0485 46.6976C13.7342 46.6976 13.4641 46.5928 13.2384 46.3832C13.0168 46.1696 12.9059 45.9157 12.9059 45.6215C12.9059 45.3232 13.0168 45.0693 13.2384 44.8597C13.4641 44.6461 13.7342 44.5393 14.0485 44.5393C14.3629 44.5393 14.6309 44.6461 14.8526 44.8597C15.0783 45.0693 15.1912 45.3232 15.1912 45.6215C15.1912 45.9157 15.0783 46.1696 14.8526 46.3832C14.6309 46.5928 14.3629 46.6976 14.0485 46.6976ZM21.7099 48.1304V49.5814H16.6376V48.1304H21.7099ZM17.9979 45.9056H19.8055V54.6899C19.8055 55.0406 19.8579 55.3046 19.9627 55.4819C20.0675 55.6552 20.2025 55.7741 20.3678 55.8386C20.537 55.899 20.7204 55.9293 20.9179 55.9293C21.063 55.9293 21.19 55.9192 21.2988 55.899C21.4076 55.8789 21.4922 55.8628 21.5527 55.8507L21.8792 57.344C21.7744 57.3843 21.6252 57.4246 21.4318 57.4649C21.2383 57.5092 20.9965 57.5334 20.7063 57.5374C20.2307 57.5455 19.7874 57.4608 19.3763 57.2835C18.9652 57.1062 18.6327 56.8321 18.3787 56.4613C18.1248 56.0905 17.9979 55.625 17.9979 55.0648V45.9056ZM26.4119 57.6221C25.8234 57.6221 25.2914 57.5132 24.8158 57.2956C24.3402 57.0739 23.9634 56.7535 23.6853 56.3343C23.4112 55.9152 23.2742 55.4013 23.2742 54.7927C23.2742 54.2687 23.375 53.8375 23.5765 53.4989C23.778 53.1604 24.05 52.8924 24.3926 52.6949C24.7352 52.4974 25.1181 52.3482 25.5413 52.2475C25.9645 52.1467 26.3958 52.0701 26.8351 52.0177C27.3913 51.9533 27.8427 51.9009 28.1893 51.8606C28.5359 51.8162 28.7878 51.7457 28.945 51.649C29.1022 51.5522 29.1808 51.395 29.1808 51.1774V51.1351C29.1808 50.6071 29.0317 50.198 28.7334 49.9078C28.4392 49.6176 27.9999 49.4725 27.4155 49.4725C26.8069 49.4725 26.3272 49.6076 25.9766 49.8776C25.63 50.1436 25.3902 50.4398 25.2572 50.7663L23.5583 50.3794C23.7599 49.8151 24.0541 49.3597 24.441 49.0131C24.832 48.6624 25.2813 48.4085 25.7892 48.2513C26.297 48.0901 26.831 48.0095 27.3913 48.0095C27.7621 48.0095 28.155 48.0538 28.5702 48.1425C28.9893 48.2271 29.3803 48.3843 29.743 48.6141C30.1098 48.8438 30.4101 49.1723 30.6438 49.5995C30.8776 50.0227 30.9945 50.5728 30.9945 51.25V57.4165H29.2291V56.1469H29.1566C29.0397 56.3807 28.8644 56.6104 28.6306 56.8361C28.3969 57.0618 28.0966 57.2492 27.7298 57.3984C27.3631 57.5475 26.9237 57.6221 26.4119 57.6221ZM26.8048 56.1711C27.3046 56.1711 27.7318 56.0724 28.0865 55.8749C28.4452 55.6774 28.7173 55.4194 28.9027 55.101C29.0921 54.7786 29.1868 54.434 29.1868 54.0672V52.8702C29.1223 52.9347 28.9974 52.9951 28.812 53.0516C28.6306 53.1039 28.4231 53.1503 28.1893 53.1906C27.9555 53.2269 27.7278 53.2611 27.5061 53.2934C27.2845 53.3216 27.0991 53.3458 26.9499 53.3659C26.5993 53.4103 26.2789 53.4848 25.9887 53.5896C25.7025 53.6944 25.4728 53.8455 25.2995 54.043C25.1302 54.2365 25.0456 54.4944 25.0456 54.8169C25.0456 55.2643 25.2108 55.6028 25.5413 55.8325C25.8718 56.0583 26.293 56.1711 26.8048 56.1711ZM35.2098 45.035V57.4165H33.4021V45.035H35.2098ZM37.6416 57.4165V48.1304H39.4493V57.4165H37.6416ZM38.5545 46.6976C38.2402 46.6976 37.9701 46.5928 37.7444 46.3832C37.5228 46.1696 37.4119 45.9157 37.4119 45.6215C37.4119 45.3232 37.5228 45.0693 37.7444 44.8597C37.9701 44.6461 38.2402 44.5393 38.5545 44.5393C38.8689 44.5393 39.1369 44.6461 39.3586 44.8597C39.5843 45.0693 39.6972 45.3232 39.6972 45.6215C39.6972 45.9157 39.5843 46.1696 39.3586 46.3832C39.1369 46.5928 38.8689 46.6976 38.5545 46.6976ZM46.2159 48.1304V49.5814H41.1436V48.1304H46.2159ZM42.5039 45.9056H44.3115V54.6899C44.3115 55.0406 44.3639 55.3046 44.4687 55.4819C44.5735 55.6552 44.7085 55.7741 44.8737 55.8386C45.043 55.899 45.2264 55.9293 45.4239 55.9293C45.569 55.9293 45.696 55.9192 45.8048 55.899C45.9136 55.8789 45.9982 55.8628 46.0587 55.8507L46.3852 57.344C46.2804 57.3843 46.1312 57.4246 45.9378 57.4649C45.7443 57.5092 45.5025 57.5334 45.2123 57.5374C44.7367 57.5455 44.2934 57.4608 43.8823 57.2835C43.4712 57.1062 43.1386 56.8321 42.8847 56.4613C42.6308 56.0905 42.5039 55.625 42.5039 55.0648V45.9056ZM49.3581 60.8988C49.0881 60.8988 48.8422 60.8766 48.6205 60.8323C48.3989 60.792 48.2336 60.7477 48.1248 60.6993L48.5601 59.2181C48.8906 59.3068 49.1848 59.3451 49.4427 59.333C49.7007 59.3209 49.9284 59.2241 50.1259 59.0428C50.3274 58.8614 50.5048 58.5652 50.6579 58.1541L50.8816 57.5374L47.4839 48.1304H49.4186L51.7703 55.3368H51.867L54.2188 48.1304H56.1594L52.3326 58.6559C52.1552 59.1395 51.9295 59.5486 51.6554 59.8831C51.3814 60.2217 51.0549 60.4756 50.676 60.6449C50.2972 60.8142 49.8579 60.8988 49.3581 60.8988ZM73.2641 51.2258C73.2641 52.5478 73.0222 53.6843 72.5386 54.6355C72.0549 55.5827 71.3919 56.3122 70.5496 56.824C69.7112 57.3319 68.758 57.5858 67.69 57.5858C66.6179 57.5858 65.6607 57.3319 64.8183 56.824C63.98 56.3122 63.319 55.5806 62.8353 54.6295C62.3517 53.6783 62.1099 52.5437 62.1099 51.2258C62.1099 49.9038 62.3517 48.7692 62.8353 47.8221C63.319 46.8709 63.98 46.1414 64.8183 45.6336C65.6607 45.1217 66.6179 44.8658 67.69 44.8658C68.758 44.8658 69.7112 45.1217 70.5496 45.6336C71.3919 46.1414 72.0549 46.8709 72.5386 47.8221C73.0222 48.7692 73.2641 49.9038 73.2641 51.2258ZM71.4141 51.2258C71.4141 50.2182 71.2509 49.3698 70.9244 48.6806C70.602 47.9873 70.1586 47.4634 69.5944 47.1087C69.0341 46.75 68.3993 46.5706 67.69 46.5706C66.9766 46.5706 66.3398 46.75 65.7796 47.1087C65.2193 47.4634 64.776 47.9873 64.4495 48.6806C64.1271 49.3698 63.9659 50.2182 63.9659 51.2258C63.9659 52.2334 64.1271 53.0838 64.4495 53.777C64.776 54.4662 65.2193 54.9902 65.7796 55.3489C66.3398 55.7036 66.9766 55.8809 67.69 55.8809C68.3993 55.8809 69.0341 55.7036 69.5944 55.3489C70.1586 54.9902 70.602 54.4662 70.9244 53.777C71.2509 53.0838 71.4141 52.2334 71.4141 51.2258ZM78.1504 57.6221C77.562 57.6221 77.03 57.5132 76.5544 57.2956C76.0788 57.0739 75.702 56.7535 75.4239 56.3343C75.1498 55.9152 75.0128 55.4013 75.0128 54.7927C75.0128 54.2687 75.1135 53.8375 75.315 53.4989C75.5166 53.1604 75.7886 52.8924 76.1312 52.6949C76.4738 52.4974 76.8567 52.3482 77.2799 52.2475C77.7031 52.1467 78.1343 52.0701 78.5736 52.0177C79.1298 51.9533 79.5812 51.9009 79.9279 51.8606C80.2745 51.8162 80.5264 51.7457 80.6836 51.649C80.8408 51.5522 80.9193 51.395 80.9193 51.1774V51.1351C80.9193 50.6071 80.7702 50.198 80.472 49.9078C80.1777 49.6176 79.7384 49.4725 79.154 49.4725C78.5454 49.4725 78.0658 49.6076 77.7152 49.8776C77.3685 50.1436 77.1287 50.4398 76.9957 50.7663L75.2969 50.3794C75.4984 49.8151 75.7926 49.3597 76.1796 49.0131C76.5705 48.6624 77.0199 48.4085 77.5277 48.2513C78.0356 48.0901 78.5696 48.0095 79.1298 48.0095C79.5006 48.0095 79.8936 48.0538 80.3087 48.1425C80.7279 48.2271 81.1189 48.3843 81.4816 48.6141C81.8484 48.8438 82.1486 49.1723 82.3824 49.5995C82.6162 50.0227 82.733 50.5728 82.733 51.25V57.4165H80.9677V56.1469H80.8952C80.7783 56.3807 80.603 56.6104 80.3692 56.8361C80.1354 57.0618 79.8352 57.2492 79.4684 57.3984C79.1016 57.5475 78.6623 57.6221 78.1504 57.6221ZM78.5434 56.1711C79.0432 56.1711 79.4704 56.0724 79.8251 55.8749C80.1838 55.6774 80.4558 55.4194 80.6412 55.101C80.8307 54.7786 80.9254 54.434 80.9254 54.0672V52.8702C80.8609 52.9347 80.736 52.9951 80.5506 53.0516C80.3692 53.1039 80.1616 53.1503 79.9279 53.1906C79.6941 53.2269 79.4664 53.2611 79.2447 53.2934C79.023 53.3216 78.8376 53.3458 78.6885 53.3659C78.3379 53.4103 78.0174 53.4848 77.7273 53.5896C77.4411 53.6944 77.2114 53.8455 77.038 54.043C76.8688 54.2365 76.7841 54.4944 76.7841 54.8169C76.7841 55.2643 76.9494 55.6028 77.2799 55.8325C77.6104 56.0583 78.0315 56.1711 78.5434 56.1711ZM92.0992 50.3975L90.4609 50.6877C90.3924 50.4781 90.2835 50.2786 90.1344 50.0892C89.9893 49.8998 89.7918 49.7446 89.5419 49.6237C89.292 49.5028 88.9797 49.4423 88.6049 49.4423C88.093 49.4423 87.6658 49.5572 87.3232 49.7869C86.9806 50.0126 86.8093 50.3048 86.8093 50.6635C86.8093 50.9739 86.9242 51.2238 87.1539 51.4132C87.3836 51.6026 87.7544 51.7578 88.2663 51.8787L89.7414 52.2173C90.5959 52.4147 91.2327 52.719 91.6519 53.1301C92.071 53.5413 92.2806 54.0753 92.2806 54.7322C92.2806 55.2884 92.1194 55.7842 91.797 56.2195C91.4786 56.6507 91.0332 56.9893 90.4609 57.2351C89.8926 57.481 89.2336 57.6039 88.4839 57.6039C87.4441 57.6039 86.5957 57.3822 85.9387 56.9389C85.2818 56.4915 84.8787 55.8567 84.7296 55.0345L86.4768 54.7685C86.5856 55.224 86.8093 55.5686 87.1479 55.8023C87.4864 56.0321 87.9277 56.1469 88.4719 56.1469C89.0643 56.1469 89.5379 56.024 89.8926 55.7781C90.2473 55.5282 90.4246 55.224 90.4246 54.8652C90.4246 54.5751 90.3158 54.3312 90.0981 54.1337C89.8845 53.9362 89.556 53.7871 89.1127 53.6863L87.5408 53.3417C86.6743 53.1443 86.0334 52.8299 85.6183 52.3986C85.2072 51.9674 85.0017 51.4212 85.0017 50.7603C85.0017 50.2121 85.1548 49.7325 85.4611 49.3214C85.7674 48.9103 86.1906 48.5899 86.7307 48.3601C87.2708 48.1264 87.8895 48.0095 88.5867 48.0095C89.5903 48.0095 90.3803 48.2271 90.9566 48.6624C91.533 49.0937 91.9138 49.672 92.0992 50.3975ZM94.2681 57.4165V48.1304H96.0758V57.4165H94.2681ZM95.181 46.6976C94.8666 46.6976 94.5966 46.5928 94.3709 46.3832C94.1492 46.1696 94.0384 45.9157 94.0384 45.6215C94.0384 45.3232 94.1492 45.0693 94.3709 44.8597C94.5966 44.6461 94.8666 44.5393 95.181 44.5393C95.4954 44.5393 95.7634 44.6461 95.9851 44.8597C96.2108 45.0693 96.3236 45.3232 96.3236 45.6215C96.3236 45.9157 96.2108 46.1696 95.9851 46.3832C95.7634 46.5928 95.4954 46.6976 95.181 46.6976ZM105.466 50.3975L103.828 50.6877C103.759 50.4781 103.65 50.2786 103.501 50.0892C103.356 49.8998 103.159 49.7446 102.909 49.6237C102.659 49.5028 102.347 49.4423 101.972 49.4423C101.46 49.4423 101.033 49.5572 100.69 49.7869C100.348 50.0126 100.176 50.3048 100.176 50.6635C100.176 50.9739 100.291 51.2238 100.521 51.4132C100.751 51.6026 101.121 51.7578 101.633 51.8787L103.108 52.2173C103.963 52.4147 104.6 52.719 105.019 53.1301C105.438 53.5413 105.648 54.0753 105.648 54.7322C105.648 55.2884 105.486 55.7842 105.164 56.2195C104.845 56.6507 104.4 56.9893 103.828 57.2351C103.259 57.481 102.601 57.6039 101.851 57.6039C100.811 57.6039 99.9626 57.3822 99.3056 56.9389C98.6487 56.4915 98.2456 55.8567 98.0965 55.0345L99.8437 54.7685C99.9525 55.224 100.176 55.5686 100.515 55.8023C100.853 56.0321 101.295 56.1469 101.839 56.1469C102.431 56.1469 102.905 56.024 103.259 55.7781C103.614 55.5282 103.792 55.224 103.792 54.8652C103.792 54.5751 103.683 54.3312 103.465 54.1337C103.251 53.9362 102.923 53.7871 102.48 53.6863L100.908 53.3417C100.041 53.1443 99.4004 52.8299 98.9852 52.3986C98.5741 51.9674 98.3686 51.4212 98.3686 50.7603C98.3686 50.2121 98.5217 49.7325 98.828 49.3214C99.1343 48.9103 99.5575 48.5899 100.098 48.3601C100.638 48.1264 101.256 48.0095 101.954 48.0095C102.957 48.0095 103.747 48.2271 104.324 48.6624C104.9 49.0937 105.281 49.672 105.466 50.3975Z" fill="black"/>
<defs>
<linearGradient id="paint0_linear_38_7" x1="16.129" y1="0.337061" x2="91.2939" y2="12.9769" gradientUnits="userSpaceOnUse">
<stop stop-color="#D98E13"/>
<stop offset="1" stop-color="#DC5B3F"/>
</linearGradient>
</defs>
</svg>
