<?xml version="1.0" standalone="no"?>
<!DOCTYPE svg PUBLIC "-//W3C//DTD SVG 20010904//EN"
 "http://www.w3.org/TR/2001/REC-SVG-20010904/DTD/svg10.dtd">
<svg version="1.0" xmlns="http://www.w3.org/2000/svg"
 width="400.000000pt" height="230.000000pt" viewBox="0 0 400.000000 230.000000"
 preserveAspectRatio="xMidYMid meet">

<g transform="translate(0.000000,230.000000) scale(0.100000,-0.100000)"
fill="#000000" stroke="none">
<path d="M2027 2283 c-10 -9 -9 -33 1 -33 4 0 8 9 8 20 0 23 0 22 -9 13z"/>
<path d="M2054 2269 c0 -10 4 -19 8 -19 4 0 8 6 8 14 0 8 -4 17 -8 20 -4 2 -8
-4 -8 -15z"/>
<path d="M1880 2240 c0 -5 7 -10 15 -10 8 0 15 5 15 10 0 6 -7 10 -15 10 -8 0
-15 -4 -15 -10z"/>
<path d="M2050 2210 c0 -5 5 -10 10 -10 6 0 10 5 10 10 0 6 -4 10 -10 10 -5 0
-10 -4 -10 -10z"/>
<path d="M1856 2193 c-6 -14 -5 -15 5 -6 7 7 10 15 7 18 -3 3 -9 -2 -12 -12z"/>
<path d="M1894 2175 c-8 -20 4 -35 27 -35 23 0 36 27 21 42 -8 8 -9 5 -5 -11
4 -16 1 -21 -16 -21 -23 0 -29 25 -8 33 9 4 9 6 -1 6 -7 1 -15 -6 -18 -14z"/>
<path d="M2064 2145 c-8 -20 4 -35 27 -35 23 0 36 27 21 42 -8 8 -9 5 -5 -11
4 -16 1 -21 -16 -21 -23 0 -29 25 -8 33 9 4 9 6 -1 6 -7 1 -15 -6 -18 -14z"/>
<path d="M1717 2143 c-9 -9 -9 -41 1 -46 4 -3 7 8 7 24 0 16 0 29 -1 29 0 0
-4 -3 -7 -7z"/>
<path d="M1838 2139 c-21 -12 -24 -35 -5 -42 18 -7 57 10 57 25 0 10 -2 10 -9
0 -7 -11 -9 -11 -14 2 -3 8 -1 17 6 20 7 3 6 5 -3 5 -8 0 -23 -4 -32 -10z"/>
<path d="M1616 2131 c-4 -5 -2 -12 3 -15 5 -4 12 -2 15 3 4 5 2 12 -3 15 -5 4
-12 2 -15 -3z"/>
<path d="M1755 2120 c-7 -12 2 -30 16 -30 5 0 9 9 9 20 0 21 -15 27 -25 10z"/>
<path d="M1992 2097 c-14 -16 -6 -27 20 -27 13 0 18 6 16 17 -4 22 -22 27 -36
10z"/>
<path d="M2286 2101 c-9 -14 4 -41 19 -41 8 0 16 4 19 9 3 5 -2 8 -11 7 -9 0
-18 5 -21 13 -3 10 1 12 17 8 11 -3 21 -1 21 4 0 12 -37 12 -44 0z"/>
<path d="M1800 2086 c0 -9 5 -16 10 -16 6 0 10 4 10 9 0 6 -4 13 -10 16 -5 3
-10 -1 -10 -9z"/>
<path d="M1927 2093 c-10 -9 -9 -23 2 -23 5 0 11 7 15 15 5 15 -5 20 -17 8z"/>
<path d="M1656 2083 c-3 -4 -6 -15 -6 -25 0 -24 33 -21 38 3 3 17 -21 33 -32
22z"/>
<path d="M2060 2080 c0 -5 7 -10 16 -10 8 0 12 5 9 10 -3 6 -10 10 -16 10 -5
0 -9 -4 -9 -10z"/>
<path d="M2221 2077 c-1 -10 -11 -22 -23 -27 -16 -6 -18 -9 -7 -9 21 -1 43 24
36 41 -3 8 -6 6 -6 -5z"/>
<path d="M2245 2049 c-10 -15 3 -25 16 -12 7 7 7 13 1 17 -6 3 -14 1 -17 -5z"/>
<path d="M1734 2035 c-9 -23 3 -45 25 -45 21 0 33 22 25 45 -4 8 -15 15 -25
15 -11 0 -22 -7 -25 -15z m41 -15 c0 -8 -8 -16 -17 -18 -13 -2 -18 3 -18 18 0
15 5 20 18 18 9 -2 17 -10 17 -18z"/>
<path d="M2101 2036 c-7 -8 -10 -19 -7 -24 9 -15 -13 -78 -34 -97 -18 -16 -20
-16 -20 -2 0 10 -8 17 -19 17 -28 0 -36 -18 -17 -39 15 -16 14 -21 -14 -59
-30 -41 -56 -125 -45 -143 4 -5 2 -9 -4 -9 -12 0 -24 37 -16 50 8 14 -4 50
-17 50 -7 0 -6 -5 2 -15 6 -8 10 -20 8 -27 -3 -7 -16 5 -30 27 -46 71 -45 77
19 144 31 34 65 61 74 61 22 0 43 26 35 45 -3 8 -17 15 -31 15 -21 0 -25 -5
-25 -27 0 -22 -13 -38 -58 -75 l-57 -47 -9 35 c-7 28 -5 39 10 56 11 12 13 18
7 14 -7 -4 -13 -3 -13 3 0 5 6 12 13 14 9 4 8 8 -3 16 -27 19 -37 -5 -33 -81
4 -83 6 -99 15 -113 9 -15 27 -85 22 -85 -15 0 -64 32 -59 39 2 5 -2 14 -9 20
-11 9 -19 9 -35 -1 -18 -11 -26 -10 -56 6 -31 17 -41 33 -36 59 1 5 -7 23 -17
40 -11 18 -17 38 -14 46 3 10 0 12 -13 7 -10 -3 -25 -1 -34 6 -9 7 -1 -4 17
-23 20 -22 35 -51 39 -74 l6 -38 -37 6 c-20 3 -50 15 -66 27 -17 12 -30 19
-30 16 0 -3 19 -18 43 -33 23 -16 47 -34 53 -42 6 -8 16 -11 22 -7 11 7 80
-13 119 -33 10 -5 37 -17 60 -26 45 -19 120 -89 153 -142 22 -37 17 -40 -31
-16 -19 9 -41 18 -49 19 -54 8 -139 42 -210 82 -83 47 -143 70 -80 30 19 -13
42 -29 50 -37 13 -13 13 -14 -2 -8 -10 3 -18 2 -18 -3 0 -6 -14 -10 -32 -10
-49 0 -26 -10 33 -15 86 -7 177 -35 182 -56 4 -14 14 -17 48 -16 60 1 116 -25
130 -60 13 -33 17 -146 6 -185 -7 -25 -11 -26 -94 -33 -97 -7 -325 -43 -333
-52 -3 -3 15 -3 40 0 165 22 428 30 607 18 103 -6 208 -14 233 -18 25 -3 42
-3 39 1 -9 10 -215 42 -321 51 l-87 7 -6 46 c-3 26 -12 82 -19 125 -14 87 -11
98 47 139 21 15 27 17 18 5 -9 -11 -10 -17 -2 -17 6 0 16 11 21 24 15 39 75
51 181 35 64 -9 86 -16 82 -26 -3 -7 0 -13 6 -13 6 0 11 7 11 16 0 13 8 15 43
10 30 -4 36 -3 22 3 -11 5 -39 10 -63 10 -62 1 -49 23 22 38 79 15 94 32 19
21 -32 -6 -67 -10 -78 -11 -11 -1 -26 -7 -33 -14 -12 -12 -72 -19 -72 -8 0 2
31 19 70 37 63 30 89 52 76 66 -11 11 -54 -9 -52 -25 1 -11 -17 -24 -58 -40
-66 -27 -85 -22 -43 11 15 12 27 25 27 29 0 4 -25 -13 -55 -38 -31 -25 -64
-45 -75 -45 -10 0 -22 -4 -25 -10 -14 -23 -27 -9 -21 22 9 44 25 62 43 46 18
-15 47 11 37 35 -10 27 -41 20 -60 -13 -14 -22 -21 -27 -31 -18 -7 6 -13 17
-13 25 0 17 -31 14 -37 -4 -3 -7 7 -17 21 -23 24 -9 26 -13 20 -52 -4 -24 -13
-47 -21 -51 -7 -5 -22 -17 -32 -29 -20 -20 -20 -20 -45 31 -37 71 -35 113 6
143 50 36 77 48 83 37 9 -14 41 -11 55 6 7 9 21 13 31 10 9 -3 20 -1 24 5 3 5
31 10 60 10 44 0 56 -4 65 -20 14 -27 50 -26 57 1 5 16 12 20 31 16 14 -3 32
1 39 9 15 15 54 5 61 -14 5 -15 -24 -16 -31 -2 -3 6 -4 5 -3 -2 4 -21 41 -15
41 6 0 26 -41 36 -101 25 -46 -9 -74 -5 -40 6 9 3 23 7 32 10 9 3 14 8 11 11
-3 3 -25 -1 -49 -9 -23 -8 -74 -15 -113 -16 -65 0 -68 0 -45 14 14 8 45 17 70
21 52 8 136 42 127 51 -4 3 -13 0 -22 -7 -9 -8 -28 -10 -52 -6 -26 5 -33 4
-24 -3 19 -12 -48 -26 -83 -17 -20 5 -28 0 -43 -27 -16 -26 -26 -32 -59 -34
-28 -2 -35 0 -24 7 9 6 10 10 3 10 -7 0 -16 -6 -20 -13 -10 -16 -63 -39 -63
-27 0 5 18 21 41 37 23 15 57 42 77 58 19 17 47 30 61 30 21 0 26 5 26 25 0
33 -35 34 -51 2 -11 -23 -81 -81 -98 -82 -5 0 -2 8 6 18 8 9 18 30 22 46 4 17
15 35 24 42 16 12 16 14 1 29 -14 14 -17 14 -28 1z m-96 -36 c0 -8 -8 -16 -17
-18 -13 -2 -18 3 -18 18 0 15 5 20 18 18 9 -2 17 -10 17 -18z m210 -10 c-3 -5
-13 -10 -21 -10 -8 0 -12 5 -9 10 3 6 13 10 21 10 8 0 12 -4 9 -10z m-80 -170
c-3 -5 -16 -10 -28 -10 -18 0 -19 2 -7 10 20 13 43 13 35 0z m230 0 c-3 -5
-13 -10 -21 -10 -8 0 -14 5 -14 10 0 6 9 10 21 10 11 0 17 -4 14 -10z m-182
-81 c-17 -17 -37 -1 -22 17 8 10 15 12 23 4 7 -7 7 -13 -1 -21z m-346 -165
c-3 -3 -12 -4 -19 -1 -8 3 -5 6 6 6 11 1 17 -2 13 -5z"/>
<path d="M1896 2002 c-3 -6 -1 -14 5 -17 15 -10 25 3 12 16 -7 7 -13 7 -17 1z"/>
<path d="M2270 2000 c0 -5 5 -10 11 -10 5 0 7 5 4 10 -3 6 -8 10 -11 10 -2 0
-4 -4 -4 -10z"/>
<path d="M2320 2000 c0 -5 5 -10 10 -10 6 0 10 5 10 10 0 6 -4 10 -10 10 -5 0
-10 -4 -10 -10z"/>
<path d="M1652 1970 c0 -14 2 -19 5 -12 2 6 2 18 0 25 -3 6 -5 1 -5 -13z"/>
<path d="M1954 1919 c0 -22 12 -25 19 -5 3 8 0 16 -6 19 -7 3 -13 -3 -13 -14z"/>
<path d="M1660 1916 c0 -2 9 -6 20 -9 11 -3 18 -1 14 4 -5 9 -34 13 -34 5z"/>
<path d="M1550 1877 c15 -20 52 -19 56 1 1 7 0 8 -3 2 -7 -14 -36 -13 -53 3
-12 10 -12 9 0 -6z"/>
<path d="M1682 1875 c-7 -9 -8 -15 -2 -15 5 0 10 -7 10 -15 0 -8 7 -15 15 -15
17 0 20 16 4 25 -6 4 -8 13 -5 21 7 18 -5 17 -22 -1z"/>
<path d="M1970 1880 c0 -5 5 -10 11 -10 5 0 7 5 4 10 -3 6 -8 10 -11 10 -2 0
-4 -4 -4 -10z"/>
<path d="M1922 1838 c6 -18 28 -21 28 -4 0 9 -7 16 -16 16 -9 0 -14 -5 -12
-12z"/>
<path d="M2450 1800 c0 -5 5 -10 10 -10 6 0 10 5 10 10 0 6 -4 10 -10 10 -5 0
-10 -4 -10 -10z"/>
<path d="M1540 1780 c0 -5 5 -10 10 -10 6 0 10 5 10 10 0 6 -4 10 -10 10 -5 0
-10 -4 -10 -10z"/>
<path d="M1496 1741 c-10 -16 5 -41 25 -41 10 0 19 4 19 9 0 5 -7 8 -16 7 -9
0 -19 5 -22 13 -3 10 1 12 17 8 11 -3 21 -1 21 4 0 12 -37 12 -44 0z"/>
<path d="M2046 1701 c-4 -5 -2 -12 3 -15 5 -4 12 -2 15 3 4 5 2 12 -3 15 -5 4
-12 2 -15 -3z"/>
<path d="M1566 1691 c-4 -5 -2 -12 3 -15 5 -4 12 -2 15 3 4 5 2 12 -3 15 -5 4
-12 2 -15 -3z"/>
<path d="M1860 1670 c0 -5 5 -10 10 -10 6 0 10 5 10 10 0 6 -4 10 -10 10 -5 0
-10 -4 -10 -10z"/>
<path d="M1521 1619 c-1 -9 7 -23 17 -30 15 -12 16 -12 6 1 -6 8 -14 22 -17
30 -5 13 -6 12 -6 -1z"/>
<path d="M2219 1613 c-13 -16 -12 -17 4 -4 16 13 21 21 13 21 -2 0 -10 -8 -17
-17z"/>
<path d="M1581 1597 c-13 -21 -12 -21 5 -5 10 10 16 20 13 22 -3 3 -11 -5 -18
-17z"/>
<path d="M1666 1583 c-9 -22 7 -36 33 -28 17 5 19 10 11 26 -13 23 -36 25 -44
2z m31 -8 c0 -8 -6 -15 -14 -15 -14 0 -17 12 -6 23 11 11 20 8 20 -8z"/>
<path d="M2230 1580 c0 -5 5 -10 10 -10 6 0 10 5 10 10 0 6 -4 10 -10 10 -5 0
-10 -4 -10 -10z"/>
<path d="M1735 1570 c3 -5 10 -10 16 -10 5 0 9 5 9 10 0 6 -7 10 -16 10 -8 0
-12 -4 -9 -10z"/>
<path d="M2144 1556 c-10 -26 4 -48 28 -44 17 2 23 10 23 28 0 18 -6 26 -23
28 -13 2 -25 -3 -28 -12z m44 -19 c2 -10 -3 -17 -12 -17 -18 0 -29 16 -21 31
9 14 29 6 33 -14z"/>
<path d="M2297 1563 c-15 -14 -7 -43 12 -43 26 0 36 17 21 35 -14 16 -23 19
-33 8z m31 -21 c2 -7 -3 -12 -12 -12 -9 0 -16 7 -16 16 0 17 22 14 28 -4z"/>
<path d="M1580 1529 c0 -25 33 -22 38 4 2 12 -3 17 -17 17 -15 0 -21 -6 -21
-21z"/>
<path d="M1745 1529 c-4 -6 -5 -12 -2 -15 2 -3 7 2 10 11 7 17 1 20 -8 4z"/>
<path d="M1850 1500 c0 -15 5 -20 18 -18 9 2 17 10 17 18 0 8 -8 16 -17 18
-13 2 -18 -3 -18 -18z m30 6 c0 -3 -4 -8 -10 -11 -5 -3 -10 -1 -10 4 0 6 5 11
10 11 6 0 10 -2 10 -4z"/>
<path d="M1789 1483 c-13 -16 -12 -17 4 -4 9 7 17 15 17 17 0 8 -8 3 -21 -13z"/>
<path d="M11 1068 c0 -7 28 -94 62 -193 61 -178 62 -180 91 -180 28 0 30 4 75
133 25 72 48 132 51 132 3 0 25 -60 51 -133 44 -129 46 -132 75 -132 29 0 29
1 91 180 34 99 62 186 62 193 1 7 -11 12 -28 12 -29 0 -30 -3 -73 -131 -24
-72 -48 -131 -53 -131 -5 0 -29 59 -53 131 -42 124 -46 131 -71 131 -25 0 -28
-7 -70 -133 -25 -72 -48 -136 -51 -140 -4 -4 -28 55 -55 133 -46 137 -48 140
-76 140 -17 0 -29 -5 -28 -12z"/>
<path d="M652 888 l3 -193 138 -3 137 -3 0 31 0 30 -105 0 -105 0 0 55 0 55
90 0 90 0 0 31 0 30 -90 -3 -90 -3 0 53 0 52 106 0 105 0 -3 28 -3 27 -138 3
-137 3 2 -193z"/>
<path d="M1073 1063 c-38 -19 -57 -52 -57 -99 0 -50 37 -82 120 -105 38 -10
77 -28 88 -38 18 -19 18 -21 2 -45 -14 -23 -23 -26 -74 -26 -40 0 -67 6 -91
21 -18 11 -34 19 -36 17 -1 -2 -7 -13 -14 -25 -10 -19 -7 -24 24 -43 84 -52
223 -31 252 37 30 73 -4 119 -112 152 -65 21 -105 44 -105 63 0 4 9 17 20 28
25 25 101 27 144 5 31 -17 46 -8 46 26 0 41 -144 63 -207 32z"/>
<path d="M1344 1053 c3 -27 6 -28 65 -31 l61 -3 0 -164 0 -165 30 0 30 0 0
165 0 165 65 0 65 0 0 30 0 30 -159 0 -160 0 3 -27z"/>
<path d="M1841 968 c28 -62 67 -150 86 -195 33 -74 39 -83 63 -83 24 0 30 9
63 83 19 45 58 133 86 195 l50 112 -33 0 c-33 0 -34 0 -97 -145 -35 -80 -66
-145 -69 -145 -3 0 -33 65 -67 143 l-61 142 -36 3 -36 3 51 -113z"/>
<path d="M2312 1038 c-11 -24 -49 -109 -86 -189 -36 -81 -66 -149 -66 -153 0
-3 14 -6 31 -6 27 0 33 5 52 50 l21 50 94 0 93 0 21 -50 c19 -46 23 -50 55
-50 19 0 33 4 31 8 -1 5 -41 93 -88 195 -80 175 -87 187 -112 187 -22 0 -30
-8 -46 -42z m78 -114 c16 -37 30 -71 30 -75 0 -5 -30 -9 -66 -9 -36 0 -64 4
-62 8 19 46 63 142 65 142 2 0 16 -30 33 -66z"/>
<path d="M2630 885 l0 -195 130 0 130 0 0 30 0 30 -100 0 -100 0 0 165 0 165
-30 0 -30 0 0 -195z"/>
<path d="M2970 885 l0 -195 130 0 130 0 0 30 0 30 -100 0 -100 0 0 165 0 165
-30 0 -30 0 0 -195z"/>
<path d="M3310 885 l0 -195 140 0 140 0 0 30 0 30 -105 0 -105 0 0 55 0 55 90
0 90 0 0 31 0 30 -90 -3 -90 -3 0 53 0 52 105 0 105 0 0 30 0 30 -140 0 -140
0 0 -195z"/>
<path d="M3630 1076 c0 -3 34 -61 75 -129 73 -122 75 -126 75 -191 l0 -66 30
0 30 0 0 66 c0 66 2 69 75 190 41 68 75 126 75 129 0 3 -14 5 -32 3 -28 -3
-38 -13 -89 -97 l-57 -93 -24 38 c-14 22 -40 65 -59 97 -30 51 -37 57 -66 57
-18 0 -33 -2 -33 -4z"/>
<path d="M2565 565 c-39 -70 -58 -83 -49 -35 7 34 -9 60 -38 60 -17 0 -18 -6
-12 -67 3 -38 7 -74 10 -81 2 -7 -14 -40 -36 -74 -40 -62 -50 -98 -27 -98 7 0
24 27 39 61 27 60 27 61 50 45 39 -28 79 -19 169 35 117 71 174 99 204 99 23
0 24 2 15 20 -22 41 -57 27 -200 -79 -99 -74 -126 -83 -152 -51 -10 12 -18 30
-18 39 0 10 25 53 55 96 59 85 63 95 40 95 -7 0 -30 -29 -50 -65z"/>
<path d="M2050 560 c-11 -21 -20 -46 -20 -54 0 -23 -29 -46 -56 -46 -14 0 -22
-4 -19 -10 3 -5 17 -10 31 -10 19 0 24 -4 20 -17 -2 -10 -8 -34 -11 -53 -16
-76 -86 -168 -144 -188 -37 -13 -50 -3 -58 41 -4 29 -2 37 10 37 9 0 39 22 67
50 44 43 51 55 48 82 -2 27 -8 34 -28 36 -89 10 -188 -179 -134 -256 36 -52
140 -11 194 77 29 46 40 51 40 17 0 -33 37 -76 64 -76 33 0 69 31 97 84 l24
45 20 -26 c64 -79 182 35 193 187 5 74 -9 100 -54 100 -24 0 -71 -37 -60 -47
3 -3 13 2 22 11 57 57 83 -87 34 -184 -37 -73 -73 -90 -90 -44 -14 35 3 98 41
152 39 54 17 57 -37 4 -25 -24 -49 -62 -66 -107 -88 -223 -188 -172 -122 61
14 50 40 74 79 74 8 0 15 5 15 10 0 13 -16 13 -41 0 -23 -13 -25 -3 -5 45 15
36 12 45 -15 45 -12 0 -26 -15 -39 -40z m-168 -196 c-24 -46 -82 -105 -82 -83
0 26 48 117 67 127 29 17 36 -3 15 -44z"/>
<path d="M1043 383 c-96 -95 -128 -158 -128 -250 0 -62 3 -75 24 -97 17 -18
34 -26 55 -25 17 0 25 3 18 6 -23 9 -42 61 -42 115 0 64 34 142 91 210 21 26
39 55 39 65 0 11 5 24 12 31 7 7 9 12 5 12 -3 0 -37 -30 -74 -67z"/>
<path d="M1330 84 c15 -17 30 -18 30 -1 0 7 -9 13 -21 14 -17 2 -18 -1 -9 -13z"/>
<path d="M1440 70 c-54 -29 -135 -44 -173 -31 l-32 11 24 -20 c48 -41 203 -20
247 33 19 22 19 22 -2 5 -11 -10 -31 -18 -43 -18 l-23 0 23 20 c30 24 24 24
-21 0z"/>
</g>
</svg>
