<svg width="91" height="90" viewBox="0 0 91 90" fill="none" xmlns="http://www.w3.org/2000/svg">
<circle cx="45.5" cy="45" r="45" fill="#F2C618"/>
<path d="M31.5446 49.236C30.8426 49.1369 30.2169 48.4394 30.1113 47.7501C29.9545 46.7268 29.9978 44.2237 30.0814 43.1421C30.1605 42.1199 30.6732 41.3931 31.7474 41.2848C34.6625 40.991 38.0478 41.5033 41.0111 41.288C41.1974 41.2744 41.3792 41.2555 41.5464 41.1684C41.6551 38.4448 41.451 35.6974 41.5562 32.9743C41.577 32.4382 41.5919 31.4428 41.6668 30.9709C41.7577 30.3987 42.564 29.8559 43.1156 29.8024C44.2439 29.693 47.053 29.6722 48.156 29.8052C48.7238 29.8737 49.1796 30.3515 49.4681 30.8083C49.7431 34.2106 49.6109 37.6664 49.5558 41.0824C49.7265 41.2608 49.9338 41.2676 50.1621 41.2881C53.0833 41.551 56.5515 40.9593 59.428 41.2831C60.3798 41.3902 60.9722 42.0247 61.0758 42.9572C61.1968 44.0464 61.2 46.4817 61.0872 47.5736C60.9922 48.4919 60.4452 49.1146 59.5172 49.2248C56.6336 49.5674 53.1257 49.0161 50.1625 49.2314C49.9763 49.245 49.7944 49.2639 49.6273 49.351C49.5556 51.9781 49.6729 54.6149 49.6176 57.243C49.6062 57.7797 49.6332 58.3104 49.6128 58.847C49.5755 59.8271 49.0875 60.6012 48.0533 60.7122C47.0204 60.8231 44.0248 60.8464 43.0285 60.7033C42.1799 60.5815 41.6039 59.9024 41.5811 59.0507C41.5054 56.2227 41.6499 53.3371 41.6046 50.4943C41.5986 50.1166 41.6237 49.5077 41.4094 49.236L31.5446 49.236Z" fill="white"/>
<path d="M28.8126 65.1057C28.3757 64.6383 28.6568 63.9715 29.2919 64.0885C29.6311 64.1509 31.0592 65.3112 31.5022 65.5864C40.1994 70.9902 51.1327 70.7184 59.4093 64.6196C68.2453 58.1086 71.8795 46.374 67.9385 35.9983C68.8616 34.4047 69.3684 36.511 69.6156 37.3364C76.224 59.4041 52.4128 78.5132 32.232 67.3731C31.4632 66.9488 29.3495 65.68 28.8126 65.1057Z" fill="white"/>
<path d="M29.3218 27.937C22.2192 34.6906 19.7418 45.2953 23.2146 54.5381C23.1462 55.1287 22.3851 55.2925 22.0905 54.7648C21.6089 53.9022 21.0208 51.214 20.8519 50.1647C17.3258 28.2589 41.0174 12.1028 60.0126 23.7867C60.488 24.0791 62.5339 25.3734 62.5778 25.8469C62.6003 26.0893 62.1853 26.6101 61.8939 26.4441C60.6843 25.6692 59.5389 24.8053 58.2723 24.1178C48.7811 18.9656 37.1213 20.5205 29.3218 27.937Z" fill="white"/>
<path d="M61.6624 19.0568C62.4521 18.8198 62.4975 19.3651 62.6527 19.9384C63.2759 22.2402 63.5952 24.6454 64.2004 26.9549C64.2238 28.0077 63.3906 28.6261 62.3708 28.3743C60.1548 27.5784 57.8662 26.9913 55.6316 26.2553C55.3481 26.1619 54.1485 25.7879 54.0334 25.6396C53.7225 25.2391 54.064 24.6439 54.5686 24.6946C57.1225 25.3405 59.6839 26.4804 62.2193 27.1157C62.5615 27.2015 62.9817 27.4585 63.0825 26.9578L61.3974 19.7818C61.3677 19.5149 61.347 19.1515 61.6624 19.0568Z" fill="white"/>
<path d="M29.7589 71.3584C29.323 71.7949 28.8836 71.3136 28.7239 70.8814C27.9172 68.6983 27.7127 65.8224 26.9727 63.5652C27.043 62.2978 27.7611 61.957 28.9427 62.2066C31.3115 62.707 33.8246 63.9531 36.2231 64.4891C37.1677 64.7613 37.0338 65.8571 35.9823 65.636L28.4753 63.2678C28.3034 63.1984 28.095 63.3533 28.1152 63.5368L29.8774 70.7419C29.897 70.9174 29.8835 71.2336 29.7589 71.3584Z" fill="white"/>
</svg>
