<svg width="86" height="13" viewBox="0 0 86 13" fill="none" xmlns="http://www.w3.org/2000/svg">
<path d="M6.50573 10.4111L3.35199 12.311C3.21267 12.3996 3.06701 12.4376 2.91503 12.425C2.76304 12.4123 2.63005 12.3616 2.51606 12.273C2.40207 12.1843 2.31341 12.0736 2.25008 11.9409C2.18675 11.8082 2.17409 11.6592 2.21208 11.4941L3.04801 7.90335L0.255245 5.49055C0.128588 5.37656 0.0495549 5.24661 0.0181441 5.1007C-0.0132666 4.95479 -0.00389412 4.81243 0.0462618 4.67362C0.0964176 4.5348 0.172411 4.42081 0.274243 4.33164C0.376075 4.24248 0.515396 4.18548 0.692208 4.16066L4.3779 3.83768L5.80279 0.455963C5.86612 0.303975 5.9644 0.189984 6.09764 0.113991C6.23089 0.0379968 6.36691 0 6.50573 0C6.64455 0 6.78057 0.0379968 6.91382 0.113991C7.04706 0.189984 7.14534 0.303975 7.20867 0.455963L8.63355 3.83768L12.3193 4.16066C12.4966 4.18599 12.6359 4.24298 12.7372 4.33164C12.8385 4.4203 12.9145 4.53429 12.9652 4.67362C13.0159 4.81294 13.0255 4.95555 12.9941 5.10146C12.9627 5.24737 12.8834 5.37706 12.7562 5.49055L9.96344 7.90335L10.7994 11.4941C10.8374 11.6587 10.8247 11.8077 10.7614 11.9409C10.6981 12.0741 10.6094 12.1848 10.4954 12.273C10.3814 12.3611 10.2484 12.4118 10.0964 12.425C9.94445 12.4381 9.79879 12.4002 9.65947 12.311L6.50573 10.4111Z" fill="#F2C618"/>
<path d="M24.5179 10.4111L21.3642 12.311C21.2249 12.3996 21.0792 12.4376 20.9272 12.425C20.7752 12.4123 20.6423 12.3616 20.5283 12.273C20.4143 12.1843 20.3256 12.0736 20.2623 11.9409C20.199 11.8082 20.1863 11.6592 20.2243 11.4941L21.0602 7.90335L18.2675 5.49055C18.1408 5.37656 18.0618 5.24661 18.0304 5.1007C17.9989 4.95479 18.0083 4.81243 18.0585 4.67362C18.1086 4.5348 18.1846 4.42081 18.2864 4.33164C18.3883 4.24248 18.5276 4.18548 18.7044 4.16066L22.3901 3.83768L23.815 0.455963C23.8783 0.303975 23.9766 0.189984 24.1099 0.113991C24.2431 0.0379968 24.3791 0 24.5179 0C24.6568 0 24.7928 0.0379968 24.926 0.113991C25.0593 0.189984 25.1576 0.303975 25.2209 0.455963L26.6458 3.83768L30.3315 4.16066C30.5088 4.18599 30.6481 4.24298 30.7494 4.33164C30.8507 4.4203 30.9267 4.53429 30.9774 4.67362C31.0281 4.81294 31.0377 4.95555 31.0063 5.10146C30.9749 5.24737 30.8956 5.37706 30.7684 5.49055L27.9757 7.90335L28.8116 11.4941C28.8496 11.6587 28.8369 11.8077 28.7736 11.9409C28.7103 12.0741 28.6216 12.1848 28.5076 12.273C28.3936 12.3611 28.2606 12.4118 28.1086 12.425C27.9567 12.4381 27.811 12.4002 27.6717 12.311L24.5179 10.4111Z" fill="#F2C618"/>
<path d="M42.5299 10.4111L39.3762 12.311C39.2368 12.3996 39.0912 12.4376 38.9392 12.425C38.7872 12.4123 38.6542 12.3616 38.5402 12.273C38.4262 12.1843 38.3376 12.0736 38.2743 11.9409C38.2109 11.8082 38.1983 11.6592 38.2363 11.4941L39.0722 7.90335L36.2794 5.49055C36.1528 5.37656 36.0737 5.24661 36.0423 5.1007C36.0109 4.95479 36.0203 4.81243 36.0704 4.67362C36.1206 4.5348 36.1966 4.42081 36.2984 4.33164C36.4002 4.24248 36.5396 4.18548 36.7164 4.16066L40.4021 3.83768L41.827 0.455963C41.8903 0.303975 41.9886 0.189984 42.1218 0.113991C42.2551 0.0379968 42.3911 0 42.5299 0C42.6687 0 42.8047 0.0379968 42.938 0.113991C43.0712 0.189984 43.1695 0.303975 43.2328 0.455963L44.6577 3.83768L48.3434 4.16066C48.5207 4.18599 48.6601 4.24298 48.7614 4.33164C48.8627 4.4203 48.9387 4.53429 48.9894 4.67362C49.04 4.81294 49.0497 4.95555 49.0182 5.10146C48.9868 5.24737 48.9075 5.37706 48.7804 5.49055L45.9876 7.90335L46.8235 11.4941C46.8615 11.6587 46.8489 11.8077 46.7855 11.9409C46.7222 12.0741 46.6336 12.1848 46.5196 12.273C46.4056 12.3611 46.2726 12.4118 46.1206 12.425C45.9686 12.4381 45.823 12.4002 45.6836 12.311L42.5299 10.4111Z" fill="#F2C618"/>
<path d="M60.5421 10.4111L57.3884 12.311C57.249 12.3996 57.1034 12.4376 56.9514 12.425C56.7994 12.4123 56.6664 12.3616 56.5524 12.273C56.4384 12.1843 56.3498 12.0736 56.2865 11.9409C56.2231 11.8082 56.2105 11.6592 56.2485 11.4941L57.0844 7.90335L54.2916 5.49055C54.165 5.37656 54.0859 5.24661 54.0545 5.1007C54.0231 4.95479 54.0325 4.81243 54.0826 4.67362C54.1328 4.5348 54.2088 4.42081 54.3106 4.33164C54.4125 4.24248 54.5518 4.18548 54.7286 4.16066L58.4143 3.83768L59.8392 0.455963C59.9025 0.303975 60.0008 0.189984 60.134 0.113991C60.2673 0.0379968 60.4033 0 60.5421 0C60.6809 0 60.817 0.0379968 60.9502 0.113991C61.0834 0.189984 61.1817 0.303975 61.245 0.455963L62.6699 3.83768L66.3556 4.16066C66.5329 4.18599 66.6723 4.24298 66.7736 4.33164C66.8749 4.4203 66.9509 4.53429 67.0016 4.67362C67.0522 4.81294 67.0619 4.95555 67.0305 5.10146C66.999 5.24737 66.9198 5.37706 66.7926 5.49055L63.9998 7.90335L64.8358 11.4941C64.8737 11.6587 64.8611 11.8077 64.7978 11.9409C64.7344 12.0741 64.6458 12.1848 64.5318 12.273C64.4178 12.3611 64.2848 12.4118 64.1328 12.425C63.9808 12.4381 63.8352 12.4002 63.6958 12.311L60.5421 10.4111Z" fill="#F2C618"/>
<path d="M78.5541 10.4111L75.4003 12.311C75.261 12.3996 75.1154 12.4376 74.9634 12.425C74.8114 12.4123 74.6784 12.3616 74.5644 12.273C74.4504 12.1843 74.3617 12.0736 74.2984 11.9409C74.2351 11.8082 74.2224 11.6592 74.2604 11.4941L75.0964 7.90335L72.3036 5.49055C72.1769 5.37656 72.0979 5.24661 72.0665 5.1007C72.0351 4.95479 72.0444 4.81243 72.0946 4.67362C72.1448 4.5348 72.2208 4.42081 72.3226 4.33164C72.4244 4.24248 72.5637 4.18548 72.7405 4.16066L76.4262 3.83768L77.8511 0.455963C77.9145 0.303975 78.0127 0.189984 78.146 0.113991C78.2792 0.0379968 78.4153 0 78.5541 0C78.6929 0 78.8289 0.0379968 78.9622 0.113991C79.0954 0.189984 79.1937 0.303975 79.257 0.455963L80.6819 3.83768L84.3676 4.16066C84.5449 4.18599 84.6842 4.24298 84.7856 4.33164C84.8869 4.4203 84.9629 4.53429 85.0135 4.67362C85.0642 4.81294 85.0738 4.95555 85.0424 5.10146C85.011 5.24737 84.9317 5.37706 84.8046 5.49055L82.0118 7.90335L82.8477 11.4941C82.8857 11.6587 82.873 11.8077 82.8097 11.9409C82.7464 12.0741 82.6577 12.1848 82.5437 12.273C82.4298 12.3611 82.2968 12.4118 82.1448 12.425C81.9928 12.4381 81.8471 12.4002 81.7078 12.311L78.5541 10.4111Z" fill="#F2C618"/>
</svg>
