<svg width="135" height="78" viewBox="0 0 135 78" fill="none" xmlns="http://www.w3.org/2000/svg">
<path d="M50.0324 40.0167C42.749 28.3293 44.5275 7.4105 20.1787 0C41.3516 13.1272 33.9411 30.4889 49.1855 40.8636C77.9806 59.7075 88.9905 13.9741 114.821 16.3031C93.4368 11.0099 76.2868 38.9581 59.3485 41.4988C56.1302 42.3457 51.5146 42.134 50.0324 40.0167Z" fill="white"/>
<path d="M64.4297 21.5957C69.7229 25.4068 61.8889 38.1105 54.6902 33.4525C49.6087 27.5241 58.0778 17.3611 64.4297 21.5957Z" fill="white"/>
<path d="M3.19567 56.2213L7.52496 68.8902H7.69965L12.0289 56.2213H14.5657L8.96805 71.7764H6.25655L0.658864 56.2213H3.19567ZM16.6297 71.7764V60.1101H18.9007V71.7764H16.6297ZM17.7766 58.31C17.3817 58.31 17.0424 58.1784 16.7589 57.9151C16.4804 57.6467 16.3411 57.3277 16.3411 56.9581C16.3411 56.5834 16.4804 56.2644 16.7589 56.0011C17.0424 55.7327 17.3817 55.5985 17.7766 55.5985C18.1716 55.5985 18.5083 55.7327 18.7868 56.0011C19.0703 56.2644 19.2121 56.5834 19.2121 56.9581C19.2121 57.3277 19.0703 57.6467 18.7868 57.9151C18.5083 58.1784 18.1716 58.31 17.7766 58.31ZM27.4017 60.1101V61.9329H21.0293V60.1101H27.4017ZM22.7382 57.315H25.0092V68.3509C25.0092 68.7914 25.075 69.1231 25.2067 69.3459C25.3383 69.5636 25.5079 69.713 25.7155 69.794C25.9282 69.87 26.1586 69.9079 26.4067 69.9079C26.589 69.9079 26.7485 69.8953 26.8852 69.87C27.0219 69.8446 27.1283 69.8244 27.2042 69.8092L27.6144 71.6852C27.4827 71.7359 27.2954 71.7865 27.0523 71.8371C26.8093 71.8928 26.5055 71.9232 26.1409 71.9283C25.5434 71.9384 24.9864 71.8321 24.4699 71.6093C23.9535 71.3865 23.5357 71.0422 23.2167 70.5763C22.8977 70.1105 22.7382 69.5256 22.7382 68.8218V57.315ZM33.3089 72.0346C32.5696 72.0346 31.9012 71.8979 31.3037 71.6245C30.7062 71.346 30.2328 70.9434 29.8834 70.4168C29.5391 69.8902 29.367 69.2446 29.367 68.48C29.367 67.8218 29.4935 67.28 29.7467 66.8547C29.9999 66.4293 30.3417 66.0926 30.7721 65.8445C31.2025 65.5964 31.6835 65.409 32.2152 65.2824C32.7468 65.1559 33.2886 65.0596 33.8406 64.9938C34.5393 64.9128 35.1064 64.847 35.5419 64.7963C35.9773 64.7406 36.2938 64.652 36.4913 64.5305C36.6888 64.409 36.7875 64.2115 36.7875 63.9381V63.8849C36.7875 63.2216 36.6002 62.7077 36.2255 62.3431C35.8558 61.9785 35.3039 61.7962 34.5697 61.7962C33.8051 61.7962 33.2026 61.9659 32.762 62.3051C32.3266 62.6393 32.0253 63.0115 31.8582 63.4216L29.7239 62.9355C29.9771 62.2266 30.3467 61.6544 30.8328 61.219C31.324 60.7785 31.8886 60.4595 32.5266 60.262C33.1646 60.0595 33.8355 59.9582 34.5393 59.9582C35.0052 59.9582 35.4988 60.0139 36.0204 60.1253C36.547 60.2316 37.0381 60.4291 37.4939 60.7177C37.9546 61.0063 38.3319 61.419 38.6255 61.9557C38.9192 62.4874 39.0661 63.1786 39.0661 64.0292V71.7764H36.8483V70.1814H36.7571C36.6103 70.4751 36.39 70.7637 36.0963 71.0472C35.8027 71.3308 35.4254 71.5662 34.9646 71.7536C34.5039 71.9409 33.9519 72.0346 33.3089 72.0346ZM33.8026 70.2117C34.4304 70.2117 34.9672 70.0877 35.4128 69.8396C35.8634 69.5915 36.2052 69.2674 36.4381 68.8674C36.6761 68.4623 36.7951 68.0294 36.7951 67.5686V66.0647C36.7141 66.1458 36.5571 66.2217 36.3242 66.2926C36.0963 66.3584 35.8356 66.4167 35.5419 66.4673C35.2482 66.5129 34.9621 66.5559 34.6836 66.5964C34.4051 66.6319 34.1722 66.6622 33.9849 66.6876C33.5443 66.7433 33.1418 66.8369 32.7772 66.9686C32.4177 67.1002 32.1291 67.2901 31.9114 67.5382C31.6987 67.7813 31.5924 68.1053 31.5924 68.5104C31.5924 69.0725 31.8 69.4978 32.2152 69.7864C32.6304 70.07 33.1595 70.2117 33.8026 70.2117ZM44.3618 56.2213V71.7764H42.0909V56.2213H44.3618ZM47.417 71.7764V60.1101H49.688V71.7764H47.417ZM48.5639 58.31C48.169 58.31 47.8297 58.1784 47.5462 57.9151C47.2677 57.6467 47.1284 57.3277 47.1284 56.9581C47.1284 56.5834 47.2677 56.2644 47.5462 56.0011C47.8297 55.7327 48.169 55.5985 48.5639 55.5985C48.9589 55.5985 49.2956 55.7327 49.5741 56.0011C49.8576 56.2644 49.9994 56.5834 49.9994 56.9581C49.9994 57.3277 49.8576 57.6467 49.5741 57.9151C49.2956 58.1784 48.9589 58.31 48.5639 58.31ZM58.189 60.1101V61.9329H51.8166V60.1101H58.189ZM53.5255 57.315H55.7965V68.3509C55.7965 68.7914 55.8623 69.1231 55.994 69.3459C56.1256 69.5636 56.2952 69.713 56.5028 69.794C56.7155 69.87 56.9459 69.9079 57.194 69.9079C57.3763 69.9079 57.5358 69.8953 57.6725 69.87C57.8092 69.8446 57.9155 69.8244 57.9915 69.8092L58.4016 71.6852C58.27 71.7359 58.0826 71.7865 57.8396 71.8371C57.5965 71.8928 57.2927 71.9232 56.9282 71.9283C56.3307 71.9384 55.7737 71.8321 55.2572 71.6093C54.7407 71.3865 54.323 71.0422 54.004 70.5763C53.685 70.1105 53.5255 69.5256 53.5255 68.8218V57.315ZM62.1366 76.1512C61.7973 76.1512 61.4885 76.1234 61.21 76.0677C60.9315 76.017 60.7239 75.9613 60.5872 75.9006L61.134 74.0397C61.5492 74.1511 61.9189 74.1992 62.2429 74.1841C62.567 74.1689 62.8531 74.0473 63.1012 73.8195C63.3544 73.5916 63.5772 73.2195 63.7696 72.703L64.0506 71.9283L59.7821 60.1101H62.2126L65.1671 69.1636H65.2886L68.2432 60.1101H70.6812L65.8735 73.3334C65.6507 73.941 65.3671 74.455 65.0228 74.8752C64.6785 75.3006 64.2683 75.6196 63.7924 75.8322C63.3164 76.0449 62.7645 76.1512 62.1366 76.1512ZM92.1701 63.9988C92.1701 65.6597 91.8663 67.0876 91.2586 68.2826C90.651 69.4725 89.8181 70.389 88.7598 71.032C87.7066 71.67 86.5091 71.989 85.1673 71.989C83.8204 71.989 82.6178 71.67 81.5595 71.032C80.5063 70.389 79.6759 69.4699 79.0683 68.275C78.4607 67.08 78.1569 65.6546 78.1569 63.9988C78.1569 62.338 78.4607 60.9126 79.0683 59.7227C79.6759 58.5277 80.5063 57.6113 81.5595 56.9733C82.6178 56.3302 83.8204 56.0087 85.1673 56.0087C86.5091 56.0087 87.7066 56.3302 88.7598 56.9733C89.8181 57.6113 90.651 58.5277 91.2586 59.7227C91.8663 60.9126 92.1701 62.338 92.1701 63.9988ZM89.8459 63.9988C89.8459 62.733 89.6409 61.6671 89.2307 60.8013C88.8256 59.9303 88.2686 59.2721 87.5598 58.8265C86.8559 58.3758 86.0584 58.1505 85.1673 58.1505C84.271 58.1505 83.471 58.3758 82.7672 58.8265C82.0633 59.2721 81.5064 59.9303 81.0962 60.8013C80.6911 61.6671 80.4886 62.733 80.4886 63.9988C80.4886 65.2647 80.6911 66.3331 81.0962 67.204C81.5064 68.0699 82.0633 68.7281 82.7672 69.1788C83.471 69.6244 84.271 69.8472 85.1673 69.8472C86.0584 69.8472 86.8559 69.6244 87.5598 69.1788C88.2686 68.7281 88.8256 68.0699 89.2307 67.204C89.6409 66.3331 89.8459 65.2647 89.8459 63.9988ZM98.3089 72.0346C97.5696 72.0346 96.9013 71.8979 96.3038 71.6245C95.7063 71.346 95.2328 70.9434 94.8835 70.4168C94.5391 69.8902 94.367 69.2446 94.367 68.48C94.367 67.8218 94.4936 67.28 94.7467 66.8547C94.9999 66.4293 95.3417 66.0926 95.7721 65.8445C96.2025 65.5964 96.6835 65.409 97.2152 65.2824C97.7469 65.1559 98.2887 65.0596 98.8406 64.9938C99.5393 64.9128 100.106 64.847 100.542 64.7963C100.977 64.7406 101.294 64.652 101.491 64.5305C101.689 64.409 101.788 64.2115 101.788 63.9381V63.8849C101.788 63.2216 101.6 62.7077 101.225 62.3431C100.856 61.9785 100.304 61.7962 99.5697 61.7962C98.8051 61.7962 98.2026 61.9659 97.7621 62.3051C97.3266 62.6393 97.0253 63.0115 96.8582 63.4216L94.724 62.9355C94.9771 62.2266 95.3468 61.6544 95.8329 61.219C96.324 60.7785 96.8886 60.4595 97.5266 60.262C98.1646 60.0595 98.8355 59.9582 99.5393 59.9582C100.005 59.9582 100.499 60.0139 101.02 60.1253C101.547 60.2316 102.038 60.4291 102.494 60.7177C102.955 61.0063 103.332 61.419 103.626 61.9557C103.919 62.4874 104.066 63.1786 104.066 64.0292V71.7764H101.848V70.1814H101.757C101.61 70.4751 101.39 70.7637 101.096 71.0472C100.803 71.3308 100.425 71.5662 99.9647 71.7536C99.5039 71.9409 98.952 72.0346 98.3089 72.0346ZM98.8026 70.2117C99.4305 70.2117 99.9672 70.0877 100.413 69.8396C100.863 69.5915 101.205 69.2674 101.438 68.8674C101.676 68.4623 101.795 68.0294 101.795 67.5686V66.0647C101.714 66.1458 101.557 66.2217 101.324 66.2926C101.096 66.3584 100.836 66.4167 100.542 66.4673C100.248 66.5129 99.9621 66.5559 99.6837 66.5964C99.4052 66.6319 99.1722 66.6622 98.9849 66.6876C98.5444 66.7433 98.1418 66.8369 97.7772 66.9686C97.4177 67.1002 97.1291 67.2901 96.9114 67.5382C96.6987 67.7813 96.5924 68.1053 96.5924 68.5104C96.5924 69.0725 96.8 69.4978 97.2152 69.7864C97.6304 70.07 98.1595 70.2117 98.8026 70.2117ZM115.833 62.9583L113.775 63.3229C113.689 63.0596 113.552 62.8089 113.365 62.5709C113.182 62.333 112.934 62.138 112.62 61.9861C112.306 61.8342 111.914 61.7583 111.443 61.7583C110.8 61.7583 110.263 61.9026 109.833 62.1912C109.402 62.4747 109.187 62.8418 109.187 63.2925C109.187 63.6824 109.331 63.9963 109.62 64.2343C109.909 64.4723 110.375 64.6672 111.018 64.8191L112.871 65.2445C113.944 65.4926 114.744 65.8749 115.271 66.3913C115.798 66.9078 116.061 67.5787 116.061 68.4041C116.061 69.1028 115.858 69.7257 115.453 70.2725C115.053 70.8143 114.494 71.2396 113.775 71.5485C113.061 71.8574 112.233 72.0118 111.291 72.0118C109.985 72.0118 108.919 71.7333 108.093 71.1763C107.268 70.6143 106.762 69.8168 106.574 68.7838L108.769 68.4497C108.906 69.0218 109.187 69.4548 109.613 69.7484C110.038 70.0371 110.592 70.1814 111.276 70.1814C112.02 70.1814 112.615 70.0269 113.061 69.7181C113.506 69.4041 113.729 69.0218 113.729 68.5712C113.729 68.2066 113.592 67.9003 113.319 67.6522C113.051 67.404 112.638 67.2167 112.081 67.0901L110.106 66.6572C109.018 66.4091 108.212 66.0141 107.691 65.4723C107.174 64.9305 106.916 64.2444 106.916 63.414C106.916 62.7254 107.109 62.1228 107.493 61.6063C107.878 61.0899 108.41 60.6873 109.088 60.3987C109.767 60.105 110.544 59.9582 111.42 59.9582C112.681 59.9582 113.673 60.2316 114.398 60.7785C115.122 61.3203 115.6 62.0469 115.833 62.9583ZM118.558 71.7764V60.1101H120.829V71.7764H118.558ZM119.705 58.31C119.31 58.31 118.97 58.1784 118.687 57.9151C118.408 57.6467 118.269 57.3277 118.269 56.9581C118.269 56.5834 118.408 56.2644 118.687 56.0011C118.97 55.7327 119.31 55.5985 119.705 55.5985C120.1 55.5985 120.436 55.7327 120.715 56.0011C120.998 56.2644 121.14 56.5834 121.14 56.9581C121.14 57.3277 120.998 57.6467 120.715 57.9151C120.436 58.1784 120.1 58.31 119.705 58.31ZM132.626 62.9583L130.568 63.3229C130.482 63.0596 130.345 62.8089 130.158 62.5709C129.975 62.333 129.727 62.138 129.413 61.9861C129.099 61.8342 128.707 61.7583 128.236 61.7583C127.593 61.7583 127.056 61.9026 126.626 62.1912C126.195 62.4747 125.98 62.8418 125.98 63.2925C125.98 63.6824 126.125 63.9963 126.413 64.2343C126.702 64.4723 127.168 64.6672 127.811 64.8191L129.664 65.2445C130.737 65.4926 131.537 65.8749 132.064 66.3913C132.591 66.9078 132.854 67.5787 132.854 68.4041C132.854 69.1028 132.651 69.7257 132.246 70.2725C131.846 70.8143 131.287 71.2396 130.568 71.5485C129.854 71.8574 129.026 72.0118 128.084 72.0118C126.778 72.0118 125.712 71.7333 124.887 71.1763C124.061 70.6143 123.555 69.8168 123.367 68.7838L125.563 68.4497C125.699 69.0218 125.98 69.4548 126.406 69.7484C126.831 70.0371 127.385 70.1814 128.069 70.1814C128.813 70.1814 129.408 70.0269 129.854 69.7181C130.299 69.4041 130.522 69.0218 130.522 68.5712C130.522 68.2066 130.385 67.9003 130.112 67.6522C129.844 67.404 129.431 67.2167 128.874 67.0901L126.899 66.6572C125.811 66.4091 125.006 66.0141 124.484 65.4723C123.968 64.9305 123.709 64.2444 123.709 63.414C123.709 62.7254 123.902 62.1228 124.287 61.6063C124.671 61.0899 125.203 60.6873 125.882 60.3987C126.56 60.105 127.337 59.9582 128.213 59.9582C129.474 59.9582 130.467 60.2316 131.191 60.7785C131.915 61.3203 132.393 62.0469 132.626 62.9583Z" fill="white"/>
</svg>
