<svg width="26" height="24" viewBox="0 0 26 24" fill="none" xmlns="http://www.w3.org/2000/svg">
<path d="M22.2475 11.9978C22.5041 11.9426 22.4476 11.3919 22.4357 11.181C22.1895 6.81014 19.1461 3.00298 14.9342 1.83505C7.85762 -0.127242 1.07612 5.80558 2.03126 13.0612C2.67842 17.9773 6.9423 21.84 11.9108 21.9359C12.0215 22.0053 11.9167 23.1137 11.9531 23.3282L11.9194 23.3784C6.55318 23.3246 1.84599 19.367 0.746342 14.1366C-0.827298 6.65155 5.07409 -0.300061 12.6941 0.00999547C18.5554 0.248487 23.463 4.984 23.8607 10.8457C23.8786 11.11 23.8036 11.6424 23.9083 11.8458C23.9233 11.8749 24.0393 11.9978 24.0497 11.9978H25.6632L23.0013 15.7695L20.2987 11.9978H22.2475Z" fill="#DC5E3D"/>
<path d="M14.5994 10.1118V14.1979L14.8871 14.3292C14.8741 14.636 14.924 14.9894 14.8951 15.2899C14.8744 15.5053 14.8183 15.5319 14.5994 15.518V16.5448L14.5365 16.6076H13.1535L13.0906 16.5448V15.518L11.0131 15.5145C10.9687 15.5229 10.8694 15.4306 10.8694 15.4132V14.4493L12.2943 10.1118L14.5994 10.1118ZM13.0906 14.2607V11.4529L12.2943 14.2607H13.0906Z" fill="#DC5E3D"/>
<path d="M8.5642 15.3085H10.492V16.5448L10.4292 16.6076H6.82494C6.76505 16.5709 6.76741 16.5239 6.75998 16.4631C6.67289 15.7515 7.07777 14.7804 7.48162 14.205C7.85772 13.6691 8.90508 12.807 9.00623 12.2512C9.0595 11.9585 9.08487 11.3425 8.66816 11.3244C8.46268 11.3155 8.27084 11.5397 8.27084 11.7253V12.5216L8.20798 12.5844H6.82495C6.72064 12.4568 6.75622 12.1905 6.7625 12.0191C6.80472 10.8657 7.21366 10.0989 8.45781 10.0264C10.6615 9.898 11.0529 12.0735 9.92289 13.5869C9.59493 14.026 9.12018 14.4033 8.79833 14.8511C8.7039 14.9825 8.5676 15.1463 8.5642 15.3085Z" fill="#DC5E3D"/>
<path d="M20.9275 17.0269V18.2212C20.9275 18.4453 20.1726 19.9005 20.0278 20.2551C19.7617 20.9068 19.5193 21.6049 19.3891 22.2986C19.3205 22.6642 19.3132 23.0624 19.2511 23.4179C19.2429 23.4651 19.2296 23.4961 19.1882 23.5226H17.6585C17.7424 21.6982 18.6012 20.0537 19.3279 18.4208C19.3572 18.376 19.3009 18.2841 19.272 18.2841H17.3232V17.0897L17.3861 17.0269L20.9275 17.0269Z" fill="#DC5E3D"/>
<path d="M18.5704 14.1032C18.6398 14.2068 18.6405 14.3307 18.5572 14.4262L13.1543 19.8355C12.9321 20.1136 12.5693 20.0013 12.7112 19.6435L18.2428 14.1118C18.3314 14.0145 18.4687 14.0419 18.5704 14.1032Z" fill="#DC5E3D"/>
<path d="M13.0905 14.2605H12.2942L13.0905 11.4526V14.2605Z" fill="white"/>
</svg>
