<svg width="26" height="26" viewBox="0 0 26 26" fill="none" xmlns="http://www.w3.org/2000/svg">
<g clip-path="url(#clip0_173_775)">
<path d="M25.7611 19.39L22.7209 16.3514C23.0646 16.1016 23.3359 15.7652 23.5073 15.3765C23.7747 14.3976 23.6499 13.353 23.1596 12.4646C22.9466 12.0109 22.8078 11.526 22.7485 11.0282C22.8077 10.5541 22.9432 10.0926 23.1499 9.6617C23.6573 8.75194 23.7852 7.67866 23.5057 6.67514C22.9944 5.76799 22.1451 5.09979 21.1431 4.81625C20.693 4.65687 20.2716 4.42587 19.8952 4.13217C19.5829 3.73815 19.3361 3.2965 19.164 2.82413C18.8827 1.84972 18.2328 1.02324 17.3522 0.52002C16.3735 0.250226 15.328 0.375076 14.4404 0.867748C13.9852 1.08127 13.4985 1.22008 12.9991 1.27885C12.5249 1.21965 12.0635 1.08412 11.6326 0.877498C10.7233 0.368629 9.64968 0.240119 8.64601 0.52002C7.73853 1.03175 7.07029 1.88165 6.78713 2.88425C6.62775 3.33433 6.39675 3.75572 6.10305 4.13217C5.70903 4.44442 5.26738 4.6913 4.795 4.86337C3.8206 5.1447 2.99412 5.79458 2.4909 6.67514C2.22356 7.65402 2.3483 8.69855 2.83862 9.58695C3.05215 10.0422 3.19096 10.5289 3.24972 11.0282C3.19053 11.5024 3.055 11.9639 2.84838 12.3948C2.34091 13.3045 2.21303 14.3778 2.49252 15.3813C2.66453 15.7679 2.93313 16.1036 3.27247 16.3563L0.238787 19.3883C0.147668 19.4794 0.0795209 19.5909 0.0399668 19.7135C0.000412757 19.8361 -0.00941256 19.9664 0.0113019 20.0935C0.0319629 20.2206 0.0825154 20.3409 0.158792 20.4446C0.235069 20.5483 0.334887 20.6323 0.450025 20.6899L3.45771 22.1945L4.96237 25.2022C5.01991 25.3174 5.10398 25.4172 5.20766 25.4935C5.31134 25.5697 5.43166 25.6203 5.5587 25.6409C5.60116 25.6478 5.64407 25.6516 5.68707 25.6523C5.79384 25.6525 5.89959 25.6317 5.99829 25.591C6.09699 25.5502 6.1867 25.4905 6.26229 25.4151L10.0207 21.6551C10.5481 21.5545 11.0634 21.3982 11.5578 21.1887C12.0131 20.9752 12.4997 20.8364 12.9991 20.7776C13.4733 20.8368 13.9348 20.9724 14.3657 21.179C14.8889 21.4072 15.4369 21.5735 15.9987 21.6746L19.7359 25.4118C19.8113 25.4878 19.9009 25.5482 19.9996 25.5895C20.0983 25.6307 20.2042 25.6521 20.3112 25.6523C20.3547 25.6522 20.3981 25.649 20.4412 25.6426C20.5682 25.6219 20.6885 25.5714 20.7922 25.4951C20.8959 25.4188 20.9799 25.319 21.0375 25.2038L22.5421 22.1962L25.5498 20.6915C25.665 20.634 25.7648 20.5499 25.8411 20.4462C25.9173 20.3425 25.9679 20.2222 25.9886 20.0952C26.0093 19.968 25.9994 19.8377 25.9599 19.7151C25.9203 19.5925 25.8522 19.4811 25.7611 19.39ZM12.9991 19.1527C12.2959 19.2 11.6074 19.3762 10.968 19.6727C10.318 19.9278 9.6437 20.1894 9.26835 20.0334C8.893 19.8774 8.60214 19.221 8.32103 18.571C8.0795 17.9087 7.71695 17.2971 7.25185 16.7674C6.73654 16.3188 6.14191 15.9705 5.49859 15.7404C4.84863 15.4561 4.16292 15.162 3.9923 14.7509C3.82169 14.3398 4.09467 13.6508 4.3579 12.9862C4.64899 12.3709 4.82416 11.7071 4.87462 11.0282C4.82738 10.325 4.65112 9.63652 4.35466 8.99711C4.09955 8.34716 3.83794 7.67282 3.99393 7.29747C4.14992 6.92212 4.80638 6.63126 5.45634 6.35015C6.11862 6.10863 6.73022 5.74607 7.25997 5.28097C7.70857 4.76567 8.05687 4.17103 8.28691 3.52771C8.57127 2.87775 8.86537 2.19204 9.27647 2.02143C9.88846 1.95542 10.5057 2.0833 11.0411 2.38703C11.6565 2.67812 12.3202 2.85328 12.9991 2.90375C13.7023 2.8565 14.3908 2.68024 15.0302 2.38378C15.6802 2.12867 16.3497 1.86219 16.7299 2.02305C17.1101 2.18392 17.3961 2.8355 17.6772 3.48546C17.9187 4.14774 18.2813 4.75935 18.7464 5.2891C19.2617 5.73769 19.8563 6.08599 20.4996 6.31603C21.1496 6.60039 21.8353 6.8945 22.0059 7.3056C22.1765 7.71669 21.9036 8.40565 21.6403 9.07024C21.3492 9.68561 21.1741 10.3494 21.1236 11.0282C21.1709 11.7314 21.3471 12.42 21.6436 13.0594C21.8987 13.7093 22.1603 14.3837 22.0043 14.759C21.8483 15.1344 21.1919 15.4252 20.5419 15.7063C19.8796 15.9478 19.268 16.3104 18.7383 16.7755C18.2897 17.2908 17.9414 17.8854 17.7113 18.5288C17.427 19.1787 17.1329 19.8644 16.7218 20.035C16.3107 20.2057 15.6233 19.9327 14.9571 19.6694C14.3417 19.3784 13.678 19.2032 12.9991 19.1527ZM5.90968 23.4668L4.7885 21.2245C4.70997 21.0678 4.58286 20.9407 4.42615 20.8621L2.18379 19.7409L4.73813 17.1866L4.85513 17.2386C5.3052 17.398 5.7266 17.629 6.10305 17.9227C6.41455 18.3142 6.6614 18.7531 6.83425 19.2226C7.10235 19.9856 7.55572 20.6702 8.15367 21.2147L5.90968 23.4668ZM21.5721 20.867C21.4154 20.9455 21.2883 21.0726 21.2097 21.2293L20.0885 23.4717L17.8462 21.2293C18.469 20.6725 18.9389 19.9654 19.2111 19.1755C19.3705 18.7254 19.6015 18.304 19.8952 17.9276C20.2867 17.6161 20.7256 17.3692 21.1951 17.1964L21.2374 17.1769L23.8063 19.7458L21.5721 20.867ZM19.4987 11.0282C19.4987 9.30444 18.8139 7.65124 17.595 6.43233C16.3761 5.21342 14.7229 4.52864 12.9991 4.52864C11.2753 4.52864 9.62212 5.21342 8.40321 6.43233C7.1843 7.65124 6.49952 9.30444 6.49952 11.0282C6.49952 12.752 7.1843 14.4052 8.40321 15.6241C9.62212 16.8431 11.2753 17.5278 12.9991 17.5278C14.7229 17.5278 16.3761 16.8431 17.595 15.6241C18.8139 14.4052 19.4987 12.752 19.4987 11.0282ZM12.9991 15.9029C11.7063 15.9029 10.4664 15.3894 9.55219 14.4752C8.638 13.561 8.12442 12.3211 8.12442 11.0282C8.12442 9.73539 8.638 8.49549 9.55219 7.58131C10.4664 6.66713 11.7063 6.15354 12.9991 6.15354C14.292 6.15354 15.5319 6.66713 16.446 7.58131C17.3602 8.49549 17.8738 9.73539 17.8738 11.0282C17.8738 12.3211 17.3602 13.561 16.446 14.4752C15.5319 15.3894 14.292 15.9029 12.9991 15.9029Z" fill="#DC5E3D"/>
<path d="M15.0698 10.3401C14.6605 10.7652 14.1826 11.2433 13.7577 11.6529C13.4578 11.9419 13.2153 12.2713 12.7952 11.9482C12.5631 11.7696 11.911 11.1122 11.7272 10.8788C11.5742 10.6846 11.4506 10.4296 11.6735 10.2241C12.1557 9.7797 12.7736 10.914 13.1471 11.1007L14.8198 9.43358C15.173 9.14976 15.6736 9.48869 15.4531 9.91719C15.4251 9.97165 15.1392 10.2682 15.0698 10.3401Z" fill="#DC5E3D"/>
</g>
<defs>
<clipPath id="clip0_173_775">
<rect width="26" height="26" fill="white"/>
</clipPath>
</defs>
</svg>
