<svg width="72" height="72" viewBox="0 0 72 72" fill="none" xmlns="http://www.w3.org/2000/svg">
<rect x="0.5" y="0.5" width="71" height="71" rx="9.5" fill="white" stroke="#F7F7FB"/>
<g clip-path="url(#clip0_73_2132)">
<path d="M34.6792 37.3964C36.2093 38.9501 38.1819 40.8005 39.5556 42.4311C41.6568 44.9254 41.3623 48.3326 38.8951 50.4429C39.0589 52.7057 37.9327 54.7638 35.9577 55.8426C32.7189 57.0091 29.489 58.734 26.2455 59.8272C19.6146 62.0623 15.8079 53.2976 21.691 49.9132L28.6685 47.064C28.7032 46.9354 28.635 46.9232 28.5849 46.8512C28.4152 46.607 27.8531 46.0524 27.6065 45.7877C26.1625 44.2374 23.9359 42.6004 23.3523 40.5138C22.1279 36.136 26.3015 32.305 30.5626 33.8991C32.0872 34.4696 33.5344 36.2339 34.6792 37.3964ZM28.3109 35.5204C25.5446 35.7445 24.2009 38.8612 25.8259 41.1029C26.6447 42.2325 27.952 43.201 28.8814 44.2561L33.7783 39.4523C33.7786 39.3856 33.0458 38.5603 32.9247 38.4279C31.708 37.0991 30.266 35.362 28.3109 35.5204ZM38.1134 48.2555C38.2583 48.3561 38.4872 47.9119 38.5514 47.8023C39.191 46.7106 39.0911 45.2844 38.4371 44.2302L35.2628 40.87L30.2913 45.673L30.7519 46.1914C33.3188 44.8051 36.7431 45.6315 38.1134 48.2555ZM28.5036 49.1966L31.1034 55.6531C31.3177 55.7193 34.8704 54.1734 35.2451 53.939C37.3097 52.6476 37.5109 49.7085 35.5523 48.2209C33.1933 46.4291 30.8417 48.565 28.5036 49.1966ZM26.6229 50.0439C25.1614 50.7437 22.67 51.236 21.6057 52.4652C20.1404 54.1573 20.6579 56.8024 22.625 57.8302C24.8347 58.9849 27.0796 57.1217 29.1724 56.4994L26.6229 50.0439Z" fill="#170F49"/>
<path d="M52.2339 45.1083V55.8275H55.1689C55.5157 55.8275 55.9131 56.5299 55.8887 56.8808C55.7665 58.6363 53.1387 57.1591 52.2029 57.0965C52.0139 57.4807 51.8807 57.7114 51.418 57.7764C50.7937 57.8641 47.9351 57.8808 47.3617 57.7647C46.6626 57.6231 46.386 56.7176 46.8352 56.1712C46.9051 56.0862 47.2808 55.8275 47.3422 55.8275H50.2772V45.2359C49.7002 45.0038 49.0622 44.9158 48.4602 44.6709C41.7129 41.9262 44.601 33.2515 43.9819 27.626C44.0172 27.0388 44.4908 26.7068 45.0449 26.6474H57.4662C58.0546 26.7103 58.5374 27.0798 58.5326 27.7078C58.3444 31.2128 58.7715 34.9572 58.5328 38.4336C58.3011 41.8083 55.6258 44.7731 52.2339 45.1083ZM56.5727 28.6894H45.9385V32.1773C47.1561 31.7642 48.3209 31.4484 49.6172 31.6889C50.9668 31.9392 52.0334 32.8777 53.3369 33.1586C54.4424 33.3968 55.4624 33.3388 56.5727 33.1982V28.6894ZM56.5727 38.3451C56.6628 37.37 56.5059 36.2721 56.5727 35.2825C56.5727 35.086 55.5975 35.3175 55.4233 35.3242C54.5355 35.3586 53.5905 35.2539 52.7268 35.0448C50.6007 34.53 49.6849 33.0021 47.2341 33.8557C47.0504 33.9197 46.1016 34.342 46.0224 34.4306C45.9385 34.5244 45.9471 34.5702 45.9336 34.6821C45.8169 35.6516 45.8689 38.1232 46.0617 39.0726C47.2427 44.8889 56.0071 44.4597 56.5727 38.3451Z" fill="#170F49"/>
<path d="M20.825 12.0406C27.0167 11.4649 31.8739 17.103 30.2224 23.1394C28.3621 29.9393 19.4648 31.8132 14.9744 26.3474C10.5829 21.0019 13.9476 12.6801 20.825 12.0406ZM21.1653 13.9973C15.8709 14.4546 13.125 20.6251 16.3476 24.8891C19.2732 28.7602 25.2667 28.3615 27.6625 24.1525C30.3817 19.3758 26.6093 13.5271 21.1653 13.9973Z" fill="#170F49"/>
<path d="M18.5251 16.6248C18.7894 16.5951 19.0553 16.7138 19.2686 16.8636C19.6932 17.1617 21.5504 19.2905 21.7467 19.3252L24.385 16.792C25.3347 16.2294 26.2698 17.2328 25.7645 18.1719L23.23 20.7468L25.7645 23.3834C26.2698 24.3231 25.3344 25.3257 24.385 24.7633L21.8084 22.23L19.1716 24.7647L18.5219 24.9274C15.9658 23.9444 19.6248 21.9021 20.3252 20.8085C20.3718 20.5451 17.8136 18.5043 17.6486 17.8874C17.4895 17.2924 17.9191 16.6928 18.5251 16.6248Z" fill="#170F49"/>
</g>
<defs>
<clipPath id="clip0_73_2132">
<rect width="45.6077" height="48.1873" fill="white" transform="translate(13 12)"/>
</clipPath>
</defs>
</svg>
