<svg width="72" height="72" viewBox="0 0 72 72" fill="none" xmlns="http://www.w3.org/2000/svg">
<rect x="0.5" y="0.5" width="71" height="71" rx="9.5" fill="white" stroke="#F7F7FB"/>
<g clip-path="url(#clip0_73_2185)">
<path d="M42.149 44.4464L42.1506 48.921C42.1366 51.549 40.1863 53.8034 37.6008 54.2156C31.7433 54.3132 25.875 54.2283 20.0134 54.2587C17.4986 54.114 15.4073 52.1651 15.0463 49.6806C14.9841 43.691 14.9852 37.6859 15.0458 31.696C15.4398 29.0983 17.6794 27.1469 20.3127 27.1184L28.6459 27.12L28.6443 21.9802C28.812 19.4935 30.741 17.4283 33.1941 17.0514C39.3266 16.9788 45.475 16.9886 51.6082 17.0465C53.9454 17.3911 55.8057 19.2453 56.1515 21.5827C56.205 27.6962 56.2113 33.824 56.1483 39.9369C55.7521 42.4278 53.6124 44.3708 51.0795 44.4612L42.149 44.4464ZM31.8054 22.0481V27.1198L37.3428 27.1534C39.8517 27.409 41.8742 29.45 42.1156 31.959L42.116 41.2872H51.1793C52.0073 41.2872 53.0385 40.1433 53.0264 39.3096V22.1467C52.91 21.0721 52.0612 20.2477 50.981 20.1678L33.8181 20.1696C32.8466 20.2313 31.9152 21.0723 31.8054 22.0481ZM20.2575 30.2891C19.1621 30.3521 18.2969 31.1705 18.1694 32.2585C18.2003 37.9715 18.1046 43.6977 18.2176 49.403C18.4355 50.341 19.2463 51.0365 20.2128 51.0995L36.9453 51.0992C37.9633 51.0161 38.7852 50.2549 38.9529 49.2489C39.01 43.5498 39.0216 37.8317 38.9472 32.1341C38.7674 31.0586 37.8583 30.3142 36.7791 30.2778L20.2575 30.2891Z" fill="#170F49"/>
</g>
<defs>
<clipPath id="clip0_73_2185">
<rect width="41.1936" height="37.2642" fill="white" transform="translate(15 17)"/>
</clipPath>
</defs>
</svg>
