<svg width="130" height="65" viewBox="0 0 130 65" fill="none" xmlns="http://www.w3.org/2000/svg">
<g id="rs-aetna">
<path id="Vector" d="M118.297 39.652C118.297 38.0165 118.491 35.658 118.491 32.9078C118.491 27.8034 116.399 25.9053 110.705 25.9053C107.955 25.9053 105.54 26.297 104.025 26.9512L104.223 31.0098C105.77 30.1568 107.498 29.686 109.263 29.6368C111.88 29.6368 112.603 30.6827 112.603 33.2349V33.6308H111.742C105.329 33.6308 102.317 35.5934 102.317 39.1915C102.317 42.923 104.15 45.0835 109.453 45.0835C112.267 45.0835 114.949 44.6919 118.551 44.6919C118.329 43.0216 118.242 41.3363 118.288 39.652H118.297ZM110.834 41.6146C108.872 41.6146 108.019 40.9604 108.019 39.3249C108.019 37.6894 109.065 36.8372 111.751 36.8372H112.534C112.534 38.3436 112.47 40.1728 112.603 41.4166C112.025 41.5593 111.43 41.6259 110.834 41.6146ZM61.3393 41.4166C58.1329 41.4166 56.4285 39.7811 56.4285 37.1643V37.0137C57.0182 37.0137 58.1501 37.0826 58.7871 37.0826C64.4811 37.0826 67.3604 35.3137 67.3604 31.4531C67.3604 28.1132 64.9374 25.9527 59.7684 25.9527C53.4201 25.9527 50.9325 28.7674 50.3428 33.8073C49.4261 33.7427 48.3803 33.7427 47.0073 33.7427V32.882C47.0073 27.7775 44.9113 25.8795 39.2173 25.8795C36.4671 25.8795 34.0526 26.2712 32.5419 26.9254L32.7356 30.9839C34.282 30.131 36.01 29.6602 37.7754 29.611C40.3965 29.611 41.1798 30.6568 41.1798 33.2091V33.605H40.3191C33.9062 33.605 30.8935 35.5676 30.8935 39.1657C30.8935 42.8971 32.727 45.0577 38.0294 45.0577C40.8441 45.0577 43.5255 44.666 47.1278 44.666C46.9202 42.9845 46.8396 41.2897 46.8868 39.596C46.8868 38.8084 46.9514 37.8745 46.9514 36.8459C48.4577 36.8459 49.5724 36.9104 50.2912 36.9104C50.8163 42.9359 53.9581 45.0878 60.3709 45.0878C62.7251 45.0878 65.1482 44.6962 66.4566 44.1065L66.263 40.0264C64.7841 40.9306 63.0855 41.4114 61.3522 41.4166H61.3393ZM39.4109 41.6146C37.4484 41.6146 36.5962 40.9604 36.5962 39.3249C36.5962 37.6894 37.6463 36.8372 40.3277 36.8372H41.1153C41.1153 38.3436 41.0507 40.1728 41.1798 41.4166C40.6049 41.5547 40.0151 41.6212 39.4238 41.6146H39.4109ZM56.364 33.8245C56.364 31.2723 57.1516 29.3743 59.5058 29.3743C60.797 29.3743 61.7309 30.093 61.7309 31.3369C61.7309 33.1058 60.556 33.9579 58.0683 33.9579C57.4936 33.9729 56.9185 33.9498 56.3468 33.8891L56.364 33.8245ZM99.9582 36.2476V32.6495C99.9582 28.0013 97.9267 25.9699 92.1681 25.9699C88.9617 25.9699 86.6677 26.5595 83.0697 26.5595C83.2677 29.8348 83.2677 33.8245 83.2677 36.3122C83.2677 38.7998 83.1988 43.3835 83.0697 44.821H89.2199C89.0908 43.3835 88.9617 39.1269 88.9617 36.3122C88.9617 34.6767 88.9617 32.7141 89.0263 30.093C89.7428 29.8463 90.4937 29.7141 91.2514 29.7014C93.4033 29.7014 94.1307 30.6827 94.1307 33.4974V36.2476C94.1307 38.7998 94.0661 43.3146 93.9327 44.7564H100.087C100.1 43.3146 99.9711 39.1269 99.9711 36.2476H99.9582ZM80.5906 40.6978L80.8532 44.7564C79.5626 45.0367 78.2442 45.1681 76.9237 45.1481C72.8694 45.1481 70.7089 43.4265 70.7089 39.256C70.7089 35.9851 70.7734 32.3698 70.7734 30.4201H68.6774C68.742 29.5077 68.6774 28.2682 68.6774 27.3471C71.8193 26.8221 72.8006 25.0532 73.3257 21.5842H76.786C76.6569 23.026 76.588 25.0532 76.5234 26.495H80.1904V30.4201H76.4589V37.556C76.4589 40.3062 77.0485 41.0895 78.882 41.0895C79.4788 41.1265 80.0735 40.9905 80.5949 40.6978H80.5906ZM10.5619 24.2699C10.9508 24.2632 11.337 24.3361 11.6967 24.4841C12.0564 24.6322 12.382 24.8522 12.6536 25.1306L16.058 28.5307L19.4624 25.1306C19.7349 24.8523 20.0613 24.6323 20.4217 24.4844C20.7821 24.3364 21.1688 24.2634 21.5584 24.2699C22.3419 24.2692 23.0939 24.5786 23.6501 25.1306L27.8421 29.3183C28.1212 29.5909 28.343 29.9166 28.4945 30.2762C28.6459 30.6358 28.7239 31.022 28.7239 31.4122C28.7239 31.8024 28.6459 32.1886 28.4945 32.5482C28.343 32.9078 28.1212 33.2334 27.8421 33.506L16.058 45.2126L4.27821 33.4329C3.99853 33.1606 3.77624 32.835 3.62445 32.4754C3.47267 32.1157 3.39447 31.7294 3.39447 31.339C3.39447 30.9487 3.47267 30.5623 3.62445 30.2027C3.77624 29.843 3.99853 29.5175 4.27821 29.2452L8.4659 25.0532C9.04263 24.5401 9.79006 24.2608 10.5619 24.2699ZM119.472 25.9914H122.683V26.6456H121.439V29.9209H120.651V26.6241H119.395L119.472 25.9914ZM123.402 25.9914H124.447L124.972 27.713C125.102 28.2337 125.364 29.215 125.364 29.215C125.364 29.215 125.627 28.2337 125.756 27.713L126.281 25.9914H127.327V29.9209H126.608V28.4576C126.608 27.7388 126.672 26.693 126.672 26.693C126.672 26.693 126.41 27.6097 126.216 28.393L125.756 29.8994H125.037L124.581 28.4059C124.318 27.6097 124.129 26.6843 124.129 26.6843C124.129 26.6843 124.193 27.7948 124.193 28.4489V29.8907H123.475V25.9699L123.402 25.9914Z" fill="white"/>
</g>
</svg>
