<svg width="135" height="68" viewBox="0 0 135 68" fill="none" xmlns="http://www.w3.org/2000/svg">
<g id="horizon">
<g id="Group">
<g id="Group_2">
<path id="Vector" d="M98.6998 47.4259V39.986H106.14V28.0464H98.6998V20.6064H86.8493V28.0464H79.4094V39.986H86.8493V47.4259" fill="white"/>
<path id="Vector_2" d="M85.9138 31.4324L90.8589 31.9224C91.7945 32.0561 91.8836 32.9471 91.6608 33.4817L88.275 39.8079C86.5375 38.4714 85.4683 36.3775 85.4683 34.0163C85.4683 33.1253 85.6465 32.2343 85.9138 31.4324Z" fill="white"/>
<path id="Vector_3" d="M99.7244 31.4324L94.7793 31.9224C93.8437 32.0561 93.7546 32.9471 93.9774 33.4817L97.3632 39.8079C99.0562 38.4714 100.17 36.3775 100.17 34.0163C100.17 33.1253 99.9917 32.2343 99.7244 31.4324Z" fill="white"/>
<path id="Vector_4" d="M92.8191 27.6455C93.7101 27.6455 93.9328 28.6256 93.5764 29.1157C93.22 29.5612 93.1755 29.6949 93.1755 30.1404C93.1755 30.4968 93.4873 30.9423 94.2447 30.9423H99.4571C98.2988 28.4474 95.7594 26.71 92.7745 26.71C89.8342 26.71 87.2948 28.4474 86.0919 30.9423H91.3489C92.1063 30.8977 92.4181 30.4968 92.4181 30.1404C92.4181 29.6949 92.3736 29.6058 92.0172 29.1157C91.7053 28.6256 91.9281 27.6455 92.8191 27.6455Z" fill="white"/>
<path id="Vector_5" d="M92.8191 41.4117C94.2892 41.4117 95.7149 40.9662 96.8732 40.2088L93.2646 34.8628C92.9973 34.5064 92.5963 34.5064 92.3736 34.8628L88.8095 40.2088C89.9233 40.9662 91.3043 41.4117 92.8191 41.4117Z" fill="white"/>
<path id="Vector_6" d="M86.6712 32.5459L90.3689 32.9023C90.6362 32.9469 90.6807 33.036 90.5916 33.2142L87.9631 38.2038C87.0276 37.0901 86.4484 35.6644 86.4484 34.0606C86.493 33.526 86.5375 33.036 86.6712 32.5459Z" fill="white"/>
<path id="Vector_7" d="M91.0371 27.957C90.6807 28.5807 90.948 29.3827 91.3044 29.7836C91.3935 29.8727 91.349 29.9173 91.2599 29.9618H87.9631C88.8096 28.9817 89.8343 28.3134 91.0371 27.957Z" fill="white"/>
<path id="Vector_8" d="M98.9671 32.5459L95.2248 32.9023C94.9575 32.9469 94.913 33.036 95.0021 33.2142L97.6306 38.2038C98.5661 37.0901 99.1453 35.6644 99.1453 34.0606C99.1453 33.526 99.0562 33.036 98.9671 32.5459Z" fill="white"/>
<path id="Vector_9" d="M94.5566 27.957C94.9575 28.5807 94.6457 29.3827 94.2893 29.7836C94.2447 29.8727 94.2893 29.9173 94.3338 29.9618H97.6306C96.8287 28.9817 95.7594 28.3134 94.5566 27.957Z" fill="white"/>
<path id="Vector_10" d="M92.6855 36.0212C92.7746 35.9321 92.8191 35.9321 92.9082 36.0212L95.403 39.808C94.6011 40.1644 93.7547 40.3426 92.8191 40.3426C91.9281 40.3426 91.0371 40.1644 90.2352 39.808L92.6855 36.0212C92.7746 35.9321 92.8637 35.9321 92.9082 36.0212Z" fill="white"/>
<path id="Vector_11" d="M120.842 47.6487C125.965 44.7974 129.083 40.2978 130.687 35.3081C132.336 30.1402 132.068 24.0814 130.153 20.25C127.212 21.7202 124.272 22.4775 120.842 22.4775C117.411 22.4775 114.471 21.7202 111.53 20.25C109.615 24.0368 109.303 30.1402 110.996 35.3081C112.6 40.2978 115.718 44.7974 120.842 47.6487Z" fill="white"/>
<path id="Vector_12" d="M120.841 45.3765C125.074 42.748 127.301 39.0058 128.771 34.7735C130.063 31.0312 130.375 26.6207 128.95 23.1458C126.856 23.8586 125.608 24.0813 124.45 24.2595C123.381 24.4377 122.401 24.5268 120.841 24.5268C119.282 24.4823 118.302 24.3932 117.233 24.2595C116.075 24.0813 114.827 23.8586 112.733 23.1458C111.308 26.5762 111.619 30.9867 112.911 34.7735C114.382 38.9612 116.609 42.748 120.841 45.3765Z" fill="white"/>
<path id="Vector_13" d="M120.841 44.3073C123.693 42.5253 126.945 38.4267 128.237 33.036C128.905 30.1848 129.128 26.9771 128.237 24.4377C126.945 24.7941 125.742 25.0615 124.539 25.2397C123.292 25.4179 122.089 25.507 120.886 25.5515C119.683 25.5515 118.436 25.4179 117.233 25.2397C115.985 25.0615 114.783 24.7941 113.535 24.4377C112.644 26.9771 112.822 30.1848 113.535 33.036C114.738 38.4267 117.99 42.5253 120.841 44.3073Z" fill="white"/>
<path id="Vector_14" d="M117.901 27.4675C116.921 27.9575 116.609 29.1604 117.055 30.096C117.411 30.9424 118.168 31.477 119.059 31.7443C119.505 31.878 119.951 31.9226 120.396 31.9226C120.975 31.9671 121.465 31.9671 121.955 32.1008C122.044 32.1453 122.178 32.1899 122.267 32.3235C122.401 32.5908 122.267 32.8581 122 32.9472C122 33.3927 121.955 34.3283 121.955 34.3283C121.955 34.3283 124.183 34.1055 123.826 32.1008C123.737 31.6107 123.336 31.1206 122.935 30.8979C121.777 30.3187 120.574 30.586 119.416 30.1851C119.015 30.0514 118.48 29.8732 118.391 29.4277C118.347 29.2495 118.391 28.8931 118.569 28.8486C118.881 28.7595 119.193 28.9822 119.594 29.1159C119.861 29.1604 120.129 29.1604 120.351 29.1159C120.441 29.0713 120.574 29.0713 120.574 28.9822C120.574 28.9377 120.485 28.8931 120.396 28.8486C120.262 28.804 120.129 28.7595 119.995 28.7149C119.772 28.6258 119.55 28.5367 119.282 28.403C119.505 28.3585 119.861 28.3585 120.084 28.3585C120.262 28.3585 120.797 28.3585 120.975 28.3139C121.02 28.3139 121.109 28.2694 121.064 28.2248C120.975 28.0912 120.886 28.0912 120.797 27.9575C120.619 27.7348 120.485 27.512 120.218 27.4229C119.46 27.1556 118.659 27.0665 117.901 27.4675Z" fill="white"/>
<path id="Vector_15" d="M121.688 34.6399V32.2787C121.688 32.2787 121.376 32.2341 120.931 32.1896C120.396 32.145 120.129 32.145 120.129 32.145V32.3232C120.129 32.3232 119.861 32.4569 119.817 32.5014C119.817 32.546 119.728 32.6351 119.772 32.7242C119.995 33.3033 120.262 33.8825 120.351 34.5062C120.797 34.5953 121.153 34.5953 121.688 34.6399Z" fill="white"/>
<path id="Vector_16" d="M118.837 34.2833C118.748 35.2189 119.327 35.7089 119.995 35.8872C120.53 36.0208 121.02 36.0208 121.599 36.1099C121.688 36.1099 121.822 36.1099 121.911 36.1545C122 36.199 122.089 36.2436 122.089 36.3327C122.089 36.4218 122.089 36.4663 122.044 36.5554C121.955 36.6445 121.822 36.6891 121.822 36.6891L121.777 37.8028C121.777 37.8028 122.223 37.8028 122.579 37.5801C122.935 37.3573 123.158 37.09 123.247 36.7782C123.336 36.3772 123.247 36.0208 122.98 35.6644C122.802 35.3971 122.49 35.2189 122.178 35.1298C121.51 34.907 120.841 34.9516 120.129 34.8179C120.04 34.8179 119.95 34.7288 119.906 34.6397C119.906 34.4615 120.04 34.3724 120.04 34.3724C120.04 34.3724 119.95 34.1051 119.861 33.8378C119.772 33.6596 119.683 33.3923 119.594 33.2141C119.193 33.3923 118.881 33.8378 118.837 34.2833Z" fill="white"/>
<path id="Vector_17" d="M121.599 36.3772V38.382L121.109 38.1592L120.619 37.981V36.3327C121.02 36.2881 121.242 36.3327 121.599 36.3772Z" fill="white"/>
<path id="Vector_18" d="M119.371 37.4468C119.104 38.1151 119.416 38.7388 119.951 39.0061C120.262 39.1397 120.619 39.2734 120.931 39.4071C121.243 39.5407 121.777 39.8526 121.822 39.9862C121.822 40.0753 121.733 40.1644 121.733 40.1644V40.9218C121.733 40.9218 122.044 40.8772 122.312 40.6545C122.534 40.4763 122.713 40.209 122.713 39.8526C122.713 39.4071 122.534 39.0952 121.911 38.7388C121.465 38.4715 120.886 38.2487 120.441 38.026C120.351 37.9814 120.307 37.8923 120.352 37.8032C120.396 37.7141 120.441 37.6696 120.441 37.6696V36.7786C120.441 36.7786 120.129 36.8231 119.951 36.9568C119.683 37.0904 119.46 37.2241 119.371 37.4468Z" fill="white"/>
<path id="Vector_19" d="M121.51 40.1197C121.51 40.0751 121.51 40.0306 121.465 39.986C121.332 39.8524 121.153 39.7633 121.109 39.7187C120.975 39.6296 120.663 39.5405 120.663 39.5405C120.663 39.5405 120.663 41.5899 120.708 42.6145C120.708 42.8373 120.841 42.9264 121.064 42.9264C121.332 42.9264 121.421 42.7482 121.421 42.6591C121.465 42.3472 121.51 40.877 121.51 40.1197Z" fill="white"/>
<path id="Vector_20" d="M121.732 26.9771C121.822 27.0662 121.822 27.0662 121.866 27.1999C121.955 27.5117 121.866 28.0463 121.911 28.2691C121.955 28.3582 122 28.3582 122.089 28.3136C122.534 28.0909 122.846 27.6454 123.292 27.4672C123.515 27.3781 124.094 27.6899 123.96 28.1354C123.915 28.3582 123.782 28.3582 123.693 28.4918C123.425 28.7591 123.024 29.0264 122.713 29.3828C122.49 29.6501 122.223 29.8283 122.044 30.0957C121.955 30.1848 121.866 30.3184 121.866 30.3184C121.242 30.1848 120.619 30.2293 120.129 30.0957V29.3828C120.129 29.3828 120.619 29.2937 120.752 29.0264C120.752 29.0264 120.752 28.9373 120.663 28.8482C120.574 28.8037 120.441 28.7146 120.396 28.7146C120.886 28.8037 121.242 28.8928 121.732 29.071C121.777 29.0264 121.732 28.8928 121.688 28.8482C121.643 28.7591 121.599 28.7591 121.421 28.7146C121.109 28.6255 120.307 28.5364 120.307 28.5364C120.307 28.5364 120.708 28.5364 121.02 28.4918C121.153 28.4473 121.287 28.4473 121.332 28.4027C121.376 28.3136 121.287 28.2245 121.198 28.0909C121.109 28.0018 121.02 27.9127 120.975 27.8681C120.886 27.779 120.797 27.6008 120.663 27.4672C120.53 27.3781 120.262 27.1999 120.262 27.1999C120.262 27.1999 120.218 26.7989 120.307 26.6653C120.351 26.5316 120.53 26.487 120.619 26.5316C120.886 26.6653 121.287 26.888 121.732 26.9771Z" fill="white"/>
<path id="Vector_21" d="M120.173 40.8769C120.04 41.0106 119.861 41.2779 119.817 41.6788C119.772 42.0352 119.861 42.1689 119.951 42.3471C120.04 42.5253 120.218 42.4808 120.262 42.3471C120.307 42.2134 120.218 42.1243 120.262 41.857C120.307 41.6788 120.441 41.5452 120.441 41.5452V40.6542C120.485 40.6096 120.352 40.6987 120.173 40.8769Z" fill="white"/>
<path id="Vector_22" d="M120.129 27.7344C120.04 27.779 119.95 27.8681 119.861 27.8681C119.639 27.9126 119.683 27.7344 119.55 27.6008C119.46 27.5562 119.371 27.6008 119.282 27.4671C119.594 27.4671 119.95 27.4226 120.173 27.6899C120.218 27.6899 120.173 27.7344 120.129 27.7344Z" fill="white"/>
<path id="Vector_23" d="M30.7155 42.6144V46.8022H32.1857V47.3813H26.8396V46.8022H28.1761V38.2039H26.8396V37.6247H28.1316C28.8444 37.6247 29.4235 37.5802 30.6264 37.4465V39.2286C31.2501 37.7584 32.1411 37.3574 33.0767 37.3574C34.0568 37.3574 34.8587 38.1593 34.8587 39.2286C34.8587 40.2532 34.3241 40.7433 33.7004 40.7433C33.2103 40.7433 32.7648 40.476 32.5866 40.0305C32.4084 39.585 32.5866 39.1395 32.5421 38.783C32.4975 38.4712 32.3193 38.3375 32.1411 38.3375C31.5174 38.293 30.7155 39.5404 30.7155 42.6144Z" fill="white"/>
<path id="Vector_24" d="M66.6678 40.2978V46.8022H65.3759V47.3813H70.5883V46.8022H69.2518V40.6542C69.2518 38.1593 67.8707 37.3574 66.1332 37.3574C64.663 37.3574 63.7275 38.0702 63.2374 38.9167V37.402C61.9454 37.5356 61.3663 37.5802 60.6535 37.5802H59.3615V38.1593H60.6535V46.7576H59.3615V47.3368H64.5739V46.7576H63.2374V42.5699V41.2333C63.2374 39.184 64.2175 38.293 65.2422 38.293C66.1332 38.293 66.6678 38.8276 66.6678 40.2978Z" fill="white"/>
<path id="Vector_25" d="M39.1802 46.8022V37.4465C38.0664 37.5356 37.2645 37.6247 36.5962 37.6247H35.3934V38.2039H36.5962V46.8022H35.3043V47.3813H40.5167V46.8022" fill="white"/>
<path id="Vector_26" d="M48.3576 43.5944V43.9954C48.3576 45.9111 46.7984 46.8021 45.2391 46.8021H44.0808L49.115 37.5801H41.4968V40.9214H42.1651V40.7877C42.1651 39.3621 42.8779 38.2038 44.8827 38.2038H45.9964L40.9622 47.4258H48.9813V43.5944" fill="white"/>
<path id="Vector_27" d="M17.5285 33.6597V33.0806H11.2023V33.6597H12.9398V39.8077H7.68278V33.6597H9.42025V33.0806H3.13861V33.6597H4.87609V46.8022H3.13861V47.3813H9.42025V46.8022H7.68278V40.3869H12.9398V46.8022H11.2023V47.3813H17.5285V46.8022H15.7464V33.6597" fill="white"/>
<path id="Vector_28" d="M37.799 36.0211C38.69 36.0211 39.4028 35.3083 39.4028 34.4173C39.4028 33.5263 38.69 32.8135 37.799 32.8135C36.908 32.8135 36.1952 33.5263 36.1952 34.4173C36.1952 35.3083 36.908 36.0211 37.799 36.0211Z" fill="white"/>
<path id="Vector_29" d="M21.9835 47.6041C25.1466 47.6041 26.7504 45.2874 26.7504 42.4807C26.7504 39.8523 25.1021 37.3574 21.9835 37.3574C18.9095 37.3574 17.2612 39.8523 17.2612 42.4807C17.2166 45.2874 18.8204 47.6041 21.9835 47.6041ZM20.0678 43.5945V41.3224C20.0678 38.8276 20.7361 37.892 21.939 37.892C23.1418 37.892 23.8547 38.8276 23.8547 41.3224V43.5945C23.8547 46.0894 23.1864 47.0249 21.939 47.0249C20.7807 47.0249 20.0678 46.0894 20.0678 43.5945Z" fill="white"/>
<path id="Vector_30" d="M54.3719 47.6041C57.535 47.6041 59.0943 45.2874 59.0943 42.4807C59.0943 39.8523 57.4459 37.3574 54.3719 37.3574C51.2979 37.3574 49.6495 39.8523 49.6495 42.4807C49.6495 45.2874 51.2088 47.6041 54.3719 47.6041ZM52.5008 43.5945V41.3224C52.5008 38.8276 53.169 37.892 54.3719 37.892C55.5748 37.892 56.243 38.8276 56.243 41.3224V43.5945C56.243 46.0894 55.5748 47.0249 54.3719 47.0249C53.169 47.0249 52.5008 46.0894 52.5008 43.5945Z" fill="white"/>
<path id="Vector_31" d="M3.13861 20.8292C26.5723 22.9231 49.0258 28.6701 69.2072 37.402V20.6064H3.13861" fill="white"/>
<path id="Vector_32" d="M101.328 46.1338H101.551C101.729 46.1338 101.907 46.1338 101.907 45.911C101.907 45.7328 101.729 45.6883 101.596 45.6883H101.328M101.106 45.5101H101.64C101.952 45.5101 102.13 45.6437 102.13 45.911C102.13 46.1783 101.952 46.2674 101.774 46.2674L102.175 46.8911H101.952L101.551 46.312H101.328V46.8911H101.106V45.5101ZM101.596 47.203C102.13 47.203 102.576 46.7575 102.576 46.1783C102.576 45.5992 102.175 45.1537 101.596 45.1537C101.016 45.1537 100.615 45.5992 100.615 46.1783C100.615 46.802 101.016 47.203 101.596 47.203ZM101.596 45.02C102.219 45.02 102.754 45.5101 102.754 46.2229C102.754 46.8911 102.219 47.4258 101.596 47.4258C100.927 47.4258 100.393 46.9357 100.393 46.2229C100.393 45.5101 100.927 45.02 101.596 45.02Z" fill="white"/>
<path id="Vector_33" d="M72.2813 46.1338H72.504C72.6822 46.1338 72.8604 46.1338 72.8604 45.911C72.8604 45.7328 72.6822 45.6883 72.5486 45.6883H72.2367M72.0585 45.5101H72.5931C72.905 45.5101 73.0832 45.6437 73.0832 45.911C73.0832 46.1783 72.905 46.2674 72.7268 46.2674L73.1277 46.8911H72.905L72.504 46.312H72.2813V46.8911H72.0585V45.5101ZM72.5486 47.203C73.0832 47.203 73.5287 46.7575 73.5287 46.1783C73.5287 45.5992 73.1277 45.1537 72.5486 45.1537C71.9694 45.1537 71.5685 45.5992 71.5685 46.1783C71.5685 46.802 71.9694 47.203 72.5486 47.203ZM72.5486 45.02C73.1723 45.02 73.7069 45.5101 73.7069 46.2229C73.7069 46.8911 73.1723 47.4258 72.5486 47.4258C71.8803 47.4258 71.3457 46.9357 71.3457 46.2229C71.3457 45.5101 71.8803 45.02 72.5486 45.02Z" fill="white"/>
<path id="Vector_34" d="M126.989 46.1338H127.212C127.39 46.1338 127.569 46.1338 127.569 45.911C127.569 45.7328 127.39 45.6883 127.257 45.6883H126.989M126.767 45.5101H127.301C127.613 45.5101 127.791 45.6437 127.791 45.911C127.791 46.1783 127.613 46.2674 127.435 46.2674L127.836 46.8911H127.569L127.212 46.312H126.989V46.8911H126.767V45.5101ZM127.212 47.2476C127.747 47.2476 128.192 46.802 128.192 46.2229C128.192 45.6437 127.791 45.1982 127.212 45.1982C126.633 45.1982 126.232 45.6437 126.232 46.2229C126.232 46.802 126.678 47.2476 127.212 47.2476ZM127.212 45.02C127.88 45.02 128.415 45.5101 128.415 46.1783C128.415 46.8466 127.88 47.3812 127.212 47.3812C126.544 47.3812 126.009 46.8911 126.009 46.1783C126.054 45.5546 126.589 45.02 127.212 45.02Z" fill="white"/>
</g>
</g>
</g>
</svg>
