<svg width="130" height="65" viewBox="0 0 130 65" fill="none" xmlns="http://www.w3.org/2000/svg">
<g id="rs-beacon">
<path id="Vector" d="M46.646 43.0391C46.6402 43.0016 46.6432 42.9632 46.655 42.9271C46.6667 42.891 46.6869 42.8582 46.7137 42.8313C46.7406 42.8045 46.7734 42.7844 46.8095 42.7726C46.8456 42.7608 46.884 42.7578 46.9215 42.7637H47.1797C47.2169 42.7596 47.2545 42.7639 47.2898 42.7763C47.3251 42.7887 47.3571 42.8088 47.3836 42.8353C47.41 42.8617 47.4302 42.8938 47.4426 42.929C47.455 42.9643 47.4593 43.0019 47.4552 43.0391V44.9974C47.4552 45.1954 47.4552 45.3546 47.4552 45.3546C47.6085 45.0555 47.8417 44.8047 48.1289 44.63C48.416 44.4552 48.7459 44.3634 49.082 44.3647C50.1107 44.3647 50.5841 44.9199 50.5841 46.0303V48.5223C50.5898 48.5599 50.5866 48.5984 50.5749 48.6347C50.5631 48.6709 50.5431 48.7039 50.5163 48.731C50.4896 48.7582 50.4569 48.7787 50.4209 48.791C50.3848 48.8034 50.3464 48.8071 50.3087 48.802H50.0246C49.8266 48.802 49.7491 48.703 49.7491 48.5223V46.2068C49.7491 45.5913 49.6114 45.1179 48.9185 45.1179C48.7154 45.1248 48.5159 45.1728 48.3319 45.2591C48.1479 45.3453 47.9834 45.468 47.8482 45.6197C47.713 45.7714 47.61 45.9489 47.5454 46.1415C47.4808 46.3342 47.456 46.5379 47.4724 46.7405V48.5223C47.4781 48.5599 47.4749 48.5984 47.4632 48.6347C47.4514 48.6709 47.4314 48.7039 47.4046 48.731C47.3779 48.7582 47.3452 48.7787 47.3092 48.791C47.2731 48.8034 47.2347 48.8071 47.1969 48.802H46.9387C46.9006 48.8079 46.8617 48.8047 46.8251 48.7927C46.7885 48.7807 46.7552 48.7603 46.728 48.733C46.7007 48.7058 46.6803 48.6725 46.6683 48.6359C46.6563 48.5993 46.6531 48.5603 46.6589 48.5223V43.0391H46.646Z" fill="white"/>
<path id="Vector_2" d="M54.9999 46.1682C54.9999 45.3978 54.5265 45.0018 53.9497 45.0018C53.6323 45.0067 53.3278 45.1283 53.0944 45.3435C52.861 45.5586 52.7151 45.8522 52.6844 46.1682H54.9999ZM53.9713 44.3304C55.1764 44.3304 55.8521 45.1912 55.8521 46.4092C55.8526 46.4483 55.8454 46.4872 55.8306 46.5235C55.8159 46.5598 55.7941 46.5928 55.7664 46.6205C55.7387 46.6482 55.7057 46.67 55.6694 46.6847C55.6331 46.6994 55.5943 46.7067 55.5551 46.7062H52.6457C52.645 46.902 52.6837 47.096 52.7594 47.2766C52.8351 47.4572 52.9463 47.6208 53.0863 47.7576C53.2264 47.8945 53.3925 48.0018 53.5748 48.0733C53.7571 48.1448 53.952 48.179 54.1477 48.1738C54.5243 48.1707 54.8909 48.052 55.1979 47.8338C55.2298 47.8124 55.2659 47.798 55.3038 47.7914C55.3417 47.7848 55.3805 47.7862 55.4178 47.7955C55.4551 47.8048 55.49 47.8219 55.5203 47.8455C55.5507 47.8691 55.5757 47.8989 55.5938 47.9328L55.6713 48.0748C55.6925 48.1039 55.7074 48.1371 55.715 48.1723C55.7226 48.2075 55.7228 48.2439 55.7155 48.2792C55.7082 48.3144 55.6936 48.3478 55.6726 48.3771C55.6517 48.4063 55.6248 48.4309 55.5938 48.4492C55.1628 48.7444 54.653 48.9034 54.1305 48.9054C53.8272 48.918 53.5245 48.8679 53.2414 48.7582C52.9583 48.6486 52.7008 48.4817 52.4851 48.268C52.2694 48.0543 52.1001 47.7985 51.9878 47.5164C51.8755 47.2343 51.8225 46.9321 51.8322 46.6287C51.8012 46.3317 51.8343 46.0315 51.9294 45.7485C52.0245 45.4654 52.1793 45.2061 52.3834 44.9882C52.5875 44.7702 52.8361 44.5987 53.1123 44.4852C53.3884 44.3717 53.6858 44.3189 53.9842 44.3304" fill="white"/>
<path id="Vector_3" d="M58.344 48.2469C59.08 48.2469 59.5147 47.5152 59.5147 46.861V46.663H59.2952C58.684 46.663 57.5349 46.7233 57.5349 47.5238C57.5373 47.625 57.5607 47.7245 57.6035 47.8162C57.6463 47.9078 57.7077 47.9896 57.7837 48.0563C57.8598 48.1231 57.9488 48.1733 58.0453 48.2039C58.1417 48.2345 58.2434 48.2447 58.344 48.234M59.2952 46.1164H59.5147V46.0002C59.5291 45.8718 59.5143 45.7418 59.4716 45.6199C59.4289 45.498 59.3593 45.3872 59.2679 45.2959C59.1766 45.2045 59.0658 45.1349 58.9439 45.0921C58.8219 45.0494 58.6919 45.0347 58.5635 45.0491C58.2152 45.053 57.8739 45.1479 57.5736 45.3245C57.5419 45.3466 57.5058 45.3616 57.4678 45.3685C57.4298 45.3755 57.3907 45.3742 57.3532 45.3649C57.3157 45.3555 57.2806 45.3382 57.2504 45.3142C57.2201 45.2902 57.1953 45.2599 57.1777 45.2255L57.1174 45.1093C57.0954 45.0776 57.0804 45.0415 57.0734 45.0035C57.0665 44.9655 57.0677 44.9264 57.0771 44.8889C57.0865 44.8514 57.1037 44.8163 57.1278 44.7861C57.1518 44.7558 57.182 44.731 57.2164 44.7134C57.6479 44.4667 58.1354 44.3348 58.6324 44.3303C59.7213 44.3303 60.354 44.9243 60.354 46.0519V48.5266C60.3598 48.5641 60.3568 48.6025 60.345 48.6386C60.3333 48.6747 60.3131 48.7075 60.2863 48.7344C60.2594 48.7612 60.2266 48.7814 60.1905 48.7931C60.1544 48.8049 60.116 48.808 60.0785 48.8021H59.859C59.8218 48.8062 59.7842 48.8019 59.7489 48.7895C59.7137 48.7771 59.6816 48.7569 59.6552 48.7305C59.6287 48.704 59.6086 48.672 59.5962 48.6367C59.5838 48.6014 59.5795 48.5638 59.5836 48.5266V48.2684C59.5824 48.1818 59.5896 48.0953 59.6051 48.0102H59.5836C59.4546 48.2798 59.2529 48.508 59.0012 48.6692C58.7495 48.8304 58.4578 48.9182 58.159 48.9226C57.9767 48.9397 57.7929 48.9194 57.6187 48.8628C57.4446 48.8063 57.2839 48.7148 57.1464 48.5938C57.009 48.4729 56.8977 48.3252 56.8194 48.1596C56.7412 47.9941 56.6976 47.8144 56.6913 47.6314C56.7344 46.2628 58.4129 46.125 59.3253 46.125" fill="white"/>
<path id="Vector_4" d="M61.8087 43.0392C61.8087 42.8412 61.9077 42.7637 62.0884 42.7637H62.3467C62.3839 42.7596 62.4215 42.7639 62.4568 42.7763C62.492 42.7887 62.5241 42.8089 62.5505 42.8353C62.577 42.8618 62.5971 42.8938 62.6095 42.9291C62.6219 42.9644 62.6262 43.002 62.6221 43.0392V47.5152C62.6221 48.0102 62.8416 48.0704 63.0181 48.0919C63.0496 48.0929 63.0806 48.1004 63.1091 48.114C63.1376 48.1276 63.1629 48.1469 63.1835 48.1708C63.2042 48.1946 63.2196 48.2225 63.2289 48.2526C63.2382 48.2828 63.2412 48.3145 63.2376 48.3459V48.5438C63.2433 48.5842 63.2396 48.6253 63.2267 48.664C63.2138 48.7026 63.1921 48.7377 63.1633 48.7665C63.1345 48.7954 63.0994 48.8171 63.0607 48.83C63.0221 48.8428 62.981 48.8466 62.9406 48.8408C62.4844 48.8408 61.77 48.7031 61.77 47.6142V43.0392H61.8087Z" fill="white"/>
<path id="Vector_5" d="M64.4427 45.191H64.1457C64.1086 45.1951 64.0709 45.1908 64.0357 45.1784C64.0004 45.166 63.9683 45.1459 63.9419 45.1194C63.9154 45.093 63.8953 45.0609 63.8829 45.0257C63.8705 44.9904 63.8662 44.9528 63.8703 44.9156V44.7951C63.8662 44.7579 63.8705 44.7203 63.8829 44.685C63.8953 44.6497 63.9154 44.6177 63.9419 44.5912C63.9683 44.5648 64.0004 44.5446 64.0357 44.5322C64.0709 44.5198 64.1086 44.5155 64.1457 44.5196H64.4642V43.5513C64.4585 43.5136 64.4617 43.4751 64.4734 43.4389C64.4852 43.4026 64.5052 43.3696 64.532 43.3425C64.5587 43.3153 64.5914 43.2948 64.6274 43.2825C64.6635 43.2702 64.7019 43.2664 64.7397 43.2715H64.9979C65.1959 43.2715 65.2733 43.3705 65.2733 43.5513V44.4981H66.0265C66.0646 44.4923 66.1035 44.4955 66.1401 44.5074C66.1768 44.5194 66.21 44.5399 66.2373 44.5671C66.2645 44.5944 66.285 44.6276 66.2969 44.6642C66.3089 44.7009 66.3121 44.7398 66.3063 44.7779V44.8941C66.3104 44.9318 66.3059 44.97 66.2933 45.0058C66.2807 45.0416 66.2602 45.0741 66.2334 45.1009C66.2065 45.1278 66.174 45.1482 66.1382 45.1609C66.1024 45.1735 66.0643 45.1779 66.0265 45.1738H65.2561V47.1149C65.2561 47.9455 65.7683 48.0617 66.0868 48.1048C66.3063 48.1048 66.3837 48.1822 66.3837 48.3802V48.5567C66.3837 48.7547 66.2632 48.8364 66.048 48.8364C65.8321 48.8537 65.6149 48.8241 65.4114 48.7498C65.2079 48.6754 65.0228 48.5581 64.8688 48.4057C64.7148 48.2533 64.5954 48.0695 64.5189 47.8668C64.4424 47.6641 64.4106 47.4472 64.4255 47.2311V45.191H64.4427Z" fill="white"/>
<path id="Vector_6" d="M67.4339 43.0391C67.428 43.0016 67.4311 42.9632 67.4428 42.9271C67.4546 42.891 67.4747 42.8582 67.5016 42.8313C67.5284 42.8045 67.5612 42.7844 67.5973 42.7726C67.6334 42.7608 67.6718 42.7578 67.7093 42.7637H67.9676C68.0047 42.7596 68.0424 42.7639 68.0776 42.7763C68.1129 42.7887 68.145 42.8088 68.1714 42.8353C68.1978 42.8617 68.218 42.8938 68.2304 42.929C68.2428 42.9643 68.2471 43.0019 68.243 43.0391V44.9974C68.243 45.1954 68.243 45.3546 68.243 45.3546C68.3964 45.0555 68.6296 44.8047 68.9167 44.63C69.2038 44.4552 69.5338 44.3634 69.8699 44.3647C70.8985 44.3647 71.3719 44.9199 71.3719 46.0303V48.5223C71.3776 48.5599 71.3745 48.5984 71.3627 48.6347C71.351 48.6709 71.3309 48.7039 71.3042 48.731C71.2775 48.7582 71.2448 48.7787 71.2087 48.791C71.1727 48.8034 71.1343 48.8071 71.0965 48.802H70.8167C70.6188 48.802 70.5413 48.703 70.5413 48.5223V46.2068C70.5413 45.5913 70.4036 45.1179 69.7106 45.1179C69.5076 45.1248 69.308 45.1728 69.1241 45.2591C68.9401 45.3453 68.7755 45.468 68.6403 45.6197C68.5052 45.7714 68.4021 45.9489 68.3375 46.1415C68.273 46.3342 68.2481 46.5379 68.2645 46.7405V48.5223C68.2702 48.5599 68.2671 48.5984 68.2553 48.6347C68.2435 48.6709 68.2235 48.7039 68.1968 48.731C68.17 48.7582 68.1374 48.7787 68.1013 48.791C68.0653 48.8034 68.0268 48.8071 67.9891 48.802H67.7308C67.6928 48.8079 67.6538 48.8047 67.6172 48.7927C67.5806 48.7807 67.5473 48.7603 67.5201 48.733C67.4929 48.7058 67.4724 48.6725 67.4604 48.6359C67.4484 48.5993 67.4452 48.5603 67.4511 48.5223V43.0391H67.4339Z" fill="white"/>
<path id="Vector_7" d="M77.4103 48.2037C77.6131 48.2032 77.8138 48.162 78.0003 48.0823C78.1868 48.0027 78.3554 47.8863 78.496 47.7401C78.6365 47.5939 78.7462 47.4209 78.8185 47.2314C78.8908 47.0419 78.9242 46.8397 78.9167 46.6371C78.9236 46.4355 78.8897 46.2347 78.817 46.0466C78.7443 45.8586 78.6342 45.6872 78.4934 45.5428C78.3527 45.3984 78.1842 45.284 77.998 45.2066C77.8118 45.1291 77.6119 45.0901 77.4103 45.092C77.0118 45.1129 76.6366 45.286 76.3619 45.5755C76.0873 45.8649 75.9341 46.2488 75.9341 46.6478C75.9341 47.0469 76.0873 47.4307 76.3619 47.7202C76.6366 48.0096 77.0118 48.1827 77.4103 48.2037ZM77.4103 44.3603C77.8616 44.3696 78.3 44.5121 78.6705 44.7699C79.041 45.0277 79.3271 45.3892 79.4928 45.8091C79.6585 46.2289 79.6963 46.6884 79.6017 47.1297C79.507 47.5711 79.284 47.9746 78.9607 48.2895C78.6374 48.6045 78.2282 48.8169 77.7845 48.9C77.3409 48.9831 76.8826 48.9332 76.4672 48.7567C76.0518 48.5801 75.6979 48.2847 75.4498 47.9076C75.2018 47.5304 75.0708 47.0884 75.0733 46.6371C75.0726 46.3328 75.133 46.0314 75.251 45.7509C75.3689 45.4704 75.542 45.2165 75.76 45.0041C75.9779 44.7918 76.2363 44.6254 76.5198 44.5148C76.8033 44.4042 77.1061 44.3516 77.4103 44.3603Z" fill="white"/>
<path id="Vector_8" d="M83.0527 48.204C83.7456 48.204 84.3008 47.6488 84.3008 46.6589C84.3008 45.669 83.7844 45.0923 83.0742 45.0923C82.3641 45.0923 81.8261 45.5485 81.8261 46.6589C81.8261 47.4293 82.2565 48.204 83.0527 48.204ZM81.0127 44.7609C81.0127 44.5629 81.1116 44.4855 81.2924 44.4855H81.4904C81.6884 44.4855 81.7658 44.5845 81.7658 44.7222V44.9804C81.772 45.0592 81.772 45.1383 81.7658 45.2171C81.9082 44.9552 82.1212 44.7384 82.3807 44.5916C82.6401 44.4447 82.9356 44.3737 83.2335 44.3865C84.3998 44.3865 85.1315 45.3161 85.1315 46.6632C85.1315 48.0104 84.3008 48.94 83.1732 48.94C82.8989 48.9484 82.6277 48.8804 82.3898 48.7436C82.152 48.6068 81.9568 48.4066 81.8261 48.1653C81.8337 48.2914 81.8337 48.4179 81.8261 48.544V50.2656C81.832 50.3031 81.8289 50.3415 81.8171 50.3776C81.8054 50.4137 81.7853 50.4465 81.7584 50.4734C81.7316 50.5002 81.6987 50.5204 81.6626 50.5321C81.6265 50.5439 81.5882 50.5469 81.5506 50.5411H81.2924C81.2547 50.5467 81.2163 50.5436 81.18 50.5318C81.1438 50.5201 81.1108 50.5 81.0836 50.4733C81.0565 50.4466 81.0359 50.4139 81.0236 50.3778C81.0113 50.3418 81.0075 50.3034 81.0127 50.2656V44.7609Z" fill="white"/>
<path id="Vector_9" d="M86.5174 45.191H86.2204C86.1833 45.1951 86.1456 45.1908 86.1104 45.1784C86.0751 45.166 86.043 45.1459 86.0166 45.1194C85.9901 45.093 85.97 45.0609 85.9576 45.0257C85.9452 44.9904 85.9409 44.9528 85.945 44.9156V44.7951C85.9409 44.7579 85.9452 44.7203 85.9576 44.685C85.97 44.6497 85.9901 44.6177 86.0166 44.5912C86.043 44.5648 86.0751 44.5446 86.1104 44.5322C86.1456 44.5198 86.1833 44.5155 86.2204 44.5196H86.5389V43.5513C86.5332 43.5136 86.5364 43.4751 86.5481 43.4389C86.5599 43.4026 86.5799 43.3696 86.6067 43.3425C86.6334 43.3153 86.6661 43.2948 86.7021 43.2825C86.7382 43.2702 86.7766 43.2664 86.8144 43.2715H87.0726C87.2706 43.2715 87.3481 43.3705 87.3481 43.5513V44.4981H88.1012C88.1393 44.4923 88.1782 44.4955 88.2148 44.5074C88.2515 44.5194 88.2847 44.5399 88.312 44.5671C88.3392 44.5944 88.3597 44.6276 88.3717 44.6642C88.3836 44.7009 88.3868 44.7398 88.381 44.7779V44.8941C88.3851 44.9318 88.3806 44.97 88.368 45.0058C88.3554 45.0416 88.3349 45.0741 88.3081 45.1009C88.2812 45.1278 88.2487 45.1482 88.2129 45.1609C88.1771 45.1735 88.139 45.1779 88.1012 45.1738H87.3308V47.1149C87.3308 47.9455 87.843 48.0617 88.1615 48.1048C88.381 48.1048 88.4585 48.1822 88.4585 48.3802V48.5567C88.4585 48.7547 88.3379 48.8364 88.1228 48.8364C87.9068 48.8537 87.6896 48.8241 87.4861 48.7498C87.2826 48.6754 87.0975 48.5581 86.9435 48.4057C86.7895 48.2533 86.6702 48.0695 86.5936 47.8668C86.5171 47.6641 86.4853 47.4472 86.5002 47.2311V45.191H86.5174Z" fill="white"/>
<path id="Vector_10" d="M89.5086 44.7607C89.5027 44.7231 89.5058 44.6848 89.5175 44.6487C89.5293 44.6126 89.5494 44.5797 89.5763 44.5529C89.6031 44.526 89.6359 44.5059 89.672 44.4942C89.7081 44.4824 89.7465 44.4793 89.784 44.4852H90.0423C90.0798 44.4793 90.1182 44.4824 90.1543 44.4942C90.1904 44.5059 90.2232 44.526 90.25 44.5529C90.2769 44.5797 90.297 44.6126 90.3088 44.6487C90.3205 44.6848 90.3236 44.7231 90.3177 44.7607V48.5438C90.3236 48.5813 90.3205 48.6197 90.3088 48.6558C90.297 48.6919 90.2769 48.7247 90.25 48.7516C90.2232 48.7784 90.1904 48.7985 90.1543 48.8103C90.1182 48.8221 90.0798 48.8251 90.0423 48.8192H89.784C89.7469 48.8233 89.7093 48.819 89.674 48.8066C89.6387 48.7942 89.6066 48.7741 89.5802 48.7476C89.5538 48.7212 89.5336 48.6891 89.5212 48.6539C89.5088 48.6186 89.5045 48.581 89.5086 48.5438V44.7607ZM89.5086 43.3146V43.0391C89.5027 43.0016 89.5058 42.9632 89.5175 42.9271C89.5293 42.891 89.5494 42.8582 89.5763 42.8313C89.6031 42.8045 89.6359 42.7844 89.672 42.7726C89.7081 42.7608 89.7465 42.7578 89.784 42.7637H90.081C90.1185 42.7589 90.1566 42.7626 90.1924 42.7747C90.2283 42.7868 90.2609 42.8069 90.2878 42.8334C90.3148 42.8599 90.3353 42.8922 90.348 42.9278C90.3606 42.9635 90.365 43.0015 90.3608 43.0391V43.3146C90.3648 43.3523 90.3604 43.3905 90.3478 43.4263C90.3352 43.4621 90.3147 43.4946 90.2879 43.5214C90.261 43.5482 90.2285 43.5687 90.1927 43.5813C90.1569 43.594 90.1187 43.5984 90.081 43.5943H89.784C89.5861 43.5943 89.5086 43.4953 89.5086 43.3146Z" fill="white"/>
<path id="Vector_11" d="M93.9244 48.2035C94.127 48.2031 94.3275 48.1618 94.5138 48.0821C94.7001 48.0024 94.8684 47.886 95.0086 47.7397C95.1489 47.5934 95.2581 47.4204 95.3299 47.2309C95.4017 47.0414 95.4346 46.8394 95.4264 46.6369C95.434 46.4356 95.4007 46.2349 95.3284 46.0468C95.2562 45.8588 95.1465 45.6873 95.0061 45.5429C94.8657 45.3984 94.6974 45.284 94.5115 45.2065C94.3256 45.1289 94.1258 45.0899 93.9244 45.0918C93.5259 45.1128 93.1506 45.2858 92.876 45.5753C92.6013 45.8648 92.4482 46.2486 92.4482 46.6477C92.4482 47.0467 92.6013 47.4305 92.876 47.72C93.1506 48.0095 93.5259 48.1826 93.9244 48.2035ZM93.9244 44.3602C94.3757 44.3695 94.8141 44.512 95.1846 44.7698C95.5551 45.0275 95.8412 45.3891 96.0069 45.8089C96.1725 46.2288 96.2104 46.6883 96.1158 47.1296C96.0211 47.5709 95.7981 47.9744 95.4748 48.2894C95.1515 48.6044 94.7423 48.8167 94.2986 48.8999C93.855 48.983 93.3967 48.9331 92.9813 48.7565C92.5659 48.58 92.2119 48.2845 91.9639 47.9074C91.7159 47.5303 91.5849 47.0883 91.5874 46.6369C91.5826 46.3301 91.64 46.0255 91.7562 45.7415C91.8723 45.4574 92.0448 45.1999 92.2631 44.9843C92.4815 44.7687 92.7413 44.5996 93.0268 44.4872C93.3123 44.3747 93.6177 44.3213 93.9244 44.33" fill="white"/>
<path id="Vector_12" d="M97.5052 44.7607C97.5052 44.5627 97.6042 44.4852 97.785 44.4852H98.0217C98.0592 44.4794 98.0976 44.4824 98.1337 44.4942C98.1698 44.5059 98.2026 44.5261 98.2295 44.5529C98.2563 44.5798 98.2765 44.6126 98.2882 44.6487C98.3 44.6848 98.303 44.7232 98.2972 44.7607V45.1566C98.3026 45.2426 98.3026 45.3289 98.2972 45.4149C98.446 45.1056 98.6794 44.8448 98.9704 44.6628C99.2614 44.4807 99.598 44.3848 99.9413 44.3862C100.97 44.3862 101.426 44.9414 101.426 46.0476V48.5438C101.432 48.5813 101.429 48.6197 101.417 48.6558C101.405 48.6919 101.385 48.7247 101.358 48.7516C101.332 48.7784 101.299 48.7986 101.263 48.8103C101.227 48.8221 101.188 48.8251 101.151 48.8193H100.892C100.855 48.8241 100.817 48.8203 100.781 48.8082C100.745 48.7961 100.713 48.7761 100.686 48.7495C100.659 48.723 100.638 48.6907 100.625 48.6551C100.613 48.6194 100.608 48.5814 100.613 48.5438V46.2283C100.613 45.6129 100.496 45.1394 99.8035 45.1394C99.602 45.1453 99.4038 45.1919 99.2208 45.2764C99.0378 45.3609 98.8738 45.4816 98.7386 45.6312C98.6035 45.7808 98.5001 45.9562 98.4346 46.1469C98.3691 46.3375 98.3428 46.5394 98.3574 46.7405V48.5438C98.3633 48.5813 98.3602 48.6197 98.3485 48.6558C98.3367 48.6919 98.3166 48.7247 98.2897 48.7516C98.2629 48.7784 98.2301 48.7986 98.194 48.8103C98.1579 48.8221 98.1195 48.8251 98.082 48.8193H97.8237C97.7862 48.8241 97.7481 48.8203 97.7123 48.8082C97.6765 48.7961 97.6439 48.7761 97.6169 48.7495C97.59 48.723 97.5694 48.6907 97.5568 48.6551C97.5441 48.6194 97.5398 48.5814 97.544 48.5438V44.7607H97.5052Z" fill="white"/>
<path id="Vector_13" d="M102.691 48.0489L102.773 47.9327C102.889 47.7949 102.988 47.7734 103.169 47.8724C103.478 48.101 103.852 48.226 104.237 48.2296C104.667 48.2296 104.968 48.0316 104.968 47.6529C104.968 46.7921 102.734 47.0805 102.734 45.6172C102.734 44.7822 103.445 44.369 104.318 44.369C104.744 44.3612 105.163 44.4778 105.523 44.7047C105.558 44.7194 105.588 44.7417 105.613 44.7699C105.637 44.7982 105.655 44.8316 105.664 44.8677C105.674 44.9039 105.675 44.9417 105.668 44.9783C105.661 45.015 105.645 45.0495 105.622 45.0792L105.545 45.2212C105.529 45.2551 105.506 45.2851 105.477 45.3091C105.449 45.3331 105.415 45.3504 105.379 45.3599C105.343 45.3693 105.305 45.3707 105.268 45.3638C105.231 45.3569 105.197 45.3421 105.166 45.3202C104.898 45.1556 104.59 45.0664 104.275 45.062C103.845 45.062 103.544 45.2384 103.544 45.6172C103.544 46.4779 105.782 46.1681 105.782 47.6529C105.782 48.3889 105.149 48.9441 104.219 48.9441C103.692 48.9497 103.177 48.7835 102.752 48.4706C102.718 48.4477 102.689 48.4179 102.667 48.3831C102.646 48.3483 102.632 48.3094 102.626 48.2688C102.62 48.2283 102.623 48.187 102.634 48.1476C102.646 48.1082 102.665 48.0716 102.691 48.0403" fill="white"/>
<path id="Vector_14" d="M39.6952 34.2507C39.6971 31.2716 38.9586 28.3387 37.5461 25.7158C36.1336 23.0928 34.0914 20.862 31.6031 19.2238C29.1148 17.5857 26.2585 16.5916 23.2908 16.3309C20.3231 16.0703 17.3371 16.5512 14.6014 17.7305C11.8656 18.9098 9.46582 20.7505 7.61772 23.087C5.76962 25.4236 4.53117 28.1829 4.0137 31.1167C3.49623 34.0505 3.71597 37.0669 4.65316 39.8948C5.59035 42.7227 7.21561 45.2733 9.38283 47.3174C10.5155 48.2298 11.9267 48.7265 13.3811 48.7247C14.3946 48.7262 15.3931 48.481 16.2906 48.0103L28.1952 40.8873L27.3344 36.3338L14.8531 43.8183C13.4285 44.4338 12.0426 44.4338 10.6353 42.8284C8.89812 40.5922 7.87893 37.8824 7.71189 35.0557C7.54485 32.229 8.23778 29.418 9.69946 26.9928C11.1611 24.5676 13.323 22.642 15.9004 21.4694C18.4779 20.2968 21.35 19.9323 24.1386 20.4238C26.9272 20.9153 29.5016 22.2399 31.5228 24.2231C33.544 26.2062 34.9172 28.755 35.4616 31.5338C36.006 34.3126 35.696 37.1911 34.5726 39.7903C33.4491 42.3896 31.5649 44.5876 29.1678 46.0951L29.9382 50.2139C32.8746 48.7068 35.3388 46.4196 37.06 43.6035C38.7813 40.7873 39.6931 37.5512 39.6952 34.2507ZM28.9354 28.944L21.6403 23.2414L14.4141 28.944L14.5346 28.9053L14.4356 28.944C14.4356 28.944 15.3437 29.0861 17.0179 29.185V31.0659C16.4453 31.1589 15.8821 31.303 15.3351 31.4962L15.7311 32.1504H16.622L15.2663 38.8258L26.3918 32.1332H27.541L27.9154 31.479H27.9757C27.4086 31.2841 26.8252 31.1401 26.2326 31.0486V29.185C27.9757 29.0645 28.9053 28.944 28.9053 28.944M20.5299 27.9369C20.9087 27.9369 21.3046 27.8982 21.6618 27.8982C22.0191 27.8982 22.3935 27.8982 22.7895 27.9369V30.7086C22.4538 30.7086 22.0965 30.7086 21.7178 30.7086C21.3391 30.7086 20.9087 30.7086 20.5299 30.7086V27.9369ZM19.936 30.7258C19.188 30.7584 18.4423 30.8317 17.7023 30.9453V28.2726C18.4124 28.1521 19.1871 28.0531 19.936 27.9757V30.7258ZM25.5999 30.9238C24.9845 30.8464 24.2356 30.7689 23.3619 30.7258V27.9757C24.1151 28.0531 24.8855 28.1521 25.5999 28.2726V30.9238Z" fill="white"/>
<path id="Vector_15" d="M53.2956 24.4506C52.4265 24.4426 51.567 24.6322 50.7819 25.0049C49.9968 25.3777 49.3067 25.924 48.7636 26.6026V18.593C48.7654 18.5319 48.7497 18.4715 48.7184 18.4189C48.6872 18.3664 48.6417 18.3237 48.5872 18.296C48.5369 18.2624 48.4777 18.2444 48.4171 18.2444C48.3566 18.2444 48.2974 18.2624 48.2471 18.296L46.3491 19.5227C46.3021 19.5531 46.263 19.5943 46.2353 19.643C46.2076 19.6917 46.192 19.7464 46.1899 19.8024V37.797C46.1931 37.885 46.2295 37.9686 46.2918 38.0308C46.354 38.0931 46.4376 38.1295 46.5256 38.1327H48.4279C48.5159 38.1295 48.5995 38.0931 48.6617 38.0308C48.724 37.9686 48.7604 37.885 48.7636 37.797V36.3509C49.3218 37.0053 50.0172 37.5289 50.8004 37.8844C51.5837 38.2399 52.4355 38.4187 53.2956 38.4082C56.4073 38.4082 59.7127 35.9721 59.7127 31.4014C59.7127 26.8307 56.4073 24.4506 53.2956 24.4506ZM57.1003 31.4789C57.1003 34.1731 55.3787 36.0324 52.9599 36.0324C50.8639 36.0324 48.7034 34.3108 48.7034 31.4014C48.6673 30.234 49.0948 29.0998 49.8924 28.2466C50.6899 27.3934 51.7928 26.8905 52.9599 26.8479C55.3572 26.8264 57.1003 28.7674 57.1003 31.4789Z" fill="white"/>
<path id="Vector_16" d="M67.3952 24.4506C63.711 24.4506 60.9393 27.4633 60.9393 31.4401C60.9393 35.4169 63.8316 38.4297 67.6706 38.4297C68.7174 38.458 69.7568 38.248 70.7105 37.8155C71.6641 37.3831 72.507 36.7395 73.1753 35.9334C73.2379 35.8705 73.273 35.7854 73.273 35.6967C73.273 35.608 73.2379 35.5229 73.1753 35.46L71.9874 34.3883C71.9228 34.3275 71.8373 34.2936 71.7486 34.2936C71.6598 34.2936 71.5744 34.3275 71.5097 34.3883C71.0467 34.9328 70.4699 35.3691 69.8199 35.6665C69.17 35.964 68.4628 36.1153 67.7481 36.1099C65.6306 36.1099 64.0252 34.7025 63.6508 32.5462H73.3518C73.4373 32.5443 73.519 32.5107 73.5811 32.4518C73.6432 32.3929 73.6811 32.313 73.6875 32.2277C73.709 31.9092 73.709 31.7113 73.709 31.5348C73.709 27.3772 71.1267 24.4463 67.4339 24.4463M63.6293 30.3469C64.008 28.195 65.5101 26.7446 67.3737 26.7446C69.6892 26.7446 70.778 28.5436 71.0535 30.3469H63.6293Z" fill="white"/>
<path id="Vector_17" d="M80.6383 24.5322C78.9784 24.5341 77.3406 24.9123 75.848 25.6383C75.7701 25.675 75.7088 25.7395 75.6761 25.8192C75.6435 25.8989 75.6418 25.9879 75.6716 26.0687L76.2784 27.6009C76.2957 27.6459 76.3223 27.6868 76.3564 27.7209C76.3905 27.755 76.4314 27.7816 76.4764 27.7989C76.5205 27.8182 76.5681 27.8282 76.6163 27.8282C76.6644 27.8282 76.712 27.8182 76.7561 27.7989C77.9154 27.2324 79.1887 26.938 80.479 26.9381C82.0413 26.9381 83.8834 27.4718 83.9006 29.9896C82.7442 29.6897 81.5531 29.5449 80.3585 29.5592C76.7949 29.5592 74.5784 31.2807 74.5784 34.1127C74.5784 36.9447 77.1306 38.4166 79.6656 38.4166C81.2364 38.4532 82.7583 37.8686 83.9006 36.7897V37.8227C83.9039 37.9114 83.9409 37.9955 84.0041 38.0579C84.0672 38.1203 84.1519 38.1562 84.2406 38.1584H86.1214C86.2094 38.1552 86.293 38.1188 86.3553 38.0565C86.4175 37.9942 86.4539 37.9107 86.4571 37.8227V30.0154C86.4571 28.2938 85.9794 27.0027 85.0325 26.0343C84.0254 25.0444 82.4975 24.5322 80.6383 24.5322ZM83.8834 32.1932V33.14C83.8834 34.9003 82.2006 36.2302 79.9841 36.2302C78.5982 36.2302 77.1349 35.5373 77.1349 33.9922C77.1349 32.6236 78.4261 31.7757 80.5177 31.7757C81.6548 31.7509 82.7892 31.8959 83.8834 32.2061" fill="white"/>
<path id="Vector_18" d="M98.8307 34.2505C98.7673 34.1886 98.6826 34.1532 98.594 34.1515C98.5499 34.151 98.5061 34.1595 98.4654 34.1765C98.4247 34.1935 98.3879 34.2187 98.3573 34.2505C97.2297 35.4599 96.0418 36.0323 94.7162 36.0323C92.2802 36.0323 90.3779 34.0138 90.3779 31.3798C90.3779 28.7458 92.2415 26.7876 94.5957 26.7876C96.257 26.7876 97.3072 27.6483 98.2196 28.6081C98.284 28.6686 98.368 28.7038 98.4563 28.7071C98.5004 28.7077 98.5442 28.6992 98.5849 28.6821C98.6256 28.6651 98.6624 28.6399 98.693 28.6081L99.9498 27.2825C100.006 27.2164 100.037 27.1325 100.037 27.0458C100.037 26.9591 100.006 26.8752 99.9498 26.8091C99.2889 26.0436 98.4671 25.4336 97.5429 25.0229C96.6188 24.6122 95.6153 24.4109 94.6043 24.4333C92.7812 24.4786 91.0479 25.2346 89.7745 26.5401C88.501 27.8455 87.7882 29.597 87.7882 31.4207C87.7882 33.2444 88.501 34.9959 89.7745 36.3014C91.0479 37.6068 92.7812 38.3628 94.6043 38.4081C97.376 38.4081 98.9771 37.0222 100.049 35.8257C100.109 35.7618 100.143 35.6771 100.143 35.589C100.143 35.501 100.109 35.4163 100.049 35.3523L98.8307 34.2505Z" fill="white"/>
<path id="Vector_19" d="M107.068 24.4506C105.685 24.4481 104.332 24.8567 103.181 25.6245C102.03 26.3923 101.134 27.4848 100.605 28.7631C100.076 30.0415 99.939 31.4482 100.211 32.8046C100.483 34.161 101.152 35.406 102.133 36.3815C103.114 37.357 104.363 38.0191 105.721 38.2836C107.079 38.5482 108.485 38.4033 109.76 37.8674C111.035 37.3314 112.123 36.4286 112.884 35.2736C113.646 34.1185 114.047 32.7633 114.036 31.3799C114.038 30.4663 113.858 29.5616 113.508 28.7178C113.157 27.8741 112.644 27.108 111.996 26.4638C111.348 25.8197 110.579 25.3101 109.733 24.9646C108.888 24.619 107.982 24.4444 107.068 24.4506ZM111.402 31.5004C111.402 34.0827 109.543 36.0539 107.068 36.0539C104.594 36.0539 102.691 34.0354 102.691 31.4186C102.691 28.8018 104.555 26.8264 106.995 26.8264C109.436 26.8264 111.39 28.8621 111.39 31.5176" fill="white"/>
<path id="Vector_20" d="M121.977 24.4506C121.215 24.4298 120.457 24.581 119.761 24.8933C119.065 25.2055 118.449 25.6706 117.957 26.254V25.0661C117.955 24.9777 117.919 24.8936 117.857 24.8311C117.794 24.7686 117.71 24.7326 117.622 24.7304H115.741C115.652 24.7315 115.567 24.7672 115.505 24.8299C115.442 24.8927 115.406 24.9774 115.405 25.0661V37.797C115.407 37.8854 115.443 37.9695 115.506 38.032C115.568 38.0945 115.653 38.1305 115.741 38.1327H117.639C117.728 38.1306 117.812 38.0947 117.875 38.0323C117.939 37.9699 117.976 37.8858 117.979 37.797V30.5105C117.979 28.3586 119.403 26.8651 121.461 26.8651C123.518 26.8651 124.65 28.1563 124.65 30.3728V37.797C124.653 37.885 124.69 37.9686 124.752 38.0308C124.814 38.0931 124.898 38.1295 124.986 38.1327H126.888C126.976 38.1295 127.06 38.0931 127.122 38.0308C127.184 37.9686 127.22 37.885 127.224 37.797V29.8951C127.202 26.5897 125.145 24.4506 121.977 24.4506Z" fill="white"/>
</g>
</svg>
