<svg width="103" height="26" viewBox="0 0 103 26" fill="none" xmlns="http://www.w3.org/2000/svg">
<g id="upmc-logo-vector" clip-path="url(#clip0_174_325)">
<g id="b">
<path id="c" d="M53.6876 24.7872V23.7827C51.5424 23.4933 51.4913 22.8122 51.6105 20.8203L53.0406 6.91065L60.8552 24.8212H62.4556L70.6788 5.3954C70.798 10.0263 70.9171 14.1464 70.9171 20.1393C70.9171 22.8122 70.5256 23.7657 68.3123 23.8167V24.8212H78.0848V23.8167C76.4504 23.6124 75.8204 23.2549 75.6161 22.1312C75.5821 21.9269 75.0883 16.2575 75.0883 5.61673C75.0883 3.06294 75.4799 2.14357 77.557 2.05845V1.05396H70.2872L62.6599 18.7092L55.4241 1.05396H48.8013V2.05845C50.8273 2.10952 51.27 2.73946 51.27 4.76546L49.3632 21.8759C49.0907 23.4252 48.1544 23.6635 46.4008 23.8338V24.8383H53.7386V24.7872H53.6876Z" fill="white"/>
<path id="d" d="M18.4792 1.00292V2.00741C19.8072 2.05848 20.5563 2.33089 20.9649 3.09702C21.4416 4.05044 21.4416 6.80853 21.4416 12.2566C21.4416 16.4619 21.3565 19.3221 19.4837 21.297C18.0876 22.7782 16.0616 23.5273 13.7462 23.5273C9.47285 23.5273 7.56602 20.7693 7.56602 15.6446V5.46354C7.56602 2.99487 7.85545 2.17766 10.1709 1.99038V0.98589H0.432434V1.99038C2.79895 2.22873 2.91812 2.87569 2.91812 5.25923V15.3212C2.91812 21.9099 6.71476 25.3491 13.4227 25.3491C20.1307 25.3491 23.2463 22.3015 23.5187 15.5595C23.7911 8.80049 23.4336 4.81658 23.9614 3.4205C24.2848 2.53519 25.0339 2.21171 26.447 2.10956C27.0429 2.07551 27.8431 2.10956 27.8431 2.10956C30.0394 2.14361 30.6693 2.82462 30.6693 4.98683V15.7298V15.6106V20.599C30.6693 22.9144 30.2607 23.7146 28.0644 23.7998V24.8042H37.6497V23.7998C35.4875 23.7146 35.0959 22.9144 35.0959 20.7522V15.0317H36.5771C47.7457 15.0317 47.4051 7.40442 47.4051 7.40442C47.4051 3.43753 44.6471 0.934814 39.216 0.934814C39.216 0.934814 31.1971 0.98589 30.1926 0.98589C29.1881 0.968865 18.4792 1.00292 18.4792 1.00292ZM35.0959 4.47607C35.0959 2.84164 35.862 2.22873 37.854 2.22873C41.0547 2.22873 42.8424 3.91424 42.8424 6.79151C42.8424 10.469 40.3737 13.3803 35.7769 13.3803C35.5385 13.3803 35.3002 13.3462 35.0618 13.3462V4.47607H35.0959Z" fill="white"/>
<path id="e" d="M92.9649 23.0166C87.5338 23.0166 83.6691 19.2711 83.6691 11.9162C83.6691 5.51466 87.3806 2.60333 92.4882 2.60333C96.9488 2.60333 100.184 4.05048 101.069 7.40446H102.022V2.36498C98.9067 1.15619 95.8251 0.560303 92.5903 0.560303C84.0436 0.560303 78.6636 5.54871 78.6636 13.2782C78.6636 20.5139 83.652 25.3831 91.688 25.3831C95.8081 25.3831 99.3153 24.1914 102.584 21.7057L101.069 19.3392C98.6002 22.0973 96.0805 23.0166 92.9649 23.0166Z" fill="white"/>
</g>
</g>
<defs>
<clipPath id="clip0_174_325">
<rect width="102.152" height="24.8228" fill="white" transform="translate(0.432495 0.560303)"/>
</clipPath>
</defs>
</svg>
