<svg width="130" height="65" viewBox="0 0 130 65" fill="none" xmlns="http://www.w3.org/2000/svg">
<g id="rs-empire">
<g id="Page-1">
<g id="EBS_50AnthemTag_Logo_300_K_2c_08_15">
<g id="Group">
<path id="Fill-18" fill-rule="evenodd" clip-rule="evenodd" d="M45.9834 42.8238L46.3708 40.6288H46.9733C47.7911 40.6288 48.1354 40.9301 48.1354 41.5326C48.1354 42.4364 47.6189 42.9099 46.586 42.9099H45.9834V42.8238ZM46.4999 40.0263L46.8012 38.2186H47.3177C48.2215 38.2186 48.3936 38.692 48.3936 39.0364C48.3936 39.5098 48.1354 40.0693 47.0164 40.0693H46.4569L46.4999 40.0263ZM46.1986 37.7021C46.1986 37.8313 45.2087 43.2972 45.1657 43.5124H46.629C48.0063 43.5124 48.9101 42.7377 48.9101 41.5757C48.9531 41.0592 48.6088 40.5858 48.0924 40.4997L47.8341 40.4136L48.0924 40.3275C48.824 40.0693 49.1253 39.6389 49.1253 38.9933C49.1253 38.2186 48.4367 37.7452 47.3177 37.7452L46.1986 37.7021Z" fill="white"/>
<path id="Fill-19" fill-rule="evenodd" clip-rule="evenodd" d="M51.6646 43.5555H49.2974L50.1152 38.9934H50.7608L50.0721 42.953H51.7506L51.6646 43.5555Z" fill="white"/>
<path id="Fill-20" fill-rule="evenodd" clip-rule="evenodd" d="M55.7963 41.7479C55.5811 42.996 54.8495 43.6416 53.7735 43.6416C52.9127 43.6416 52.3532 43.0821 52.3532 42.1783C52.3532 42.0061 52.3532 41.7909 52.3962 41.6188L52.8697 38.9934H53.5153L53.0418 41.6618C52.9988 41.834 52.9988 41.9631 52.9988 42.1353C52.9988 42.7378 53.3001 43.0391 53.8596 43.0391C54.5482 43.0391 54.9786 42.5656 55.1507 41.6618L55.6242 38.9934H56.2698L55.7963 41.7479Z" fill="white"/>
<path id="Fill-21" fill-rule="evenodd" clip-rule="evenodd" d="M59.5838 39.5529H57.8622L57.647 40.8441H58.766L58.68 41.4036H57.561L57.2597 42.953H58.9812L58.8521 43.5555H56.528L57.3458 38.9934H59.6699L59.5838 39.5529Z" fill="white"/>
<path id="Fill-22" fill-rule="evenodd" clip-rule="evenodd" d="M61.6066 38.1755C60.6167 38.9072 60.0572 40.0262 60.1003 41.2313C60.1003 42.6516 60.9611 43.5985 62.2092 43.5985C62.7687 43.6415 63.3282 43.4693 63.8016 43.125C63.7586 42.9098 63.7155 42.6946 63.7155 42.4364C63.2852 42.7377 62.8117 42.9098 62.2953 42.9098C61.4345 42.9098 60.8319 42.2212 60.8319 41.2313C60.8319 39.5958 61.9079 38.2616 63.1991 38.2616C63.5864 38.3047 63.9738 38.4338 64.2751 38.649C64.3181 38.5629 64.5333 38.0895 64.5763 37.9603C64.189 37.7021 63.7156 37.573 63.2421 37.573C62.6826 37.616 62.0801 37.8312 61.6066 38.1755Z" fill="white"/>
<path id="Fill-23" fill-rule="evenodd" clip-rule="evenodd" d="M67.4169 40.1124C67.4169 39.682 67.1156 39.5099 66.427 39.5099H66.0396L65.7814 40.9302H66.1688C67.0295 40.9732 67.4169 40.6719 67.4169 40.1124ZM68.1055 40.1124C68.1055 40.6719 67.8042 41.0162 67.2017 41.2314C67.546 41.3606 67.7182 41.6188 67.7182 42.0492C67.7182 42.2213 67.7182 42.3505 67.6751 42.5226L67.503 43.5555H66.8574C66.9435 43.0821 67.0295 42.5656 67.0726 42.0922C67.0726 41.7049 66.8143 41.5327 66.2548 41.5327H65.7384L65.3941 43.5555H64.7485L65.5662 38.9934H66.5131C67.546 38.9934 68.1055 39.3808 68.1055 40.1124Z" fill="white"/>
<path id="Fill-24" fill-rule="evenodd" clip-rule="evenodd" d="M71.0321 39.5527C70.5586 39.5527 70.1283 39.811 69.87 40.1553C69.4827 40.5857 69.3105 41.1021 69.3105 41.6617C69.3105 42.5224 69.784 43.0389 70.4295 43.0389C70.903 42.9959 71.3334 42.7807 71.5916 42.4364C71.9789 42.006 72.1941 41.4465 72.1941 40.8869C72.1511 40.1122 71.6346 39.5527 71.0321 39.5527ZM72.3232 42.4794C71.8498 43.2111 71.0321 43.6414 70.3004 43.6414C69.3105 43.6414 68.5789 42.7807 68.5789 41.6617C68.5789 41.1021 68.751 40.5426 69.0523 40.1122C69.4827 39.3806 70.2574 38.9502 71.1182 38.9502C71.5055 38.9502 71.8498 39.0793 72.1511 39.3375C72.6245 39.7249 72.8397 40.3274 72.8397 40.93C72.7967 41.4465 72.6245 42.006 72.3232 42.4794Z" fill="white"/>
<path id="Fill-25" fill-rule="evenodd" clip-rule="evenodd" d="M75.6803 39.9404C75.4651 39.6822 75.1638 39.5531 74.8625 39.5531C74.5182 39.51 74.1739 39.8113 74.1739 40.1556V40.1986C74.1739 40.4999 74.3461 40.586 74.6043 40.7581L74.9486 40.9303C75.4651 41.2316 75.7233 41.6189 75.7233 42.1354C75.7233 43.0392 75.0777 43.6418 74.1309 43.6418C73.5283 43.6418 73.141 43.3835 72.8828 42.9101L73.4423 42.4797C73.5714 42.824 73.9157 43.0392 74.26 42.9962C74.7334 42.9962 75.0347 42.6949 75.0347 42.1784C75.0347 41.9202 74.8625 41.662 74.6474 41.5759L74.303 41.4037C73.7435 41.1025 73.5283 40.8012 73.5283 40.2417C73.5283 39.467 74.1309 38.9075 74.9917 38.9075C75.379 38.9075 75.7233 39.0366 76.0246 39.2948L75.6803 39.9404Z" fill="white"/>
<path id="Fill-26" fill-rule="evenodd" clip-rule="evenodd" d="M78.9083 39.9404C78.6931 39.6822 78.3918 39.5531 78.0905 39.5531C77.7462 39.51 77.4019 39.8113 77.4019 40.1556V40.1986C77.4019 40.4999 77.574 40.586 77.8323 40.7581L78.1766 40.9303C78.6931 41.2316 78.9513 41.6189 78.9513 42.1354C78.9513 43.0392 78.3057 43.6418 77.3589 43.6418C76.7993 43.6418 76.369 43.3835 76.1107 42.9101L76.6702 42.4797C76.7993 42.824 77.1437 43.0392 77.488 42.9962C77.9614 42.9962 78.2627 42.6949 78.2627 42.1784C78.2627 41.9202 78.0905 41.662 77.8753 41.5759L77.531 41.4037C76.9715 41.1025 76.7563 40.8012 76.7563 40.2417C76.7563 39.467 77.3589 38.9075 78.2196 38.9075C78.607 38.9075 78.9513 39.0366 79.2526 39.2948L78.9083 39.9404Z" fill="white"/>
<path id="Fill-27" fill-rule="evenodd" clip-rule="evenodd" d="M83.6856 42.8238L84.073 40.6288H84.6755C85.4502 40.6288 85.8376 40.9301 85.8376 41.5326C85.8376 42.4364 85.3211 42.9099 84.2881 42.9099H83.6856V42.8238ZM84.159 40.0263L84.4603 38.2186H84.9768C85.8806 38.2186 86.0527 38.692 86.0527 39.0364C86.0527 39.5098 85.7945 40.0693 84.6755 40.0693H84.116L84.159 40.0263ZM83.9008 37.7021C83.8578 37.8313 82.9109 43.2972 82.8679 43.5124H84.3312C85.7084 43.5124 86.6123 42.7377 86.6123 41.5757C86.6553 41.0592 86.311 40.5858 85.7945 40.4997L85.5363 40.4136L85.7515 40.3275C86.4831 40.0693 86.7844 39.6389 86.7844 38.9933C86.7844 38.2186 86.0958 37.7452 84.9768 37.7452L83.9008 37.7021Z" fill="white"/>
<path id="Fill-28" fill-rule="evenodd" clip-rule="evenodd" d="M89.4959 43.5555H87.1718L87.9895 38.9934H88.6351L87.9465 42.953H89.625L89.4959 43.5555Z" fill="white"/>
<path id="Fill-29" fill-rule="evenodd" clip-rule="evenodd" d="M93.6707 41.7479C93.4555 42.996 92.7238 43.6416 91.6478 43.6416C90.787 43.6416 90.2275 43.0821 90.2275 42.1783C90.2275 42.0061 90.2275 41.7909 90.2706 41.6188L90.744 38.9934H91.3896L90.9162 41.6618C90.8731 41.834 90.8731 41.9631 90.8731 42.1353C90.8731 42.7378 91.1744 43.0391 91.7339 43.0391C92.4225 43.0391 92.8529 42.5656 93.0251 41.6618L93.4985 38.9934H94.1441L93.6707 41.7479Z" fill="white"/>
<path id="Fill-30" fill-rule="evenodd" clip-rule="evenodd" d="M97.415 39.5529H95.7365L95.5213 40.8441H96.6403L96.5112 41.4036H95.3922L95.1339 42.953H96.8125L96.7264 43.5555H94.3593L95.177 38.9934H97.5441L97.415 39.5529Z" fill="white"/>
<path id="Fill-31" fill-rule="evenodd" clip-rule="evenodd" d="M98.7491 39.2517C98.7491 39.8973 99.0504 40.3277 99.739 40.715L100.169 40.9732C100.514 41.1454 100.729 41.4897 100.729 41.8771C100.729 42.6087 100.299 43.0391 99.6099 43.0391C99.1365 43.0391 98.7491 42.7809 98.5339 42.3505L97.9314 42.7809C98.2327 43.3404 98.7061 43.6417 99.4378 43.6417C100.6 43.6417 101.418 42.867 101.418 41.748C101.418 41.1454 101.073 40.6289 100.428 40.2416L99.9973 39.9834C99.653 39.7682 99.3947 39.639 99.3947 39.2087C99.3947 38.6491 99.8251 38.2618 100.385 38.2618C100.772 38.2618 101.159 38.434 101.461 38.7352C101.547 38.6061 101.805 38.0036 101.805 38.0036C101.461 37.7453 100.987 37.5732 100.557 37.6162C99.5238 37.5732 98.7491 38.3048 98.7491 39.2517Z" fill="white"/>
<path id="Fill-32" fill-rule="evenodd" clip-rule="evenodd" d="M105.42 43.5555H104.775L105.162 41.4036H103.311L102.924 43.5555H102.279L103.053 38.9934H103.742L103.398 40.8441H105.248L105.593 38.9934H106.238L105.42 43.5555Z" fill="white"/>
<path id="Fill-33" fill-rule="evenodd" clip-rule="evenodd" d="M107.4 43.5555H106.711L107.529 38.9934H108.218L107.4 43.5555Z" fill="white"/>
<path id="Fill-34" fill-rule="evenodd" clip-rule="evenodd" d="M111.704 39.5529H109.982L109.767 40.8441H110.886L110.8 41.4036H109.638L109.38 42.953H111.058L110.972 43.5555H108.648L109.423 38.9934H111.79L111.704 39.5529Z" fill="white"/>
<path id="Fill-35" fill-rule="evenodd" clip-rule="evenodd" d="M114.2 43.5555H111.876L112.651 38.9934H113.339L112.608 42.953H114.286L114.2 43.5555Z" fill="white"/>
<g id="Group-39">
<g id="Group_2">
<path id="Fill-36" fill-rule="evenodd" clip-rule="evenodd" d="M117.859 40.8871C117.859 40.0694 117.342 39.5529 116.524 39.5529H116.18L115.578 42.953H115.965C117.127 42.953 117.859 42.1783 117.859 40.8871ZM118.547 40.9732C118.547 42.5226 117.514 43.5555 115.922 43.5555H114.846L115.664 38.9934H116.567C117.773 38.9934 118.547 39.7681 118.547 40.9732Z" fill="white"/>
</g>
<g id="Group_3">
<path id="Fill-38" fill-rule="evenodd" clip-rule="evenodd" d="M7.85096 16.1827C8.15223 14.3751 7.85096 13.7725 5.13951 13.3852L5.22558 12.8257H20.2462L19.7297 16.6992H18.7398C18.6968 15.0207 18.912 14.0308 16.2866 14.0308H12.9296C11.1219 14.0308 10.9067 14.4181 10.6055 16.1397L9.48644 22.4234H13.5321C16.1575 22.4234 16.5879 21.2613 17.1043 19.755H17.836L16.674 26.3399H15.9423C15.9423 24.4892 15.9853 23.6285 13.3169 23.6285H9.27125L7.93704 31.1173C7.59273 32.9679 7.894 32.9679 10.2181 32.9679H13.6612C15.8132 32.9679 16.1144 32.2793 16.9752 29.8691H17.9651L16.9752 34.2161H4.66608L7.85096 16.1827Z" fill="white"/>
</g>
</g>
<path id="Fill-40" fill-rule="evenodd" clip-rule="evenodd" d="M21.3651 22.5095C21.7095 20.6158 20.2461 20.4867 19.2993 20.4006L19.3854 19.8411L24.3779 19.0664L23.6893 22.8969H23.7323C24.2918 21.7779 26.4007 19.0664 28.983 19.0664C31.9527 19.0664 32.5122 20.6158 32.0819 22.8969H32.1249C32.8135 21.8209 34.5781 19.0664 37.4187 19.0664C41.2061 19.0664 40.7757 21.6057 40.3023 24.145L38.5377 34.2592H36.0845L37.763 24.6615C38.1934 22.2943 38.4516 20.6588 36.2997 20.6588C34.6642 20.6588 31.9527 23.5855 31.4363 26.5552L30.1021 34.2592H27.6488L29.4565 23.9729C29.7577 22.2513 30.059 20.6588 27.9501 20.6588C25.9273 20.6588 23.431 24.0589 23.0006 26.6843L21.6664 34.2592H19.2132L21.3651 22.5095Z" fill="white"/>
<path id="Fill-41" fill-rule="evenodd" clip-rule="evenodd" d="M40.2162 41.1022H42.6695L44.2619 32.1501H44.305C44.5201 33.1831 45.6392 34.6894 47.8772 34.6894C52.0089 34.6894 54.1609 31.0311 54.8925 26.8563C55.6672 22.4233 54.4191 19.1523 50.4165 19.1523C48.3076 19.1523 46.7151 20.6587 46.1556 21.5625H46.1126L46.543 19.1523L41.4644 19.884L41.3783 20.4005C42.2821 20.4866 43.8746 20.5296 43.5302 22.5524L40.2162 41.1022ZM45.424 25.436C45.8544 23.0689 47.619 20.3574 49.8139 20.3574C52.7406 20.3574 52.5684 24.6613 52.1811 26.8994C51.7507 29.4387 50.5456 33.3982 47.619 33.3982C44.8214 33.3982 44.6493 29.8691 45.0366 27.7171L45.424 25.436Z" fill="white"/>
<path id="Fill-42" fill-rule="evenodd" clip-rule="evenodd" d="M58.3356 14.2888C58.5508 13.2559 59.4116 12.5242 60.4876 12.4812C61.4344 12.4812 62.1231 13.2989 61.9509 14.2888C61.7787 15.3218 60.8749 16.0534 59.842 16.0534C58.8091 16.0534 58.1635 15.2787 58.3356 14.2888ZM57.604 22.5093C57.9483 20.6156 56.485 20.4865 55.5811 20.4004L55.6672 19.8409L60.6597 19.0662L57.9483 34.302H55.4951L57.604 22.5093Z" fill="white"/>
<path id="Fill-43" fill-rule="evenodd" clip-rule="evenodd" d="M63.5003 22.6383C63.8446 20.6155 62.3812 20.5294 61.4774 20.4433L61.5635 19.8838L66.556 19.1091L65.8674 22.8966H65.9104C66.556 21.5624 67.8042 19.1091 70.8169 19.1091C70.903 19.1091 70.989 19.1091 71.1182 19.1522L70.6447 21.8206C70.3004 21.7345 69.9991 21.6054 69.6548 21.6054C66.556 21.6054 65.5661 24.7472 65.2218 26.684L63.8876 34.3449H61.4344L63.5003 22.6383Z" fill="white"/>
<path id="Fill-44" fill-rule="evenodd" clip-rule="evenodd" d="M80.1133 33.0107C79.3817 33.1829 78.5639 33.3981 77.7892 33.3981C73.3562 33.3981 71.9359 28.879 72.4954 25.8232L72.6246 25.1346H81.921L82.007 24.6612C82.6526 20.8737 80.6298 19.1091 77.6601 19.1091C73.0119 19.1091 70.7739 21.8206 69.9992 26.4258C69.0523 31.7626 71.2903 34.6462 75.9816 34.6462C77.9614 34.6462 79.6399 34.2158 80.0273 34.0867L80.1133 33.0107ZM79.2956 24.0586H72.7967C73.098 22.9826 74.0448 20.3573 76.9285 20.3573C78.8222 20.3573 79.6399 21.9927 79.2956 23.7573V24.0586Z" fill="white"/>
<path id="Fill-45" fill-rule="evenodd" clip-rule="evenodd" d="M101.461 19.0664V13.5574H92.0352V19.0664H86.0958V28.4919H91.9922V34.2161H101.461V28.4919H107.142V19.0664H101.461Z" fill="white"/>
<path id="Fill-46" fill-rule="evenodd" clip-rule="evenodd" d="M121.904 33.5274C121.904 33.097 122.248 32.7527 122.679 32.7527C123.109 32.7527 123.454 33.097 123.454 33.5274C123.454 33.9578 123.109 34.3021 122.679 34.3021C122.248 34.3452 121.904 33.9578 121.904 33.5274ZM121.775 33.5274C121.775 34.0439 122.205 34.4743 122.722 34.4743C123.238 34.4743 123.669 34.0439 123.669 33.5274C123.669 33.011 123.238 32.5806 122.722 32.5806C122.162 32.5806 121.775 33.011 121.775 33.5274Z" fill="white"/>
<path id="Fill-47" fill-rule="evenodd" clip-rule="evenodd" d="M122.464 33.4843H122.765C122.851 33.4843 122.937 33.4413 122.937 33.3122C122.937 33.1831 122.851 33.14 122.765 33.14H122.464V33.4843ZM122.464 34.0008H122.335V33.054H122.765C122.937 33.054 123.066 33.097 123.066 33.3122C123.066 33.3983 123.023 33.4843 122.937 33.5274C122.98 33.5704 123.023 33.5704 123.066 33.6995V33.8717C123.066 33.9147 123.066 33.9578 123.109 33.9578H122.937C122.937 33.8717 122.894 33.7856 122.937 33.7426C122.937 33.6565 122.937 33.5704 122.765 33.5704H122.464V34.0008Z" fill="white"/>
<path id="Fill-48" fill-rule="evenodd" clip-rule="evenodd" d="M102.365 33.4412C102.365 33.0109 102.709 32.6665 103.139 32.6665C103.57 32.6665 103.914 33.0109 103.914 33.4412C103.914 33.8716 103.57 34.2159 103.139 34.2159C102.709 34.259 102.365 33.8716 102.365 33.4412ZM102.235 33.4412C102.235 33.9577 102.666 34.3881 103.182 34.3881C103.699 34.3881 104.129 33.9577 104.129 33.4412C104.129 32.9248 103.699 32.4944 103.182 32.4944C102.623 32.4944 102.235 32.9248 102.235 33.4412Z" fill="white"/>
<path id="Fill-49" fill-rule="evenodd" clip-rule="evenodd" d="M102.924 33.3985H103.225C103.311 33.3985 103.397 33.3554 103.397 33.2263C103.397 33.0972 103.311 33.0542 103.225 33.0542H102.924V33.3985ZM102.924 33.8719H102.795V32.925H103.225C103.397 32.925 103.527 32.9681 103.527 33.1833C103.527 33.2694 103.484 33.3554 103.397 33.3985C103.441 33.4415 103.484 33.4415 103.527 33.5706V33.7428C103.527 33.7858 103.527 33.8289 103.57 33.8289H103.441C103.441 33.7428 103.397 33.6567 103.397 33.6137C103.397 33.5276 103.397 33.4415 103.225 33.4415H102.924V33.8719Z" fill="white"/>
<path id="Fill-50" fill-rule="evenodd" clip-rule="evenodd" d="M100.256 27.0717L98.3188 23.4133C98.1467 23.069 98.3188 23.026 98.534 23.026C98.7062 23.026 101.332 22.8108 101.332 22.8108C101.676 24.6184 101.116 25.9957 100.256 27.0717ZM101.934 21.95C100.514 21.9931 99.2657 22.2083 98.491 22.2513C97.6732 22.2943 97.0707 22.7247 97.6302 23.7577C98.1897 24.7906 99.9974 28.2337 100.083 28.3628C102.02 26.8134 102.752 24.2741 101.934 21.95ZM96.5973 28.7071C95.9087 28.7071 95.22 28.578 94.5744 28.2767C94.5744 28.2767 96.4251 25.3501 96.5973 25.3501C96.7694 25.3501 98.6201 28.2767 98.6201 28.2767C97.9745 28.578 97.2859 28.7502 96.5973 28.7071ZM96.5973 24.2741C96.339 24.2741 96.253 24.4032 96.0808 24.6615C95.9517 24.8767 93.9289 27.8464 93.4554 28.535C95.3491 29.8262 97.8454 29.8692 99.7822 28.578C99.7822 28.578 97.2429 24.9197 97.1137 24.6615C96.9416 24.4032 96.8125 24.2741 96.5973 24.2741ZM94.8327 23.4133C94.6605 23.7577 92.8959 27.0717 92.8959 27.0717C92.0351 25.9957 91.4756 24.6615 91.8199 22.8108C91.8199 22.8108 94.4453 23.026 94.6175 23.026C94.8327 23.026 95.0048 23.026 94.8327 23.4133ZM94.6605 22.2083C93.9289 22.1652 92.6807 21.95 91.3035 21.95C91.0883 22.5526 90.9592 23.2412 90.9592 23.8868C90.9592 25.6083 91.7339 27.2008 93.0681 28.2767C93.4124 27.5881 95.0048 24.6615 95.4783 23.7146C96.0808 22.7247 95.4783 22.2943 94.6605 22.2083ZM95.1339 19.2386C94.8327 20.2285 95.4352 20.3145 95.4352 20.7449H92.8529C93.4124 20.0133 94.2301 19.4538 95.1339 19.2386ZM98.0176 19.2386C98.8783 19.4107 99.653 20.0993 100.299 20.788H97.7163C97.7163 20.3145 98.2758 20.2285 98.0176 19.2386ZM96.1669 21.2184C96.3821 21.0032 96.4251 20.6588 96.0808 20.2715C95.5213 19.5829 95.9947 18.9373 96.5973 18.9803C97.1568 19.0234 97.6302 19.5829 97.1137 20.2715C96.8125 20.6588 96.8125 21.0032 97.0277 21.2184C97.2429 21.4336 97.5872 21.5196 97.8884 21.5196H101.762C101.461 20.874 101.03 20.2715 100.514 19.7981C98.3188 17.6892 94.7896 17.7322 92.6377 19.8841C92.1643 20.3576 91.7769 20.9171 91.5187 21.5196H95.3061C95.6074 21.5196 95.9087 21.4336 96.1669 21.2184Z" fill="white"/>
<path id="Fill-51" fill-rule="evenodd" clip-rule="evenodd" d="M125.476 13.8586C123.54 14.8916 121.56 15.4511 118.633 15.4511C115.707 15.4511 113.77 14.8916 111.79 13.8586C110.972 15.2789 110.542 17.2587 110.542 19.798C110.542 26.4691 114.286 30.9021 115.19 31.892C116.094 32.8819 117.945 34.3882 118.633 34.5174C119.322 34.3452 121.172 32.8388 122.076 31.892C122.98 30.9021 126.725 26.4691 126.725 19.798C126.725 17.3018 126.294 15.2789 125.476 13.8586Z" fill="white"/>
<path id="Fill-52" fill-rule="evenodd" clip-rule="evenodd" d="M120.527 19.9269C119.752 20.7016 119.365 21.0889 119.15 21.3041C119.15 21.3041 119.021 21.5193 118.935 21.5623L117.816 21.3902C117.773 21.132 117.773 20.8737 117.773 20.6155C117.945 20.6155 118.074 20.5724 118.203 20.4433L118.16 20.3142C118.418 20.4003 118.633 20.4433 118.892 20.4433L118.762 20.2712C118.59 20.2281 118.418 20.1851 118.246 20.099C118.375 20.099 118.504 20.056 118.59 19.9699C118.547 19.8408 118.504 19.7547 118.461 19.6686C118.332 19.4534 118.117 19.2813 117.902 19.1522C117.859 19.0661 117.859 18.98 117.859 18.8939C117.859 18.5066 118.074 18.5927 118.461 18.7218C118.504 18.7648 118.547 18.7648 118.633 18.8078C118.892 18.937 119.15 19.0661 119.15 19.1522C119.15 19.1522 119.15 20.099 119.236 20.056C119.408 19.9699 119.925 19.5395 120.054 19.4104C120.355 19.2382 120.828 19.6686 120.527 19.9269ZM119.15 24.489C119.064 24.1016 119.064 23.7573 119.107 23.37C119.58 23.3269 119.236 22.8105 119.107 22.8105C118.935 22.7674 118.762 22.7674 118.461 22.7244C118.246 22.7244 117.902 22.6814 117.73 22.6383C114.674 22.251 115.104 19.4534 116.611 19.1952C117.686 19.023 118.289 19.4104 118.461 19.8838C118.289 19.9699 118.074 20.0129 117.902 20.0129C117.643 19.9699 117.385 19.9699 117.127 20.0129C117.299 20.1851 117.859 20.2712 118.074 20.4433C117.816 20.5294 117.514 20.5724 117.256 20.5294C117.041 20.4864 116.783 20.4433 116.567 20.3572C116.481 20.6585 116.309 21.218 117.686 21.5193C117.902 21.5623 118.117 21.6054 118.375 21.6484C118.633 21.6915 118.849 21.6915 119.107 21.7775C119.193 21.8206 119.279 21.8206 119.365 21.8636C121.173 22.294 120.57 24.532 119.15 24.489ZM117.514 23.413L117.859 22.8105L118.892 22.8965V24.6611L117.988 24.5751L117.73 24.0156L117.514 23.413ZM119.064 27.1144C119.064 26.9422 119.064 26.727 119.107 26.5549C119.107 26.4688 119.107 26.3827 119.15 26.2966C119.236 26.1675 119.451 26.1245 119.322 25.9093C119.236 25.7802 118.935 25.8232 118.633 25.7802C118.375 25.7802 118.117 25.7371 117.816 25.6941C116.654 25.4789 116.74 24.0156 117.514 23.7143L117.73 24.2738L117.945 24.7472C118.246 24.7472 118.375 24.7472 118.762 24.7903C118.849 24.7903 118.935 24.8333 119.15 24.8763C120.656 25.2207 120.312 26.9853 119.064 27.1144ZM118.16 26.4257C118.16 26.3397 118.16 26.0384 118.16 25.9523C118.289 25.9523 118.375 25.9954 118.504 25.9954C118.806 26.0384 118.806 25.9954 118.935 26.0384C118.935 26.0814 118.935 26.2536 118.935 26.2966C118.935 26.4257 118.935 26.5549 118.935 26.684C118.935 26.8992 118.935 26.8992 118.935 27.1144C118.935 27.2435 118.935 27.4587 118.935 27.5448C118.806 27.5017 118.676 27.4587 118.547 27.4156C118.418 27.3726 118.289 27.2865 118.16 27.2004C118.16 27.1574 118.16 27.0283 118.16 26.9853V26.727V26.4257ZM118.978 29.5246V28.8359C118.978 28.7068 118.935 28.5777 118.806 28.4916C118.719 28.4055 118.633 28.3195 118.504 28.2764C118.375 28.2334 118.289 28.1903 118.16 28.1473C116.697 27.803 117.084 26.4257 117.945 26.4257C117.945 26.5549 117.988 26.684 117.988 26.7701C117.988 26.8992 118.031 26.9853 118.031 27.1574C117.816 27.2865 117.988 27.2865 118.074 27.3296C118.16 27.3726 118.461 27.5017 118.59 27.5878C118.719 27.6308 118.978 27.7169 119.064 27.76C119.881 28.1043 119.838 29.0942 118.978 29.5246ZM118.806 30.8588C118.633 30.9448 118.461 30.9018 118.332 30.8588C118.332 30.7727 118.332 30.2993 118.332 29.9549C118.332 29.5676 118.289 28.922 118.289 28.4055C118.375 28.4486 118.418 28.4486 118.504 28.4486C118.633 28.4916 118.762 28.5777 118.849 28.6638C118.978 28.7929 118.935 29.3524 118.935 29.6106C118.849 30.2562 118.806 30.8157 118.806 30.8588ZM117.945 30.4714C117.945 30.5144 117.902 30.5144 117.859 30.5144C117.73 30.4714 117.73 30.2132 117.73 30.1271C117.73 29.8258 117.945 29.3954 118.203 29.3094V29.8689C117.988 30.041 117.988 30.3423 117.945 30.4714Z" fill="white"/>
<path id="Fill-53" fill-rule="evenodd" clip-rule="evenodd" d="M121.431 29.5677C120.914 30.2133 118.978 32.0209 118.633 32.107C118.289 32.0209 116.352 30.2133 115.836 29.5677C115.448 29.0942 112.737 26.1676 112.565 20.2282C112.522 19.0662 112.608 17.5168 112.995 16.9142C114.071 17.4737 116.395 17.818 118.633 17.818C120.871 17.818 123.152 17.4737 124.271 16.9142C124.659 17.5168 124.745 19.0662 124.702 20.2282C124.53 26.1676 121.818 29.0942 121.431 29.5677ZM124.659 15.9243C123.454 16.5699 121.13 17.1724 118.676 17.1724C116.223 17.1724 113.899 16.5699 112.694 15.9243C112.263 16.6129 112.048 18.4636 112.048 19.7548C112.048 25.7802 115.147 29.6107 115.577 30.1272C116.137 30.8158 118.289 32.7526 118.676 32.8386C119.064 32.7526 121.216 30.8158 121.775 30.1272C122.205 29.6107 125.304 25.7372 125.304 19.7548C125.304 18.4636 125.089 16.6129 124.659 15.9243Z" fill="white"/>
<path id="Fill-54" fill-rule="evenodd" clip-rule="evenodd" d="M117.815 19.4968C117.815 19.4968 117.772 19.6259 117.686 19.6259C117.6 19.6259 117.514 19.6259 117.471 19.5398C117.385 19.4968 117.299 19.4537 117.213 19.4107C117.385 19.3676 117.643 19.4107 117.815 19.4968Z" fill="white"/>
<path id="Fill-55" fill-rule="evenodd" clip-rule="evenodd" d="M4.8382 50.5708V52.7227H125.95L126.682 50.5708H4.8382Z" fill="white"/>
</g>
</g>
</g>
</g>
</svg>
