<svg width="130" height="65" viewBox="0 0 130 65" fill="none" xmlns="http://www.w3.org/2000/svg">
<g id="rs-bcbs">
<path id="Vector" d="M14.4873 40.2243C18.3047 40.2243 21.3993 37.1296 21.3993 33.3122C21.3993 29.4948 18.3047 26.4001 14.4873 26.4001C10.6698 26.4001 7.5752 29.4948 7.5752 33.3122C7.5752 37.1296 10.6698 40.2243 14.4873 40.2243Z" fill="white"/>
<path id="Vector_2" d="M39.3551 24.4808C36.3898 24.4808 31.8577 23.0863 31.8577 23.0863C31.197 25.0262 30.864 27.0625 30.8722 29.1118C30.8722 32.5979 33.7773 41.7781 39.6435 44.1022C39.6435 44.1022 48.0103 38.8171 48.0103 29.5766C48.0103 24.059 47.1968 23.0691 47.1968 23.0691C47.1968 23.0691 42.3162 24.4808 39.3551 24.4808Z" fill="white"/>
<path id="Vector_3" d="M56.6095 31.6294V21.6358H60.3883C62.1873 21.5195 63.9907 22.2727 63.9907 24.2482C63.9907 25.3543 63.2332 26.1075 62.2476 26.4561C63.5388 26.7488 64.4555 27.6182 64.4555 29.0729C64.4555 31.0484 61.9549 31.8016 60.4443 31.6854H56.6095V31.6294ZM60.4443 25.6427C61.3739 25.6427 61.8387 25.2941 61.8387 24.4806C61.8387 23.6672 61.318 23.3186 60.4443 23.3186H58.7614V25.7029H60.4443V25.6427ZM60.4443 29.9466C61.4342 29.9466 62.1314 29.7744 62.1314 28.6124C62.1314 27.4503 61.4342 27.2739 60.4443 27.2739H58.7614V29.9466H60.4443ZM67.8814 21.6401V31.6294H65.7725V21.6358L67.8814 21.6401ZM74.2167 30.76C73.978 31.1044 73.6546 31.3816 73.2777 31.5648C72.9008 31.7479 72.4831 31.831 72.0648 31.8059C71.3676 31.8059 70.0334 31.2851 69.8009 30.2952C69.7131 29.9348 69.674 29.5642 69.6847 29.1934V24.6571H71.7979V28.8362C71.7979 29.5894 72.0304 30.463 73.016 30.463C73.6572 30.463 74.2383 29.882 74.2383 28.8362V24.6571H76.33V30.3511C76.33 30.7557 76.3859 31.1646 76.3859 31.5691H74.2942L74.2167 30.76ZM79.9754 28.7243C79.9754 29.6539 80.0916 30.4674 81.1977 30.4674C81.4906 30.5046 81.7867 30.4294 82.0264 30.2569C82.266 30.0843 82.4313 29.8273 82.4888 29.5377H84.3481C84.1717 31.2808 82.8374 31.8016 81.2106 31.8016C78.8262 31.8016 77.8406 30.4674 77.8406 28.1432C77.8406 26.0516 79.0586 24.4247 81.2106 24.4247C82.5017 24.4247 83.5906 24.8895 84.1717 26.1075C84.3431 26.4971 84.4604 26.9084 84.5203 27.3298C84.5717 27.7726 84.5919 28.2184 84.5805 28.664H79.9754V28.7243ZM82.4157 27.3298C82.4157 26.5723 82.1833 25.8751 81.1977 25.8751C80.2121 25.8751 80.0356 26.5723 79.9754 27.3298H82.4157ZM91.5959 24.8292C91.6137 24.5731 91.5764 24.3162 91.4865 24.0757C91.3966 23.8352 91.2561 23.6169 91.0746 23.4353C90.893 23.2538 90.6747 23.1133 90.4342 23.0234C90.1937 22.9334 89.9368 22.8961 89.6806 22.914C88.17 22.914 87.7611 25.1779 87.7611 26.5723C87.7611 27.9668 88.1915 30.2349 89.6806 30.2349C89.937 30.2522 90.194 30.2143 90.4345 30.1238C90.6749 30.0334 90.8932 29.8925 91.0747 29.7106C91.2562 29.5288 91.3966 29.3101 91.4865 29.0695C91.5764 28.8288 91.6137 28.5717 91.5959 28.3154H93.864C93.7478 30.816 91.9445 31.7585 89.6806 31.7585C86.7755 31.7585 85.4973 29.4904 85.4973 26.5293C85.4973 23.5682 86.7884 21.3 89.6806 21.3C92.0048 21.3 93.8038 22.2297 93.864 24.7432H91.5959V24.8292ZM96.8854 24.6571L96.9413 25.9483C97.4061 24.8422 98.2798 24.5538 99.3257 24.6097V26.469H98.396C98.2022 26.4766 98.0125 26.5277 97.8412 26.6186C97.6698 26.7095 97.5211 26.8378 97.4061 26.9941C97.1952 27.3641 97.0951 27.7869 97.1178 28.2121V31.6552H95.039V26.0602C95.039 25.7675 94.9787 25.1994 94.9787 24.6657L96.8854 24.6571ZM103.849 31.8489C101.581 31.8489 100.186 30.3382 100.186 28.1303C100.186 25.9224 101.525 24.4118 103.849 24.4118C106.173 24.4118 107.507 25.9224 107.507 28.1303C107.507 30.3382 106.113 31.8489 103.849 31.8489ZM103.849 30.4544C105.14 30.4544 105.36 29.2321 105.36 28.1303C105.36 27.0285 105.127 25.8062 103.849 25.8062C102.571 25.8062 102.356 27.0371 102.356 28.1432C102.356 29.2493 102.571 30.4674 103.849 30.4674V30.4544ZM112.504 26.5035C112.504 26.0386 112.039 25.8062 111.575 25.8062C110.994 25.8062 110.761 25.9784 110.761 26.4432C110.761 27.5493 114.772 26.908 114.772 29.5248C114.772 31.0355 112.913 31.7886 111.635 31.7886C110.008 31.7886 108.622 31.1517 108.553 29.5807H110.473C110.52 29.8453 110.667 30.0817 110.883 30.2417C111.099 30.4017 111.368 30.4732 111.635 30.4415C112.216 30.4415 112.62 30.2091 112.62 29.684C112.62 29.159 111.635 28.8706 111.226 28.8233C109.892 28.5306 108.669 28.182 108.669 26.6154C108.669 25.1606 110.413 24.5237 111.635 24.5237C113.085 24.5237 114.364 25.0444 114.424 26.6154H112.504V26.5035ZM119.421 26.5035C119.421 26.0386 118.956 25.8062 118.491 25.8062C117.91 25.8062 117.678 25.9784 117.678 26.4432C117.678 27.5493 121.684 26.908 121.684 29.5248C121.684 31.0355 119.825 31.7886 118.547 31.7886C116.92 31.7886 115.534 31.1517 115.47 29.5807H117.385C117.433 29.8448 117.58 30.0806 117.796 30.2404C118.012 30.4003 118.28 30.4721 118.547 30.4415C119.128 30.4415 119.537 30.2091 119.537 29.684C119.537 29.159 118.547 28.8706 118.142 28.8233C116.804 28.5306 115.586 28.182 115.586 26.6154C115.586 25.1606 117.329 24.5237 118.547 24.5237C120.002 24.5237 121.28 25.0444 121.336 26.6154H119.421V26.4992V26.5035ZM56.6095 45.2254V35.2318H60.3883C62.1873 35.1156 63.9907 35.8687 63.9907 37.8442C63.9907 38.9503 63.2332 39.7035 62.2476 40.0521C63.5388 40.3448 64.4555 41.2142 64.4555 42.6689C64.4555 44.6444 61.9549 45.3976 60.4443 45.2814H56.6095V45.2254ZM60.4443 39.2387C61.3739 39.2387 61.8387 38.8901 61.8387 38.0766C61.8387 37.2632 61.318 36.9146 60.4443 36.9146H58.7614V39.2989L60.4443 39.2387ZM60.4443 43.5426C61.4342 43.5426 62.1314 43.3704 62.1314 42.2084C62.1314 41.0463 61.4342 40.8871 60.4443 40.8871H58.7614V43.5598L60.4443 43.5426ZM67.8814 35.2361V45.2297H65.7725V35.2318L67.8814 35.2361ZM74.2167 44.356C73.978 44.7005 73.6546 44.9776 73.2777 45.1608C72.9008 45.344 72.4831 45.427 72.0648 45.4019C71.3676 45.4019 70.0334 44.8811 69.8009 43.8353C69.7133 43.4733 69.6742 43.1014 69.6847 42.7292V38.1928H71.7979V42.4365C71.7979 43.1897 72.0304 44.0634 73.016 44.0634C73.6572 44.0634 74.2383 43.4823 74.2383 42.4365V38.2531H76.33V43.9472C76.33 44.3517 76.3859 44.7606 76.3859 45.1652H74.2942L74.2167 44.356ZM79.9754 42.3203C79.9754 43.2499 80.0916 44.0418 81.1977 44.0418C81.4906 44.0791 81.7867 44.0039 82.0264 43.8314C82.266 43.6588 82.4313 43.4018 82.4888 43.1122H84.3481C84.1717 44.8338 82.8374 45.3761 81.2106 45.3761C78.8262 45.3761 77.8406 44.0418 77.8406 41.7177C77.8406 39.626 79.0586 37.9992 81.2106 37.9992C82.5017 37.9992 83.5906 38.464 84.1717 39.682C84.3431 40.0716 84.4604 40.4829 84.5203 40.9043C84.5717 41.3471 84.5919 41.7929 84.5805 42.2385L79.9754 42.3203ZM82.4157 40.9258C82.4157 40.1683 82.1833 39.4711 81.1977 39.4711C80.2121 39.4711 80.0356 40.1683 79.9754 40.9258H82.4157ZM91.3075 38.0766C91.2473 37.0911 90.6662 36.566 89.6204 36.566C88.807 36.566 88.0538 36.9964 88.0538 37.8571C88.0538 38.9632 89.0394 39.0795 89.9131 39.2516C91.4237 39.682 93.6876 40.065 93.6876 42.1008C93.6876 44.597 91.5356 45.4707 89.3837 45.4707C87.1198 45.4707 85.5102 44.61 85.5489 42.0276H87.7568C87.7009 43.1337 88.3378 43.8869 89.4439 43.8869C90.3047 43.8869 91.4194 43.5985 91.4194 42.5527C91.4194 41.3906 89.9647 41.2615 89.1513 41.042C87.7568 40.6934 85.8416 40.0521 85.8416 38.2531C85.8416 35.9849 87.9333 34.9391 90.025 34.9391C91.9402 34.9391 93.4681 35.9849 93.4681 38.0207L91.3075 38.0766ZM95.1423 45.2254V35.2318H97.234V39.1053C97.4678 38.7558 97.7903 38.4748 98.1684 38.2911C98.5465 38.1073 98.9667 38.0273 99.3859 38.0594C100.083 38.0594 101.422 38.5845 101.654 39.5701C101.742 39.932 101.781 40.304 101.77 40.6762V45.2082H99.7346V41.042C99.7346 40.2845 99.5021 39.4711 98.5165 39.4711C97.8753 39.4711 97.2942 40.0521 97.2942 41.042V45.2254H95.1423ZM105.773 35.2318V37.0136H103.565V35.2318H105.773ZM105.657 38.2445V45.2168H103.565V38.2531L105.657 38.2445ZM109.319 42.3117C109.319 43.2413 109.436 44.0332 110.537 44.0332C110.83 44.0705 111.126 43.9953 111.366 43.8227C111.606 43.6502 111.771 43.3932 111.829 43.1036H113.688C113.516 44.8252 112.177 45.3674 110.55 45.3674C108.17 45.3674 107.18 44.0332 107.18 41.7091C107.18 39.6174 108.403 37.9906 110.55 37.9906C111.841 37.9906 112.935 38.4554 113.516 39.6734C113.683 40.0644 113.8 40.4751 113.864 40.8957C113.912 41.3387 113.931 41.7844 113.92 42.2299L109.332 42.2902L109.319 42.3117ZM111.699 40.9172C111.699 40.1597 111.467 39.4625 110.481 39.4625C109.496 39.4625 109.319 40.1597 109.259 40.9172H111.699ZM117.221 35.2232V45.2168H115.13V35.2318L117.221 35.2232ZM123.845 35.2232H125.937V43.8998C125.937 44.3646 125.993 44.8295 125.993 45.2943H123.875C123.875 44.9457 123.819 44.6573 123.819 44.3087C123.609 44.6916 123.296 45.0085 122.916 45.2236C122.536 45.4388 122.104 45.5437 121.667 45.5267C119.636 45.5267 118.654 43.6115 118.654 41.8081C118.654 40.0048 119.761 38.0896 121.908 38.0896C122.273 38.1021 122.63 38.1978 122.952 38.3694C123.275 38.5409 123.553 38.7838 123.768 39.0795L123.828 35.2447L123.845 35.2232ZM122.334 44.0548C123.436 44.0548 123.845 42.7162 123.845 41.7307C123.845 40.7451 123.496 39.4065 122.334 39.4065C120.996 39.4065 120.824 40.6246 120.824 41.7307C120.824 42.8368 120.987 44.0634 122.326 44.0634L122.334 44.0548ZM122.683 31.6208C122.512 31.6208 122.348 31.5528 122.226 31.4317C122.105 31.3106 122.037 31.1464 122.037 30.9752C122.037 30.804 122.105 30.6398 122.226 30.5187C122.348 30.3976 122.512 30.3296 122.683 30.3296C122.768 30.3313 122.851 30.3497 122.928 30.3838C123.006 30.4178 123.076 30.4669 123.134 30.5281C123.193 30.5893 123.238 30.6614 123.269 30.7404C123.299 30.8194 123.314 30.9035 123.311 30.9881C123.316 31.0731 123.302 31.158 123.272 31.2375C123.241 31.3169 123.194 31.3892 123.135 31.4495C123.075 31.5099 123.003 31.5571 122.923 31.588C122.844 31.619 122.759 31.6331 122.674 31.6294M122.674 30.1747C122.525 30.1772 122.38 30.2238 122.257 30.3086C122.134 30.3933 122.039 30.5125 121.984 30.6511C121.928 30.7897 121.915 30.9416 121.946 31.0877C121.977 31.2338 122.05 31.3675 122.156 31.4722C122.263 31.5768 122.398 31.6477 122.544 31.6759C122.691 31.7041 122.842 31.6884 122.98 31.6307C123.118 31.573 123.235 31.4759 123.318 31.3516C123.401 31.2274 123.445 31.0814 123.445 30.9322C123.441 30.733 123.361 30.5429 123.221 30.4017C123.08 30.2605 122.891 30.1791 122.692 30.1747" fill="white"/>
<path id="Vector_4" d="M122.674 30.9323H122.498V30.6396H122.73C122.847 30.6396 122.963 30.6396 122.963 30.7558C122.963 30.8721 122.791 30.9323 122.674 30.9323ZM123.079 30.7558C123.079 30.5837 123.023 30.5234 122.791 30.5234H122.36V31.3842H122.476V30.9883H122.653L122.941 31.4186H123.057L122.825 30.9883C122.856 30.9917 122.888 30.988 122.918 30.9775C122.948 30.967 122.975 30.95 122.997 30.9277C123.019 30.9054 123.036 30.8784 123.047 30.8487C123.057 30.8189 123.061 30.7872 123.057 30.7558M127.125 45.1653C126.953 45.1653 126.789 45.0973 126.668 44.9762C126.547 44.8551 126.479 44.6909 126.479 44.5197C126.479 44.3485 126.547 44.1843 126.668 44.0632C126.789 43.9421 126.953 43.8741 127.125 43.8741C127.296 43.8741 127.46 43.9421 127.581 44.0632C127.702 44.1843 127.77 44.3485 127.77 44.5197C127.77 44.6909 127.702 44.8551 127.581 44.9762C127.46 45.0973 127.296 45.1653 127.125 45.1653ZM127.125 43.7149C126.975 43.7149 126.828 43.7594 126.703 43.8429C126.579 43.9263 126.482 44.0448 126.424 44.1835C126.367 44.3222 126.352 44.4747 126.382 44.6217C126.412 44.7688 126.484 44.9038 126.591 45.0095C126.697 45.1153 126.832 45.1871 126.979 45.2158C127.127 45.2446 127.279 45.2289 127.417 45.171C127.556 45.113 127.674 45.0152 127.756 44.8901C127.839 44.7649 127.883 44.6181 127.882 44.4681C127.878 44.269 127.796 44.0793 127.655 43.9389C127.514 43.7985 127.324 43.7182 127.125 43.7149Z" fill="white"/>
<path id="Vector_5" d="M127.09 44.468H126.914V44.1797H127.146C127.262 44.1797 127.378 44.1797 127.378 44.2959C127.378 44.4121 127.262 44.468 127.09 44.468ZM127.555 44.2959C127.555 44.1194 127.495 44.0635 127.262 44.0635H126.858V44.9243H126.974V44.5197H127.146L127.378 44.9243H127.495L127.262 44.5197C127.439 44.5197 127.555 44.4594 127.555 44.2873" fill="white"/>
<path id="Vector_6" d="M25.0017 42.6689C24.6603 42.6883 24.3394 42.8375 24.1046 43.086C23.8698 43.3345 23.739 43.6634 23.739 44.0052C23.739 44.3471 23.8698 44.676 24.1046 44.9245C24.3394 45.173 24.6603 45.3222 25.0017 45.3416C25.3553 45.3371 25.6931 45.1947 25.9432 44.9446C26.1933 44.6946 26.3357 44.3567 26.3402 44.0031C26.3425 43.8269 26.3094 43.652 26.2429 43.4888C26.1764 43.3256 26.0779 43.1774 25.953 43.0529C25.8282 42.9285 25.6797 42.8304 25.5163 42.7645C25.3529 42.6985 25.1779 42.666 25.0017 42.6689ZM25.0017 45.1092C24.7829 45.1092 24.569 45.0443 24.3871 44.9228C24.2052 44.8012 24.0635 44.6285 23.9798 44.4264C23.896 44.2243 23.8741 44.0019 23.9168 43.7873C23.9595 43.5727 24.0648 43.3756 24.2195 43.221C24.3742 43.0663 24.5713 42.9609 24.7859 42.9182C25.0004 42.8756 25.2228 42.8975 25.4249 42.9812C25.6271 43.0649 25.7998 43.2067 25.9213 43.3886C26.0429 43.5705 26.1078 43.7843 26.1078 44.0031C26.118 44.151 26.0963 44.2993 26.0443 44.4381C25.9924 44.577 25.9112 44.703 25.8064 44.8078C25.7016 44.9127 25.5755 44.9938 25.4367 45.0458C25.2979 45.0978 25.1495 45.1194 25.0017 45.1092Z" fill="white"/>
<path id="Vector_7" d="M25.6989 43.6542C25.6989 43.3659 25.5827 43.2496 25.1781 43.2496H24.5369V44.7603H24.7133V44.119H25.0619L25.4665 44.7603H25.6989L25.2341 44.119C25.5267 44.0631 25.6989 43.9469 25.6989 43.6542ZM25.0017 43.8866H24.7133V43.4218H25.1179C25.2943 43.4218 25.4665 43.4218 25.4665 43.6542C25.4665 43.8866 25.1781 43.8995 25.0017 43.8995V43.8866ZM14.5561 35.1153C14.5002 35.1153 14.5002 35.1153 14.4399 35.1712L12.232 38.5412C12.9481 38.848 13.719 39.0061 14.498 39.0061C15.277 39.0061 16.0479 38.848 16.764 38.5412L14.5561 35.1712C14.6035 35.1153 14.5561 35.1153 14.5561 35.1153ZM12.4042 32.3264L9.09016 32.0337C8.9723 32.47 8.91439 32.9203 8.91801 33.3722C8.92843 34.7037 9.39991 35.9903 10.2522 37.0133L12.5763 32.5975C12.6839 32.4985 12.628 32.3823 12.4042 32.3264Z" fill="white"/>
<path id="Vector_8" d="M19.7724 28.083V21.5195H9.258V28.083H2.69025V38.6017H9.258V45.1651H19.7724V38.6017H26.3402V28.083H19.7724ZM14.5561 26.865C15.7962 26.8524 17.0129 27.2031 18.0561 27.8738C19.0993 28.5446 19.9234 29.506 20.4266 30.6395H15.7655C15.5446 30.6598 15.3236 30.6008 15.1423 30.473C14.9609 30.3453 14.8309 30.1571 14.7756 29.9423C14.7731 29.6205 14.8985 29.3108 15.1242 29.0815C15.2198 28.9603 15.2793 28.8146 15.2959 28.6612C15.3125 28.5077 15.2856 28.3527 15.2182 28.2138C15.1509 28.075 15.0458 27.9579 14.915 27.8759C14.7842 27.794 14.633 27.7505 14.4786 27.7505C14.3243 27.7505 14.1731 27.794 14.0423 27.8759C13.9115 27.9579 13.8064 28.075 13.739 28.2138C13.6716 28.3527 13.6447 28.5077 13.6614 28.6612C13.678 28.8146 13.7375 28.9603 13.833 29.0815C13.9456 29.1945 14.0344 29.3288 14.0943 29.4767C14.1541 29.6245 14.1838 29.7828 14.1817 29.9423C14.1817 30.2349 13.8933 30.6395 13.1961 30.6395H8.56076C9.11123 29.5158 9.96363 28.5676 11.0225 27.901C12.0814 27.2343 13.3049 26.8756 14.5561 26.865ZM8.03569 33.3725C8.04833 32.5993 8.18642 31.8333 8.44456 31.1043L12.8001 31.5347C12.9525 31.5551 13.0975 31.6125 13.2226 31.7019C13.3477 31.7913 13.4491 31.9099 13.5179 32.0474C13.5866 32.1849 13.6207 32.3371 13.6171 32.4908C13.6135 32.6445 13.5724 32.795 13.4973 32.9292L10.5363 38.5414C9.75925 37.9219 9.13121 37.1358 8.69843 36.2412C8.26565 35.3466 8.03917 34.3663 8.03569 33.3725ZM18.0896 38.8341C17.0204 39.5352 15.7656 39.8995 14.4872 39.88C13.2128 39.8714 11.9657 39.5094 10.8849 38.8341L14.0784 34.1256C14.1186 34.053 14.1775 33.9924 14.249 33.9503C14.3205 33.9081 14.402 33.8859 14.4851 33.8859C14.5681 33.8859 14.6496 33.9081 14.7212 33.9503C14.7927 33.9924 14.8516 34.053 14.8918 34.1256L18.0896 38.8341ZM18.5544 38.4855L15.589 32.8904C15.5177 32.7575 15.4794 32.6093 15.4772 32.4584C15.4751 32.3076 15.5092 32.1584 15.5766 32.0235C15.6441 31.8885 15.743 31.7717 15.865 31.6829C15.987 31.5941 16.1285 31.5359 16.2777 31.5132L20.6375 31.0828C20.9161 31.806 21.0534 32.576 21.0421 33.3509C21.0485 34.3402 20.8276 35.3177 20.3962 36.2079C19.9649 37.0982 19.3347 37.8775 18.5544 38.4855Z" fill="white"/>
<path id="Vector_9" d="M18.7868 29.6971C18.0834 28.8743 17.1542 28.2757 16.1141 27.9756C16.4627 28.5007 16.17 29.2668 15.8817 29.6025C15.8734 29.6097 15.8668 29.6187 15.8623 29.6287C15.8578 29.6387 15.8554 29.6496 15.8554 29.6606C15.8554 29.6716 15.8578 29.6824 15.8623 29.6924C15.8668 29.7025 15.8734 29.7114 15.8817 29.7187L18.7868 29.6971ZM16.708 32.3268C16.4756 32.3268 16.4756 32.443 16.5315 32.5592L18.8599 36.975C19.7169 35.9461 20.19 34.6515 20.1985 33.3124C20.201 32.8617 20.1416 32.4128 20.022 31.9782L16.708 32.3268ZM12.9894 28.0229C11.9486 28.3214 11.0189 28.9203 10.3167 29.7445H13.2218C13.2778 29.7445 13.2778 29.6842 13.2218 29.6283C12.9163 29.2668 12.6279 28.548 12.9765 28.0272L12.9894 28.0229Z" fill="white"/>
<path id="Vector_10" d="M47.4896 21.5195C44.9959 22.8168 42.2264 23.4941 39.4154 23.4941C36.6045 23.4941 33.835 22.8168 31.3413 21.5195C29.6542 24.8292 29.4218 30.1747 30.8765 34.6507C32.271 38.9546 34.9996 42.9013 39.4154 45.3416C43.8915 42.9013 46.5642 38.9503 47.9587 34.6507C49.465 30.1747 49.1724 24.8292 47.4896 21.5195ZM46.3275 34.1256C45.0363 37.7883 43.1297 41.042 39.4714 43.3059C35.8088 41.042 33.8333 37.7883 32.6325 34.1256C31.5264 30.8719 31.238 27.0371 32.456 24.076C33.7146 24.5215 35.0111 24.8514 36.3295 25.0616C37.3648 25.245 38.4161 25.3229 39.4671 25.294C40.5171 25.29 41.5655 25.2123 42.6046 25.0616C43.9244 24.8579 45.2215 24.5279 46.4781 24.076C47.6617 27.0371 47.4293 30.8719 46.3275 34.1256Z" fill="white"/>
<path id="Vector_11" d="M42.6089 25.8752C41.5479 26.0104 40.4804 26.088 39.4111 26.1076C38.3432 26.086 37.2773 26.0084 36.2176 25.8752C35.1717 25.7031 34.1259 25.4706 33.0198 25.178C32.2666 27.3859 32.3828 30.1748 33.0198 32.6151C34.1259 37.2633 36.9708 40.7925 39.4111 42.3764C41.9116 40.8097 44.6833 37.2633 45.8024 32.6151C46.3834 30.1189 46.5598 27.3859 45.8024 25.178C44.7579 25.4942 43.6901 25.7274 42.6089 25.8752ZM38.83 40.2287C38.7741 40.4611 38.8903 40.5773 38.8903 40.6935C38.8903 40.8097 38.7138 40.8097 38.6579 40.6935C38.5304 40.5277 38.4677 40.3212 38.4814 40.1125C38.4563 39.9716 38.4703 39.8264 38.5219 39.6929C38.5735 39.5593 38.6607 39.4425 38.7741 39.355C38.8424 39.2862 38.9207 39.2281 39.0065 39.1829L39.0624 39.936C38.9462 39.936 38.83 39.9963 38.83 40.2287ZM39.8199 40.9819C39.8199 41.0981 39.7597 41.2143 39.5273 41.2143C39.2949 41.2143 39.2389 41.1583 39.2389 40.9259C39.1787 39.9963 39.1787 38.3092 39.1787 38.3092C39.33 38.3465 39.475 38.4059 39.609 38.4856C39.665 38.4856 39.7812 38.6018 39.8974 38.718C39.8974 38.774 39.9577 38.774 39.9577 38.8342C39.8759 39.4712 39.8199 40.6935 39.8199 40.9819ZM40.5731 39.2603C40.4341 39.3662 40.2764 39.445 40.1083 39.4927V38.774C40.1502 38.7267 40.1718 38.6649 40.1686 38.6018C39.95 38.3675 39.694 38.1711 39.4111 38.0208C39.13 37.9069 38.8426 37.8092 38.5503 37.7281C38.4187 37.6867 38.2975 37.6176 38.195 37.5253C38.0924 37.4331 38.0108 37.3199 37.9557 37.1934C37.9007 37.067 37.8734 36.9301 37.8757 36.7922C37.878 36.6543 37.9099 36.5185 37.9693 36.3939C38.0252 36.1615 38.3179 36.0453 38.4341 35.9635C38.5474 35.9166 38.6639 35.8777 38.7827 35.8473L38.8386 36.6608C38.8386 36.6608 38.7827 36.6608 38.7224 36.777C38.713 36.7997 38.7086 36.8243 38.7095 36.8489C38.7104 36.8735 38.7166 36.8976 38.7276 36.9197C38.7386 36.9417 38.7542 36.9611 38.7734 36.9766C38.7925 36.9921 38.8148 37.0033 38.8386 37.0094C39.2954 37.2003 39.7422 37.4143 40.1772 37.6507C40.6979 37.939 40.8744 38.1714 40.8744 38.5803C40.8982 38.7077 40.8821 38.8394 40.8281 38.9573C40.7742 39.0752 40.6851 39.1735 40.5731 39.2388V39.2603ZM39.1227 35.4643C39.5273 35.5202 39.6435 35.5202 39.9835 35.5805L39.9491 37.2074L39.5875 37.0137L39.2389 36.8415L39.1227 35.4643ZM41.4468 35.8129C41.4144 35.96 41.3507 36.0984 41.2601 36.2187C41.1695 36.339 41.0541 36.4384 40.9217 36.5101C40.7261 36.6173 40.5077 36.6764 40.2848 36.6823V35.6967C40.3297 35.6918 40.3711 35.6703 40.401 35.6365C40.4222 35.6135 40.4383 35.5863 40.4479 35.5565C40.4576 35.5268 40.4606 35.4953 40.4569 35.4643C40.4569 35.404 40.401 35.3481 40.3407 35.2878C40.2501 35.2474 40.1515 35.2283 40.0523 35.2319L38.6579 35.0554C37.8444 34.9392 37.2032 34.4184 37.2634 33.605C37.3194 33.0799 37.8444 32.9078 38.249 32.7442L38.5417 33.3253C38.5676 33.4453 38.6066 33.5622 38.6579 33.6739C38.6579 33.6739 38.4814 33.7341 38.4814 33.8503C38.4814 33.9665 38.6579 34.0225 38.7138 34.0225C39.3265 34.0681 39.9317 34.1851 40.5172 34.3711C40.789 34.4568 41.0308 34.618 41.2144 34.8359C41.4117 35.1209 41.4946 35.4696 41.4468 35.8129ZM38.7741 32.0341C38.7741 32.0341 38.9462 32.0341 39.4713 32.0943C39.6887 32.0963 39.9042 32.1356 40.1083 32.2105L40.0523 33.9321C39.6435 33.8719 39.4111 33.8159 39.0624 33.7556C38.9701 33.2833 38.7937 32.8314 38.5417 32.4214C38.4814 32.3052 38.5417 32.245 38.5417 32.245C38.6313 32.1917 38.7285 32.1525 38.83 32.1288L38.7741 32.0341ZM40.3407 33.7556C40.3407 33.7556 40.401 32.9422 40.401 32.5376C40.4494 32.5275 40.4946 32.5052 40.5321 32.4729C40.5696 32.4406 40.5983 32.3993 40.6155 32.3528C40.6327 32.3064 40.6379 32.2563 40.6304 32.2074C40.623 32.1584 40.6033 32.1121 40.5731 32.0728C40.5411 32.0239 40.4986 31.9828 40.4487 31.9523C40.3989 31.9218 40.3429 31.9027 40.2848 31.8964C39.8429 31.8094 39.3957 31.7519 38.9462 31.7242C38.5417 31.664 38.1931 31.608 37.8444 31.5477C37.4668 31.48 37.109 31.329 36.7971 31.1056C36.4852 30.8823 36.2269 30.5922 36.0411 30.2566C35.8411 29.8319 35.8142 29.3461 35.966 28.9019C36.1178 28.4577 36.4365 28.09 36.8545 27.8765C37.1599 27.7188 37.4986 27.6364 37.8423 27.6364C38.186 27.6364 38.5247 27.7188 38.83 27.8765C39.0624 27.9325 39.1787 28.1649 39.2949 28.3413C39.3551 28.3973 39.4713 28.4575 39.5273 28.5738C39.5832 28.69 39.4713 28.6297 39.4713 28.6297C39.2224 28.69 38.9627 28.69 38.7138 28.6297H38.0166C38.2238 28.7576 38.4379 28.874 38.6579 28.9783C38.7741 29.0386 38.8903 29.0386 39.0065 29.0945C39.1227 29.1505 39.1787 29.1548 39.1787 29.2107C39.1787 29.2667 39.0624 29.271 38.9462 29.3269C38.7382 29.3874 38.5173 29.3874 38.3093 29.3269C37.9607 29.271 37.7842 29.0386 37.5518 29.1548C37.3194 29.271 37.3796 29.4431 37.4356 29.6756C37.4958 30.0242 37.866 30.1404 38.1328 30.2566C39.1227 30.6052 40.2245 30.3728 41.1455 30.8979C41.3493 30.9938 41.5309 31.1309 41.6791 31.3006C41.8272 31.4702 41.9386 31.6686 42.0063 31.8835C42.3162 33.5448 40.3407 33.7772 40.3407 33.7772V33.7556ZM42.0623 28.3543C42.0063 28.5264 41.9461 28.5264 41.8299 28.6426C41.5974 28.875 41.2488 29.1074 40.9002 29.4001C40.6649 29.5471 40.4662 29.7458 40.3192 29.9811C40.2738 30.0337 40.2348 30.0915 40.203 30.1533C39.622 30.0371 39.1012 30.0371 38.6364 29.9209V29.4776C38.6364 29.4776 39.1571 29.4776 39.2174 29.129C39.2178 29.0663 39.1965 29.0055 39.1571 28.9568C39.0732 28.8928 38.9736 28.8526 38.8688 28.8406C39.2905 28.9225 39.6999 29.0585 40.0868 29.2452C40.0747 29.1663 40.056 29.0885 40.0308 29.0128C39.9508 28.9298 39.8496 28.8702 39.7382 28.8406C39.4534 28.7872 39.1661 28.7484 38.8774 28.7244H39.3982C39.5144 28.7244 39.6908 28.6641 39.6908 28.6082C39.6908 28.5522 39.6908 28.4317 39.5746 28.3155L39.3982 28.1434C39.3422 28.0272 39.226 27.911 39.1657 27.7947C38.9988 27.6388 38.8008 27.52 38.5847 27.4461C38.5847 27.4461 38.5288 27.1535 38.645 27.0157C38.7612 26.878 38.9333 26.8995 38.9936 26.9598C39.3406 27.1588 39.7106 27.3149 40.0954 27.4246C40.2116 27.4806 40.2116 27.4806 40.2116 27.657C40.2718 27.9454 40.1556 28.3543 40.2116 28.5178C40.2116 28.5781 40.3278 28.5781 40.3278 28.5781C40.7582 28.3456 40.9691 27.997 41.3736 27.8206C41.6706 27.7345 42.2 27.9755 42.101 28.3758L42.0623 28.3543ZM47.5842 42.7035C47.3288 42.7035 47.0792 42.7792 46.8668 42.9211C46.6545 43.0629 46.489 43.2646 46.3913 43.5005C46.2936 43.7364 46.268 43.9961 46.3178 44.2465C46.3676 44.497 46.4906 44.727 46.6712 44.9076C46.8517 45.0882 47.0818 45.2112 47.3323 45.261C47.5827 45.3108 47.8423 45.2852 48.0783 45.1875C48.3142 45.0898 48.5159 44.9243 48.6577 44.712C48.7996 44.4996 48.8753 44.25 48.8753 43.9946C48.8698 43.6596 48.7343 43.3399 48.4973 43.103C48.2604 42.8661 47.9407 42.7305 47.6057 42.725L47.5842 42.7035ZM47.5842 45.0878C47.3652 45.0887 47.1509 45.0245 46.9685 44.9035C46.786 44.7825 46.6436 44.61 46.5592 44.408C46.4748 44.2059 46.4523 43.9834 46.4945 43.7686C46.5367 43.5537 46.6417 43.3562 46.7962 43.2011C46.9507 43.046 47.1478 42.9402 47.3625 42.8972C47.5772 42.8542 47.7998 42.8758 48.0022 42.9594C48.2045 43.043 48.3775 43.1848 48.4993 43.3667C48.621 43.5487 48.686 43.7628 48.686 43.9817C48.6942 44.128 48.6723 44.2743 48.6216 44.4118C48.5709 44.5492 48.4924 44.6747 48.3911 44.7805C48.2897 44.8862 48.1677 44.97 48.0326 45.0266C47.8975 45.0832 47.7522 45.1113 47.6057 45.1093L47.5842 45.0878Z" fill="white"/>
<path id="Vector_12" d="M48.3029 43.6544C48.3029 43.3661 48.1867 43.2499 47.7778 43.2499H47.1408V44.7605H47.313V44.1193H47.6057L48.0102 44.7605H48.2426L47.7778 44.1193C48.0705 44.0633 48.3029 43.9471 48.3029 43.6544ZM47.6057 43.9471H47.313V43.4694H47.7434C47.9155 43.4694 48.092 43.4694 48.092 43.7018C48.092 43.9342 47.7778 43.9471 47.6057 43.9471ZM38.193 27.9753C38.3092 28.0915 38.3092 28.2077 38.4814 28.2077C38.5265 28.2076 38.5709 28.197 38.6112 28.1769C38.6515 28.1567 38.6866 28.1275 38.7138 28.0915H38.83C38.6579 27.9194 38.249 27.9194 37.9692 27.8591C38.0768 27.9753 38.1328 27.9108 38.193 27.9753Z" fill="white"/>
</g>
</svg>
