<svg width="130" height="65" viewBox="0 0 130 65" fill="none" xmlns="http://www.w3.org/2000/svg">
<g id="rs-cigna">
<path id="Vector" d="M17.1819 30.2307C18.232 30.2307 25.0838 33.2434 25.0838 44.0893C25.0838 49.2798 23.3623 53.5923 22.3121 53.5923C21.8559 53.5923 21.6752 53.1619 21.6752 52.2667C21.6752 50.3471 22.3509 48.6428 22.3509 44.5455C22.3509 36.6478 19.1014 33.4414 17.6166 31.6596C17.1862 31.1216 16.8634 30.7988 16.8634 30.4717C16.8634 30.3512 16.9452 30.2307 17.1604 30.2307M34.4061 30.4889C34.4061 30.8074 34.0876 31.1431 33.6529 31.6768C32.1896 33.4802 28.9186 36.665 28.9186 44.5885C28.9186 48.6858 29.5943 50.3902 29.5943 52.3097C29.5943 53.1705 29.4136 53.6353 28.9574 53.6353C27.9287 53.6353 26.1856 49.3314 26.1856 44.1323C26.1856 33.2822 33.0375 30.2738 34.0876 30.2738C34.1232 30.2653 34.1603 30.265 34.196 30.2729C34.2317 30.2809 34.2652 30.2969 34.2938 30.3197C34.3224 30.3425 34.3455 30.3716 34.3612 30.4046C34.3769 30.4377 34.3849 30.4739 34.3846 30.5105" fill="white"/>
<path id="Vector_2" d="M23.1601 32.4084C23.1711 32.8996 23.3268 33.3766 23.6077 33.7797C23.8886 34.1828 24.2822 34.494 24.7392 34.6744C25.1962 34.8548 25.6962 34.8963 26.1767 34.7937C26.6572 34.6912 27.0967 34.4491 27.4403 34.0979C27.7838 33.7467 28.016 33.3019 28.1079 32.8192C28.1998 32.3366 28.1472 31.8376 27.9567 31.3847C27.7663 30.9318 27.4464 30.5452 27.0372 30.2733C26.628 30.0014 26.1476 29.8563 25.6563 29.8562C25.3237 29.8561 24.9945 29.9225 24.6879 30.0514C24.3814 30.1804 24.1037 30.3692 23.8711 30.607C23.6386 30.8448 23.4559 31.1266 23.3338 31.4359C23.2117 31.7453 23.1526 32.0759 23.1601 32.4084Z" fill="white"/>
<path id="Vector_3" d="M12.667 28.3498C11.3758 27.7559 10.3902 26.568 10.2353 25.4231C11.2037 24.7862 12.7273 24.7302 14.0356 25.3242C14.5513 25.5259 14.9917 25.8826 15.2961 26.3451C15.6006 26.8076 15.7542 27.3531 15.7357 27.9065C15.3336 28.2904 14.8212 28.5385 14.2706 28.6157C13.7201 28.6929 13.1592 28.5954 12.667 28.3369M16.4114 21.4507C15.5807 20.1595 15.3828 18.5197 15.8949 17.3921C17.1431 17.3921 18.5504 18.2227 19.3983 19.5096C19.7453 19.993 19.9356 20.5713 19.9433 21.1663C19.951 21.7613 19.7757 22.3443 19.4413 22.8365C18.858 22.9367 18.2579 22.858 17.7201 22.6106C17.1824 22.3633 16.7321 21.9589 16.4286 21.4507M18.3869 28.2809C17.3582 27.4202 16.7643 26.0601 16.9236 24.9712C17.9737 24.6355 19.3768 24.9928 20.4054 25.8837C20.8227 26.201 21.1301 26.641 21.2845 27.142C21.4389 27.643 21.4325 28.1797 21.2662 28.6769C20.8029 28.9202 20.2752 29.0128 19.7567 28.9418C19.2382 28.8708 18.7548 28.6398 18.374 28.2809M21.5416 24.9842C21.0854 23.5423 21.3437 21.9714 22.1356 21.0246C23.3234 21.3431 24.4123 22.5309 24.8685 23.9555C25.0714 24.5014 25.0975 25.0973 24.943 25.6589C24.7885 26.2204 24.4613 26.7191 24.0078 27.0845C23.428 27.0385 22.8774 26.8107 22.4346 26.4336C21.9918 26.0565 21.6793 25.5492 21.5416 24.9842ZM16.0757 35.5201C15.5994 35.6236 15.1054 35.6128 14.6341 35.4886C14.1628 35.3644 13.7277 35.1304 13.3642 34.8056C13.5781 34.371 13.8922 33.9934 14.2805 33.7039C14.6688 33.4143 15.1204 33.2211 15.598 33.14C15.9934 33.0368 16.4114 33.0616 16.7919 33.2108C17.1723 33.3601 17.4957 33.6261 17.7155 33.9707C17.6403 34.3705 17.4416 34.7366 17.1475 35.0177C16.8533 35.2987 16.4785 35.4804 16.0757 35.5373M13.3642 32.4514C12.8184 32.4064 12.2911 32.2318 11.8263 31.9421C11.3614 31.6524 10.9724 31.256 10.6915 30.7858C11.0635 30.3821 11.5285 30.0754 12.0461 29.8924C12.5637 29.7094 13.1181 29.6556 13.6612 29.7357C14.1166 29.7621 14.5527 29.9284 14.9101 30.2118C15.2675 30.4953 15.5288 30.8821 15.6582 31.3195C15.4431 31.7251 15.1058 32.0528 14.694 32.2559C14.2823 32.4591 13.817 32.5275 13.3642 32.4514ZM13.2652 23.7188C12.8287 23.3714 12.483 22.9232 12.2581 22.4126C12.0332 21.902 11.9357 21.3444 11.9741 20.7878C12.5191 20.6607 13.087 20.6683 13.6284 20.81C14.1699 20.9517 14.6687 21.2233 15.0815 21.6013C15.4521 21.8873 15.7227 22.2832 15.8549 22.7322C15.9871 23.1813 15.974 23.6607 15.8175 24.1019C15.4021 24.318 14.9293 24.3981 14.4659 24.3309C14.0025 24.2637 13.572 24.0526 13.2351 23.7274M19.5317 17.5298C19.34 16.9759 19.2857 16.3838 19.3734 15.8043C19.4611 15.2248 19.6882 14.6752 20.0353 14.2029C21.0252 14.4611 21.9333 15.451 22.312 16.6561C22.4819 17.1122 22.5044 17.61 22.3762 18.0795C22.248 18.549 21.9757 18.9664 21.5976 19.2729C21.1138 19.229 20.6557 19.0355 20.287 18.7193C19.9183 18.403 19.6573 17.9797 19.5403 17.5083M4.07642 48.6857C4.07642 48.7245 4.07642 48.7417 4.13667 48.7417C4.19693 48.7417 4.23566 48.7029 4.31313 48.6857C9.71236 46.7327 15.3663 45.573 21.0983 45.2426C21.0983 45.1823 21.1586 44.8122 21.1586 44.5712C21.1594 44.1609 21.132 43.7511 21.0768 43.3446C13.2394 44.0547 7.83372 46.3315 4.29161 48.5093C4.1711 48.6082 4.09363 48.6298 4.09363 48.69M35.5767 27.9151C35.5617 27.3596 35.7192 26.813 36.0275 26.3506C36.3357 25.8882 36.7796 25.5326 37.2982 25.3328C38.5894 24.7388 40.1302 24.7948 41.0986 25.4318C40.9436 26.5766 39.9709 27.7645 38.6668 28.3584C38.1748 28.6176 37.6138 28.7154 37.0631 28.6382C36.5124 28.561 35.9999 28.3125 35.5982 27.928M31.871 22.8107C31.5268 22.3223 31.3457 21.7377 31.3534 21.1403C31.3612 20.5428 31.5574 19.9631 31.914 19.4838C32.7447 18.1926 34.1693 17.3318 35.4174 17.3663C35.9296 18.5068 35.7445 20.1552 34.8837 21.442C34.5842 21.9532 34.1338 22.3591 33.5944 22.6041C33.055 22.8492 32.453 22.9213 31.871 22.8107ZM30.0332 28.6898C29.8649 28.1928 29.8575 27.6555 30.0121 27.154C30.1666 26.6526 30.4752 26.2126 30.894 25.8966C31.9226 25.0358 33.33 24.67 34.3802 24.9842C34.5351 26.073 33.9498 27.4029 32.9125 28.2938C32.5327 28.6529 32.05 28.8842 31.5321 28.9552C31.0142 29.0262 30.4871 28.9334 30.0246 28.6898M27.3003 27.1146C26.8483 26.748 26.5223 26.2493 26.3679 25.6882C26.2136 25.1271 26.2386 24.5318 26.4395 23.9856C26.8957 22.5395 27.9846 21.3732 29.1725 21.0547C29.9644 21.9843 30.2226 23.5682 29.7664 25.0143C29.6161 25.5728 29.3 26.0726 28.8596 26.4476C28.4193 26.8226 27.8756 27.0552 27.3003 27.1146ZM33.5926 33.9535C33.8168 33.6187 34.1386 33.361 34.5144 33.2155C34.8902 33.0699 35.3016 33.0436 35.6929 33.14C36.1743 33.2184 36.6294 33.4125 37.0193 33.7056C37.4091 33.9988 37.7219 34.3822 37.9309 34.8229C37.5693 35.1507 37.1343 35.3867 36.6624 35.511C36.1904 35.6354 35.6956 35.6444 35.2194 35.5373C34.8183 35.4727 34.4468 35.2859 34.1557 35.0025C33.8646 34.719 33.6679 34.3527 33.5926 33.9535ZM35.6929 31.3195C35.8189 30.8802 36.0792 30.4913 36.4373 30.2072C36.7954 29.9232 37.2334 29.7583 37.6899 29.7357C38.8605 29.6194 40.0656 30.0326 40.6596 30.7858C40.3822 31.2591 39.9941 31.658 39.5285 31.9481C39.063 32.2383 38.5339 32.411 37.9868 32.4514C37.5337 32.533 37.0663 32.467 36.6534 32.2633C36.2405 32.0596 35.9038 31.7288 35.6929 31.3195ZM35.4949 24.076C35.3496 23.6313 35.3457 23.1526 35.4837 22.7056C35.6216 22.2586 35.8947 21.8653 36.2653 21.5798C36.6836 21.2109 37.1828 20.9454 37.7226 20.8049C38.2623 20.6643 38.8276 20.6526 39.3727 20.7706C39.4103 21.3265 39.3125 21.8832 39.0876 22.393C38.8627 22.9028 38.5175 23.3503 38.0815 23.6973C37.752 24.0346 37.3209 24.2544 36.8543 24.3228C36.3878 24.3913 35.9117 24.3045 35.4992 24.076M29.719 19.2858C29.3425 18.9781 29.0714 18.5607 28.9433 18.0917C28.8153 17.6226 28.8367 17.1253 29.0046 16.669C29.1587 16.1062 29.4454 15.5886 29.8408 15.1595C30.2362 14.7304 30.7287 14.4024 31.2771 14.2029C31.6191 14.6735 31.8427 15.2196 31.9289 15.795C32.015 16.3704 31.9612 16.9581 31.772 17.5083C31.6519 17.9785 31.3908 18.4008 31.0239 18.7186C30.657 19.0363 30.2017 19.2342 29.719 19.2858ZM47.0207 48.505C43.4571 46.3272 38.0557 44.0504 30.2355 43.3403C30.1826 43.747 30.1567 44.1568 30.158 44.5669C30.16 44.7918 30.1787 45.0162 30.214 45.2383C35.9462 45.568 41.6001 46.7278 46.9992 48.6814C47.081 48.6814 47.1369 48.7374 47.18 48.7374C47.223 48.7374 47.2359 48.7374 47.2359 48.6814C47.2359 48.6255 47.18 48.5996 47.0379 48.5007M25.6777 20.5253C25.0539 20.2723 24.5244 19.8314 24.1627 19.2637C23.801 18.6961 23.625 18.0299 23.6592 17.3576C23.6592 15.6361 24.4898 13.9145 25.6777 13.1829C26.8656 13.936 27.6962 15.6189 27.6962 17.3576C27.7336 18.0305 27.5589 18.6981 27.1968 19.2664C26.8347 19.8347 26.3033 20.275 25.6777 20.5253Z" fill="white"/>
<path id="Vector_4" d="M67.232 25.0447C67.2209 25.4725 67.3376 25.8939 67.5672 26.2551C67.7968 26.6163 68.1289 26.9008 68.521 27.0723C68.9131 27.2438 69.3474 27.2945 69.7685 27.2178C70.1895 27.1412 70.5782 26.9408 70.8847 26.6422C71.1913 26.3436 71.4019 25.9604 71.4896 25.5415C71.5772 25.1226 71.538 24.6871 71.3769 24.2906C71.2158 23.8941 70.9402 23.5546 70.5852 23.3156C70.2302 23.0766 69.812 22.9488 69.384 22.9487C69.105 22.9447 68.8279 22.9958 68.5687 23.099C68.3095 23.2023 68.0731 23.3556 67.8732 23.5503C67.6734 23.745 67.5138 23.9772 67.4038 24.2336C67.2938 24.4901 67.2354 24.7657 67.232 25.0447ZM84.0172 36.1531C84.0172 39.48 82.7261 40.8873 80.8324 40.8873C78.9386 40.8873 77.8627 39.282 77.8627 36.45C77.8627 33.6181 79.5025 31.1864 82.5711 31.1864C83.0579 31.1739 83.5442 31.226 84.0172 31.3413V36.1531ZM84.198 41.6147V42.7036C84.198 45.6733 82.3732 46.8224 80.0964 46.8224C78.7227 46.8071 77.3627 46.5462 76.0809 46.052V48.983C77.5081 49.4018 78.9877 49.6148 80.4751 49.6157C84.6714 49.6157 87.4647 47.8941 87.4647 41.9547V29.1635C85.8955 28.7469 84.2806 28.5272 82.6572 28.5093C76.7781 28.5093 74.2431 32.4517 74.2431 36.7083C74.2431 40.6248 76.2229 43.6935 79.9845 43.6935C80.7821 43.7172 81.5729 43.5414 82.2854 43.1822C82.9979 42.8229 83.6094 42.2916 84.0646 41.6362H84.1636L84.198 41.6147ZM64.2021 39.7942C62.956 40.2935 61.6236 40.5421 60.2812 40.5258C56.3001 40.5258 53.352 37.6766 53.352 33.3211C53.352 28.9656 56.2614 26.1164 60.2812 26.1164C61.6251 26.0822 62.961 26.3315 64.2021 26.848V23.7406C62.8248 23.276 61.3772 23.0546 59.924 23.0864C53.7264 23.0864 49.5688 27.3602 49.5688 33.2996C49.5688 38.9248 53.3907 43.517 59.924 43.517C61.3775 43.5537 62.826 43.3322 64.2021 42.8628V39.7942ZM116.71 36.1531C116.71 39.48 115.418 40.8873 113.52 40.8873C111.622 40.8873 110.551 39.282 110.551 36.45C110.551 33.6181 112.216 31.1864 115.264 31.1864C115.75 31.1755 116.236 31.2276 116.71 31.3413V36.1531ZM120.609 43.3406C120.357 41.754 120.213 40.1521 120.179 38.546V29.1248C118.608 28.7071 116.992 28.4873 115.367 28.4706C109.488 28.4706 106.953 32.4087 106.953 36.648C106.953 40.5689 108.915 43.6375 112.694 43.6375C113.625 43.6654 114.544 43.4219 115.339 42.9366C116.133 42.4513 116.77 41.7453 117.17 40.9046H117.248C117.286 41.3608 117.407 42.8844 117.446 43.3234L120.609 43.3406ZM71.1142 28.8364H67.6495V43.3406H71.1142V28.8364ZM91.3855 43.332V33.2996C91.3855 31.9568 91.265 29.383 91.2263 28.7891H94.3337L94.4929 30.8248H94.5532C94.9837 30.0829 95.6063 29.4707 96.3553 29.0526C97.1044 28.6345 97.9522 28.426 98.8097 28.4491C102.098 28.4491 103.918 30.8679 103.918 33.8763V43.3449H100.454V34.5692C100.454 32.7272 99.4252 31.3198 97.6606 31.3198C95.896 31.3198 94.8717 32.7874 94.8717 34.5692V43.3406L91.3855 43.332Z" fill="white"/>
<path id="Vector_5" d="M125.993 40.6847C125.851 40.619 125.693 40.5922 125.537 40.6073H125.218V41.3777H125.558C125.677 41.38 125.796 41.367 125.911 41.3389C125.98 41.3153 126.039 41.2694 126.079 41.2087C126.118 41.1479 126.137 41.0756 126.131 41.0032C126.135 40.943 126.125 40.8827 126.101 40.8273C126.077 40.7719 126.04 40.723 125.993 40.6847ZM125.563 40.349C125.758 40.337 125.954 40.3633 126.139 40.4265C126.244 40.4707 126.332 40.546 126.392 40.6423C126.453 40.7386 126.481 40.8511 126.475 40.9645C126.483 41.0473 126.469 41.1307 126.434 41.2062C126.399 41.2818 126.345 41.3468 126.277 41.3949C126.184 41.4426 126.084 41.4759 125.98 41.4939C126.05 41.4998 126.118 41.5205 126.18 41.5546C126.242 41.5888 126.295 41.6355 126.337 41.6918C126.409 41.7894 126.45 41.9065 126.454 42.0275V42.346C126.454 42.4063 126.454 42.445 126.454 42.4665H126.101V42.2083C126.101 41.9716 126.04 41.7779 125.903 41.7349C125.765 41.685 125.618 41.6645 125.472 41.6746H125.175V42.5053H124.801V40.3878H125.511L125.563 40.349ZM124.435 40.25C124.281 40.4021 124.16 40.5839 124.078 40.7844C123.997 40.985 123.957 41.2 123.962 41.4164C123.96 41.6374 124.002 41.8567 124.085 42.0614C124.168 42.2661 124.292 42.4521 124.448 42.6086C124.599 42.7655 124.78 42.8902 124.981 42.9753C125.181 43.0603 125.397 43.104 125.614 43.1035C125.834 43.1093 126.051 43.0681 126.253 42.9828C126.455 42.8974 126.637 42.7698 126.785 42.6086C127.015 42.3748 127.172 42.0784 127.235 41.7564C127.299 41.4343 127.266 41.1008 127.141 40.7972C127.016 40.4936 126.805 40.2334 126.534 40.0488C126.262 39.8643 125.943 39.7637 125.614 39.7594C125.396 39.755 125.179 39.7969 124.978 39.8822C124.777 39.9675 124.597 40.0943 124.448 40.2543M126.987 42.785C126.718 43.056 126.374 43.2406 125.999 43.3153C125.625 43.3901 125.236 43.3516 124.884 43.2048C124.531 43.058 124.23 42.8095 124.019 42.491C123.808 42.1725 123.697 41.7984 123.699 41.4164C123.703 40.9046 123.909 40.4151 124.273 40.0552C124.637 39.6954 125.128 39.4946 125.64 39.4968C126.145 39.4981 126.628 39.6975 126.987 40.052C127.172 40.2276 127.319 40.4394 127.418 40.6742C127.517 40.9089 127.567 41.1616 127.564 41.4164C127.556 41.93 127.349 42.4204 126.987 42.785Z" fill="white"/>
</g>
</svg>
