<svg width="117" height="58" viewBox="0 0 117 58" fill="none" xmlns="http://www.w3.org/2000/svg">
<g id="rs-uhc">
<path id="Vector" d="M8.62362 45.9308C9.76445 46.3208 10.9622 46.5184 12.1678 46.5157C17.5052 46.5157 21.2187 42.6675 21.2187 35.2906V13.3559L23.2467 12.3977V35.6715C23.2467 43.1755 19.3793 47.5509 13.8995 47.5509C12.0206 47.5362 10.187 46.9731 8.62362 45.9308ZM6.3147 43.6989C7.45209 44.102 8.64506 44.3266 9.85119 44.3646C14.3343 44.3646 17.3244 41.5516 17.3244 35.1905V15.0376L19.3177 14.0948V35.3791C19.3177 42.0326 15.9467 45.4305 11.2596 45.4305C9.46939 45.3923 7.73767 44.7859 6.3147 43.6989ZM4.90627 41.7093C5.86399 42.0246 6.86167 42.2021 7.86937 42.2365C11.3558 42.2365 13.4954 40.3125 13.4954 35.3098V16.7346L15.458 15.7918V35.0327C15.4465 40.6549 12.8566 43.2101 9.17775 43.2101C7.62277 43.2009 6.11539 42.6727 4.89472 41.7093H4.90627ZM11.6406 35.8486V17.5004L2.98987 21.3948V36.2834C2.98987 39.1272 4.77928 41.0321 7.41528 41.0321C10.0513 41.0321 11.6406 39.1003 11.6406 35.8486Z" fill="white"/>
<path id="Vector_2" d="M34.3757 17.4656V24.3077C34.3757 26.8359 35.8726 28.8062 38.728 28.8062C41.1793 28.8062 43.0264 27.0014 43.0264 24.2538V17.6542C43.0187 17.4797 43.0456 17.3053 43.1055 17.1413C43.1654 16.9772 43.2572 16.8266 43.3756 16.6982C43.4941 16.5698 43.6367 16.4661 43.7954 16.393C43.954 16.32 44.1256 16.2791 44.3002 16.2727H44.3194H44.5734V15.6223H40.2788V16.2727H40.5559C40.7292 16.2767 40.9001 16.3148 41.0587 16.3848C41.2173 16.4549 41.3606 16.5555 41.4803 16.6809C41.6 16.8064 41.6938 16.9542 41.7564 17.1159C41.819 17.2776 41.8491 17.45 41.845 17.6234V24.0498C41.845 26.1317 40.7598 27.4055 39.0628 27.4055C37.3657 27.4055 36.3306 26.0586 36.3306 24.0306V17.4656C36.3306 16.7498 36.7154 16.3342 37.5273 16.2842H37.7852V15.6223H32.9018V16.2727H33.1789C33.9716 16.3419 34.3757 16.7344 34.3757 17.4656Z" fill="white"/>
<path id="Vector_3" d="M40.1788 32.0505H40.4558C41.137 32.089 41.6526 32.366 41.6526 33.1395V37.1878H36.8231V33.1665C36.8231 32.3968 37.3388 32.1313 38.0238 32.0774H38.2816V31.4155H33.3944V32.0505H33.6715C34.3526 32.089 34.8683 32.366 34.8683 33.1395V42.5406C34.8683 43.3103 34.3526 43.595 33.6715 43.6297H33.3944V44.2723H38.2816V43.6297H38.0238C37.3388 43.5758 36.8231 43.3141 36.8231 42.5406V38.1806H41.6449V42.5676C41.6449 43.3372 41.1293 43.622 40.4481 43.6566H40.1711V44.2993H45.0583V43.6566H44.8004C44.1193 43.6027 43.6036 43.3411 43.6036 42.5676V33.1665C43.6036 32.3968 44.1193 32.1313 44.8004 32.0774H45.0583V31.4155H40.1788V32.0505Z" fill="white"/>
<path id="Vector_4" d="M44.5579 19.4014V20.0133H44.9427C45.5084 20.0518 45.8662 20.3288 45.8662 21.1023V26.7976C45.8662 27.5673 45.4814 27.8482 44.8503 27.8828H44.5771V28.5139H48.9448V27.9021H48.687C48.0597 27.8674 47.6749 27.5904 47.6749 26.8169V23.7807C47.7095 21.5679 48.6716 20.2403 49.7952 20.2403C50.6611 20.2403 51.2345 20.8291 51.2345 21.972V26.7976C51.2345 27.5673 50.8496 27.8482 50.2185 27.8828H49.9415V28.5139H54.313V27.9021H54.0552C53.4279 27.8674 53.0393 27.5904 53.0393 26.8169V21.7642C53.0393 20.325 52.1542 19.1244 50.3994 19.1244C49.7832 19.1196 49.1824 19.3174 48.6895 19.6873C48.1966 20.0571 47.8388 20.5786 47.671 21.1716V19.1628L44.5579 19.4014Z" fill="white"/>
<path id="Vector_5" d="M69.7829 28.7177C71.6454 28.7177 72.696 27.4439 73.1193 26.0239L72.3266 25.8046C71.9417 26.8013 71.3145 27.5748 70.0177 27.5748C68.5246 27.5748 67.5125 26.1548 67.5125 23.9036H73.2463V23.3494C73.2463 20.9713 71.8455 19.051 69.5944 19.051C67.1777 19.051 65.573 21.3599 65.573 23.8843C65.573 26.4088 67.1161 28.7177 69.7829 28.7177ZM69.579 20.1208C70.5949 20.1208 71.2375 21.0636 71.3145 22.9954H67.551C67.7357 21.206 68.4745 20.1208 69.579 20.1208Z" fill="white"/>
<path id="Vector_6" d="M60.7087 26.4628C60.7087 27.902 61.5784 28.7178 62.9599 28.7178C64.2491 28.7178 65.0995 27.775 65.4843 26.4089L64.807 26.2396C64.5492 27.0092 64.1259 27.4941 63.5333 27.4941C62.7637 27.4941 62.502 26.9284 62.502 26.2588V20.2864H65.0264V19.3282H62.502V16.4883H61.5823C61.2282 18.6279 60.143 19.4014 58.9963 19.6438V20.2864H60.6933L60.7087 26.4628Z" fill="white"/>
<path id="Vector_7" d="M56.8375 17.6772C57.16 17.6772 57.4693 17.5491 57.6974 17.321C57.9254 17.093 58.0536 16.7837 58.0536 16.4611C58.0536 16.1386 57.9254 15.8293 57.6974 15.6013C57.4693 15.3732 57.16 15.2451 56.8375 15.2451C56.6815 15.2461 56.5273 15.2779 56.3836 15.3386C56.24 15.3994 56.1097 15.4879 56.0003 15.5991C55.8909 15.7102 55.8045 15.8419 55.7461 15.9866C55.6877 16.1312 55.6585 16.2859 55.66 16.4419C55.6506 16.7584 55.7667 17.0658 55.9829 17.2972C56.1991 17.5286 56.498 17.6651 56.8144 17.6772H56.8375Z" fill="white"/>
<path id="Vector_8" d="M55.9909 21.118V26.7979C55.9909 27.5675 55.6061 27.8484 54.975 27.8831H54.6979V28.5142H59.0695V27.9023H58.8117C58.1844 27.8677 57.7957 27.5906 57.7957 26.8171V19.1631L54.6056 19.4017V20.0135H55.0674C55.6408 20.0482 55.9909 20.3445 55.9909 21.118Z" fill="white"/>
<path id="Vector_9" d="M77.9526 28.7178C78.5044 28.7426 79.0499 28.5917 79.5104 28.2867C79.971 27.9817 80.3229 27.5385 80.5154 27.0207V28.5292H83.594V27.9019H83.3362C82.7089 27.8673 82.3202 27.5902 82.3202 26.8168V15.3838L79.1878 15.6609V16.2727H79.5726C80.1383 16.2727 80.4962 16.5883 80.4962 17.3618V20.6827C80.2943 20.1754 79.9385 19.7441 79.4788 19.4493C79.0191 19.1546 78.4786 19.0113 77.9333 19.0396C75.5167 19.0396 74.1505 21.3485 74.1505 23.8729C74.1505 26.3973 75.5359 28.7178 77.9526 28.7178ZM78.2758 20.1209C79.6381 20.1209 80.527 21.5948 80.527 23.8921C80.527 26.1895 79.6381 27.6634 78.2758 27.6634C76.9867 27.6634 76.1362 26.2049 76.1362 23.8921C76.1362 21.5794 76.9751 20.1209 78.2758 20.1209Z" fill="white"/>
<path id="Vector_10" d="M105.402 34.8788C104.332 34.8788 103.408 35.583 103.004 36.8336V34.948L99.9257 35.1943V35.8023H100.311C100.876 35.8408 101.234 36.114 101.234 36.8914V42.5674C101.234 43.3371 100.849 43.618 100.218 43.6565L99.9411 43.6796V44.3068H104.313V43.6796H104.055C103.428 43.6411 103.039 43.3679 103.039 42.5905V39.4889C103.077 37.18 104.07 35.7485 105.29 35.7485C105.403 35.7393 105.516 35.756 105.622 35.7973C105.727 35.8387 105.822 35.9036 105.898 35.987C105.74 36.0689 105.608 36.1933 105.517 36.3464C105.426 36.4994 105.379 36.6748 105.382 36.8529C105.386 37.105 105.486 37.346 105.663 37.5264C105.839 37.7068 106.077 37.8128 106.329 37.8226C106.464 37.8188 106.597 37.7877 106.72 37.7314C106.843 37.6751 106.953 37.5947 107.045 37.4949C107.136 37.3951 107.206 37.278 107.251 37.1505C107.296 37.023 107.315 36.8878 107.307 36.7528C107.312 36.5026 107.266 36.2539 107.172 36.0221C107.078 35.7902 106.937 35.5801 106.759 35.4045C106.58 35.229 106.368 35.0918 106.135 35.0014C105.901 34.911 105.652 34.8693 105.402 34.8788Z" fill="white"/>
<path id="Vector_11" d="M111.339 34.8364C108.923 34.8364 107.318 37.1453 107.318 39.6659C107.318 42.1865 108.857 44.4992 111.524 44.4992C113.383 44.4992 114.437 43.2255 114.861 41.8055L114.068 41.5823C113.683 42.579 113.052 43.3525 111.759 43.3525C110.266 43.3525 109.25 41.9325 109.25 39.6813H114.991V39.131C114.995 36.7605 113.587 34.8364 111.339 34.8364ZM109.292 38.7654C109.481 36.976 110.216 35.8985 111.32 35.8985C112.332 35.8985 112.979 36.8413 113.052 38.777L109.292 38.7654Z" fill="white"/>
<path id="Vector_12" d="M98.3364 42.7907V37.9767C98.3364 36.0064 97.1011 34.8442 95.0192 34.8442C93.2298 34.8442 91.6444 36.0256 91.6444 37.3725C91.6421 37.5009 91.6651 37.6284 91.7122 37.7479C91.7592 37.8673 91.8293 37.9763 91.9184 38.0687C92.0076 38.1611 92.114 38.235 92.2318 38.2862C92.3495 38.3374 92.4761 38.365 92.6045 38.3673C92.7329 38.3695 92.8604 38.3465 92.9799 38.2995C93.0993 38.2525 93.2084 38.1824 93.3007 38.0932C93.3931 38.0041 93.467 37.8976 93.5182 37.7799C93.5694 37.6621 93.597 37.5355 93.5993 37.4071C93.5999 37.2315 93.554 37.0587 93.4661 36.9066C93.3782 36.7545 93.2515 36.6284 93.099 36.5413C93.2944 36.2963 93.5454 36.1015 93.8312 35.973C94.117 35.8445 94.4293 35.7861 94.7422 35.8024C95.8735 35.8024 96.5508 36.649 96.5508 38.0652V38.4885L93.8186 39.6198C91.9946 40.3895 91.3673 41.0398 91.3673 42.2366C91.3673 43.622 92.364 44.4993 93.9302 44.4993C94.4956 44.4975 95.0471 44.324 95.5117 44.0017C95.9763 43.6794 96.3319 43.2235 96.5316 42.6945V42.9716C96.5316 43.9144 97.1935 44.4801 98.3017 44.4801C98.6927 44.4839 99.082 44.4281 99.4562 44.3146V43.6989C98.6712 43.7874 98.3364 43.4911 98.3364 42.7907ZM96.5316 40.7089C96.4392 42.329 95.6273 43.4026 94.5036 43.4026C94.3211 43.4108 94.1389 43.3795 93.9696 43.3109C93.8003 43.2422 93.6477 43.1379 93.5224 43.0049C93.3971 42.8719 93.302 42.7135 93.2435 42.5404C93.1851 42.3673 93.1646 42.1836 93.1837 42.0019C93.1805 41.6343 93.2923 41.275 93.5034 40.9742C93.7146 40.6733 94.0145 40.446 94.3612 40.3241L96.5508 39.3466L96.5316 40.7089Z" fill="white"/>
<path id="Vector_13" d="M72.4497 42.0556C72.1881 42.8253 71.7686 43.3102 71.176 43.3102C70.4064 43.3102 70.1447 42.7445 70.1447 42.0749V36.0794H72.6691V35.1289H70.1447V32.2812H69.2211C68.8709 34.4208 67.7819 35.1943 66.639 35.4329V36.0794H68.336V42.2365C68.336 43.6757 69.2019 44.4877 70.5872 44.4877C71.8764 44.4877 72.7268 43.5449 73.1116 42.1788L72.4497 42.0556Z" fill="white"/>
<path id="Vector_14" d="M60.7588 42.7907V37.9767C60.7588 36.0064 59.5236 34.8442 57.4379 34.8442C55.6523 34.8442 54.0668 36.0256 54.0668 37.3725C54.0774 37.6213 54.1826 37.8567 54.3608 38.0307C54.5391 38.2046 54.777 38.3039 55.026 38.3083C55.2751 38.3127 55.5164 38.2219 55.7007 38.0544C55.885 37.887 55.9985 37.6554 56.0179 37.4071C56.0181 37.232 55.9724 37.0598 55.8853 36.9079C55.7982 36.7559 55.6727 36.6295 55.5214 36.5413C55.7158 36.2962 55.9661 36.1012 56.2513 35.9726C56.5365 35.8441 56.8484 35.7857 57.1608 35.8024C58.2921 35.8024 58.9694 36.649 58.9694 38.0652V38.4885L56.2372 39.6198C54.4132 40.3895 53.7859 41.0398 53.7859 42.2366C53.7859 43.622 54.7826 44.4993 56.3488 44.4993C56.9142 44.4975 57.4658 44.324 57.9303 44.0017C58.3949 43.6794 58.7505 43.2235 58.9502 42.6945V42.9716C58.9502 43.9144 59.6159 44.4801 60.7204 44.4801C61.1113 44.4839 61.5006 44.4281 61.8748 44.3146V43.6989C61.109 43.7874 60.7588 43.4911 60.7588 42.7907ZM58.9502 40.7089C58.8578 42.329 58.0459 43.4026 56.9222 43.4026C56.7397 43.4108 56.5575 43.3795 56.3882 43.3109C56.2189 43.2422 56.0664 43.1379 55.9411 43.0049C55.8158 42.8719 55.7206 42.7135 55.6622 42.5404C55.6037 42.3673 55.5833 42.1836 55.6023 42.0019C55.5988 41.6337 55.7109 41.2738 55.9229 40.9728C56.1348 40.6718 56.4359 40.4449 56.7837 40.3241L58.9694 39.3466L58.9502 40.7089Z" fill="white"/>
<path id="Vector_15" d="M87.7 43.3449C86.2069 43.3449 85.191 41.9249 85.191 39.6737C85.191 37.4225 86.1876 35.9333 87.6807 35.9333C87.9609 35.9141 88.2417 35.9605 88.5009 36.0687C88.76 36.1769 88.9904 36.344 89.1738 36.5567C89.0334 36.6501 88.9179 36.7764 88.8374 36.9246C88.757 37.0728 88.7139 37.2385 88.712 37.4071C88.7141 37.6657 88.8177 37.9132 89.0006 38.0961C89.1834 38.2789 89.4309 38.3826 89.6895 38.3846C89.8251 38.3823 89.9589 38.3524 90.0826 38.2966C90.2062 38.2409 90.3172 38.1605 90.4087 38.0603C90.5003 37.9602 90.5704 37.8424 90.6147 37.7142C90.6591 37.586 90.6769 37.4501 90.6669 37.3148C90.6669 36.2065 89.5625 34.8442 87.5884 34.8442C84.8408 34.8442 83.2515 37.1531 83.2515 39.6737C83.2515 42.1943 84.7907 44.507 87.4537 44.507C89.2816 44.507 90.3129 43.291 90.7208 41.9057L89.9242 41.6671C89.5779 42.606 88.9506 43.3449 87.7 43.3449Z" fill="white"/>
<path id="Vector_16" d="M65.4228 42.5866V31.1768L62.2866 31.4423V32.0503H62.6945C63.2602 32.0503 63.6142 32.3658 63.6142 33.1393V42.5674C63.6142 43.337 63.2294 43.6179 62.6021 43.6564L62.325 43.6757V44.2991H66.6966V43.6795H66.4349C65.8115 43.6372 65.4228 43.364 65.4228 42.5866Z" fill="white"/>
<path id="Vector_17" d="M81.5775 42.5866V37.5531C81.5775 36.1178 80.6924 34.9133 78.9377 34.9133C78.3209 34.9084 77.7196 35.106 77.2261 35.4758C76.7325 35.8456 76.3739 36.3672 76.2054 36.9605V31.1882L73.0769 31.4538V32.0502H73.4617C74.0274 32.0502 74.3853 32.3658 74.3853 33.1393V42.5673C74.3853 43.337 74.0004 43.6179 73.3693 43.6564L73.0923 43.6756V44.299H77.4638V43.6794H77.206C76.5787 43.641 76.1901 43.3677 76.1901 42.5904V39.5734C76.2285 37.3646 77.1867 36.0369 78.3104 36.0369C79.1801 36.0369 79.7496 36.6257 79.7496 37.7686V42.5981C79.7496 43.3677 79.3648 43.6487 78.7376 43.6871L78.4605 43.7064V44.3336H82.8282V43.6987H82.5704C81.9623 43.6371 81.5775 43.3639 81.5775 42.5866Z" fill="white"/>
<path id="Vector_18" d="M49.4375 34.8364C47.0209 34.8364 45.4162 37.1453 45.4162 39.6736C45.4162 42.2019 46.9554 44.5069 49.6222 44.5069C51.4848 44.5069 52.5353 43.2332 52.9586 41.8132L52.1659 41.59C51.7811 42.5867 51.15 43.3602 49.857 43.3602C48.3639 43.3602 47.3518 41.9402 47.3518 39.689H53.0856V39.1541C53.0856 36.7605 51.6849 34.8364 49.4375 34.8364ZM47.3903 38.7654C47.5788 36.976 48.31 35.8985 49.4144 35.8985C50.4265 35.8985 51.073 36.8413 51.1461 38.777L47.3903 38.7654Z" fill="white"/>
</g>
</svg>
