<svg width="126" height="26" viewBox="0 0 126 26" fill="none" xmlns="http://www.w3.org/2000/svg">
<path id="Vector" d="M125.281 22.8499C125.275 23.2766 125.143 23.692 124.902 24.0439C124.66 24.3958 124.32 24.6685 123.924 24.8277C123.528 24.9869 123.094 25.0254 122.676 24.9385C122.258 24.8516 121.875 24.6432 121.576 24.3393C121.276 24.0354 121.073 23.6498 120.992 23.2308C120.911 22.8118 120.955 22.3782 121.12 21.9845C121.285 21.5907 121.562 21.2545 121.917 21.018C122.273 20.7815 122.69 20.6553 123.117 20.6552C123.403 20.6552 123.687 20.7122 123.952 20.8228C124.217 20.9335 124.456 21.0956 124.658 21.2998C124.859 21.504 125.018 21.7462 125.125 22.0123C125.232 22.2784 125.285 22.5631 125.281 22.8499ZM121.433 22.8499C121.451 23.1868 121.566 23.5111 121.766 23.7831C121.965 24.0551 122.24 24.2628 122.556 24.3808C122.872 24.4988 123.216 24.5219 123.545 24.4473C123.874 24.3726 124.174 24.2035 124.408 23.9606C124.642 23.7178 124.8 23.4118 124.863 23.0804C124.926 22.7489 124.89 22.4063 124.761 22.0947C124.632 21.7831 124.414 21.5162 124.135 21.3266C123.856 21.137 123.528 21.033 123.19 21.0275C122.954 21.0279 122.72 21.0759 122.503 21.1684C122.286 21.261 122.089 21.3963 121.925 21.5663C121.761 21.7363 121.633 21.9375 121.549 22.158C121.464 22.3785 121.425 22.6138 121.433 22.8499ZM123.086 21.6681C123.662 21.6681 124.069 21.8369 124.069 22.3434C124.079 22.5015 124.039 22.6587 123.953 22.792C123.867 22.9252 123.741 23.0274 123.593 23.0836L123.731 23.3217C123.859 23.5461 124.003 23.7603 124.164 23.9623C124.199 23.997 124.13 24.0316 123.995 24.0316H123.861C123.727 24.0316 123.692 23.997 123.658 23.9623C123.54 23.8163 123.439 23.6581 123.355 23.4905L123.151 23.1182H122.848V23.984C122.848 24.0186 122.814 24.0532 122.714 24.0532H122.511C122.407 24.0532 122.376 24.0186 122.376 23.984V21.6508H123.082L123.086 21.6681ZM122.783 22.746H123.121C123.459 22.746 123.593 22.5772 123.593 22.378C123.593 22.0707 123.324 22.0404 123.086 22.0404H122.783V22.746ZM33.3097 6.59136C33.1309 6.5925 32.9598 6.66401 32.8334 6.7904C32.707 6.91679 32.6355 7.08789 32.6344 7.26664V21.1184C31.5938 21.3595 30.5296 21.4844 29.4615 21.4907C27.0634 21.4907 26.2193 20.6249 26.2193 18.0277V7.30127C26.2228 7.21456 26.2088 7.12804 26.1783 7.04681C26.1478 6.96559 26.1013 6.8913 26.0415 6.82835C25.9818 6.7654 25.9101 6.71506 25.8306 6.6803C25.7511 6.64555 25.6654 6.62708 25.5786 6.62599H21.9339V18.0364C21.9339 23.4083 24.7692 25.1267 29.3273 25.1267C31.8987 25.0775 34.4527 24.6919 36.9241 23.9796V6.62599H33.3097V6.59136ZM88.9547 24.893C89.1335 24.8919 89.3046 24.8203 89.431 24.694C89.5574 24.5676 89.6289 24.3965 89.63 24.2177V10.2707C90.6711 10.0329 91.735 9.90948 92.8029 9.90279C95.201 9.90279 96.0451 10.7685 96.0451 13.3657V24.1874C96.0416 24.2741 96.0556 24.3606 96.0861 24.4419C96.1166 24.5231 96.1631 24.5974 96.2228 24.6603C96.2825 24.7233 96.3543 24.7736 96.4338 24.8084C96.5133 24.8431 96.599 24.8616 96.6857 24.8627H100.33V13.3268C100.33 7.95922 97.4952 6.23641 92.9371 6.23641C90.3658 6.288 87.8122 6.67359 85.3403 7.38351V24.8757L88.9547 24.893ZM74.4364 6.2797C69.7095 6.2797 66.7357 8.8466 66.7357 14.3137V17.0494C66.7357 23.1096 69.9432 25.0878 73.4538 25.0878C75.0101 24.9943 76.4665 24.2895 77.5054 23.1269V24.274C77.5108 24.4433 77.5805 24.6043 77.7003 24.7241C77.8201 24.8439 77.981 24.9135 78.1504 24.919H81.7951V7.37052C79.4015 6.68277 76.9266 6.31881 74.4364 6.28836M77.5054 20.4345C76.7306 21.1097 76.0899 21.5166 74.4364 21.5816C72.0383 21.5816 71.0254 20.1314 71.0254 16.9932V14.4609C71.0254 10.8811 72.324 9.90279 74.4364 9.90279C75.4632 9.88056 76.49 9.94719 77.5054 10.1019V20.4345ZM111.035 6.28836C106.308 6.28836 103.335 8.85526 103.335 14.3224V17.0581C103.335 23.1182 106.542 25.0964 110.057 25.0964C111.613 25.0011 113.069 24.2966 114.109 23.1355V24.2826C114.113 24.4516 114.182 24.6125 114.301 24.7324C114.42 24.8523 114.58 24.9222 114.749 24.9276H118.394V7.37052C116.002 6.6751 113.526 6.31098 111.035 6.28836ZM114.109 20.4345C113.329 21.1097 112.689 21.5166 111.035 21.5816C108.637 21.5816 107.624 20.1314 107.624 16.9932V14.4609C107.624 10.8811 108.923 9.90279 111.035 9.90279C112.064 9.88068 113.092 9.9473 114.109 10.1019V20.4345ZM0.355469 24.893H4.20799C4.37812 24.8898 4.54059 24.8217 4.66212 24.7026C4.78364 24.5835 4.85502 24.4224 4.86162 24.2523V14.1233H11.939C12.465 14.1125 12.9745 14.3072 13.3592 14.6661C13.744 15.025 13.9736 15.5197 13.9994 16.0452V24.2177C14.0049 24.3859 14.0741 24.5457 14.1931 24.6647C14.3121 24.7837 14.4719 24.8529 14.6401 24.8584H18.4883V0.816913H14.6401C14.475 0.815653 14.3159 0.878617 14.1963 0.992505C14.0768 1.10639 14.0062 1.26229 13.9994 1.42726V10.4742H6.59309C6.1322 10.4731 5.69018 10.291 5.36227 9.96714C5.03435 9.64327 4.84678 9.20355 4.83997 8.74271V1.42726C4.82818 1.26408 4.75602 1.11116 4.63757 0.99831C4.51912 0.885464 4.36288 0.820793 4.19933 0.816913H0.355469V24.893ZM57.2385 6.28836C55.5318 6.29902 53.8608 6.77817 52.4077 7.67353C51.1091 6.69525 49.3041 6.28836 47.0748 6.28836C44.8261 6.30752 42.598 6.71915 40.4909 7.50471V24.9276H44.1357C44.2224 24.9265 44.3081 24.9081 44.3876 24.8733C44.4671 24.8385 44.5388 24.7882 44.5986 24.7253C44.6583 24.6623 44.7048 24.588 44.7353 24.5068C44.7658 24.4256 44.7798 24.339 44.7763 24.2523V10.2404C45.4591 10.0508 46.1629 9.94756 46.8714 9.9331C49.369 9.9331 49.9794 10.946 49.9794 13.396V24.2177C49.977 24.3916 50.0426 24.5595 50.1623 24.6857C50.282 24.8118 50.4462 24.8862 50.62 24.893H53.6241C53.7118 24.8951 53.7989 24.8787 53.8799 24.8451C53.9609 24.8114 54.0339 24.7611 54.0943 24.6975C54.1546 24.6339 54.201 24.5583 54.2303 24.4757C54.2597 24.393 54.2714 24.3052 54.2648 24.2177V10.7772C54.9729 10.2098 55.855 9.90408 56.7624 9.91145C58.6887 9.91145 59.4981 10.7772 59.4981 13.1536V24.2307C59.494 24.3176 59.5075 24.4043 59.5379 24.4858C59.5682 24.5673 59.6146 24.6418 59.6745 24.7049C59.7343 24.768 59.8063 24.8183 59.8861 24.8529C59.9659 24.8874 60.0518 24.9055 60.1388 24.906H63.7316V12.6039C63.7662 7.87698 60.8616 6.28836 57.2169 6.28836" fill="white"/>
</svg>
