<svg width="83" height="42" viewBox="0 0 83 42" fill="none" xmlns="http://www.w3.org/2000/svg">
<g id="rs-magellan">
<g id="surface1">
<path id="Vector" d="M53.2376 22.8463C53.2376 22.8463 52.6764 22.4213 52.6764 20.9392V7.57056H55.0657V18.8496C55.0657 20.19 54.8804 21.9309 55.883 22.8463H53.2485" fill="white"/>
<path id="Vector_2" d="M48.9932 22.8463C48.9932 22.8463 48.4319 22.4076 48.4319 20.9392V7.57056H50.8212V18.8496C50.8212 20.19 50.636 21.9309 51.6386 22.8463H49.0041" fill="white"/>
<path id="Vector_3" d="M24.4871 22.454C24.3031 22.5843 24.1047 22.6931 23.8959 22.7782C23.6792 22.8675 23.4561 22.9403 23.2284 22.9961C22.9981 23.053 22.7642 23.094 22.5282 23.1187C22.3074 23.1409 22.0855 23.1518 21.8635 23.1514C21.3909 23.1525 20.9201 23.092 20.4631 22.9716C20.0306 22.8603 19.6224 22.67 19.259 22.4104C18.9084 22.1532 18.6199 21.8209 18.4144 21.4378C18.1907 21.0076 18.0801 20.5276 18.0929 20.0429C18.0787 19.4756 18.194 18.9126 18.43 18.3966C18.6661 17.8806 19.0166 17.4252 19.4551 17.0651C19.8793 16.7165 20.3655 16.4513 20.8881 16.2832C21.4339 16.1025 22.0051 16.0105 22.58 16.0108C22.8434 16.0108 23.1158 16.0189 23.3973 16.0353C23.6698 16.0543 23.9422 16.0816 24.2146 16.117V15.7356C24.2217 15.4597 24.1877 15.1842 24.1138 14.9183C24.0599 14.7221 23.9512 14.5454 23.8005 14.4088C23.6447 14.2736 23.4573 14.1799 23.2556 14.1364C22.9865 14.0832 22.7126 14.0585 22.4383 14.0628C21.8978 14.0542 21.3575 14.0898 20.8228 14.1691C20.2167 14.2759 19.6401 14.5099 19.1309 14.8556V13.0166C19.6844 12.634 20.3132 12.3739 20.9753 12.2538C21.5824 12.1409 22.2 12.0952 22.817 12.1176C23.2961 12.1145 23.7729 12.1843 24.231 12.3246C24.6593 12.4568 25.058 12.6705 25.4052 12.954C25.7444 13.2338 26.017 13.5856 26.2034 13.9838C26.4072 14.4325 26.5068 14.9215 26.495 15.4141C26.495 16.2296 26.4877 17.0469 26.4732 17.8661C26.4732 18.6834 26.4514 19.5007 26.4514 20.318C26.4499 20.756 26.4974 21.1928 26.593 21.6203C26.6697 22.0857 26.8809 22.5185 27.2006 22.8653H24.7922L24.4871 22.454ZM22.7026 17.9532C22.4106 17.9515 22.1199 17.9909 21.839 18.0704C21.5787 18.1425 21.3345 18.2636 21.1197 18.4273C20.9116 18.5889 20.7429 18.7957 20.6266 19.0321C20.4999 19.2972 20.4374 19.5884 20.4441 19.8821C20.4355 20.1033 20.4843 20.3229 20.5857 20.5196C20.6767 20.6862 20.8067 20.8283 20.9644 20.9337C21.1298 21.044 21.3148 21.1217 21.5093 21.1626C21.7143 21.2141 21.9246 21.2415 22.1359 21.2443C22.5064 21.2372 22.8737 21.1747 23.2257 21.0591C23.5833 20.9505 23.9126 20.7644 24.1901 20.5142L24.2119 18.0295C23.9633 17.9987 23.7132 17.9805 23.4627 17.975C23.2084 17.9641 22.9551 17.9587 22.7026 17.9587" fill="white"/>
<path id="Vector_4" d="M62.7651 22.4541C62.584 22.583 62.3894 22.6917 62.1848 22.7783C61.9684 22.8684 61.7452 22.9413 61.5173 22.9962C61.288 23.0534 61.0549 23.0943 60.8199 23.1188C60.5945 23.1424 60.3681 23.1542 60.1415 23.1543C59.6689 23.1553 59.1981 23.0949 58.7411 22.9744C58.3084 22.8637 57.9001 22.6733 57.537 22.4132C57.1637 22.1441 56.8622 21.7876 56.6589 21.3748C56.4556 20.962 56.3567 20.5056 56.3709 20.0457C56.3573 19.4786 56.4729 18.9157 56.7089 18.3999C56.9449 17.884 57.2951 17.4285 57.7331 17.0679C58.1575 16.7198 58.6437 16.4545 59.1661 16.286C59.712 16.1056 60.2831 16.0136 60.858 16.0136C61.1304 16.0136 61.4029 16.0136 61.6753 16.0381C61.9478 16.0626 62.2202 16.0844 62.4926 16.1199V15.7357C62.4997 15.4598 62.4657 15.1843 62.3918 14.9184C62.3379 14.7223 62.2292 14.5455 62.0785 14.4089C61.9188 14.2717 61.7265 14.1778 61.52 14.1365C61.2509 14.0835 60.977 14.0588 60.7027 14.0629C60.1613 14.0544 59.6201 14.09 59.0844 14.1692C58.4791 14.2757 57.9033 14.5097 57.3953 14.8557V13.0168C57.9519 12.6359 58.5836 12.3786 59.2479 12.2621C59.8549 12.1492 60.4725 12.1035 61.0896 12.1259C61.5687 12.123 62.0454 12.1928 62.5035 12.3329C62.9303 12.4629 63.328 12.6738 63.675 12.9541C64.0134 13.234 64.2852 13.5858 64.4706 13.9839C64.6752 14.4324 64.7758 14.9214 64.7648 15.4142C64.7648 16.2316 64.7648 17.0489 64.7457 17.8662C64.7266 18.6835 64.7239 19.5008 64.7239 20.3182C64.7211 20.7562 64.7687 21.1932 64.8656 21.6204C64.965 22.0425 65.0896 22.4583 65.2388 22.8655H63.0593L62.7651 22.4541ZM60.9779 17.9534C60.6877 17.9514 60.3987 17.9909 60.1197 18.0705C59.8583 18.142 59.6132 18.2632 59.3977 18.4274C59.1928 18.5894 59.0278 18.7964 58.9155 19.0322C58.7874 19.2979 58.7239 19.5901 58.7302 19.885C58.7225 20.1064 58.7723 20.326 58.8746 20.5225C58.9646 20.6889 59.0936 20.831 59.2506 20.9366C59.4165 21.0459 59.6013 21.1235 59.7955 21.1654C60.0002 21.2118 60.2095 21.2347 60.4194 21.2336C60.7938 21.2313 61.1658 21.1725 61.5228 21.0592C61.8812 20.9506 62.2113 20.7646 62.4899 20.5143L62.5117 18.0297C62.2638 17.9942 62.0159 17.9724 61.7598 17.9616C61.5037 17.9507 61.2503 17.9452 60.9969 17.9452" fill="white"/>
<path id="Vector_5" d="M13.892 7.55957C11.8677 10.2513 10.1023 14.1608 9.47572 17.2857C9.00168 14.3215 7.24444 10.2513 5.21748 7.55957H2.22064V22.8435H4.69985V11.0931C5.80323 12.883 7.19267 16.1632 8.15439 20.5005H10.7753C11.6661 16.5855 13.2545 12.8504 14.3469 11.0931V22.8435H16.8752V7.55957H13.8784" fill="white"/>
<path id="Vector_6" d="M36.8478 22.4811C36.2729 21.9989 35.2268 21.6856 34.9162 21.5848H34.8971C33.9 21.2661 31.6278 20.7212 31.1701 20.6122C31.3618 20.3698 31.5674 20.1388 31.7858 19.9202H31.8076C32.0726 19.9509 32.3392 19.9654 32.6059 19.9638C35.0905 19.9638 36.826 18.4109 36.826 16.1823C36.8369 15.5488 36.6749 14.9243 36.3574 14.376L37.6242 14.1526V11.9404C36.0958 12.4417 34.6819 12.2755 32.7503 12.1257C31.8648 12.0576 29.481 12.1257 28.3912 14.2425C28.09 14.8436 27.935 15.5073 27.939 16.1796C27.939 17.5963 28.6092 18.7542 29.7507 19.3399H29.7779C29.0897 20.1785 28.4745 21.0745 27.939 22.018L32.6495 23.2603C33.9681 23.6499 35.5564 24.0123 35.5564 25.102C35.5564 25.8676 34.8916 26.8538 33.0363 26.8538C30.9821 26.8538 30.5844 25.7967 30.5844 25.2192C30.5832 25.0259 30.6232 24.8346 30.7016 24.658C30.7801 24.4814 30.8952 24.3235 31.0393 24.1948L28.5683 23.5355C28.3145 24.1196 28.2006 24.7549 28.2359 25.3908C28.248 25.8637 28.3661 26.3278 28.5816 26.7489C28.7971 27.17 29.1045 27.5373 29.481 27.8237C30.3446 28.4857 31.4289 28.7881 32.9192 28.7881C36.3465 28.7881 37.9103 26.7721 37.9103 24.9004C37.9264 24.439 37.8365 23.98 37.6476 23.5588C37.4587 23.1375 37.1758 22.7651 36.8205 22.4702M32.4152 14.0246C34.295 14.0246 34.4721 15.6075 34.483 16.0924C34.4967 16.3726 34.4516 16.6526 34.3507 16.9144C34.2499 17.1762 34.0954 17.414 33.8972 17.6126C33.4813 17.9538 32.9522 18.126 32.4152 18.0949C30.8241 18.0949 30.2602 17.0596 30.2602 16.087C30.2602 14.8528 31.1265 14.0246 32.4152 14.0246Z" fill="white"/>
<path id="Vector_7" d="M72.5374 16.2558C72.5374 14.2943 71.8236 13.8747 70.3579 14.109C69.8036 14.1944 69.2693 14.379 68.7805 14.6539V22.8271H66.4756V14.515C66.4756 13.2726 66.0833 12.4771 65.879 12.2101H68.2301L68.5026 12.7305C69.4443 12.3688 70.4395 12.1663 71.4476 12.1311C73.7934 12.1311 74.845 13.5805 74.845 16.4901V22.8462H72.5374V16.2558Z" fill="white"/>
<path id="Vector_8" d="M46.928 18.6834C46.9919 18.2714 47.0256 17.8552 47.0288 17.4383C47.0288 13.8557 45.4732 12.1257 42.6943 12.1257C39.8555 12.1257 38.1337 14.1173 38.1337 17.4601C38.1337 21.0917 40.0217 23.1514 43.3863 23.1514C44.497 23.1248 45.5889 22.8591 46.5875 22.3722V20.427C45.7578 20.8317 44.8535 21.0608 43.9312 21.0999C42.5254 21.0999 41.0025 20.9092 40.7355 18.6834H46.928ZM42.6752 14.0764C43.9612 14.0764 44.6641 14.9264 44.6641 16.7736V16.8853H40.602C40.602 14.9973 41.3675 14.0846 42.6752 14.0846" fill="white"/>
<g id="Clip path group">
<mask id="mask0_174_368" style="mask-type:luminance" maskUnits="userSpaceOnUse" x="39" y="25" width="6" height="9">
<g id="clip-path">
<path id="Vector_9" d="M44.9256 25.3418H39.2752V33.94H44.9256V25.3418Z" fill="white"/>
</g>
</mask>
<g mask="url(#mask0_174_368)">
<g id="Group">
<path id="Vector_10" d="M40.1333 33.8992C39.6401 33.8992 39.3868 33.6595 39.3868 33.1773V26.0775C39.3868 25.5953 39.6401 25.3528 40.1333 25.3528H40.7572V28.9272H43.4434V26.0775C43.4434 25.5953 43.6913 25.3528 44.1844 25.3528H44.8274V33.8992H44.1844C43.6913 33.8992 43.4434 33.6595 43.4434 33.1773V30.3139H40.7572V33.8992H40.1333Z" fill="white"/>
</g>
</g>
</g>
<g id="Clip path group_2">
<mask id="mask1_174_368" style="mask-type:luminance" maskUnits="userSpaceOnUse" x="46" y="25" width="6" height="9">
<g id="clip-path-2">
<path id="Vector_11" d="M51.4069 25.3418H46.4213V33.94H51.4069V25.3418Z" fill="white"/>
</g>
</mask>
<g mask="url(#mask1_174_368)">
<g id="Group_2">
<path id="Vector_12" d="M47.9497 31.954C47.9406 32.0339 47.9515 32.1149 47.9814 32.1896C48.0114 32.2642 48.0595 32.3303 48.1213 32.3817C48.1638 32.4275 48.2159 32.4635 48.2738 32.487C48.3317 32.5105 48.394 32.5211 48.4564 32.518H50.6359C50.7339 32.5027 50.834 32.5105 50.9284 32.5407C51.0228 32.5709 51.1089 32.6227 51.1798 32.692C51.2507 32.7613 51.3044 32.8462 51.3367 32.9398C51.3691 33.0335 51.3791 33.1335 51.3661 33.2317V33.8992H48.4455C48.1913 33.908 47.9381 33.8631 47.7024 33.7673C47.4667 33.6716 47.2538 33.5272 47.0777 33.3437C46.9016 33.1601 46.7662 32.9415 46.6803 32.702C46.5944 32.4625 46.56 32.2077 46.5793 31.954V27.3007C46.5635 27.0211 46.6111 26.7416 46.7187 26.483C46.8263 26.2244 46.991 25.9936 47.2005 25.8078C47.5417 25.5035 47.9857 25.3399 48.4428 25.3501H51.377V26.023C51.3917 26.1223 51.3829 26.2236 51.3514 26.3189C51.3199 26.4142 51.2666 26.5008 51.1956 26.5717C51.1246 26.6427 51.038 26.6961 50.9427 26.7276C50.8475 26.7591 50.7461 26.7678 50.6468 26.7531H48.4673C48.3968 26.7508 48.3267 26.7636 48.2615 26.7907C48.1964 26.8178 48.1379 26.8585 48.0899 26.9101C48.0418 26.9618 48.0054 27.0231 47.9831 27.09C47.9608 27.157 47.9531 27.2279 47.9606 27.298V28.9326H51.3906V29.6056C51.4037 29.7038 51.3936 29.8038 51.3613 29.8975C51.3289 29.9912 51.2752 30.076 51.2043 30.1453C51.1334 30.2146 51.0474 30.2664 50.953 30.2966C50.8586 30.3268 50.7584 30.3346 50.6605 30.3194H47.9606V31.954" fill="white"/>
</g>
</g>
</g>
<g id="Clip path group_3">
<mask id="mask2_174_368" style="mask-type:luminance" maskUnits="userSpaceOnUse" x="52" y="25" width="7" height="9">
<g id="clip-path-3">
<path id="Vector_13" d="M58.8854 25.1755H52.2379V33.9399H58.8854V25.1755Z" fill="white"/>
</g>
</mask>
<g mask="url(#mask2_174_368)">
<g id="Group_3">
<path id="Vector_14" d="M56.4089 30.3302L55.4908 27.0609L54.5727 30.3302H56.4089ZM56.6051 25.9848L58.8582 33.8992H58.0082C57.8418 33.8996 57.6793 33.8492 57.5423 33.7548C57.4073 33.6683 57.3099 33.534 57.2698 33.3788L56.804 31.7115H54.1695L53.5592 33.891H52.7882C52.6978 33.8972 52.6076 33.8764 52.5291 33.8313C52.4505 33.7862 52.3871 33.7188 52.3469 33.6376C52.2841 33.4987 52.2753 33.3413 52.3223 33.1963L54.382 25.9766C54.5046 25.5489 54.8615 25.3309 55.4881 25.3309C55.7225 25.3244 55.9553 25.371 56.1692 25.4671C56.2732 25.5167 56.3656 25.5877 56.4403 25.6755C56.5149 25.7633 56.5702 25.8659 56.6024 25.9766" fill="white"/>
</g>
</g>
</g>
<g id="Clip path group_4">
<mask id="mask3_174_368" style="mask-type:luminance" maskUnits="userSpaceOnUse" x="59" y="25" width="6" height="9">
<g id="clip-path-4">
<path id="Vector_15" d="M64.0373 25.3418H59.7164V33.94H64.0373V25.3418Z" fill="white"/>
</g>
</mask>
<g mask="url(#mask3_174_368)">
<g id="Group_4">
<path id="Vector_16" d="M61.2067 32.142C61.2067 32.3872 61.3266 32.5071 61.5827 32.5071H63.2963C63.7894 32.5071 64.0292 32.7523 64.0292 33.2209V33.8883H61.5146C61.289 33.9067 61.062 33.8796 60.8472 33.8084C60.6324 33.7373 60.434 33.6236 60.2641 33.4742C60.113 33.3082 59.9972 33.1131 59.9236 32.901C59.8501 32.6889 59.8204 32.464 59.8363 32.2401V26.0747C59.8363 25.5953 60.0897 25.3528 60.5828 25.3528H61.2067V32.1638" fill="white"/>
</g>
</g>
</g>
<g id="Clip path group_5">
<mask id="mask4_174_368" style="mask-type:luminance" maskUnits="userSpaceOnUse" x="63" y="25" width="6" height="9">
<g id="clip-path-5">
<path id="Vector_17" d="M68.3581 25.3418H63.3724V33.94H68.3581V25.3418Z" fill="white"/>
</g>
</mask>
<g mask="url(#mask4_174_368)">
<g id="Group_5">
<path id="Vector_18" d="M63.4676 26.0774C63.4538 25.9782 63.4632 25.8773 63.4953 25.7824C63.5274 25.6876 63.5811 25.6016 63.6523 25.5312C63.7235 25.4609 63.8101 25.4081 63.9052 25.3771C64.0004 25.3461 64.1015 25.3377 64.2005 25.3527H68.268V26.0229C68.2814 26.1231 68.2713 26.2251 68.2385 26.3208C68.2056 26.4165 68.151 26.5032 68.0788 26.574C68.0066 26.6449 67.9189 26.6979 67.8227 26.729C67.7264 26.7601 67.6242 26.7683 67.5242 26.753H66.5435V33.8991H65.9032C65.8052 33.9127 65.7054 33.9034 65.6117 33.8719C65.5179 33.8404 65.4327 33.7876 65.3627 33.7176C65.2928 33.6477 65.24 33.5625 65.2085 33.4687C65.177 33.3749 65.1677 33.2751 65.1813 33.1772V26.753H63.4649V26.0774" fill="white"/>
</g>
</g>
</g>
<g id="Clip path group_6">
<mask id="mask5_174_368" style="mask-type:luminance" maskUnits="userSpaceOnUse" x="69" y="25" width="7" height="9">
<g id="clip-path-6">
<path id="Vector_19" d="M75.0058 25.3418H69.3553V33.94H75.0058V25.3418Z" fill="white"/>
</g>
</mask>
<g mask="url(#mask5_174_368)">
<g id="Group_6">
<path id="Vector_20" d="M70.1425 33.8991C69.6548 33.8991 69.4015 33.6594 69.4015 33.1771V26.0773C69.3891 25.9778 69.3998 25.8767 69.433 25.782C69.4661 25.6873 69.5206 25.6015 69.5924 25.5313C69.6641 25.4612 69.7511 25.4085 69.8465 25.3775C69.9419 25.3465 70.0432 25.338 70.1425 25.3527H70.7719V28.9271H73.4581V26.0773C73.4581 25.5951 73.7088 25.3527 74.2019 25.3527H74.8421V33.8991H74.2019C73.7088 33.8991 73.4581 33.6594 73.4581 33.1771V30.3138H70.7719V33.8991H70.1425Z" fill="white"/>
</g>
</g>
</g>
<g id="Clip path group_7">
<mask id="mask6_174_368" style="mask-type:luminance" maskUnits="userSpaceOnUse" x="76" y="31" width="3" height="3">
<g id="clip-path-7">
<path id="Vector_21" d="M78.1633 31.4905H76.1691V33.9397H78.1633V31.4905Z" fill="white"/>
</g>
</mask>
<g mask="url(#mask6_174_368)">
<g id="Group_7">
<path id="Vector_22" d="M76.2452 33.1497L76.534 33.1252C76.5437 33.2223 76.5764 33.3157 76.6294 33.3976C76.6868 33.4789 76.7662 33.5422 76.8582 33.5802C77.0698 33.665 77.3048 33.6708 77.5203 33.5965C77.599 33.5685 77.6681 33.5183 77.7191 33.4521C77.7616 33.3945 77.7845 33.3248 77.7845 33.2533C77.786 33.1844 77.7639 33.1171 77.7219 33.0625C77.6677 32.9972 77.5958 32.9489 77.5148 32.9236C77.3806 32.8785 77.2442 32.8403 77.1062 32.8092C76.9519 32.7794 76.8019 32.7309 76.6594 32.6648C76.5603 32.6155 76.4758 32.5414 76.4142 32.4496C76.3599 32.3621 76.3316 32.261 76.3324 32.158C76.3336 32.0362 76.3714 31.9176 76.4409 31.8175C76.5103 31.7174 76.6083 31.6405 76.722 31.5968C76.8561 31.5427 76.9997 31.5159 77.1443 31.5178C77.2981 31.5147 77.451 31.5425 77.5938 31.5995C77.7176 31.6494 77.8231 31.7359 77.8962 31.8475C77.9677 31.9561 78.0073 32.0826 78.0107 32.2125L77.7164 32.2343C77.714 32.1711 77.6988 32.109 77.6716 32.0519C77.6445 31.9947 77.6059 31.9437 77.5584 31.902C77.4418 31.8172 77.2989 31.7766 77.1552 31.7875C77.0139 31.7764 76.8729 31.8128 76.7547 31.8911C76.7153 31.9194 76.6832 31.9566 76.661 31.9997C76.6387 32.0428 76.627 32.0905 76.6267 32.139C76.6264 32.1775 76.6342 32.2156 76.6497 32.2508C76.6652 32.286 76.688 32.3175 76.7166 32.3433C76.8572 32.4292 77.0139 32.4858 77.177 32.5095C77.351 32.5439 77.5215 32.594 77.6864 32.6593C77.8054 32.7095 77.9082 32.7915 77.9834 32.8964C78.0487 32.9937 78.082 33.1089 78.0788 33.226C78.0785 33.3506 78.0425 33.4726 77.9752 33.5775C77.9004 33.6895 77.7956 33.7782 77.6728 33.8336C77.5331 33.8958 77.3817 33.9274 77.2288 33.9262C77.0491 33.9307 76.8703 33.8992 76.7029 33.8336C76.5682 33.7767 76.4527 33.6821 76.3706 33.5611C76.2901 33.4359 76.2467 33.2904 76.2452 33.1416" fill="white"/>
</g>
</g>
</g>
<g id="Clip path group_8">
<mask id="mask7_174_368" style="mask-type:luminance" maskUnits="userSpaceOnUse" x="78" y="31" width="3" height="3">
<g id="clip-path-8">
<path id="Vector_23" d="M80.6833 31.4905H78.3295V33.9397H80.6833V31.4905Z" fill="white"/>
</g>
</mask>
<g mask="url(#mask7_174_368)">
<g id="Group_8">
<path id="Vector_24" d="M78.4875 33.8992V31.5698H78.9452L79.4901 33.2208C79.5418 33.3734 79.5773 33.4933 79.5991 33.5641L79.7217 33.1908L80.2665 31.5698H80.6752V33.8992H80.381V31.9485L79.7135 33.8992H79.441L78.7736 31.9185V33.8992H78.4821" fill="white"/>
</g>
</g>
</g>
</g>
</g>
</svg>
