<svg width="130" height="65" viewBox="0 0 130 65" fill="none" xmlns="http://www.w3.org/2000/svg">
<g id="rs-anthem">
<path id="Fill-4" d="M87.7565 36.6091H81.774V34.9219C81.7481 34.445 81.8165 33.9676 81.9753 33.5171C82.134 33.0666 82.3801 32.6518 82.6994 32.2965C83.2491 31.7607 83.9891 31.4651 84.7566 31.4745C86.6762 31.4745 87.7694 32.7054 87.7694 34.9176C87.7565 34.9219 87.7565 36.2002 87.7565 36.6091ZM89.9515 32.1244C88.6603 30.9925 86.8871 30.4028 84.7868 30.4028C83.819 30.4199 82.8653 30.6376 81.986 31.0421C81.1067 31.4466 80.3208 32.0291 79.6781 32.7528C78.1675 34.4405 77.3458 36.6339 77.3755 38.8987C77.3549 40.0056 77.5543 41.1055 77.9622 42.1346C78.37 43.1638 78.9781 44.1017 79.7512 44.8941C80.4724 45.6229 81.3321 46.2001 82.2796 46.5918C83.2272 46.9836 84.2435 47.1819 85.2688 47.1751C86.8951 47.2022 88.4747 46.6311 89.7076 45.5703C90.9406 44.5095 91.7411 43.0329 91.9571 41.4208L91.9786 41.2745H90.7348V41.3864C90.5821 42.6523 89.9736 43.8193 89.0231 44.6692C88.0726 45.5191 86.8451 45.9938 85.5701 46.0045C83.19 46.0045 81.8257 44.3776 81.8128 41.5456V37.7883H92.2411V37.6549C92.1378 35.2404 91.376 33.3811 89.9515 32.1244Z" fill="white"/>
<path id="Fill-6" d="M57.2634 43.5428H56.097L56.0712 43.6418C55.9335 44.3777 55.4687 45.6216 53.9666 45.6087C52.7959 45.6087 52.1934 44.7866 52.1934 43.1727V31.9266H56.0669V30.8334H52.2364V25.97H52.103C51.2035 26.069 49.37 26.2067 48.406 26.2067H48.2855V30.8334H45.7375V31.9395H48.3199V41.7481C48.3199 45.3547 49.8693 47.1796 52.9121 47.1796C56.4112 47.1796 57.1343 44.5198 57.2849 43.7063L57.3064 43.56" fill="white"/>
<path id="Fill-7" d="M13.6348 26.5466L17.3275 37.0998H10.1874L13.6348 26.5466ZM43.3876 45.6215V35.6709C43.4153 34.9698 43.302 34.2703 43.0543 33.6138C42.8066 32.9573 42.4297 32.3572 41.9458 31.849C41.433 31.3642 40.8295 30.9854 40.17 30.7343C39.5105 30.4832 38.8079 30.3647 38.1025 30.3857C37.1307 30.3581 36.167 30.5693 35.2958 31.0008C34.4247 31.4322 33.6726 32.0708 33.1056 32.8605L33.0669 30.9883V30.8678H26.8004V31.948H29.2666V45.6215H24.8637L15.8255 19.7121L15.7997 19.626H14.7065L5.85335 45.6215H3.36569V46.7061H10.7598V45.6215H7.35971L9.80863 38.2231H17.6848L20.1724 45.6215H16.7293V46.7061H35.5675V45.6215H33.1056V38.0251C33.1142 33.4931 35.5287 31.849 37.1556 31.849C38.7825 31.849 39.5313 32.8734 39.5313 34.8618V45.6215H37.2288V46.7061H45.8882V45.6215H43.3876Z" fill="white"/>
<path id="Fill-8" d="M74.3327 45.6214V35.5115C74.3327 33.1487 72.8909 30.4028 68.8667 30.4028C65.7378 30.4028 64.1324 31.9177 63.4223 32.7054V19.699H57.1429V20.8309H59.4928V45.6214H56.9578V46.7059H65.8497V45.6214H63.4223V37.926C63.4223 35.2662 64.3347 33.7985 65.0965 33.0368C65.4424 32.6799 65.8555 32.395 66.312 32.1985C66.7685 32.002 67.2593 31.8978 67.7563 31.8919C69.9083 31.8919 70.3688 33.6651 70.3817 35.1543V45.6214H67.9543V46.7059H76.8461V45.6214H74.3327Z" fill="white"/>
<path id="Fill-9" d="M121.37 45.6214H118.96V34.8961C118.96 32.1114 117.053 30.3899 113.997 30.3899C111.105 30.3899 109.53 31.8317 108.803 32.7914C108.002 31.2162 106.435 30.377 104.283 30.3899C103.325 30.3621 102.371 30.5336 101.482 30.8937C100.593 31.2538 99.788 31.7944 99.1187 32.4816L99.08 30.9537V30.8332H92.7059V31.9178H95.3184V45.6214H92.7361V46.7059H101.43V45.6214H99.2134V38.0508C99.2866 35.8429 99.3856 34.4269 100.173 33.3466C100.501 32.9046 100.926 32.5428 101.414 32.2886C101.902 32.0344 102.442 31.8943 102.992 31.879C103.37 31.8659 103.743 31.9625 104.067 32.1573C104.391 32.3521 104.652 32.6367 104.817 32.9765C105.149 33.6049 105.149 34.6981 105.149 35.7353V45.6214H102.863V46.7059H111.385V45.6214H109.155V38.0508C109.229 35.8429 109.328 34.4269 110.115 33.3466C110.444 32.9048 110.868 32.5432 111.356 32.289C111.844 32.0348 112.384 31.8946 112.934 31.879C113.312 31.8653 113.686 31.9618 114.01 32.1566C114.334 32.3515 114.594 32.6363 114.759 32.9765C115.091 33.6049 115.091 34.6981 115.091 35.7353V45.6214H112.762V46.7059H121.499V45.6214H121.37Z" fill="white"/>
<path id="Fill-10" d="M124.43 44.4895C124.748 44.4895 125.205 44.5368 125.205 44.1064C125.205 43.7879 124.934 43.7363 124.649 43.7363H124.008V44.4895H124.43ZM124.021 45.7806H123.728V43.4695H124.723C125.33 43.4695 125.536 43.6933 125.536 44.1107C125.536 44.5282 125.218 44.7262 124.822 44.7649L125.51 45.7979H125.179L124.529 44.7649H124.034V45.7979L124.021 45.7806ZM126.173 44.6229C126.173 44.2815 126.072 43.9478 125.881 43.6643C125.691 43.3807 125.421 43.1601 125.105 43.0304C124.789 42.9008 124.442 42.868 124.108 42.9362C123.773 43.0044 123.466 43.1705 123.227 43.4134C122.987 43.6563 122.824 43.9651 122.76 44.3004C122.696 44.6358 122.734 44.9826 122.867 45.2968C123.001 45.6109 123.225 45.8783 123.511 46.0648C123.797 46.2514 124.132 46.3487 124.473 46.3445C124.701 46.3548 124.928 46.3177 125.14 46.2356C125.353 46.1535 125.546 46.0282 125.707 45.8675C125.869 45.7069 125.995 45.5144 126.078 45.3024C126.161 45.0904 126.199 44.8634 126.19 44.6358L126.173 44.6229ZM122.429 44.6229C122.43 44.2198 122.55 43.826 122.774 43.4911C122.999 43.1563 123.317 42.8955 123.69 42.7416C124.063 42.5878 124.472 42.5477 124.868 42.6266C125.263 42.7054 125.626 42.8996 125.911 43.1847C126.196 43.4697 126.391 43.8328 126.469 44.2282C126.548 44.6235 126.508 45.0333 126.354 45.4059C126.2 45.7785 125.94 46.0972 125.605 46.3216C125.27 46.5461 124.876 46.6664 124.473 46.6672C123.936 46.6627 123.422 46.4471 123.043 46.067C122.664 45.6869 122.449 45.1728 122.446 44.6358L122.429 44.6229Z" fill="white"/>
</g>
</svg>
