<svg width="64" height="65" viewBox="0 0 64 65" fill="none" xmlns="http://www.w3.org/2000/svg">
<rect y="0.25" width="64" height="64" rx="3.65714" fill="#FDF7F3"/>
<g clip-path="url(#clip0_38_1026)">
<path fill-rule="evenodd" clip-rule="evenodd" d="M48.0799 12.25H30.8799C29.8399 12.25 28.5599 13.85 28.4799 14.57V28.25C28.4799 28.97 30.3999 30.81 30.9599 30.81H36.8799C37.4399 31.45 38.6399 33.93 39.5199 33.93C40.3999 33.93 42.0799 30.97 42.3199 30.81H48.1599C49.0399 30.81 50.7999 28.81 50.7999 28.01V14.81C50.7999 13.77 48.6399 12.25 48.0799 12.25ZM47.5999 14.25C47.8399 14.25 48.8799 14.49 48.8799 15.05V27.77C48.6399 27.93 48.2399 28.81 47.6799 28.81H41.5999C40.8799 29.29 40.2399 30.25 39.8399 31.05H39.3599C39.0399 30.41 37.9199 28.81 37.5199 28.81H31.4399C31.0399 28.57 30.3199 28.09 30.3199 27.69V15.13C30.3999 14.57 30.8799 14.17 31.3599 14.25H47.5999ZM43.5999 20.97C43.5999 22.01 44.3999 22.81 45.4399 22.81C46.4799 22.81 47.2799 22.01 47.2799 20.97C47.2799 19.93 46.4799 19.05 45.4399 19.05C44.3999 19.05 43.5999 19.93 43.5999 20.97ZM37.9199 20.97C37.9199 22.01 38.7199 22.81 39.7599 22.81C40.7999 22.81 41.5999 22.01 41.5999 20.97C41.5999 19.93 40.7999 19.05 39.7599 19.05C38.7199 19.05 37.9199 19.93 37.9199 20.97ZM32.2399 20.97C32.2399 22.01 33.0399 22.81 34.0799 22.81C35.1199 22.81 35.9199 22.01 35.9199 20.97C35.9199 19.93 35.1199 19.05 34.0799 19.05C33.0399 19.05 32.2399 19.93 32.2399 20.97ZM22.7199 18.49H15.0399C13.9999 18.49 12.7999 19.85 12.3999 20.89V25.85C12.3999 26.01 12.5599 27.77 12.7999 28.65C12.9599 29.61 13.1999 30.81 13.4399 31.77C13.8399 32.89 14.3999 34.09 14.7199 35.21C16.5599 40.57 23.6799 47.93 28.8799 49.85C29.6799 50.09 30.5599 50.57 31.3599 50.81C32.4799 51.13 33.6799 51.53 34.7199 51.69C35.7599 51.85 36.7199 52.09 37.5999 52.25H42.3999C43.1999 52.25 44.7199 49.85 44.7999 49.61V40.97C44.7999 40.25 41.9999 39.93 41.9199 39.93C41.1199 39.85 40.1599 39.61 39.4399 39.45C38.6399 39.37 37.8399 39.13 37.0399 38.97C36.1599 38.81 34.6399 38.57 34.4799 38.57C33.5999 38.57 31.8399 41.61 31.1999 41.61C30.3199 41.61 25.8399 37.53 25.6799 37.45C24.6399 36.25 23.5999 34.81 23.0399 33.77C22.8799 33.29 22.6399 32.81 22.6399 32.57C22.6399 31.53 25.5199 30.25 25.5199 29.21C25.5199 28.89 24.3999 23.05 23.8399 20.01C23.7599 19.53 23.5199 18.17 22.7199 18.49ZM22.0799 20.41L23.4399 28.49C23.2799 29.53 20.3199 31.29 20.3199 32.17C20.3199 32.41 20.7999 33.45 21.0399 33.93C21.4399 35.05 22.3999 36.41 23.4399 37.69C23.9999 38.49 24.8799 39.37 25.6799 40.09C25.6799 40.17 30.7999 44.09 31.5999 44.09C31.9199 44.09 33.0399 42.57 33.2799 42.41C33.5999 42.01 34.3199 40.65 35.1199 40.81L42.8799 42.17V48.97C42.8799 50.33 41.0399 50.25 40.2399 50.25C30.9599 50.25 20.3999 45.53 15.7599 32.73C15.5199 31.77 15.1999 30.89 14.9599 30.01C14.6399 28.57 14.3999 25.85 14.3999 25.69V21.13C14.4799 20.73 15.0399 20.41 15.5199 20.41H22.0799Z" fill="#DC5E3D"/>
</g>
<defs>
<clipPath id="clip0_38_1026">
<rect width="39.2" height="40" fill="white" transform="translate(12 12.25)"/>
</clipPath>
</defs>
</svg>
