<svg width="22" height="26" viewBox="0 0 22 26" fill="none" xmlns="http://www.w3.org/2000/svg">
<path d="M20.1296 25.8209H4.21437C3.64309 25.8209 3.17993 25.3577 3.17993 24.7864V10.3632C3.17993 9.79187 3.64309 9.32872 4.21437 9.32872H6.36072V7.68386C6.36072 7.11257 6.82388 6.64941 7.39516 6.64941H13.7063C13.9811 6.64941 14.2445 6.75875 14.4386 6.95321L20.8619 13.3886C21.0555 13.5827 21.1641 13.8453 21.1641 14.1193V24.786C21.1645 25.3577 20.7013 25.8209 20.1296 25.8209ZM5.24922 23.752H19.0956V14.5473L13.2774 8.7183H8.4296V10.3632C8.4296 10.9344 7.96644 11.3976 7.39516 11.3976H5.24882L5.24922 23.752Z" fill="#DC5E3D"/>
<path d="M19.6362 15.1535H13.7063C13.135 15.1535 12.6719 14.6904 12.6719 14.1191V8.17829C12.6719 7.67519 12.9724 7.22575 13.4372 7.0333C13.902 6.84086 14.4325 6.94656 14.788 7.30281L20.5133 13.0386C20.8683 13.3945 20.9732 13.9246 20.7808 14.389C20.5883 14.8533 20.1389 15.1535 19.6362 15.1535ZM14.7408 13.0846H17.6359L14.7408 10.1842V13.0846Z" fill="#DC5E3D"/>
<path d="M7.39521 11.397H1.03444C0.463159 11.397 0 10.9338 0 10.3626V5.09352C0 4.52224 0.463159 4.05908 1.03444 4.05908H7.39521C7.96649 4.05908 8.42965 4.52224 8.42965 5.09352V10.3626C8.42965 10.9338 7.96649 11.397 7.39521 11.397ZM2.06888 9.32812H6.36077V6.12837H2.06888V9.32812Z" fill="#DC5E3D"/>
<path d="M6.42203 6.12838H2.0071C1.43582 6.12838 0.972656 5.66522 0.972656 5.09394V3.24211C0.972656 1.45443 2.42709 0 4.21477 0C6.00245 0 7.45688 1.45443 7.45688 3.24211V5.09394C7.45648 5.66522 6.99332 6.12838 6.42203 6.12838ZM3.04154 4.0591H5.38759V3.24211C5.38759 2.59538 4.8615 2.06929 4.21477 2.06929C3.56804 2.06929 3.04154 2.59538 3.04154 3.24211V4.0591Z" fill="#DC5E3D"/>
</svg>
