<svg width="105" height="105" viewBox="0 0 105 105" fill="none" xmlns="http://www.w3.org/2000/svg">
<rect width="105" height="105" fill="#E5E5E5"/>
<g id="Multi Assessment form-step4" clip-path="url(#clip0_0_1)">
<rect width="1440" height="1114" transform="translate(-668 -315)" fill="white"/>
<g id="Layer_1" clip-path="url(#clip1_0_1)">
<path id="Vector" d="M81.7633 23.2243C100.483 41.9355 96.8459 73.6362 74.4765 87.4979C56.1215 98.872 30.6844 94.3944 18.9601 76.0648L18.5253 76.28C14.7602 70.3731 12.0019 63.7921 11.3348 56.7455C7.66897 18.0233 54.2785 -4.24835 81.7633 23.2243ZM64.1805 50.483C66.2217 48.4761 68.3969 46.5931 70.3144 44.4556C69.6597 43.7088 66.3196 39.6442 65.6214 39.7805L47.0319 57.9964L46.3737 57.8035C45.3498 56.7951 40.2413 50.8647 39.3968 50.6426C39.0752 50.5579 38.9722 50.6786 38.7386 50.8356C38.2601 51.1573 34.6923 54.8328 34.692 55.1292L46.8153 67.4893C52.7222 61.9411 58.4049 56.1618 64.1805 50.483Z" fill="#09C52C"/>
<path id="Vector_2" d="M79.1206 13.372C64.784 3.60171 45.8252 2.56779 30.4322 10.6028L28.2529 6.10755C44.6405 -3.07722 66.2838 -1.73375 81.6512 8.89528C81.9146 9.77614 79.177 12.2624 79.1206 13.372Z" fill="#09C52C"/>
<path id="Vector_3" d="M84.5868 90.9594C85.0815 91.5798 85.4666 92.2937 86.0612 92.8381C82.681 95.613 78.9933 97.98 75.0404 99.8598C65.0339 104.618 53.7277 106.099 42.7979 104.058L43.874 98.9518C57.5754 101.53 72.0748 97.7052 82.7115 88.8129C83.2362 89.5656 84.0477 90.2834 84.5868 90.9594Z" fill="#09C52C"/>
<path id="Vector_4" d="M98.7876 27.4836C105.882 41.122 107.199 57.6218 101.193 71.9202L96.5063 69.9116C101.51 56.9979 100.756 42.3164 94.1598 30.1354C94.1385 29.8305 94.3357 29.744 94.5382 29.5926C94.8178 29.3836 98.5978 27.3413 98.7876 27.4836Z" fill="#09C52C"/>
<path id="Vector_5" d="M5.31661 57.0967L0.225819 57.559C-0.899438 45.5333 2.17466 33.4744 8.78126 23.4302C9.25999 22.7024 11.961 18.673 12.5636 18.7264C12.8734 18.7539 16.4129 21.7924 16.4117 22.047C8.12315 31.6937 4.40312 44.3989 5.31661 57.0967Z" fill="#09C52C"/>
<path id="Vector_6" d="M10.8512 74.4622C14.0199 81.1212 19.6782 87.1915 25.6985 91.429C26.1666 91.7585 28.4516 92.9766 28.5836 93.1785C28.7148 93.3791 28.7076 93.488 28.6501 93.7104C28.3821 94.7471 26.6499 96.5763 26.3517 97.7988C17.6638 93.2085 10.6709 85.5141 6.03516 76.8712C6.65448 76.4347 10.4595 74.1818 10.8512 74.4622Z" fill="#09C52C"/>
</g>
</g>
<defs>
<clipPath id="clip0_0_1">
<rect width="1440" height="1114" fill="white" transform="translate(-668 -315)"/>
</clipPath>
<clipPath id="clip1_0_1">
<rect width="105.001" height="104.961" fill="white" transform="translate(-0.00195312 -0.00939941)"/>
</clipPath>
</defs>
</svg>
