<svg width="24" height="28" viewBox="0 0 24 28" fill="none" xmlns="http://www.w3.org/2000/svg">
<path d="M2.65275 6.42264C2.66002 6.29771 2.64261 6.17257 2.60152 6.05437C2.56043 5.93617 2.49646 5.82722 2.41326 5.73374C2.33006 5.64027 2.22926 5.56409 2.11663 5.50957C2.00399 5.45504 1.88172 5.42324 1.75679 5.41597C1.63186 5.4087 1.50672 5.42611 1.38852 5.4672C1.27032 5.5083 1.16137 5.57227 1.06789 5.65546C0.974414 5.73866 0.898239 5.83946 0.843715 5.95209C0.789191 6.06473 0.757386 6.18701 0.750117 6.31193L2.65275 6.42264ZM4.41717 1.72108C4.23074 1.88564 4.11603 2.11656 4.09753 2.36454C4.07903 2.61252 4.15821 2.85791 4.31816 3.04831C4.47812 3.23871 4.70617 3.35903 4.95363 3.38358C5.20108 3.40813 5.44833 3.33496 5.64258 3.1797L4.41717 1.72108ZM9.54658 23.6742C9.64422 23.7539 9.75671 23.8135 9.87753 23.8494C9.99834 23.8853 10.1251 23.8969 10.2504 23.8835C10.3757 23.8701 10.4972 23.832 10.6077 23.7713C10.7181 23.7106 10.8155 23.6287 10.8941 23.5301C10.9727 23.4316 11.0309 23.3184 11.0654 23.1972C11.1 23.076 11.1101 22.9491 11.0953 22.8239C11.0805 22.6988 11.0409 22.5778 10.979 22.468C10.9171 22.3582 10.834 22.2618 10.7345 22.1844L9.54658 23.6742ZM15.1282 24.6173C14.888 24.5382 14.6263 24.5577 14.4006 24.6716C14.1749 24.7855 14.0036 24.9843 13.9245 25.2245C13.8454 25.4646 13.865 25.7263 13.9789 25.9521C14.0927 26.1778 14.2916 26.349 14.5317 26.4281L15.1282 24.6173ZM16.4415 18.9943L17.0841 18.453L15.8575 16.9942L15.2148 17.5355L16.4415 18.9943ZM19.0052 18.4111L21.2601 20.0713L22.3905 18.5366L20.1344 16.8763L19.0052 18.4111ZM21.4018 23.0021L19.3954 24.6874L20.6219 26.1474L22.6272 24.4607L21.4018 23.0021ZM7.18444 18.4824C2.87144 12.7794 2.54034 8.34042 2.65275 6.42264L0.750117 6.31193C0.613355 8.66164 1.06515 13.5501 5.66533 19.6319L7.18444 18.4824ZM9.86509 10.2993L10.2691 9.95866L9.04368 8.50004L8.63843 8.84049L9.86509 10.2993ZM11.0889 5.24406L9.75049 2.81388L8.0809 3.73299L9.41808 6.16303L11.0889 5.24406ZM9.25057 9.5691C9.04803 9.32454 8.84309 9.08198 8.63576 8.84147L8.63295 8.84371L8.62874 8.84707L8.55737 8.91318C8.4153 9.06315 8.29692 9.2339 8.20631 9.41954C8.04349 9.75278 7.9261 10.2049 7.94488 10.7874C7.98218 11.932 8.55025 13.5288 10.2492 15.7772L11.7698 14.6265C10.1807 12.526 9.86781 11.3082 9.84931 10.7232C9.84019 10.4409 9.89694 10.3003 9.91861 10.2554L9.93141 10.2326L9.8908 10.2753L9.86509 10.2993L9.25057 9.5691ZM10.2494 15.7759C11.944 18.0173 13.3063 18.9762 14.3931 19.2814C14.952 19.4376 15.4212 19.4151 15.7851 19.3167C15.9873 19.2632 16.1793 19.1769 16.3534 19.0611L16.4025 19.0231L16.4221 19.0074L16.4318 19.0009L16.436 18.9975L16.4376 18.9951C16.4376 18.9951 16.4402 18.9941 15.827 18.2641C15.2136 17.5354 15.215 17.5343 15.2151 17.533L15.2178 17.532L15.2207 17.5285L15.229 17.5231L15.2943 17.4767C15.3069 17.4713 15.3047 17.4715 15.2879 17.4773C15.2615 17.4845 15.1433 17.5121 14.9079 17.446C14.4098 17.3055 13.3643 16.7352 11.7698 14.6265L10.2494 15.7759ZM9.75049 2.81388C8.67425 0.859398 6.14859 0.264318 4.41717 1.72108L5.64258 3.1797C6.38102 2.55972 7.5376 2.74494 8.0809 3.73299L9.75049 2.81388ZM19.3954 24.6874C19.0013 25.0189 18.6115 25.177 18.249 25.172L18.2225 27.0764C19.1759 27.0904 19.9962 26.674 20.6219 26.1474L19.3954 24.6874ZM10.2691 9.95866C11.636 8.80986 11.9484 6.80722 11.0889 5.24406L9.41934 6.16317C9.86721 6.97683 9.67199 7.97248 9.04368 8.50004L10.2691 9.95866ZM21.2601 20.0713C22.2293 20.7851 22.2674 22.275 21.4018 23.0021L22.6272 24.4607C24.47 22.9117 24.3171 19.9553 22.3905 18.5366L21.2601 20.0713ZM17.0841 18.453C17.6279 17.9952 18.3996 17.9657 19.0052 18.4111L20.1344 16.8763C18.8368 15.9222 17.0929 15.9572 15.8575 16.9942L17.0841 18.453ZM10.7345 22.1844C9.58144 21.2644 8.37853 20.0602 7.18444 18.4824L5.66533 19.6319C6.94944 21.3298 8.26203 22.65 9.54658 23.6742L10.7345 22.1844ZM18.2477 25.1718C17.1859 25.1451 16.1341 24.9582 15.1282 24.6173L14.5317 26.4281C15.7222 26.8292 16.9666 27.0477 18.2225 27.0764L18.2477 25.1718Z" fill="#4A3AFF"/>
</svg>
