<svg width="72" height="72" viewBox="0 0 72 72" fill="none" xmlns="http://www.w3.org/2000/svg">
<rect x="0.5" y="0.5" width="71" height="71" rx="9.5" fill="white" stroke="#F7F7FB"/>
<path d="M34.9678 13.8476C36.4505 14.2022 37.7777 14.9884 38.7092 16.1991C39.6263 17.3911 40.1045 18.9663 39.9577 20.4684L39.9857 20.5084C40.7175 20.5461 41.4275 20.5897 42.1335 20.7906C43.8498 21.2791 45.3015 22.5684 46.2393 24.0529C46.4488 24.3843 46.6091 24.796 46.812 25.0996C47.0103 25.3963 47.3648 25.7173 47.5973 26.0146C49.6125 28.591 50.8598 32.3939 47.369 34.3654C47.272 34.4202 46.8267 34.5975 46.7987 34.625C46.7078 34.7148 46.7684 35.41 46.7483 35.6071C46.5763 37.2987 45.3234 38.6998 43.9216 39.5411C43.9092 40.3373 43.8879 41.3084 44.2438 42.0394C44.3344 42.2254 44.5704 42.4629 44.6004 42.6541C44.6751 43.1303 44.2855 43.4243 43.8323 43.301C43.5174 43.2154 43.1666 42.4252 43.0641 42.126C42.8392 41.4699 42.7707 40.7319 42.7811 40.0406C42.0124 40.2499 41.2351 40.4457 40.4332 40.4862C40.6897 40.7575 41.0615 40.8941 41.3609 41.1168C42.2759 41.797 42.7963 42.9146 42.9381 44.0333C43.0012 44.5307 43.1573 45.5135 42.3964 45.5093C41.7403 45.5057 41.881 44.7615 41.845 44.3572C41.8188 44.0624 41.7411 43.7419 41.6484 43.4607C41.1823 42.0459 40.1897 41.8479 39.1777 40.9519C39.046 40.8353 38.7198 40.4393 38.6094 40.3866C38.4803 40.3249 38.2005 40.3095 38.0441 40.2637C36.6253 39.8481 35.3854 39.1379 34.6359 37.8225C32.4373 38.0296 29.85 37.8422 28.3403 36.0318C26.9785 36.1121 25.5119 36.0418 24.308 35.3365C22.4114 34.2254 21.8904 31.9261 22.094 29.8591C22.1506 29.284 22.2113 28.7365 22.2562 28.159C22.4929 25.1155 25.0876 22.748 27.7619 21.6599C26.8403 18.5512 28.5914 15.2437 31.5976 14.1412L32.5792 13.8476L33.7735 13.6855L34.9678 13.8476ZM33.1781 14.912C30.8492 15.1358 28.8896 17.1449 28.6709 19.4628C28.235 24.0833 33.6763 26.9094 37.1545 23.7869C40.853 20.4665 38.1379 14.4354 33.1781 14.912ZM40.81 24.685C40.6707 24.5294 40.6294 24.2545 40.7086 24.0616C40.8772 23.6512 41.2247 23.7537 41.5758 23.6738C42.2301 23.525 42.7746 23.0103 42.8582 22.3358C41.9668 21.7862 40.8298 21.5978 39.7848 21.6804C39.2582 23.3221 38.1898 24.7063 36.6549 25.5138C34.8935 26.4406 32.6756 26.4422 30.9048 25.5416C29.7081 24.933 28.7512 23.91 28.1269 22.7305C27.4502 22.9895 26.8013 23.3526 26.2104 23.7736C26.0003 23.9232 24.9511 24.7423 24.9266 24.9218C24.8647 25.3762 25.4676 26.0336 25.8577 26.2164C26.2288 26.3902 26.458 26.3307 26.7912 26.4165C27.3726 26.5661 27.3237 27.5172 26.5713 27.5267C25.8906 27.5352 25.1054 27.1948 24.6228 26.7225C24.4175 26.5216 24.2671 26.2624 24.0975 26.0333C23.7368 26.6683 23.4756 27.388 23.3896 28.1185C23.2884 28.9788 23.2929 29.8139 24.0405 30.3816C24.4894 30.7225 24.7493 30.6258 25.222 30.7385C25.7381 30.8617 25.7212 31.7316 25.1887 31.8202C24.5159 31.9321 23.7118 31.5714 23.1872 31.1746C23.2795 32.4156 23.6958 33.6016 24.7851 34.2926C25.7075 34.8778 26.9749 35.0132 28.0428 34.897C28.0957 33.7451 27.8725 32.5519 28.3618 31.4712C28.8229 30.4525 29.807 29.69 30.9215 29.5372C31.2001 27.9149 32.7153 26.4824 34.4232 26.6385C35.0405 26.6949 35.0415 27.6132 34.4931 27.7243C34.1815 27.7875 33.8872 27.7612 33.5517 27.876C32.8774 28.1067 32.2618 28.8102 32.1033 29.5044C32.0227 29.8576 32.1483 30.4912 31.66 30.5995C31.1201 30.7193 30.8453 30.6209 30.2998 30.9397C28.7248 31.86 29.2657 33.7142 29.187 35.2346C29.8923 36.2385 31.2066 36.6014 32.3767 36.721C32.3197 35.4443 32.8739 34.5277 33.969 33.9205C34.5425 33.6025 35.8837 33.2117 36.2226 32.733C36.5558 32.2624 36.1607 31.3503 35.9345 30.8758C35.8044 30.6029 35.3565 29.9803 35.331 29.7382C35.283 29.2847 35.6688 28.9757 36.1007 29.1309C36.3479 29.2198 36.6407 29.7949 36.7702 30.0402C37.2977 31.0387 37.8852 32.4654 37.0718 33.4607C35.9875 34.7876 33.2838 34.5244 33.5101 36.7615C35.3636 36.7018 37.1816 36.2371 38.926 35.6387C39.4871 35.4463 40.0747 35.1597 40.627 34.9917C42.5939 34.3935 46.509 34.1447 47.8221 32.592C48.2632 32.0704 48.4887 31.3689 48.4291 30.689C47.9979 31.2091 46.8141 31.805 46.1524 31.5888C45.7488 31.4569 45.6565 30.9075 45.9784 30.6269C46.2079 30.4268 46.6429 30.4944 46.9726 30.3661C47.5097 30.1571 48.1415 29.3857 47.9846 28.7847C47.8866 28.4091 47.0147 27.0149 46.7291 26.7208C46.6874 26.6778 46.6589 26.6265 46.5876 26.6406C46.3252 27.2394 45.7942 27.7241 45.1972 27.9834C44.8766 28.1226 44.4887 28.2222 44.1377 28.2224C43.6316 28.2228 43.295 27.6979 43.6505 27.2869C43.8702 27.033 43.9988 27.1304 44.2542 27.0809C44.8752 26.9607 45.3554 26.6913 45.6093 26.088C45.803 25.6281 45.7679 25.5222 45.5554 25.1012C45.2652 24.5265 44.5383 23.5328 44.037 23.1379C43.9672 23.0829 43.8782 22.9797 43.8255 23.0891C43.4615 23.844 42.9239 24.4618 42.0928 24.7172C41.8002 24.8071 41.0248 24.925 40.81 24.685ZM45.615 35.0206L44.4081 35.2706C43.9991 38.1297 40.0294 39.1432 37.8532 37.6611C37.6839 37.5459 37.548 37.3959 37.376 37.2874C36.9173 37.398 36.46 37.5099 35.9988 37.6107C35.9431 37.6229 35.8812 37.5755 35.8995 37.6714C37.1371 39.2242 39.3821 39.5706 41.2514 39.2595C43.3636 38.908 45.6729 37.3916 45.615 35.0206ZM43.1455 35.5875C42.4664 35.7314 41.7558 35.8236 41.0898 36.0212C40.462 36.2075 39.669 36.5286 39.0468 36.7716C38.9589 36.8059 38.8191 36.836 38.7734 36.9228C40.2737 37.5193 42.4237 37.18 43.1455 35.5875Z" fill="#170F49"/>
<path d="M18.0854 37.8948C19.1166 37.4586 20.1994 37.5818 21.0598 38.3009C23.7213 41.1023 26.6698 43.7164 29.3007 46.537C30.9121 48.2646 31.2044 49.1676 31.285 51.5564L31.2831 55.6268C33.2026 55.8291 33.4203 58.4937 31.5687 59.0494C28.5225 59.1862 25.4509 59.0683 22.3956 59.1097C20.4508 58.9369 20.1669 56.2021 22.0515 55.6649C21.8015 54.6423 21.1952 53.8939 20.5353 53.1161C18.8291 51.1049 16.9853 49.2089 15.293 47.1848C13.7895 45.3867 12.896 44.2452 12.7803 41.7627C12.5846 37.5658 12.9319 33.2192 12.78 29.0067C12.9298 26.6031 15.9372 25.6172 17.4791 27.4694C17.7337 27.7753 18.0854 28.4956 18.0854 28.8872L18.0854 37.8948ZM23.2674 55.6266H30.1498C30.098 54.1352 30.2185 52.5976 30.1515 51.1111C30.0836 49.6059 29.7953 48.7639 28.7941 47.6508L20.3334 39.1893C18.8923 37.9227 16.9505 39.766 18.1249 41.2762L23.4297 46.5783C23.8373 47.2017 23.1495 47.8089 22.5783 47.3487C20.9663 45.5677 18.9714 43.9604 17.3961 42.1669C16.5206 41.1702 16.4927 40.0985 16.9535 38.8883L16.9475 28.9726C16.6415 27.2089 14.2243 27.1886 13.9159 28.9686L13.9138 41.8842C13.9996 43.3561 14.4859 44.3937 15.374 45.525C17.0199 47.6215 18.9404 49.5729 20.6972 51.5777C21.4516 52.4386 22.2838 53.3167 22.7759 54.3571C22.9694 54.7663 23.1141 55.2016 23.2674 55.6266ZM22.4481 56.7303C21.7098 56.8562 21.7132 57.8196 22.4366 57.9756L31.1418 57.9748C31.9322 57.8543 31.9219 56.8025 31.1007 56.7201L22.4481 56.7303Z" fill="#170F49"/>
<path d="M52.3955 52.9541C51.68 53.7987 51.0266 54.568 50.716 55.6666C52.4249 56.1093 52.4442 58.4786 50.7895 59.0401C47.6974 59.1945 44.573 59.07 41.4696 59.1039C39.7242 58.8778 39.3657 56.3844 41.004 55.7322C41.1108 55.6897 41.4932 55.6414 41.5207 55.5607L41.5243 51.192C41.6036 49.2179 41.9423 48.2244 43.2657 46.7799C45.9284 43.8736 49.0087 41.1901 51.7089 38.3008C52.5183 37.5831 53.7035 37.4578 54.6834 37.8948V28.8872C54.9798 25.9595 59.2437 25.6656 59.9282 28.5411C60.0354 33.1643 60.0074 37.8168 59.9412 42.444C59.6841 44.7073 58.542 45.9426 57.152 47.5897M49.5014 55.6266C49.6501 55.213 49.8031 54.7946 49.993 54.3976C50.4894 53.3593 51.2453 52.5612 51.9907 51.6992C53.7757 49.6348 55.711 47.6747 57.3949 45.525C58.2853 44.3883 58.7662 43.3618 58.855 41.8842L58.853 28.9686C58.5481 27.2058 56.1869 27.2064 55.8204 28.9312L55.8154 38.8883C56.3285 40.1076 56.2567 41.1638 55.3727 42.1669C53.7745 43.9807 51.7646 45.6087 50.1291 47.4087C49.5677 47.7465 49.0215 47.1864 49.3394 46.619L54.563 41.3977C55.9553 39.9212 53.9889 37.8741 52.4355 39.1893C49.7904 41.9906 46.8336 44.5901 44.2176 47.4079C42.6792 49.065 42.6722 49.8994 42.6174 52.1231C42.7133 53.1832 42.4956 54.4526 42.617 55.487C42.6239 55.5459 42.622 55.5911 42.6798 55.6266H49.5014ZM41.2563 56.8953C40.8918 57.2589 41.1075 57.9145 41.6262 57.9757H50.3323C51.1592 57.7978 51.0488 56.7491 50.2113 56.7183H41.7472C41.5891 56.7321 41.3703 56.7816 41.2563 56.8953Z" fill="#170F49"/>
<path d="M40.5138 27.4095C40.6519 27.0697 41.2583 26.2183 41.6283 26.1925C41.7927 26.1811 41.9166 26.2492 42.0335 26.356C42.5721 26.8475 41.8711 27.3447 41.6063 27.7525C40.8108 28.9777 40.8375 30.6698 41.7358 31.8356C41.9916 32.1675 42.3234 32.2843 42.2062 32.8056C42.1651 32.988 41.9244 33.1718 41.746 33.197C41.3909 33.2472 41.1958 32.9265 40.9794 32.7134L40.4541 31.9845C40.2234 32.304 39.7571 33.1242 39.3503 33.1904C39.0358 33.2416 38.7144 33.0099 38.6916 32.6917C38.6619 32.2771 38.9504 32.1471 39.1548 31.8595C40.1614 30.4431 40.1407 28.8569 39.0962 27.4715C38.9731 27.3083 38.791 27.2184 38.7241 26.9934C38.6042 26.59 38.825 26.1687 39.2782 26.1933C39.7304 26.2179 40.1984 27.0088 40.4148 27.3674L40.5138 27.4095Z" fill="#170F49"/>
<path d="M35.1706 18.9081C35.6238 18.7192 36.0799 18.5361 36.5718 18.4676C36.9053 18.4211 37.4055 18.3435 37.6405 18.6441C37.7998 18.8478 37.7169 19.6088 37.6601 19.8798C37.3218 21.4952 36.0409 22.5028 34.4903 22.8635C33.6395 23.0614 32.9804 22.9386 32.175 22.6116C30.7761 22.0434 29.7769 20.7098 29.7431 19.1724C29.7307 18.6096 29.9874 18.4018 30.5345 18.4228C31.1271 18.4455 31.7512 18.6358 32.2729 18.9066C32.4782 18.4111 32.6743 17.9604 33.0085 17.5357C33.2562 17.2209 33.4914 16.8988 33.9488 17.0326C34.2913 17.1329 34.8568 18.0327 35.0025 18.3672C35.0758 18.5356 35.1411 18.7263 35.1706 18.9081ZM33.7932 21.3369C34.1803 20.5349 34.3532 19.771 34.0157 18.9087C33.981 18.8203 33.8249 18.4611 33.7334 18.4622C33.2271 19.2093 33.2081 20.0389 33.5096 20.8722C33.5321 20.9344 33.692 21.4128 33.7932 21.3369ZM32.4978 21.4989L32.1773 20.2207C31.8196 19.9134 31.3875 19.6834 30.9195 19.5965C31.0871 20.4684 31.6936 21.1507 32.4978 21.4989ZM36.5464 19.5964C36.0877 19.7061 35.6702 19.9231 35.3003 20.2117C35.2922 20.6474 35.1157 21.0455 35.0085 21.4583C35.7809 21.1677 36.4296 20.4271 36.5464 19.5964Z" fill="#170F49"/>
</svg>
