<svg width="72" height="72" viewBox="0 0 72 72" fill="none" xmlns="http://www.w3.org/2000/svg">
<rect x="0.5" y="0.5" width="71" height="71" rx="9.5" fill="white" stroke="#F7F7FB"/>
<g clip-path="url(#clip0_73_2198)">
<path d="M30.6314 43.6391C29.0002 42.943 27.7281 41.4855 27.2038 39.794C27.0211 39.2049 26.9416 38.5561 26.9177 37.9402C26.8609 36.475 26.8449 34.6824 26.9179 33.223C27.0171 31.2408 28.3158 29.7407 30.2845 29.4339C32.0646 29.4386 33.8852 29.301 35.6658 29.3948C37.7857 29.5066 39.3521 31.0247 39.4617 33.1559C39.2924 35.5137 39.8848 38.2396 38.9311 40.4522C38.3129 41.8863 37.1249 43.0364 35.7146 43.6892V44.709C37.0312 44.6718 38.2798 44.7557 39.4924 45.2952C41.9437 46.3858 43.4149 48.7105 43.5414 51.3777C43.5753 52.0928 43.6037 53.1897 43.5414 53.888C43.5218 54.1076 43.4156 54.3074 43.1998 54.3823L23.1051 54.39C22.8971 54.3421 22.7751 54.1735 22.7236 53.9753C22.793 52.4642 22.5838 50.9936 23.0235 49.5236C23.7249 47.1784 25.7286 45.3596 28.1229 44.8591C28.9504 44.6861 29.7863 44.7104 30.6314 44.709V43.6391ZM27.956 32.9235C27.9228 33.2684 27.9805 33.66 27.956 34.0101L28.7801 33.5468C31.3446 32.2896 33.1629 34.5107 35.6353 34.7079C36.3394 34.7641 37.1314 34.6987 37.8226 34.563C38.0286 34.5226 38.2335 34.4644 38.4374 34.4152C38.4664 33.6961 38.5163 32.8839 38.2482 32.1959C37.8659 31.2146 36.8788 30.4915 35.8273 30.4036C34.1639 30.2645 32.3282 30.4998 30.6467 30.3979C29.3156 30.4715 28.0854 31.5795 27.956 32.9235ZM38.4566 35.4479C36.9002 35.8767 35.2211 35.8268 33.6907 35.3147C32.3894 34.8793 31.5414 34.0078 30.0509 34.2155C29.2664 34.3248 28.4433 34.7797 27.9567 35.3984C27.9555 37.5726 27.6805 39.5796 29.2096 41.3326C32.2694 44.8406 37.9089 43.0224 38.4229 38.4731L38.4566 35.4479ZM34.7447 44.0069C33.7317 44.2738 32.6497 44.264 31.6346 44.0069V45.361C31.6346 46.2108 32.5423 46.8901 33.3528 46.8112C33.992 46.749 34.7447 46.0969 34.7447 45.4278V44.0069ZM23.7423 53.4018H27.8222V51.3122C27.8222 51.2986 27.871 51.1325 27.8825 51.1046C28.0208 50.7673 28.4977 50.7402 28.7258 51.0107C28.7436 51.0319 28.8255 51.1687 28.8255 51.1785V53.4018H37.4536V51.1785C37.4536 51.1687 37.5355 51.0318 37.5533 51.0107C37.7255 50.8065 38.0255 50.7597 38.2393 50.9279C38.2855 50.9643 38.4234 51.1366 38.4234 51.1785V53.4018H42.5033C42.4632 52.2832 42.6212 51.1346 42.3341 50.0437C41.8511 48.2084 40.432 46.6693 38.6413 46.0459C37.6904 45.7148 36.766 45.6833 35.7635 45.7098L35.7107 45.7313C35.4166 47.2973 33.8143 48.1816 32.3112 47.6603C31.6686 47.4374 31.0627 46.8445 30.8159 46.2129C30.7804 46.1221 30.6959 45.7341 30.6438 45.7163C29.1145 45.625 27.7232 45.8052 26.4205 46.6343C24.9717 47.5563 23.8671 49.2783 23.7427 51.0117C23.6871 51.7858 23.7833 52.6214 23.7423 53.4018Z" fill="#170F49"/>
<path d="M43.3561 36.2168C42.0866 36.1048 41.2283 35.0462 41.1365 33.822C40.9552 31.4038 41.2628 28.7773 41.1327 26.3376C41.2242 25.0949 42.0052 24.1363 43.2563 23.9471L54.7948 23.945C55.8666 24.0466 56.7466 24.9185 56.9129 25.9733C56.8714 28.5201 57.0962 31.2237 56.95 33.7591C56.8749 35.0597 56.0437 36.1148 54.6925 36.2164C53.0746 36.3381 51.3167 36.12 49.6842 36.2243C48.1755 36.9485 46.7183 37.8927 45.2128 38.608C44.9862 38.7157 44.8695 38.8036 44.6107 38.707C44.3481 38.609 44.2981 38.3586 44.2744 38.1071C44.2159 37.4853 44.2868 36.8368 44.2089 36.2168C43.9324 36.1991 43.6292 36.2409 43.3561 36.2168ZM45.2457 37.4203L49.4569 35.2281L54.6592 35.2135C55.3867 35.1034 55.8929 34.5673 55.9483 33.8276C55.9135 31.2265 56.0122 28.6114 55.8979 26.0184C55.7174 25.3648 55.1995 24.9642 54.527 24.9148C50.7657 24.9497 46.9911 24.8511 43.2375 24.9647C42.6711 25.133 42.2365 25.605 42.1677 26.2021L42.1838 34.0789C42.3284 34.6667 42.8439 35.1543 43.4567 35.2135C43.8229 35.2489 44.6862 35.1281 44.9563 35.2856C45.2853 35.4776 45.1914 35.7631 45.2108 36.0677C45.2158 36.1468 45.2439 36.2201 45.247 36.299C45.2611 36.6715 45.2335 37.0479 45.2457 37.4203Z" fill="#170F49"/>
<path d="M20.9264 16.9686C26.3756 16.6462 29.7677 22.7295 26.532 27.1533C23.8476 30.8233 18.2374 30.5414 15.89 26.6649C13.4291 22.6011 16.1998 17.2483 20.9264 16.9686ZM17.9376 27.5099C21.9008 30.7052 27.6254 27.2648 26.6754 22.3014C25.9595 18.5608 21.5874 16.746 18.3947 18.8508C15.4017 20.8238 15.1291 25.2456 17.9376 27.5099Z" fill="#170F49"/>
<path d="M46.5611 29.2512C46.2408 28.9392 46.4992 28.0299 46.6777 27.6685C47.588 25.8265 50.2648 25.7329 51.3256 27.4802C51.9339 28.482 51.8841 30.2234 50.7943 30.8814C50.5096 31.0533 49.9178 31.1771 49.7302 31.3554C49.4145 31.6554 49.7524 32.4385 49.0657 32.4633C48.3305 32.4897 48.549 31.3398 48.7764 30.9369C49.2253 30.1418 50.2571 30.2888 50.5428 29.7272C50.7193 29.3801 50.7074 28.6284 50.5689 28.2701C49.9992 26.7963 47.8481 26.9244 47.4749 28.4321C47.4086 28.6999 47.4635 29.0275 47.2704 29.2307C47.1094 29.4 46.7287 29.4145 46.5611 29.2512Z" fill="#170F49"/>
<path d="M48.8812 32.8136C49.6924 32.6291 49.7901 33.8063 49.1678 33.9356C48.4194 34.091 48.3916 32.9249 48.8812 32.8136Z" fill="#170F49"/>
<path d="M20.3509 20.2166L21.3544 21.2373C21.4318 21.2544 22.3229 20.2713 22.4892 20.136C23.4043 19.392 24.8602 19.9632 24.9457 21.1553C25.0238 22.243 24.1098 22.62 23.54 23.3623L23.5463 23.4073C23.5803 23.4208 23.6153 23.4336 23.6425 23.4598C23.9892 23.7939 24.6795 24.41 24.8383 24.8401C25.2325 25.907 24.479 27.0023 23.3285 26.9177C22.4167 26.8506 22.0435 26.0072 21.3788 25.5227C21.3059 25.5161 20.4787 26.4146 20.3316 26.538C19.1927 27.4939 17.5625 26.549 17.8657 25.0758C18.0187 24.3328 18.8426 23.9146 19.2586 23.3326C18.8434 22.8081 18.0402 22.3426 17.873 21.6732C17.5024 20.1899 19.2474 19.2022 20.3509 20.2166ZM23.8321 20.9812C23.5987 20.706 23.2639 20.807 23.0225 21.0035C22.5733 21.3694 22.1348 22.0116 21.6855 22.3415C21.5073 22.4723 21.2837 22.4899 21.0991 22.3597C20.6346 22.0323 20.1042 21.1972 19.6402 20.9094C19.1165 20.5846 18.6017 21.0992 18.9321 21.6174C19.2283 22.0821 20.0207 22.5926 20.3645 23.0607C20.508 23.2561 20.508 23.4667 20.3645 23.6621C20.0256 24.1235 19.2137 24.6513 18.9321 25.1054C18.64 25.5764 19.0687 26.1227 19.5732 25.8466C20.0721 25.4467 20.5084 24.8182 20.9998 24.431C21.2508 24.2331 21.4884 24.2244 21.7524 24.4147C22.2363 24.7637 22.7013 25.4718 23.1955 25.8472C23.6326 26.1034 24.1273 25.6088 23.8711 25.1718C23.4722 24.6747 22.8386 24.2365 22.4545 23.7462C22.2378 23.4697 22.2378 23.2531 22.4545 22.9766C22.8386 22.4863 23.4722 22.048 23.8711 21.551C23.9776 21.3784 23.9619 21.1342 23.8321 20.9812Z" fill="#170F49"/>
</g>
<defs>
<clipPath id="clip0_73_2198">
<rect width="42.0265" height="37.4337" fill="white" transform="translate(14.9736 16.9563)"/>
</clipPath>
</defs>
</svg>
