<svg width="19" height="21" viewBox="0 0 19 21" fill="none" xmlns="http://www.w3.org/2000/svg">
<path d="M9.30206 0C11.5371 1.21305 13.8289 2.3362 16.0442 3.58614C16.3805 3.7759 18.4741 4.93259 18.5075 5.11104C17.529 11.3968 15.5602 18.0239 9.22478 20.7623C7.48749 19.7741 5.75687 18.6203 4.44117 17.0973C1.57737 13.782 0.811352 9.28236 0 5.10927L9.30206 0ZM6.56103 14.2959C6.86083 14.5837 7.38154 14.5806 7.74704 14.4088C8.80366 13.1383 10.0061 11.999 11.1212 10.7837C11.8106 10.0324 13.5301 8.37266 13.9697 7.63302C14.5548 6.64859 13.4397 5.69843 12.5748 6.41995L7.48345 11.8728C7.00664 11.197 6.41946 8.95883 5.7359 8.62251C5.04264 8.28141 4.29854 8.87735 4.36393 9.62268L6.56103 14.2959Z" fill="#DC5E3D"/>
</svg>
