<svg width="14" height="13" viewBox="0 0 14 13" fill="none" xmlns="http://www.w3.org/2000/svg">
<path id="Vector" d="M7.10092 10.2811L4.06395 12.1106C3.92978 12.196 3.78952 12.2326 3.64316 12.2204C3.4968 12.2082 3.36873 12.1594 3.25896 12.074C3.14919 11.9887 3.06382 11.8821 3.00283 11.7542C2.94185 11.6264 2.92965 11.483 2.96624 11.3239L3.77122 7.86617L1.08185 5.5427C0.959887 5.43293 0.88378 5.30779 0.853532 5.16728C0.823284 5.02678 0.83231 4.88969 0.880609 4.75601C0.928907 4.62234 1.00209 4.51257 1.10015 4.4267C1.19821 4.34084 1.33237 4.28595 1.50264 4.26205L5.05188 3.95103L6.42401 0.694513C6.48499 0.548153 6.57964 0.438382 6.70795 0.365202C6.83625 0.292022 6.96725 0.255432 7.10092 0.255432C7.2346 0.255432 7.36559 0.292022 7.4939 0.365202C7.62221 0.438382 7.71686 0.548153 7.77784 0.694513L9.14997 3.95103L12.6992 4.26205C12.87 4.28644 13.0041 4.34132 13.1017 4.4267C13.1993 4.51208 13.2724 4.62185 13.3212 4.75601C13.37 4.89018 13.3793 5.02751 13.349 5.16802C13.3188 5.30852 13.2424 5.43342 13.12 5.5427L10.4306 7.86617L11.2356 11.3239C11.2722 11.4825 11.26 11.6259 11.199 11.7542C11.138 11.8825 11.0527 11.9891 10.9429 12.074C10.8331 12.1589 10.705 12.2077 10.5587 12.2204C10.4123 12.2331 10.2721 12.1965 10.1379 12.1106L7.10092 10.2811Z" fill="#F2C618"/>
</svg>
