<svg width="45" height="45" viewBox="0 0 45 45" fill="none" xmlns="http://www.w3.org/2000/svg">
<g clip-path="url(#clip0_1_20)">
<path fill-rule="evenodd" clip-rule="evenodd" d="M14.3412 33.8559C13.0313 33.7936 12.1778 33.6914 12.1778 33.5763V19.0203C12.1778 18.8304 14.4946 18.6764 17.3518 18.6764C20.2089 18.6764 22.526 18.8305 22.526 19.0203V33.5762C22.526 33.6914 21.6724 33.7935 20.3625 33.8559C20.4006 33.7705 20.4218 33.6757 20.4218 33.5762V28.5987C20.4218 27.9427 19.8885 27.4093 19.2325 27.4093H15.4712C14.8152 27.4093 14.2819 27.9427 14.2819 28.5987V33.5762C14.2819 33.6757 14.3031 33.7704 14.3412 33.8559ZM19.7119 26.9117H18.7531C18.2549 26.9117 17.8498 26.5065 17.8498 26.0085V21.1091C17.8498 20.6111 18.2549 20.2058 18.7531 20.2058H19.7119C20.21 20.2058 20.6152 20.6111 20.6152 21.1091V26.0085C20.6152 26.5065 20.21 26.9117 19.7119 26.9117ZM18.7531 20.8936C18.6362 20.8936 18.5375 20.9924 18.5375 21.1091V26.0085C18.5375 26.1251 18.6362 26.2239 18.7531 26.2239H19.7119C19.8287 26.2239 19.9274 26.1253 19.9274 26.0085V21.1091C19.9274 20.9923 19.8287 20.8936 19.7119 20.8936H18.7531ZM15.9507 26.9117H14.9917C14.4937 26.9117 14.0885 26.5065 14.0885 26.0085V21.1091C14.0885 20.6111 14.4937 20.2058 14.9917 20.2058H15.9507C16.4487 20.2058 16.8539 20.6111 16.8539 21.1091V26.0085C16.8539 26.5065 16.4487 26.9117 15.9507 26.9117ZM14.9917 20.8936C14.8749 20.8936 14.7763 20.9924 14.7763 21.1091V26.0085C14.7763 26.1251 14.875 26.2239 14.9917 26.2239H15.9507C16.0675 26.2239 16.1662 26.1253 16.1662 26.0085V21.1091C16.1662 20.9923 16.0674 20.8936 15.9507 20.8936H14.9917Z" fill="#F2C618"/>
<path fill-rule="evenodd" clip-rule="evenodd" d="M22.5259 33.92C22.336 33.92 22.1821 33.766 22.1821 33.5762C22.1821 29.1312 22.1684 26.4718 22.1356 24.9478C22.1236 24.3927 21.8691 27.0809 21.8407 24.0561C21.9413 24.1137 22.0579 24.1466 22.182 24.1466H32.1863V33.5762C32.1864 33.766 22.7159 33.92 22.5259 33.92ZM29.3724 31.8705H28.4134C27.9154 31.8705 27.5102 31.4651 27.5102 30.9671V26.0679C27.5102 25.5697 27.9154 25.1647 28.4134 25.1647H29.3724C29.8704 25.1647 30.2756 25.5697 30.2756 26.0679V30.9671C30.2756 31.4651 29.8703 31.8705 29.3724 31.8705ZM28.4134 25.8524C28.2966 25.8524 28.198 25.951 28.198 26.0679V30.9671C28.198 31.0839 28.2966 31.1827 28.4134 31.1827H29.3724C29.4891 31.1827 29.5878 31.0839 29.5878 30.9671V26.0679C29.5878 25.9511 29.4891 25.8524 29.3724 25.8524H28.4134ZM25.6111 31.8705H24.6522C24.1541 31.8705 23.7489 31.4651 23.7489 30.9671V26.0679C23.7489 25.5697 24.1541 25.1647 24.6522 25.1647H25.6111C26.1092 25.1647 26.5144 25.5697 26.5144 26.0679V30.9671C26.5144 31.4651 26.1091 31.8705 25.6111 31.8705ZM24.6522 25.8524C24.5354 25.8524 24.4367 25.951 24.4367 26.0679V30.9671C24.4367 31.0839 24.5353 31.1827 24.6522 31.1827H25.6111C25.7279 31.1827 25.8266 31.0839 25.8266 30.9671V26.0679C25.8266 25.9511 25.7279 25.8524 25.6111 25.8524H24.6522Z" fill="#F2C618"/>
<path fill-rule="evenodd" clip-rule="evenodd" d="M22.8035 19.3641H11.9001C11.6118 19.3641 11.3945 19.0917 11.3945 18.7305V16.7753C11.3945 16.4141 11.612 16.1418 11.9001 16.1418H22.8035C23.0919 16.1418 23.3092 16.4141 23.3092 16.7753V18.7305C23.3092 19.0917 23.0919 19.3641 22.8035 19.3641Z" fill="#F2C618"/>
<path fill-rule="evenodd" clip-rule="evenodd" d="M32.4639 23.8027H22.182C21.9921 23.8027 21.8381 23.6489 21.8381 23.4588V20.9243C21.8381 20.7344 21.992 20.5804 22.182 20.5804H32.4639C32.7522 20.5804 32.9696 20.8528 32.9696 21.214V23.1691C32.9696 23.5304 32.7522 23.8027 32.4639 23.8027Z" fill="#F2C618"/>
<path fill-rule="evenodd" clip-rule="evenodd" d="M18.1502 16.8296H16.5534C16.1681 16.8296 15.8547 16.5161 15.8547 16.1308V15.1339H14.8578C14.4724 15.1339 14.159 14.8204 14.159 14.4351V12.8384C14.159 12.4531 14.4724 12.1397 14.8578 12.1397H15.8547V11.1427C15.8547 10.7574 16.1681 10.444 16.5535 10.444H18.1502C18.5355 10.444 18.849 10.7574 18.849 11.1427V12.1397H19.8459C20.2312 12.1397 20.5447 12.4531 20.5447 12.8384V14.4351C20.5447 14.8204 20.2312 15.1339 19.8459 15.1339H18.849V16.1308C18.849 16.5161 18.5355 16.8296 18.1502 16.8296Z" fill="#F2C618"/>
<path fill-rule="evenodd" clip-rule="evenodd" d="M32.4639 21.2682C32.2434 21.2682 23.3247 21.114 23.3247 20.9243V20.027C23.3247 19.3426 23.8815 18.7857 24.5659 18.7857H31.5665C32.251 18.7857 32.8078 19.3426 32.8078 20.027V20.9243C32.8078 21.1142 32.6539 21.2682 32.4639 21.2682Z" fill="#F2C618"/>
<path fill-rule="evenodd" clip-rule="evenodd" d="M19.7339 33.92H14.9697C14.7797 33.92 14.6257 33.766 14.6257 33.5761V28.5986C14.6257 28.1325 15.005 27.7532 15.4712 27.7532H19.2324C19.6986 27.7532 20.0779 28.1325 20.0779 28.5986V33.5761C20.0779 33.7661 19.9239 33.92 19.7339 33.92ZM18.383 31.4492C18.1931 31.4492 18.0391 31.2952 18.0391 31.1053V30.5681C18.0391 30.3781 18.193 30.2241 18.383 30.2241C18.5729 30.2241 18.7269 30.3782 18.7269 30.5681V31.1053C18.7269 31.2952 18.5729 31.4492 18.383 31.4492Z" fill="#F2C618"/>
<path fill-rule="evenodd" clip-rule="evenodd" d="M33.262 33.92H11.1019C10.9119 33.92 10.758 33.7662 10.758 33.5761C10.758 33.3861 10.912 33.2324 11.1019 33.2324H33.262C33.452 33.2324 33.6059 33.3862 33.6059 33.5761C33.6059 33.7661 33.452 33.92 33.262 33.92Z" fill="#F2C618"/>
<path fill-rule="evenodd" clip-rule="evenodd" d="M22.182 2.386C31.5048 2.386 39.2025 9.89773 40.3658 19.621C39.3181 8.57657 31.5764 0 22.182 0C12.7875 0 5.04599 8.57645 3.99825 19.621C5.16162 9.89773 12.8593 2.386 22.182 2.386Z" fill="#4A3AFF"/>
<path fill-rule="evenodd" clip-rule="evenodd" d="M40.3658 24.7431C39.2025 34.4663 31.5048 41.9781 22.182 41.9781C12.8592 41.9781 5.16162 34.4663 3.99825 24.7431C5.04599 35.7875 12.7876 44.3641 22.182 44.3641C31.5763 44.3641 39.3181 35.7875 40.3658 24.7431Z" fill="#4A3AFF"/>
<path fill-rule="evenodd" clip-rule="evenodd" d="M41.9781 22.182C41.9781 31.5048 34.4664 39.2025 24.7431 40.3659C35.7875 39.3181 44.3641 31.5765 44.3641 22.182C44.3641 12.7876 35.7875 5.04588 24.7431 3.99829C34.4663 5.16163 41.9781 12.8593 41.9781 22.182Z" fill="#4A3AFF"/>
<path fill-rule="evenodd" clip-rule="evenodd" d="M19.621 40.3659C9.89785 39.2024 2.386 31.5047 2.386 22.182C2.386 12.8593 9.89773 5.16151 19.621 3.99829C8.57657 5.046 3.8147e-05 12.7876 3.8147e-05 22.182C3.8147e-05 31.5765 8.57657 39.3181 19.621 40.3659Z" fill="#4A3AFF"/>
<path fill-rule="evenodd" clip-rule="evenodd" d="M30.2699 7.80359C30.0704 7.80359 29.9088 7.85314 29.9088 7.91444C29.9088 7.97564 30.0703 8.02508 30.2699 8.02508C30.4692 8.02508 30.6311 7.97564 30.6311 7.91444C30.6311 7.85314 30.4694 7.80359 30.2699 7.80359Z" fill="#F2C618"/>
<path fill-rule="evenodd" clip-rule="evenodd" d="M27.8735 7.10415C27.6741 7.10415 27.5123 7.15367 27.5123 7.21487L27.5125 7.21762C27.6088 7.25196 27.705 7.28725 27.8005 7.32348C27.8242 7.32491 27.8485 7.32564 27.8736 7.32564C28.073 7.32564 28.2347 7.27608 28.2347 7.21487C28.2347 7.15367 28.0731 7.10415 27.8736 7.10415H27.8735Z" fill="#F2C618"/>
<path fill-rule="evenodd" clip-rule="evenodd" d="M23.4098 5.93165C23.2102 5.93165 23.0485 5.98118 23.0485 6.04238C23.0485 6.10359 23.2102 6.15315 23.4098 6.15315C23.6091 6.15315 23.7708 6.10359 23.7708 6.04238C23.7708 5.98117 23.6091 5.93165 23.4098 5.93165Z" fill="#F2C618"/>
<path fill-rule="evenodd" clip-rule="evenodd" d="M25.4476 6.56668C25.3544 6.56668 25.2696 6.57486 25.2055 6.5884C25.3849 6.62299 25.5635 6.65971 25.7406 6.70022C25.7835 6.68632 25.8087 6.66944 25.8087 6.65092C25.8087 6.60446 25.647 6.56668 25.4477 6.56668L25.4476 6.56668Z" fill="#F2C618"/>
<path fill-rule="evenodd" clip-rule="evenodd" d="M29.0978 6.64569C28.8984 6.64569 28.7368 6.68347 28.7368 6.72995C28.7368 6.77652 28.8984 6.8143 29.0978 6.8143C29.2973 6.8143 29.459 6.77652 29.459 6.72995C29.459 6.68347 29.2973 6.64569 29.0978 6.64569Z" fill="#F2C618"/>
<path fill-rule="evenodd" clip-rule="evenodd" d="M27.2758 6.12746C27.0764 6.12746 26.9148 6.16512 26.9148 6.21173C26.9148 6.2583 27.0763 6.29596 27.2758 6.29596C27.4753 6.29596 27.637 6.2583 27.637 6.21173C27.637 6.16512 27.4753 6.12746 27.2758 6.12746Z" fill="#F2C618"/>
<path fill-rule="evenodd" clip-rule="evenodd" d="M25.3182 5.32302C25.1187 5.32302 24.9569 5.37269 24.9569 5.43387C24.9569 5.49495 25.1187 5.54463 25.3182 5.54463C25.5176 5.54463 25.6792 5.49495 25.6792 5.43387C25.6792 5.37269 25.5177 5.32302 25.3182 5.32302Z" fill="#F2C618"/>
<path fill-rule="evenodd" clip-rule="evenodd" d="M27.3237 5.31812C27.1243 5.31812 26.9626 5.36768 26.9626 5.42898C26.9626 5.49006 27.1243 5.53962 27.3237 5.53962C27.5231 5.53962 27.6848 5.49007 27.6848 5.42898C27.6848 5.36768 27.5231 5.31812 27.3237 5.31812Z" fill="#F2C618"/>
<path fill-rule="evenodd" clip-rule="evenodd" d="M35.229 9.54205C35.0296 9.54205 34.8679 9.59161 34.8679 9.65281C34.8679 9.7139 35.0296 9.76354 35.229 9.76354C35.4286 9.76354 35.5902 9.7139 35.5902 9.65281C35.5902 9.5916 35.4286 9.54205 35.229 9.54205Z" fill="#F2C618"/>
<path fill-rule="evenodd" clip-rule="evenodd" d="M32.833 8.8425C32.6335 8.8425 32.4717 8.89217 32.4717 8.95338C32.4717 9.01443 32.6336 9.06411 32.833 9.06411C33.0323 9.06411 33.1941 9.01443 33.1941 8.95338C33.1941 8.89217 33.0323 8.8425 32.833 8.8425Z" fill="#F2C618"/>
<path fill-rule="evenodd" clip-rule="evenodd" d="M30.4068 8.30503C30.2188 8.30503 30.0642 8.33855 30.0472 8.38145C30.0886 8.40508 30.1297 8.42908 30.1708 8.45309C30.234 8.46592 30.3166 8.47365 30.4069 8.47365C30.6064 8.47365 30.7681 8.43587 30.7681 8.38929C30.7681 8.34269 30.6064 8.30503 30.4069 8.30503H30.4068Z" fill="#F2C618"/>
<path fill-rule="evenodd" clip-rule="evenodd" d="M34.057 8.38406C33.8576 8.38406 33.696 8.42172 33.696 8.46829C33.696 8.5149 33.8578 8.55268 34.057 8.55268C34.2565 8.55268 34.4183 8.5149 34.4183 8.46829C34.4183 8.42172 34.2565 8.38406 34.057 8.38406Z" fill="#F2C618"/>
<path fill-rule="evenodd" clip-rule="evenodd" d="M32.2353 7.86586C32.0358 7.86586 31.8742 7.90351 31.8742 7.95009C31.8742 7.99667 32.0359 8.03435 32.2353 8.03435C32.4347 8.03435 32.5964 7.99666 32.5964 7.95009C32.5964 7.90352 32.4346 7.86586 32.2353 7.86586Z" fill="#F2C618"/>
<path fill-rule="evenodd" clip-rule="evenodd" d="M30.2776 7.06136C30.0782 7.06136 29.9164 7.11104 29.9164 7.17224C29.9164 7.23344 30.0782 7.28297 30.2776 7.28297C30.477 7.28297 30.6387 7.23344 30.6387 7.17224C30.6387 7.11104 30.4771 7.06136 30.2776 7.06136Z" fill="#F2C618"/>
<path fill-rule="evenodd" clip-rule="evenodd" d="M32.283 7.05647C32.0835 7.05647 31.9219 7.10603 31.9219 7.16723C31.9219 7.22844 32.0835 7.27808 32.283 7.27808C32.4825 7.27808 32.6442 7.2284 32.6442 7.16723C32.6442 7.10606 32.4824 7.05647 32.283 7.05647Z" fill="#F2C618"/>
<path fill-rule="evenodd" clip-rule="evenodd" d="M33.0917 9.96688C32.8922 9.96688 32.7304 10.0166 32.7304 10.0778C32.7304 10.1388 32.8922 10.1885 33.0917 10.1885C33.2911 10.1885 33.4527 10.1391 33.4527 10.0778C33.4527 10.0166 33.2912 9.96688 33.0917 9.96688Z" fill="#F2C618"/>
<path fill-rule="evenodd" clip-rule="evenodd" d="M35.0493 11.7554C34.8499 11.7554 34.6881 11.8049 34.6881 11.8661C34.6881 11.9273 34.8499 11.9769 35.0493 11.9769C35.2487 11.9769 35.4104 11.9274 35.4104 11.8661C35.4104 11.8049 35.2487 11.7554 35.0493 11.7554Z" fill="#F2C618"/>
<path fill-rule="evenodd" clip-rule="evenodd" d="M39.2416 14.7905C39.0422 14.7905 38.8805 14.8401 38.8805 14.9013C38.8805 14.9625 39.0421 15.012 39.2416 15.012C39.4411 15.012 39.6027 14.9625 39.6027 14.9013C39.6027 14.8401 39.441 14.7905 39.2416 14.7905Z" fill="#F2C618"/>
<path fill-rule="evenodd" clip-rule="evenodd" d="M36.8454 14.091C36.646 14.091 36.4844 14.1406 36.4844 14.2018C36.4844 14.2629 36.6458 14.3126 36.8454 14.3126C37.0449 14.3126 37.2065 14.2629 37.2065 14.2018C37.2065 14.1406 37.0449 14.091 36.8454 14.091Z" fill="#F2C618"/>
<path fill-rule="evenodd" clip-rule="evenodd" d="M36.9153 16.221H36.9065C36.9358 16.2937 36.9652 16.3667 36.9936 16.4399C37.1554 16.429 37.2764 16.3848 37.2764 16.3319C37.2764 16.2707 37.1148 16.221 36.9153 16.221Z" fill="#F2C618"/>
<path fill-rule="evenodd" clip-rule="evenodd" d="M38.0696 13.6325C37.8702 13.6325 37.7085 13.6703 37.7085 13.7168C37.7085 13.7634 37.8702 13.8012 38.0696 13.8012C38.2691 13.8012 38.4307 13.7634 38.4307 13.7168C38.4307 13.6701 38.2691 13.6325 38.0696 13.6325Z" fill="#F2C618"/>
<path fill-rule="evenodd" clip-rule="evenodd" d="M36.2476 13.1142C36.0482 13.1142 35.8864 13.152 35.8864 13.1985C35.8864 13.2451 36.0481 13.2828 36.2476 13.2828C36.4471 13.2828 36.6087 13.245 36.6087 13.1985C36.6087 13.152 36.447 13.1142 36.2476 13.1142Z" fill="#F2C618"/>
<path fill-rule="evenodd" clip-rule="evenodd" d="M36.2956 12.305C36.0961 12.305 35.9343 12.3545 35.9343 12.4157C35.9343 12.4769 36.0962 12.5265 36.2956 12.5265C36.495 12.5265 36.6566 12.4769 36.6566 12.4157C36.6566 12.3545 36.4951 12.305 36.2956 12.305Z" fill="#F2C618"/>
<path fill-rule="evenodd" clip-rule="evenodd" d="M37.1041 15.2155C36.9047 15.2155 36.743 15.265 36.743 15.3262C36.743 15.3874 36.9045 15.437 37.1041 15.437C37.3036 15.437 37.4652 15.3874 37.4652 15.3262C37.4652 15.265 37.3036 15.2155 37.1041 15.2155Z" fill="#F2C618"/>
<path fill-rule="evenodd" clip-rule="evenodd" d="M39.0618 17.0038C38.8623 17.0038 38.7007 17.0535 38.7007 17.1146C38.7007 17.1758 38.8624 17.2255 39.0618 17.2255C39.2613 17.2255 39.4229 17.1759 39.4229 17.1146C39.4229 17.0535 39.2613 17.0038 39.0618 17.0038Z" fill="#F2C618"/>
<path fill-rule="evenodd" clip-rule="evenodd" d="M40.3164 19.7471C40.1169 19.7471 39.9552 19.7967 39.9552 19.8579C39.9552 19.919 40.1169 19.9687 40.3164 19.9687C40.5159 19.9687 40.6775 19.919 40.6775 19.8579C40.6775 19.7967 40.5158 19.7471 40.3164 19.7471Z" fill="#F2C618"/>
<path fill-rule="evenodd" clip-rule="evenodd" d="M37.9201 19.0476C37.8613 19.0476 37.8058 19.0519 37.7566 19.0596C37.77 19.1269 37.7828 19.1946 37.7956 19.2623C37.8343 19.2667 37.8763 19.2691 37.9201 19.2691C38.1195 19.2691 38.2811 19.2194 38.2811 19.1583C38.2811 19.0972 38.1194 19.0475 37.9201 19.0475V19.0476Z" fill="#F2C618"/>
<path fill-rule="evenodd" clip-rule="evenodd" d="M38.0449 21.3978C38.2183 21.3898 38.3512 21.3436 38.3512 21.2882C38.3512 21.2314 38.2115 21.1847 38.0318 21.1782C38.0364 21.2513 38.0413 21.3243 38.0449 21.3978Z" fill="#F2C618"/>
<path fill-rule="evenodd" clip-rule="evenodd" d="M39.1444 18.5891C38.9449 18.5891 38.7831 18.6268 38.7831 18.6735C38.7831 18.7201 38.945 18.7577 39.1444 18.7577C39.3438 18.7577 39.5054 18.7199 39.5054 18.6735C39.5054 18.6268 39.3439 18.5891 39.1444 18.5891Z" fill="#F2C618"/>
<path fill-rule="evenodd" clip-rule="evenodd" d="M37.5655 18.2175C37.638 18.202 37.6834 18.1799 37.6834 18.1552C37.6834 18.1267 37.6228 18.1015 37.5301 18.0861C37.5417 18.1299 37.5541 18.1734 37.5655 18.2175Z" fill="#F2C618"/>
<path fill-rule="evenodd" clip-rule="evenodd" d="M37.3702 17.2617C37.3415 17.2617 37.3138 17.2628 37.2872 17.2647C37.311 17.3373 37.3349 17.41 37.3576 17.4832H37.3703C37.5697 17.4832 37.7314 17.4337 37.7314 17.3725C37.7314 17.3113 37.5697 17.2617 37.3703 17.2617H37.3702Z" fill="#F2C618"/>
<path fill-rule="evenodd" clip-rule="evenodd" d="M38.1787 20.1723C38.0878 20.1723 38.0047 20.1825 37.9413 20.1995C37.9484 20.2566 37.9545 20.3139 37.961 20.3713C38.0215 20.3853 38.0969 20.3936 38.1788 20.3936C38.3782 20.3936 38.5399 20.3441 38.5399 20.2829C38.5399 20.2216 38.3782 20.1721 38.1788 20.1721L38.1787 20.1723Z" fill="#F2C618"/>
<path fill-rule="evenodd" clip-rule="evenodd" d="M40.1364 21.9605C39.937 21.9605 39.7754 22.0101 39.7754 22.0712C39.7754 22.1323 39.937 22.182 40.1364 22.182C40.3359 22.182 40.4976 22.1323 40.4976 22.0712C40.4976 22.0101 40.3358 21.9605 40.1364 21.9605Z" fill="#F2C618"/>
<path fill-rule="evenodd" clip-rule="evenodd" d="M14.0942 7.80359C14.2936 7.80359 14.4553 7.85314 14.4553 7.91444C14.4553 7.97564 14.2936 8.02508 14.0942 8.02508C13.8948 8.02508 13.7331 7.97564 13.7331 7.91444C13.7331 7.85314 13.8948 7.80359 14.0942 7.80359Z" fill="#F2C618"/>
<path fill-rule="evenodd" clip-rule="evenodd" d="M16.4905 7.10415C16.69 7.10415 16.8516 7.15367 16.8516 7.21487L16.8515 7.21762C16.7552 7.25196 16.6591 7.28725 16.5635 7.32339C16.54 7.32491 16.5156 7.32564 16.4905 7.32564C16.291 7.32564 16.1294 7.27609 16.1294 7.21488C16.1294 7.15367 16.291 7.10415 16.4905 7.10415Z" fill="#F2C618"/>
<path fill-rule="evenodd" clip-rule="evenodd" d="M20.9544 5.93165C21.1539 5.93165 21.3156 5.98118 21.3156 6.04238C21.3156 6.10359 21.1538 6.15315 20.9544 6.15315C20.755 6.15315 20.5933 6.10359 20.5933 6.04238C20.5933 5.98117 20.755 5.93165 20.9544 5.93165Z" fill="#F2C618"/>
<path fill-rule="evenodd" clip-rule="evenodd" d="M18.9164 6.56668C19.0096 6.56668 19.0945 6.57486 19.1586 6.5884C18.9793 6.62299 18.8007 6.65971 18.6235 6.70022C18.5806 6.68632 18.5553 6.66944 18.5553 6.65092C18.5553 6.60446 18.717 6.56668 18.9166 6.56668L18.9164 6.56668Z" fill="#F2C618"/>
<path fill-rule="evenodd" clip-rule="evenodd" d="M15.2662 6.64569C15.4657 6.64569 15.6273 6.68347 15.6273 6.72995C15.6273 6.77652 15.4657 6.8143 15.2662 6.8143C15.0667 6.8143 14.9051 6.77652 14.9051 6.72995C14.9051 6.68347 15.0668 6.64569 15.2662 6.64569Z" fill="#F2C618"/>
<path fill-rule="evenodd" clip-rule="evenodd" d="M17.0882 6.12746C17.2877 6.12746 17.4494 6.16512 17.4494 6.21173C17.4494 6.2583 17.2877 6.29596 17.0882 6.29596C16.8888 6.29596 16.7271 6.2583 16.7271 6.21173C16.7271 6.16512 16.8888 6.12746 17.0882 6.12746Z" fill="#F2C618"/>
<path fill-rule="evenodd" clip-rule="evenodd" d="M19.0458 5.32302C19.2452 5.32302 19.407 5.37269 19.407 5.43387C19.407 5.49495 19.2452 5.54463 19.0458 5.54463C18.8465 5.54463 18.6848 5.49495 18.6848 5.43387C18.6848 5.37269 18.8463 5.32302 19.0458 5.32302Z" fill="#F2C618"/>
<path fill-rule="evenodd" clip-rule="evenodd" d="M17.0405 5.31812C17.24 5.31812 17.4017 5.36768 17.4017 5.42898C17.4017 5.49006 17.2399 5.53962 17.0405 5.53962C16.8411 5.53962 16.6794 5.49007 16.6794 5.42898C16.6794 5.36768 16.841 5.31812 17.0405 5.31812Z" fill="#F2C618"/>
<path fill-rule="evenodd" clip-rule="evenodd" d="M9.13496 9.54205C9.33446 9.54205 9.49608 9.59161 9.49608 9.65281C9.49608 9.7139 9.33446 9.76354 9.13496 9.76354C8.93546 9.76354 8.77383 9.7139 8.77383 9.65281C8.77383 9.5916 8.93556 9.54205 9.13496 9.54205Z" fill="#F2C618"/>
<path fill-rule="evenodd" clip-rule="evenodd" d="M11.5312 8.8425C11.7307 8.8425 11.8923 8.89217 11.8923 8.95338C11.8923 9.01443 11.7307 9.06411 11.5312 9.06411C11.3316 9.06411 11.17 9.01443 11.17 8.95338C11.17 8.89217 11.3317 8.8425 11.5312 8.8425Z" fill="#F2C618"/>
<path fill-rule="evenodd" clip-rule="evenodd" d="M13.9572 8.30503C14.1453 8.30503 14.2998 8.33855 14.3168 8.38145C14.2755 8.40508 14.2344 8.42921 14.1935 8.45309C14.1302 8.46592 14.0476 8.47365 13.9573 8.47365C13.7578 8.47365 13.5962 8.43587 13.5962 8.38929C13.5962 8.34269 13.7578 8.30503 13.9573 8.30503H13.9572Z" fill="#F2C618"/>
<path fill-rule="evenodd" clip-rule="evenodd" d="M10.3068 8.38406C10.5064 8.38406 10.6679 8.42172 10.6679 8.46829C10.6679 8.5149 10.5064 8.55268 10.3068 8.55268C10.1073 8.55268 9.9457 8.5149 9.9457 8.46829C9.9457 8.42172 10.1073 8.38406 10.3068 8.38406Z" fill="#F2C618"/>
<path fill-rule="evenodd" clip-rule="evenodd" d="M12.1289 7.86586C12.3282 7.86586 12.49 7.90351 12.49 7.95009C12.49 7.99667 12.3282 8.03435 12.1289 8.03435C11.9293 8.03435 11.7677 7.99666 11.7677 7.95009C11.7677 7.90352 11.9295 7.86586 12.1289 7.86586Z" fill="#F2C618"/>
<path fill-rule="evenodd" clip-rule="evenodd" d="M14.0866 7.06136C14.286 7.06136 14.4476 7.11104 14.4476 7.17224C14.4476 7.23344 14.2861 7.28297 14.0866 7.28297C13.887 7.28297 13.7254 7.23344 13.7254 7.17224C13.7254 7.11104 13.8871 7.06136 14.0866 7.06136Z" fill="#F2C618"/>
<path fill-rule="evenodd" clip-rule="evenodd" d="M12.0811 7.05647C12.2805 7.05647 12.4421 7.10603 12.4421 7.16723C12.4421 7.22844 12.2804 7.27808 12.0811 7.27808C11.8816 7.27808 11.7198 7.2284 11.7198 7.16723C11.7198 7.10606 11.8817 7.05647 12.0811 7.05647Z" fill="#F2C618"/>
<path fill-rule="evenodd" clip-rule="evenodd" d="M11.2724 9.96688C11.472 9.96688 11.6336 10.0166 11.6336 10.0778C11.6336 10.1388 11.472 10.1885 11.2724 10.1885C11.0731 10.1885 10.9113 10.1391 10.9113 10.0778C10.9113 10.0166 11.0729 9.96688 11.2724 9.96688Z" fill="#F2C618"/>
<path fill-rule="evenodd" clip-rule="evenodd" d="M9.31473 11.7554C9.51426 11.7554 9.67597 11.8049 9.67597 11.8661C9.67597 11.9273 9.51426 11.9769 9.31473 11.9769C9.11532 11.9769 8.95373 11.9274 8.95373 11.8661C8.95373 11.8049 9.1152 11.7554 9.31473 11.7554Z" fill="#F2C618"/>
<path fill-rule="evenodd" clip-rule="evenodd" d="M5.12241 14.7905C5.32194 14.7905 5.48356 14.8401 5.48356 14.9013C5.48356 14.9625 5.32193 15.012 5.12241 15.012C4.92288 15.012 4.76128 14.9625 4.76128 14.9013C4.76128 14.8401 4.92303 14.7905 5.12241 14.7905Z" fill="#F2C618"/>
<path fill-rule="evenodd" clip-rule="evenodd" d="M7.51877 14.091C7.71817 14.091 7.87989 14.1406 7.87989 14.2018C7.87989 14.2629 7.71817 14.3126 7.51877 14.3126C7.31924 14.3126 7.15765 14.2629 7.15765 14.2018C7.15765 14.1406 7.31936 14.091 7.51877 14.091Z" fill="#F2C618"/>
<path fill-rule="evenodd" clip-rule="evenodd" d="M7.44875 16.221H7.45755C7.42807 16.2937 7.39883 16.3667 7.37045 16.4399C7.20862 16.429 7.08752 16.3848 7.08752 16.3319C7.08752 16.2707 7.24926 16.221 7.44864 16.221H7.44875Z" fill="#F2C618"/>
<path fill-rule="evenodd" clip-rule="evenodd" d="M6.29447 13.6325C6.49384 13.6325 6.65559 13.6703 6.65559 13.7168C6.65559 13.7634 6.49384 13.8012 6.29447 13.8012C6.09509 13.8012 5.93334 13.7634 5.93334 13.7168C5.93334 13.6701 6.09506 13.6325 6.29447 13.6325Z" fill="#F2C618"/>
<path fill-rule="evenodd" clip-rule="evenodd" d="M8.11644 13.1142C8.31585 13.1142 8.47756 13.152 8.47756 13.1985C8.47756 13.2451 8.31585 13.2828 8.11644 13.2828C7.91703 13.2828 7.75532 13.245 7.75532 13.1985C7.75532 13.152 7.91706 13.1142 8.11644 13.1142Z" fill="#F2C618"/>
<path fill-rule="evenodd" clip-rule="evenodd" d="M8.06869 12.305C8.2681 12.305 8.42981 12.3545 8.42981 12.4157C8.42981 12.4769 8.2681 12.5265 8.06869 12.5265C7.86916 12.5265 7.70757 12.4769 7.70757 12.4157C7.70757 12.3545 7.86916 12.305 8.06869 12.305Z" fill="#F2C618"/>
<path fill-rule="evenodd" clip-rule="evenodd" d="M7.26004 15.2155C7.45944 15.2155 7.62104 15.265 7.62104 15.3262C7.62104 15.3874 7.45944 15.437 7.26004 15.437C7.06051 15.437 6.8988 15.3874 6.8988 15.3262C6.8988 15.265 7.06051 15.2155 7.26004 15.2155Z" fill="#F2C618"/>
<path fill-rule="evenodd" clip-rule="evenodd" d="M5.30233 17.0038C5.50171 17.0038 5.66345 17.0535 5.66345 17.1146C5.66345 17.1758 5.50171 17.2255 5.30233 17.2255C5.10295 17.2255 4.94118 17.1759 4.94118 17.1146C4.94118 17.0535 5.10293 17.0038 5.30233 17.0038Z" fill="#F2C618"/>
<path fill-rule="evenodd" clip-rule="evenodd" d="M4.04782 19.7471C4.24723 19.7471 4.40895 19.7967 4.40895 19.8579C4.40895 19.919 4.24723 19.9687 4.04782 19.9687C3.84842 19.9687 3.68658 19.919 3.68658 19.8579C3.68658 19.7967 3.84833 19.7471 4.04782 19.7471Z" fill="#F2C618"/>
<path fill-rule="evenodd" clip-rule="evenodd" d="M6.44406 19.0476C6.50287 19.0476 6.55838 19.0519 6.60745 19.0596C6.59413 19.1269 6.5812 19.1946 6.5686 19.2623C6.52985 19.2667 6.48777 19.2691 6.44406 19.2691C6.24466 19.2691 6.08294 19.2194 6.08294 19.1583C6.08294 19.0972 6.24465 19.0475 6.44406 19.0475V19.0476Z" fill="#F2C618"/>
<path fill-rule="evenodd" clip-rule="evenodd" d="M6.31914 21.3978C6.14577 21.3898 6.01293 21.3436 6.01293 21.2882C6.01293 21.2314 6.15244 21.1847 6.33235 21.1782C6.32772 21.2513 6.32262 21.3243 6.31914 21.3978Z" fill="#F2C618"/>
<path fill-rule="evenodd" clip-rule="evenodd" d="M5.21976 18.5891C5.41926 18.5891 5.58089 18.6268 5.58089 18.6735C5.58089 18.7201 5.41926 18.7577 5.21976 18.7577C5.02027 18.7577 4.85864 18.7199 4.85864 18.6735C4.85864 18.6268 5.02035 18.5891 5.21976 18.5891Z" fill="#F2C618"/>
<path fill-rule="evenodd" clip-rule="evenodd" d="M6.79861 18.2175C6.72612 18.202 6.68061 18.1799 6.68061 18.1552C6.68061 18.1267 6.74121 18.1015 6.83402 18.0861C6.82237 18.1301 6.8099 18.1735 6.79861 18.2175Z" fill="#F2C618"/>
<path fill-rule="evenodd" clip-rule="evenodd" d="M6.99398 17.2617C7.02261 17.2617 7.05029 17.2628 7.07703 17.2647C7.05327 17.3373 7.02927 17.41 7.0067 17.4832H6.99398C6.79445 17.4832 6.63286 17.4337 6.63286 17.3725C6.63286 17.3113 6.79445 17.2617 6.99398 17.2617Z" fill="#F2C618"/>
<path fill-rule="evenodd" clip-rule="evenodd" d="M6.18533 20.1723C6.27623 20.1723 6.35931 20.1825 6.42277 20.1995C6.4155 20.2566 6.40968 20.3139 6.40303 20.3713C6.34255 20.3853 6.26708 20.3936 6.18522 20.3936C5.98581 20.3936 5.8241 20.3441 5.8241 20.2829C5.8241 20.2216 5.98581 20.1721 6.18522 20.1721L6.18533 20.1723Z" fill="#F2C618"/>
<path fill-rule="evenodd" clip-rule="evenodd" d="M4.2276 21.9605C4.42713 21.9605 4.58872 22.0101 4.58872 22.0712C4.58872 22.1323 4.42713 22.182 4.2276 22.182C4.02822 22.182 3.86648 22.1323 3.86648 22.0712C3.86648 22.0101 4.02822 21.9605 4.2276 21.9605Z" fill="#F2C618"/>
<path fill-rule="evenodd" clip-rule="evenodd" d="M30.2699 36.5603C30.0704 36.5603 29.9088 36.5108 29.9088 36.4496C29.9088 36.3883 30.0703 36.3388 30.2699 36.3388C30.4692 36.3388 30.6311 36.3882 30.6311 36.4496C30.6311 36.5108 30.4694 36.5603 30.2699 36.5603Z" fill="#F2C618"/>
<path fill-rule="evenodd" clip-rule="evenodd" d="M27.8735 37.26C27.6741 37.26 27.5123 37.2103 27.5123 37.1492L27.5125 37.1465C27.6088 37.112 27.705 37.0769 27.8005 37.0407C27.8242 37.0393 27.8485 37.0385 27.8736 37.0385C28.073 37.0385 28.2347 37.0881 28.2347 37.1492C28.2347 37.2104 28.0731 37.2601 27.8736 37.2601L27.8735 37.26Z" fill="#F2C618"/>
<path fill-rule="evenodd" clip-rule="evenodd" d="M23.4098 38.4325C23.2102 38.4325 23.0485 38.3828 23.0485 38.3217C23.0485 38.2605 23.2102 38.2109 23.4098 38.2109C23.6091 38.2109 23.7708 38.2605 23.7708 38.3217C23.7708 38.3828 23.6091 38.4325 23.4098 38.4325Z" fill="#F2C618"/>
<path fill-rule="evenodd" clip-rule="evenodd" d="M25.4476 37.7973C25.3544 37.7973 25.2696 37.7891 25.2055 37.7756C25.3849 37.741 25.5635 37.7044 25.7406 37.6639C25.7835 37.6777 25.8087 37.6948 25.8087 37.7131C25.8087 37.7598 25.647 37.7975 25.4477 37.7975L25.4476 37.7973Z" fill="#F2C618"/>
<path fill-rule="evenodd" clip-rule="evenodd" d="M29.0978 37.7183C28.8984 37.7183 28.7368 37.6805 28.7368 37.634C28.7368 37.5875 28.8984 37.5497 29.0978 37.5497C29.2973 37.5497 29.459 37.5875 29.459 37.634C29.459 37.6805 29.2973 37.7183 29.0978 37.7183Z" fill="#F2C618"/>
<path fill-rule="evenodd" clip-rule="evenodd" d="M27.2758 38.2367C27.0764 38.2367 26.9148 38.1989 26.9148 38.1524C26.9148 38.1058 27.0763 38.0683 27.2758 38.0683C27.4753 38.0683 27.637 38.1059 27.637 38.1524C27.637 38.1991 27.4753 38.2367 27.2758 38.2367Z" fill="#F2C618"/>
<path fill-rule="evenodd" clip-rule="evenodd" d="M25.3182 39.041C25.1187 39.041 24.9569 38.9914 24.9569 38.9303C24.9569 38.8691 25.1187 38.8195 25.3182 38.8195C25.5176 38.8195 25.6792 38.8691 25.6792 38.9303C25.6792 38.9914 25.5177 39.041 25.3182 39.041Z" fill="#F2C618"/>
<path fill-rule="evenodd" clip-rule="evenodd" d="M27.3237 39.0459C27.1243 39.0459 26.9626 38.9964 26.9626 38.9351C26.9626 38.8739 27.1243 38.8244 27.3237 38.8244C27.5231 38.8244 27.6848 38.8738 27.6848 38.9351C27.6848 38.9964 27.5231 39.0459 27.3237 39.0459Z" fill="#F2C618"/>
<path fill-rule="evenodd" clip-rule="evenodd" d="M35.229 34.8221C35.0296 34.8221 34.8679 34.7724 34.8679 34.7112C34.8679 34.6501 35.0296 34.6005 35.229 34.6005C35.4286 34.6005 35.5902 34.6501 35.5902 34.7112C35.5902 34.7724 35.4286 34.8221 35.229 34.8221Z" fill="#F2C618"/>
<path fill-rule="evenodd" clip-rule="evenodd" d="M32.833 35.5215C32.6335 35.5215 32.4717 35.4718 32.4717 35.4108C32.4717 35.3496 32.6336 35.2999 32.833 35.2999C33.0323 35.2999 33.1941 35.3496 33.1941 35.4108C33.1941 35.4718 33.0323 35.5215 32.833 35.5215Z" fill="#F2C618"/>
<path fill-rule="evenodd" clip-rule="evenodd" d="M30.4068 36.0591C30.2188 36.0591 30.0642 36.0255 30.0472 35.9827C30.0886 35.9592 30.1297 35.935 30.1708 35.911C30.234 35.8982 30.3166 35.8905 30.4069 35.8905C30.6064 35.8905 30.7681 35.9283 30.7681 35.9748C30.7681 36.0214 30.6064 36.0591 30.4069 36.0591H30.4068Z" fill="#F2C618"/>
<path fill-rule="evenodd" clip-rule="evenodd" d="M34.057 35.9801C33.8576 35.9801 33.696 35.9423 33.696 35.8958C33.696 35.8491 33.8578 35.8115 34.057 35.8115C34.2565 35.8115 34.4183 35.8492 34.4183 35.8958C34.4183 35.9424 34.2565 35.9801 34.057 35.9801Z" fill="#F2C618"/>
<path fill-rule="evenodd" clip-rule="evenodd" d="M32.2353 36.4981C32.0358 36.4981 31.8742 36.4604 31.8742 36.4138C31.8742 36.3672 32.0359 36.3295 32.2353 36.3295C32.4347 36.3295 32.5964 36.3673 32.5964 36.4138C32.5964 36.4604 32.4346 36.4981 32.2353 36.4981Z" fill="#F2C618"/>
<path fill-rule="evenodd" clip-rule="evenodd" d="M30.2776 37.3025C30.0782 37.3025 29.9164 37.253 29.9164 37.1918C29.9164 37.1306 30.0782 37.081 30.2776 37.081C30.477 37.081 30.6387 37.1306 30.6387 37.1918C30.6387 37.253 30.4771 37.3025 30.2776 37.3025Z" fill="#F2C618"/>
<path fill-rule="evenodd" clip-rule="evenodd" d="M32.283 37.3076C32.0835 37.3076 31.9219 37.2579 31.9219 37.1967C31.9219 37.1357 32.0835 37.086 32.283 37.086C32.4825 37.086 32.6442 37.1357 32.6442 37.1967C32.6442 37.2579 32.4824 37.3076 32.283 37.3076Z" fill="#F2C618"/>
<path fill-rule="evenodd" clip-rule="evenodd" d="M33.0917 34.3971C32.8922 34.3971 32.7304 34.3475 32.7304 34.2863C32.7304 34.2252 32.8922 34.1755 33.0917 34.1755C33.2911 34.1755 33.4527 34.225 33.4527 34.2863C33.4527 34.3475 33.2912 34.3971 33.0917 34.3971Z" fill="#F2C618"/>
<path fill-rule="evenodd" clip-rule="evenodd" d="M35.0493 32.6086C34.8499 32.6086 34.6881 32.5591 34.6881 32.4979C34.6881 32.4367 34.8499 32.3871 35.0493 32.3871C35.2487 32.3871 35.4104 32.4366 35.4104 32.4979C35.4104 32.5591 35.2487 32.6086 35.0493 32.6086Z" fill="#F2C618"/>
<path fill-rule="evenodd" clip-rule="evenodd" d="M39.2416 29.5736C39.0422 29.5736 38.8805 29.5239 38.8805 29.4627C38.8805 29.4016 39.0421 29.352 39.2416 29.352C39.4411 29.352 39.6027 29.4016 39.6027 29.4627C39.6027 29.5239 39.441 29.5736 39.2416 29.5736Z" fill="#F2C618"/>
<path fill-rule="evenodd" clip-rule="evenodd" d="M36.8454 30.273C36.646 30.273 36.4844 30.2234 36.4844 30.1623C36.4844 30.1011 36.6458 30.0514 36.8454 30.0514C37.0449 30.0514 37.2065 30.1011 37.2065 30.1623C37.2065 30.2234 37.0449 30.273 36.8454 30.273Z" fill="#F2C618"/>
<path fill-rule="evenodd" clip-rule="evenodd" d="M36.9153 28.143H36.9065C36.9358 28.0704 36.9652 27.9973 36.9936 27.9241C37.1554 27.935 37.2764 27.9792 37.2764 28.0322C37.2764 28.0933 37.1148 28.143 36.9153 28.143Z" fill="#F2C618"/>
<path fill-rule="evenodd" clip-rule="evenodd" d="M38.0696 30.7315C37.8702 30.7315 37.7085 30.6938 37.7085 30.6473C37.7085 30.6006 37.8702 30.563 38.0696 30.563C38.2691 30.563 38.4307 30.6006 38.4307 30.6473C38.4307 30.6939 38.2691 30.7315 38.0696 30.7315Z" fill="#F2C618"/>
<path fill-rule="evenodd" clip-rule="evenodd" d="M36.2476 31.2498C36.0482 31.2498 35.8864 31.2121 35.8864 31.1655C35.8864 31.1188 36.0481 31.0813 36.2476 31.0813C36.4471 31.0813 36.6087 31.119 36.6087 31.1655C36.6087 31.2121 36.447 31.2498 36.2476 31.2498Z" fill="#F2C618"/>
<path fill-rule="evenodd" clip-rule="evenodd" d="M36.2956 32.059C36.0961 32.059 35.9343 32.0095 35.9343 31.9483C35.9343 31.8872 36.0962 31.8375 36.2956 31.8375C36.495 31.8375 36.6566 31.8872 36.6566 31.9483C36.6566 32.0095 36.4951 32.059 36.2956 32.059Z" fill="#F2C618"/>
<path fill-rule="evenodd" clip-rule="evenodd" d="M37.1041 29.1487C36.9047 29.1487 36.743 29.099 36.743 29.0378C36.743 28.9767 36.9045 28.927 37.1041 28.927C37.3036 28.927 37.4652 28.9767 37.4652 29.0378C37.4652 29.099 37.3036 29.1487 37.1041 29.1487Z" fill="#F2C618"/>
<path fill-rule="evenodd" clip-rule="evenodd" d="M39.0618 27.3601C38.8623 27.3601 38.7007 27.3106 38.7007 27.2494C38.7007 27.1882 38.8624 27.1386 39.0618 27.1386C39.2613 27.1386 39.4229 27.188 39.4229 27.2494C39.4229 27.3106 39.2613 27.3601 39.0618 27.3601Z" fill="#F2C618"/>
<path fill-rule="evenodd" clip-rule="evenodd" d="M40.3164 24.617C40.1169 24.617 39.9552 24.5673 39.9552 24.5062C39.9552 24.445 40.1169 24.3953 40.3164 24.3953C40.5159 24.3953 40.6775 24.445 40.6775 24.5062C40.6775 24.5673 40.5158 24.617 40.3164 24.617Z" fill="#F2C618"/>
<path fill-rule="evenodd" clip-rule="evenodd" d="M37.9201 25.3164C37.8613 25.3164 37.8058 25.3121 37.7566 25.3044C37.77 25.2371 37.7828 25.1694 37.7956 25.1017C37.8343 25.0973 37.8763 25.0949 37.9201 25.0949C38.1195 25.0949 38.2811 25.1446 38.2811 25.2057C38.2811 25.2668 38.1194 25.3165 37.9201 25.3165V25.3164Z" fill="#F2C618"/>
<path fill-rule="evenodd" clip-rule="evenodd" d="M38.0449 22.9661C38.2183 22.9742 38.3512 23.0204 38.3512 23.0758C38.3512 23.1326 38.2115 23.1795 38.0318 23.1858C38.0364 23.1128 38.0413 23.0397 38.0449 22.9663V22.9661Z" fill="#F2C618"/>
<path fill-rule="evenodd" clip-rule="evenodd" d="M39.1444 25.775C38.9449 25.775 38.7831 25.7372 38.7831 25.6906C38.7831 25.6439 38.945 25.6063 39.1444 25.6063C39.3438 25.6063 39.5054 25.6441 39.5054 25.6906C39.5054 25.7372 39.3439 25.775 39.1444 25.775Z" fill="#F2C618"/>
<path fill-rule="evenodd" clip-rule="evenodd" d="M37.5655 26.1465C37.638 26.162 37.6834 26.1842 37.6834 26.2089C37.6834 26.2373 37.6228 26.2625 37.5301 26.2778C37.5417 26.2341 37.5541 26.1906 37.5655 26.1465Z" fill="#F2C618"/>
<path fill-rule="evenodd" clip-rule="evenodd" d="M37.3702 27.1024C37.3415 27.1024 37.3138 27.1013 37.2872 27.0994C37.311 27.0267 37.3349 26.954 37.3576 26.8808H37.3703C37.5697 26.8808 37.7314 26.9305 37.7314 26.9916C37.7314 27.0527 37.5697 27.1024 37.3703 27.1024L37.3702 27.1024Z" fill="#F2C618"/>
<path fill-rule="evenodd" clip-rule="evenodd" d="M38.1787 24.1919C38.0878 24.1919 38.0047 24.1815 37.9413 24.1646C37.9484 24.1075 37.9545 24.0501 37.961 23.9927C38.0215 23.9788 38.0969 23.9704 38.1788 23.9704C38.3782 23.9704 38.5399 24.0201 38.5399 24.0812C38.5399 24.1425 38.3782 24.192 38.1788 24.192L38.1787 24.1919Z" fill="#F2C618"/>
<path fill-rule="evenodd" clip-rule="evenodd" d="M40.1364 22.4036C39.937 22.4036 39.7754 22.3539 39.7754 22.2928C39.7754 22.2317 39.937 22.182 40.1364 22.182C40.3359 22.182 40.4976 22.2317 40.4976 22.2928C40.4976 22.3539 40.3358 22.4036 40.1364 22.4036Z" fill="#F2C618"/>
<path fill-rule="evenodd" clip-rule="evenodd" d="M14.0942 36.5603C14.2936 36.5603 14.4553 36.5108 14.4553 36.4496C14.4553 36.3883 14.2936 36.3388 14.0942 36.3388C13.8948 36.3388 13.7331 36.3882 13.7331 36.4496C13.7331 36.5108 13.8948 36.5603 14.0942 36.5603Z" fill="#F2C618"/>
<path fill-rule="evenodd" clip-rule="evenodd" d="M16.4905 37.26C16.69 37.26 16.8516 37.2103 16.8516 37.1492L16.8515 37.1465C16.7552 37.112 16.6591 37.0769 16.5635 37.0407C16.54 37.0392 16.5156 37.0384 16.4905 37.0384C16.291 37.0384 16.1294 37.088 16.1294 37.1492C16.1294 37.2103 16.291 37.26 16.4905 37.26Z" fill="#F2C618"/>
<path fill-rule="evenodd" clip-rule="evenodd" d="M20.9544 38.4325C21.1539 38.4325 21.3156 38.3828 21.3156 38.3217C21.3156 38.2605 21.1538 38.2109 20.9544 38.2109C20.755 38.2109 20.5933 38.2605 20.5933 38.3217C20.5933 38.3828 20.755 38.4325 20.9544 38.4325Z" fill="#F2C618"/>
<path fill-rule="evenodd" clip-rule="evenodd" d="M18.9164 37.7973C19.0096 37.7973 19.0945 37.7891 19.1586 37.7756C18.9793 37.741 18.8007 37.7043 18.6235 37.6639C18.5806 37.6777 18.5553 37.6948 18.5553 37.7131C18.5553 37.7598 18.717 37.7975 18.9166 37.7975L18.9164 37.7973Z" fill="#F2C618"/>
<path fill-rule="evenodd" clip-rule="evenodd" d="M15.2662 37.7183C15.4657 37.7183 15.6273 37.6805 15.6273 37.634C15.6273 37.5875 15.4657 37.5497 15.2662 37.5497C15.0667 37.5497 14.9051 37.5875 14.9051 37.634C14.9051 37.6805 15.0668 37.7183 15.2662 37.7183Z" fill="#F2C618"/>
<path fill-rule="evenodd" clip-rule="evenodd" d="M17.0882 38.2367C17.2877 38.2367 17.4494 38.1989 17.4494 38.1524C17.4494 38.1058 17.2877 38.0683 17.0882 38.0683C16.8888 38.0683 16.7271 38.1059 16.7271 38.1524C16.7271 38.1991 16.8888 38.2367 17.0882 38.2367Z" fill="#F2C618"/>
<path fill-rule="evenodd" clip-rule="evenodd" d="M19.0458 39.041C19.2452 39.041 19.407 38.9914 19.407 38.9303C19.407 38.8691 19.2452 38.8195 19.0458 38.8195C18.8465 38.8195 18.6848 38.8691 18.6848 38.9303C18.6848 38.9914 18.8463 39.041 19.0458 39.041Z" fill="#F2C618"/>
<path fill-rule="evenodd" clip-rule="evenodd" d="M17.0405 39.0459C17.24 39.0459 17.4017 38.9964 17.4017 38.9351C17.4017 38.8739 17.2399 38.8244 17.0405 38.8244C16.8411 38.8244 16.6794 38.8738 16.6794 38.9351C16.6794 38.9964 16.841 39.0459 17.0405 39.0459Z" fill="#F2C618"/>
<path fill-rule="evenodd" clip-rule="evenodd" d="M9.13496 34.8221C9.33446 34.8221 9.49608 34.7724 9.49608 34.7112C9.49608 34.6501 9.33446 34.6005 9.13496 34.6005C8.93546 34.6005 8.77383 34.6501 8.77383 34.7112C8.77383 34.7724 8.93556 34.8221 9.13496 34.8221Z" fill="#F2C618"/>
<path fill-rule="evenodd" clip-rule="evenodd" d="M11.5312 35.5215C11.7307 35.5215 11.8923 35.4718 11.8923 35.4108C11.8923 35.3496 11.7307 35.2999 11.5312 35.2999C11.3316 35.2999 11.17 35.3496 11.17 35.4108C11.17 35.4718 11.3317 35.5215 11.5312 35.5215Z" fill="#F2C618"/>
<path fill-rule="evenodd" clip-rule="evenodd" d="M13.9572 36.0591C14.1453 36.0591 14.2998 36.0255 14.3168 35.9827C14.2755 35.9592 14.2344 35.935 14.1935 35.911C14.1302 35.8982 14.0476 35.8905 13.9573 35.8905C13.7578 35.8905 13.5962 35.9283 13.5962 35.9748C13.5962 36.0214 13.7578 36.0591 13.9573 36.0591H13.9572Z" fill="#F2C618"/>
<path fill-rule="evenodd" clip-rule="evenodd" d="M10.3068 35.9801C10.5064 35.9801 10.6679 35.9423 10.6679 35.8958C10.6679 35.8491 10.5064 35.8115 10.3068 35.8115C10.1073 35.8115 9.9457 35.8492 9.9457 35.8958C9.9457 35.9424 10.1073 35.9801 10.3068 35.9801Z" fill="#F2C618"/>
<path fill-rule="evenodd" clip-rule="evenodd" d="M12.1289 36.4981C12.3282 36.4981 12.49 36.4604 12.49 36.4138C12.49 36.3672 12.3282 36.3295 12.1289 36.3295C11.9293 36.3295 11.7677 36.3673 11.7677 36.4138C11.7677 36.4604 11.9295 36.4981 12.1289 36.4981Z" fill="#F2C618"/>
<path fill-rule="evenodd" clip-rule="evenodd" d="M14.0866 37.3025C14.286 37.3025 14.4476 37.253 14.4476 37.1918C14.4476 37.1306 14.2861 37.081 14.0866 37.081C13.887 37.081 13.7254 37.1306 13.7254 37.1918C13.7254 37.253 13.8871 37.3025 14.0866 37.3025Z" fill="#F2C618"/>
<path fill-rule="evenodd" clip-rule="evenodd" d="M12.0811 37.3076C12.2805 37.3076 12.4421 37.2579 12.4421 37.1967C12.4421 37.1357 12.2804 37.086 12.0811 37.086C11.8816 37.086 11.7198 37.1357 11.7198 37.1967C11.7198 37.2579 11.8817 37.3076 12.0811 37.3076Z" fill="#F2C618"/>
<path fill-rule="evenodd" clip-rule="evenodd" d="M11.2724 34.3971C11.472 34.3971 11.6336 34.3475 11.6336 34.2863C11.6336 34.2252 11.472 34.1755 11.2724 34.1755C11.0731 34.1755 10.9113 34.225 10.9113 34.2863C10.9113 34.3475 11.0729 34.3971 11.2724 34.3971Z" fill="#F2C618"/>
<path fill-rule="evenodd" clip-rule="evenodd" d="M9.31473 32.6086C9.51426 32.6086 9.67597 32.5591 9.67597 32.4979C9.67597 32.4367 9.51426 32.3871 9.31473 32.3871C9.11532 32.3871 8.95373 32.4366 8.95373 32.4979C8.95373 32.5591 9.1152 32.6086 9.31473 32.6086Z" fill="#F2C618"/>
<path fill-rule="evenodd" clip-rule="evenodd" d="M5.12241 29.5736C5.32194 29.5736 5.48356 29.5239 5.48356 29.4627C5.48356 29.4016 5.32193 29.352 5.12241 29.352C4.92288 29.352 4.76128 29.4016 4.76128 29.4627C4.76128 29.5239 4.92303 29.5736 5.12241 29.5736Z" fill="#F2C618"/>
<path fill-rule="evenodd" clip-rule="evenodd" d="M7.51877 30.273C7.71817 30.273 7.87989 30.2234 7.87989 30.1623C7.87989 30.1011 7.71817 30.0514 7.51877 30.0514C7.31924 30.0514 7.15765 30.1011 7.15765 30.1623C7.15765 30.2234 7.31936 30.273 7.51877 30.273Z" fill="#F2C618"/>
<path fill-rule="evenodd" clip-rule="evenodd" d="M7.44875 28.143H7.45755C7.42807 28.0704 7.39883 27.9973 7.37045 27.9241C7.20862 27.935 7.08752 27.9792 7.08752 28.0322C7.08752 28.0933 7.24926 28.143 7.44864 28.143L7.44875 28.143Z" fill="#F2C618"/>
<path fill-rule="evenodd" clip-rule="evenodd" d="M6.29447 30.7315C6.49384 30.7315 6.65559 30.6938 6.65559 30.6473C6.65559 30.6006 6.49384 30.563 6.29447 30.563C6.09509 30.563 5.93334 30.6006 5.93334 30.6473C5.93334 30.6939 6.09506 30.7315 6.29447 30.7315Z" fill="#F2C618"/>
<path fill-rule="evenodd" clip-rule="evenodd" d="M8.11644 31.2498C8.31585 31.2498 8.47756 31.2121 8.47756 31.1655C8.47756 31.1188 8.31585 31.0813 8.11644 31.0813C7.91703 31.0813 7.75532 31.119 7.75532 31.1655C7.75532 31.2121 7.91706 31.2498 8.11644 31.2498Z" fill="#F2C618"/>
<path fill-rule="evenodd" clip-rule="evenodd" d="M8.06869 32.059C8.2681 32.059 8.42981 32.0095 8.42981 31.9483C8.42981 31.8872 8.2681 31.8375 8.06869 31.8375C7.86916 31.8375 7.70757 31.8872 7.70757 31.9483C7.70757 32.0095 7.86916 32.059 8.06869 32.059Z" fill="#F2C618"/>
<path fill-rule="evenodd" clip-rule="evenodd" d="M7.26004 29.1487C7.45944 29.1487 7.62104 29.099 7.62104 29.0378C7.62104 28.9767 7.45944 28.927 7.26004 28.927C7.06051 28.927 6.8988 28.9767 6.8988 29.0378C6.8988 29.099 7.06051 29.1487 7.26004 29.1487Z" fill="#F2C618"/>
<path fill-rule="evenodd" clip-rule="evenodd" d="M5.30233 27.3601C5.50171 27.3601 5.66345 27.3106 5.66345 27.2494C5.66345 27.1882 5.50171 27.1386 5.30233 27.1386C5.10295 27.1386 4.94118 27.188 4.94118 27.2494C4.94118 27.3106 5.10293 27.3601 5.30233 27.3601Z" fill="#F2C618"/>
<path fill-rule="evenodd" clip-rule="evenodd" d="M4.04782 24.617C4.24723 24.617 4.40895 24.5673 4.40895 24.5062C4.40895 24.445 4.24723 24.3953 4.04782 24.3953C3.84842 24.3953 3.68658 24.445 3.68658 24.5062C3.68658 24.5673 3.84833 24.617 4.04782 24.617Z" fill="#F2C618"/>
<path fill-rule="evenodd" clip-rule="evenodd" d="M6.44406 25.3164C6.50287 25.3164 6.55838 25.3121 6.60745 25.3044C6.59413 25.2371 6.5812 25.1694 6.5686 25.1017C6.52985 25.0973 6.48777 25.0949 6.44406 25.0949C6.24466 25.0949 6.08294 25.1446 6.08294 25.2057C6.08294 25.2668 6.24465 25.3165 6.44406 25.3165V25.3164Z" fill="#F2C618"/>
<path fill-rule="evenodd" clip-rule="evenodd" d="M6.31914 22.9661C6.14577 22.9742 6.01293 23.0204 6.01293 23.0758C6.01293 23.1326 6.15244 23.1795 6.33235 23.1858C6.32772 23.1128 6.32262 23.0397 6.31914 22.9663V22.9661Z" fill="#F2C618"/>
<path fill-rule="evenodd" clip-rule="evenodd" d="M5.21976 25.775C5.41926 25.775 5.58089 25.7372 5.58089 25.6906C5.58089 25.6439 5.41926 25.6063 5.21976 25.6063C5.02027 25.6063 4.85864 25.6441 4.85864 25.6906C4.85864 25.7372 5.02035 25.775 5.21976 25.775Z" fill="#F2C618"/>
<path fill-rule="evenodd" clip-rule="evenodd" d="M6.79861 26.1465C6.72612 26.162 6.68061 26.1842 6.68061 26.2089C6.68061 26.2373 6.74121 26.2625 6.83402 26.2778C6.82237 26.234 6.8099 26.1905 6.79861 26.1465Z" fill="#F2C618"/>
<path fill-rule="evenodd" clip-rule="evenodd" d="M6.99398 27.1024C7.02261 27.1024 7.05029 27.1013 7.07703 27.0994C7.05327 27.0267 7.02927 26.954 7.0067 26.8808H6.99398C6.79445 26.8808 6.63286 26.9305 6.63286 26.9916C6.63286 27.0527 6.79445 27.1024 6.99398 27.1024Z" fill="#F2C618"/>
<path fill-rule="evenodd" clip-rule="evenodd" d="M6.18533 24.1919C6.27623 24.1919 6.35931 24.1815 6.42277 24.1646C6.4155 24.1075 6.40968 24.0501 6.40303 23.9927C6.34255 23.9788 6.26708 23.9704 6.18522 23.9704C5.98581 23.9704 5.8241 24.0201 5.8241 24.0812C5.8241 24.1425 5.98581 24.192 6.18522 24.192L6.18533 24.1919Z" fill="#F2C618"/>
<path fill-rule="evenodd" clip-rule="evenodd" d="M4.2276 22.4036C4.42713 22.4036 4.58872 22.3539 4.58872 22.2928C4.58872 22.2317 4.42713 22.182 4.2276 22.182C4.02822 22.182 3.86648 22.2317 3.86648 22.2928C3.86648 22.3539 4.02822 22.4036 4.2276 22.4036Z" fill="#F2C618"/>
</g>
<defs>
<clipPath id="clip0_1_20">
<rect width="44.3641" height="44.3641" fill="white"/>
</clipPath>
</defs>
<style>
        path { fill: #000; }
        @media (prefers-color-scheme: dark) {
            path { fill: #FFF; }
        }
    </style>
</svg>
